<?xml version="1.0" encoding="utf-8"?><!DOCTYPE svg  PUBLIC '-//W3C//DTD SVG 1.1//EN'  'http://www.w3.org/Graphics/SVG/1.1/DTD/svg11.dtd'><svg enable_background="new 0 0 650 399" height="399px" pretty_print="False" style="stroke-linejoin: round; stroke:#000; fill: none;" version="1.1" viewBox="0 0 650 399" width="650px" xmlns="http://www.w3.org/2000/svg" xmlns:xlink="http://www.w3.org/1999/xlink"><defs><style type="text/css"><![CDATA[path { fill-rule: evenodd; }]]></style></defs><metadata><views><view h="399.335504672" padding="0.05" w="650"><proj id="laea" lat0="-9.1531645" lon0="-70.7313774573"/><bbox h="58.26" w="95.06" x="957.66" y="971.12"/></view></views></metadata><g class="" id="rodovias"><path d="M127.4,69.0L128.5,78.4 " data-km-final="173.9" data-km-inicial="163.1" data-qtd-acidentes="0" data-qtd-acidentes-2007="" data-qtd-acidentes-2008="" data-qtd-acidentes-2009="" data-qtd-acidentes-2010="" data-qtd-acidentes-2011="" data-qtd-acidentes-2012="" data-rodovia="BR-307"/><path d="M127.3,67.9L127.4,69.0 " data-km-final="175.1" data-km-inicial="173.9" data-qtd-acidentes="0" data-qtd-acidentes-2007="" data-qtd-acidentes-2008="" data-qtd-acidentes-2009="" data-qtd-acidentes-2010="" data-qtd-acidentes-2011="" data-qtd-acidentes-2012="" data-rodovia="BR-307"/><path d="M123.6,117.5L117.4,179.3 " data-km-final="95.1" data-km-inicial="0.0" data-qtd-acidentes="0" data-qtd-acidentes-2007="" data-qtd-acidentes-2008="" data-qtd-acidentes-2009="" data-qtd-acidentes-2010="" data-qtd-acidentes-2011="" data-qtd-acidentes-2012="" data-rodovia="BR-307"/><path d="M128.5,78.4L128.5,78.4L126.1,95.6L123.6,117.5 " data-km-final="163.1" data-km-inicial="95.1" data-qtd-acidentes="0" data-qtd-acidentes-2007="" data-qtd-acidentes-2008="" data-qtd-acidentes-2009="" data-qtd-acidentes-2010="" data-qtd-acidentes-2011="" data-qtd-acidentes-2012="" data-rodovia="BR-307"/><path d="M464.2,350.4L466.9,348.9L467.6,347.4 " data-km-final="275.0" data-km-inicial="267.7" data-qtd-acidentes="10" data-qtd-acidentes-2007="1" data-qtd-acidentes-2008="1" data-qtd-acidentes-2009="2" data-qtd-acidentes-2010="4" data-qtd-acidentes-2011="1" data-qtd-acidentes-2012="1" data-rodovia="BR-317"/><path d="M453.9,354.4L447.4,348.2L444.8,347.8L436.8,348.7 " data-km-final="324.0" data-km-inicial="293.6" data-qtd-acidentes="8" data-qtd-acidentes-2007="NULL" data-qtd-acidentes-2008="4" data-qtd-acidentes-2009="2" data-qtd-acidentes-2010="2" data-qtd-acidentes-2011="NULL" data-qtd-acidentes-2012="NULL" data-rodovia="BR-317"/><path d="M496.9,326.5L494.3,325.2L490.0,325.5 " data-km-final="222.4" data-km-inicial="212.8" data-qtd-acidentes="17" data-qtd-acidentes-2007="1" data-qtd-acidentes-2008="1" data-qtd-acidentes-2009="3" data-qtd-acidentes-2010="7" data-qtd-acidentes-2011="2" data-qtd-acidentes-2012="3" data-rodovia="BR-317"/><path d="M480.0,329.9L478.0,335.0L477.8,336.7L472.9,343.0 " data-km-final="258.0" data-km-inicial="237.4" data-qtd-acidentes="17" data-qtd-acidentes-2007="6" data-qtd-acidentes-2008="1" data-qtd-acidentes-2009="2" data-qtd-acidentes-2010="3" data-qtd-acidentes-2011="4" data-qtd-acidentes-2012="1" data-rodovia="BR-317"/><path d="M490.0,325.5L489.0,325.7L488.7,325.8L487.8,326.0 " data-km-final="225.4" data-km-inicial="222.4" data-qtd-acidentes="0" data-qtd-acidentes-2007="" data-qtd-acidentes-2008="" data-qtd-acidentes-2009="" data-qtd-acidentes-2010="" data-qtd-acidentes-2011="" data-qtd-acidentes-2012="" data-rodovia="BR-317"/><path d="M526.0,318.5L523.7,318.9L520.7,319.2 " data-km-final="176.3" data-km-inicial="169.2" data-qtd-acidentes="8" data-qtd-acidentes-2007="NULL" data-qtd-acidentes-2008="3" data-qtd-acidentes-2009="1" data-qtd-acidentes-2010="3" data-qtd-acidentes-2011="1" data-qtd-acidentes-2012="NULL" data-rodovia="BR-317"/><path d="M541.0,287.1L541.6,297.1L538.9,303.4L539.9,306.9 " data-km-final="128.4" data-km-inicial="97.4" data-qtd-acidentes="44" data-qtd-acidentes-2007="7" data-qtd-acidentes-2008="6" data-qtd-acidentes-2009="10" data-qtd-acidentes-2010="8" data-qtd-acidentes-2011="5" data-qtd-acidentes-2012="8" data-rodovia="BR-317"/><path d="M436.8,348.7L429.5,343.9L401.9,336.5L385.8,347.5 " data-km-final="406.3" data-km-inicial="324.0" data-qtd-acidentes="11" data-qtd-acidentes-2007="1" data-qtd-acidentes-2008="2" data-qtd-acidentes-2009="3" data-qtd-acidentes-2010="2" data-qtd-acidentes-2011="2" data-qtd-acidentes-2012="1" data-rodovia="BR-317"/><path d="M514.0,319.9L511.6,321.6L509.9,322.0L506.7,325.4 " data-km-final="198.2" data-km-inicial="185.6" data-qtd-acidentes="19" data-qtd-acidentes-2007="2" data-qtd-acidentes-2008="2" data-qtd-acidentes-2009="4" data-qtd-acidentes-2010="4" data-qtd-acidentes-2011="5" data-qtd-acidentes-2012="2" data-rodovia="BR-317"/><path d="M539.9,306.9L540.5,307.7L542.1,309.4L542.6,310.4 " data-km-final="134.4" data-km-inicial="128.4" data-qtd-acidentes="22" data-qtd-acidentes-2007="7" data-qtd-acidentes-2008="1" data-qtd-acidentes-2009="3" data-qtd-acidentes-2010="7" data-qtd-acidentes-2011="3" data-qtd-acidentes-2012="1" data-rodovia="BR-317"/><path d="M464.2,350.4L461.7,353.2L460.9,354.5L454.5,355.3 " data-km-final="292.1" data-km-inicial="275.0" data-qtd-acidentes="23" data-qtd-acidentes-2007="6" data-qtd-acidentes-2008="1" data-qtd-acidentes-2009="3" data-qtd-acidentes-2010="6" data-qtd-acidentes-2011="6" data-qtd-acidentes-2012="1" data-rodovia="BR-317"/><path d="M538.7,283.2L540.8,285.8L541.0,287.1 " data-km-final="97.4" data-km-inicial="90.7" data-qtd-acidentes="7" data-qtd-acidentes-2007="NULL" data-qtd-acidentes-2008="1" data-qtd-acidentes-2009="NULL" data-qtd-acidentes-2010="2" data-qtd-acidentes-2011="NULL" data-qtd-acidentes-2012="4" data-rodovia="BR-317"/><path d="M542.6,310.4L543.4,314.0L542.5,315.1L542.3,317.9 " data-km-final="145.1" data-km-inicial="134.4" data-qtd-acidentes="22" data-qtd-acidentes-2007="7" data-qtd-acidentes-2008="1" data-qtd-acidentes-2009="3" data-qtd-acidentes-2010="7" data-qtd-acidentes-2011="3" data-qtd-acidentes-2012="1" data-rodovia="BR-317"/><path d="M487.8,326.0L480.4,329.0L480.0,329.9 " data-km-final="237.4" data-km-inicial="225.4" data-qtd-acidentes="11" data-qtd-acidentes-2007="3" data-qtd-acidentes-2008="2" data-qtd-acidentes-2009="3" data-qtd-acidentes-2010="1" data-qtd-acidentes-2011="NULL" data-qtd-acidentes-2012="2" data-rodovia="BR-317"/><path d="M516.4,319.4L515.9,319.5L514.3,319.8L514.0,319.9 " data-km-final="185.6" data-km-inicial="182.3" data-qtd-acidentes="4" data-qtd-acidentes-2007="NULL" data-qtd-acidentes-2008="1" data-qtd-acidentes-2009="1" data-qtd-acidentes-2010="1" data-qtd-acidentes-2011="NULL" data-qtd-acidentes-2012="1" data-rodovia="BR-317"/><path d="M454.5,355.3L453.9,354.7L453.9,354.4 " data-km-final="293.6" data-km-inicial="292.1" data-qtd-acidentes="2" data-qtd-acidentes-2007="NULL" data-qtd-acidentes-2008="1" data-qtd-acidentes-2009="NULL" data-qtd-acidentes-2010="NULL" data-qtd-acidentes-2011="1" data-qtd-acidentes-2012="NULL" data-rodovia="BR-317"/><path d="M542.3,317.9L538.6,320.0L530.4,320.0L526.0,318.5 " data-km-final="169.2" data-km-inicial="145.1" data-qtd-acidentes="33" data-qtd-acidentes-2007="6" data-qtd-acidentes-2008="6" data-qtd-acidentes-2009="6" data-qtd-acidentes-2010="6" data-qtd-acidentes-2011="4" data-qtd-acidentes-2012="5" data-rodovia="BR-317"/><path d="M506.7,325.4L502.9,328.1L500.1,328.1L496.9,326.5 " data-km-final="212.8" data-km-inicial="198.2" data-qtd-acidentes="24" data-qtd-acidentes-2007="5" data-qtd-acidentes-2008="6" data-qtd-acidentes-2009="4" data-qtd-acidentes-2010="5" data-qtd-acidentes-2011="1" data-qtd-acidentes-2012="3" data-rodovia="BR-317"/><path d="M520.7,319.2L519.1,319.3L516.4,319.4 " data-km-final="182.3" data-km-inicial="176.3" data-qtd-acidentes="5" data-qtd-acidentes-2007="2" data-qtd-acidentes-2008="NULL" data-qtd-acidentes-2009="1" data-qtd-acidentes-2010="1" data-qtd-acidentes-2011="NULL" data-qtd-acidentes-2012="1" data-rodovia="BR-317"/><path d="M468.0,346.0L467.8,346.8L467.6,347.4 " data-km-final="267.7" data-km-inicial="265.8" data-qtd-acidentes="10" data-qtd-acidentes-2007="1" data-qtd-acidentes-2008="2" data-qtd-acidentes-2009="2" data-qtd-acidentes-2010="2" data-qtd-acidentes-2011="2" data-qtd-acidentes-2012="1" data-rodovia="BR-317"/><path d="M472.9,343.0L470.8,343.7L469.0,345.0L468.0,346.0 " data-km-final="265.8" data-km-inicial="258.0" data-qtd-acidentes="10" data-qtd-acidentes-2007="1" data-qtd-acidentes-2008="2" data-qtd-acidentes-2009="2" data-qtd-acidentes-2010="2" data-qtd-acidentes-2011="2" data-qtd-acidentes-2012="1" data-rodovia="BR-317"/><path d="M572.0,242.1L571.3,245.0L564.2,254.8 " data-km-final="29.4" data-km-inicial="0.0" data-qtd-acidentes="19" data-qtd-acidentes-2007="7" data-qtd-acidentes-2008="1" data-qtd-acidentes-2009="3" data-qtd-acidentes-2010="3" data-qtd-acidentes-2011="NULL" data-qtd-acidentes-2012="5" data-rodovia="BR-317"/><path d="M550.7,275.3L544.8,278.6L543.3,278.0L538.7,283.2 " data-km-final="90.7" data-km-inicial="68.7" data-qtd-acidentes="25" data-qtd-acidentes-2007="4" data-qtd-acidentes-2008="7" data-qtd-acidentes-2009="2" data-qtd-acidentes-2010="2" data-qtd-acidentes-2011="3" data-qtd-acidentes-2012="7" data-rodovia="BR-317"/><path d="M564.2,254.8L558.8,263.9L550.7,275.3 " data-km-final="68.7" data-km-inicial="29.4" data-qtd-acidentes="26" data-qtd-acidentes-2007="4" data-qtd-acidentes-2008="3" data-qtd-acidentes-2009="3" data-qtd-acidentes-2010="1" data-qtd-acidentes-2011="10" data-qtd-acidentes-2012="5" data-rodovia="BR-317"/><path d="M407.0,170.7L410.4,169.8L411.4,170.1 " data-km-final="6.4" data-km-inicial="0.0" data-qtd-acidentes="11" data-qtd-acidentes-2007="2" data-qtd-acidentes-2008="1" data-qtd-acidentes-2009="1" data-qtd-acidentes-2010="3" data-qtd-acidentes-2011="2" data-qtd-acidentes-2012="2" data-rodovia="BR-364"/><path d="M550.7,275.3L544.7,270.8L541.4,270.5L532.8,270.2 " data-km-final="124.8" data-km-inicial="99.2" data-qtd-acidentes="680" data-qtd-acidentes-2007="79" data-qtd-acidentes-2008="104" data-qtd-acidentes-2009="93" data-qtd-acidentes-2010="119" data-qtd-acidentes-2011="157" data-qtd-acidentes-2012="126" data-rodovia="BR-364"/><path d="M606.7,257.9L600.9,264.4L597.7,264.7 " data-km-final="31.1" data-km-inicial="15.0" data-qtd-acidentes="38" data-qtd-acidentes-2007="7" data-qtd-acidentes-2008="6" data-qtd-acidentes-2009="4" data-qtd-acidentes-2010="10" data-qtd-acidentes-2011="6" data-qtd-acidentes-2012="4" data-rodovia="BR-364"/><path d="M523.5,258.3L522.4,256.6L522.1,256.2L518.5,253.9 " data-km-final="159.1" data-km-inicial="150.1" data-qtd-acidentes="87" data-qtd-acidentes-2007="7" data-qtd-acidentes-2008="17" data-qtd-acidentes-2009="12" data-qtd-acidentes-2010="19" data-qtd-acidentes-2011="15" data-qtd-acidentes-2012="17" data-rodovia="BR-364"/><path d="M550.7,275.3L574.0,274.9L581.9,270.1 " data-km-final="99.2" data-km-inicial="53.3" data-qtd-acidentes="124" data-qtd-acidentes-2007="15" data-qtd-acidentes-2008="14" data-qtd-acidentes-2009="18" data-qtd-acidentes-2010="23" data-qtd-acidentes-2011="29" data-qtd-acidentes-2012="25" data-rodovia="BR-364"/><path d="M532.8,270.2L528.5,269.5L528.9,268.0 " data-km-final="135.2" data-km-inicial="124.8" data-qtd-acidentes="853" data-qtd-acidentes-2007="97" data-qtd-acidentes-2008="100" data-qtd-acidentes-2009="125" data-qtd-acidentes-2010="156" data-qtd-acidentes-2011="185" data-qtd-acidentes-2012="187" data-rodovia="BR-364"/><path d="M528.9,268.0L528.6,267.3L528.0,266.1L527.9,265.9 " data-km-final="138.2" data-km-inicial="135.2" data-qtd-acidentes="853" data-qtd-acidentes-2007="97" data-qtd-acidentes-2008="100" data-qtd-acidentes-2009="125" data-qtd-acidentes-2010="156" data-qtd-acidentes-2011="185" data-qtd-acidentes-2012="187" data-rodovia="BR-364"/><path d="M518.5,253.9L517.3,253.2L509.1,247.9L505.5,245.7 " data-km-final="179.4" data-km-inicial="159.1" data-qtd-acidentes="87" data-qtd-acidentes-2007="7" data-qtd-acidentes-2008="17" data-qtd-acidentes-2009="12" data-qtd-acidentes-2010="19" data-qtd-acidentes-2011="15" data-qtd-acidentes-2012="17" data-rodovia="BR-364"/><path d="M597.7,264.7L594.4,265.1L584.8,268.7L581.9,270.1 " data-km-final="53.3" data-km-inicial="31.1" data-qtd-acidentes="38" data-qtd-acidentes-2007="6" data-qtd-acidentes-2008="6" data-qtd-acidentes-2009="6" data-qtd-acidentes-2010="4" data-qtd-acidentes-2011="10" data-qtd-acidentes-2012="6" data-rodovia="BR-364"/><path d="M180.9,82.8L130.5,76.9L128.5,78.4 " data-km-final="764.1" data-km-inicial="692.3" data-qtd-acidentes="1" data-qtd-acidentes-2007="NULL" data-qtd-acidentes-2008="NULL" data-qtd-acidentes-2009="NULL" data-qtd-acidentes-2010="NULL" data-qtd-acidentes-2011="NULL" data-qtd-acidentes-2012="1" data-rodovia="BR-364"/><path d="M505.5,245.7L503.0,244.0L474.3,205.6L462.1,192.6 " data-km-final="274.3" data-km-inicial="179.4" data-qtd-acidentes="133" data-qtd-acidentes-2007="17" data-qtd-acidentes-2008="28" data-qtd-acidentes-2009="15" data-qtd-acidentes-2010="29" data-qtd-acidentes-2011="24" data-qtd-acidentes-2012="20" data-rodovia="BR-364"/><path d="M527.9,265.9L525.1,261.2L523.5,258.3 " data-km-final="150.1" data-km-inicial="138.2" data-qtd-acidentes="163" data-qtd-acidentes-2007="27" data-qtd-acidentes-2008="21" data-qtd-acidentes-2009="28" data-qtd-acidentes-2010="26" data-qtd-acidentes-2011="29" data-qtd-acidentes-2012="32" data-rodovia="BR-364"/><path d="M64.9,87.3L46.9,94.8 " data-km-final="880.7" data-km-inicial="853.7" data-qtd-acidentes="0" data-qtd-acidentes-2007="" data-qtd-acidentes-2008="" data-qtd-acidentes-2009="" data-qtd-acidentes-2010="" data-qtd-acidentes-2011="" data-qtd-acidentes-2012="" data-rodovia="BR-364"/><path d="M102.9,73.1L64.9,87.3 " data-km-final="853.7" data-km-inicial="807.7" data-qtd-acidentes="0" data-qtd-acidentes-2007="" data-qtd-acidentes-2008="" data-qtd-acidentes-2009="" data-qtd-acidentes-2010="" data-qtd-acidentes-2011="" data-qtd-acidentes-2012="" data-rodovia="BR-364"/><path d="M394.1,163.6L375.0,153.4L372.2,152.0L363.7,149.0 " data-km-final="435.5" data-km-inicial="386.3" data-qtd-acidentes="1" data-qtd-acidentes-2007="NULL" data-qtd-acidentes-2008="NULL" data-qtd-acidentes-2009="NULL" data-qtd-acidentes-2010="NULL" data-qtd-acidentes-2011="NULL" data-qtd-acidentes-2012="1" data-rodovia="BR-364"/><path d="M227.1,96.1L210.8,90.6L208.4,90.0L180.9,82.8 " data-km-final="692.3" data-km-inicial="629.3" data-qtd-acidentes="0" data-qtd-acidentes-2007="" data-qtd-acidentes-2008="" data-qtd-acidentes-2009="" data-qtd-acidentes-2010="" data-qtd-acidentes-2011="" data-qtd-acidentes-2012="" data-rodovia="BR-364"/><path d="M288.4,112.7L288.5,112.7L288.6,112.7L288.7,112.7 " data-km-final="544.0" data-km-inicial="543.6" data-qtd-acidentes="0" data-qtd-acidentes-2007="" data-qtd-acidentes-2008="" data-qtd-acidentes-2009="" data-qtd-acidentes-2010="" data-qtd-acidentes-2011="" data-qtd-acidentes-2012="" data-rodovia="BR-364"/><path d="M416.1,178.3L412.7,176.2L410.5,174.8 " data-km-final="339.5" data-km-inicial="331.5" data-qtd-acidentes="31" data-qtd-acidentes-2007="4" data-qtd-acidentes-2008="4" data-qtd-acidentes-2009="5" data-qtd-acidentes-2010="3" data-qtd-acidentes-2011="10" data-qtd-acidentes-2012="5" data-rodovia="BR-364"/><path d="M285.1,111.8L259.7,107.1L242.7,103.6L227.1,96.1 " data-km-final="629.3" data-km-inicial="548.2" data-qtd-acidentes="0" data-qtd-acidentes-2007="" data-qtd-acidentes-2008="" data-qtd-acidentes-2009="" data-qtd-acidentes-2010="" data-qtd-acidentes-2011="" data-qtd-acidentes-2012="" data-rodovia="BR-364"/><path d="M452.4,187.5L448.1,185.6L425.4,180.8L416.1,178.3 " data-km-final="331.5" data-km-inicial="274.3" data-qtd-acidentes="31" data-qtd-acidentes-2007="4" data-qtd-acidentes-2008="4" data-qtd-acidentes-2009="5" data-qtd-acidentes-2010="3" data-qtd-acidentes-2011="10" data-qtd-acidentes-2012="5" data-rodovia="BR-364"/><path d="M336.2,136.9L332.0,129.6L320.6,114.4 " data-km-final="499.3" data-km-inicial="470.8" data-qtd-acidentes="1" data-qtd-acidentes-2007="NULL" data-qtd-acidentes-2008="NULL" data-qtd-acidentes-2009="NULL" data-qtd-acidentes-2010="NULL" data-qtd-acidentes-2011="NULL" data-qtd-acidentes-2012="1" data-rodovia="BR-364"/><path d="M363.7,149.0L356.5,146.6L356.1,146.4 " data-km-final="447.1" data-km-inicial="435.5" data-qtd-acidentes="1" data-qtd-acidentes-2007="NULL" data-qtd-acidentes-2008="NULL" data-qtd-acidentes-2009="NULL" data-qtd-acidentes-2010="NULL" data-qtd-acidentes-2011="NULL" data-qtd-acidentes-2012="1" data-rodovia="BR-364"/><path d="M288.7,112.7L288.8,112.7L288.8,112.7L288.9,112.7 " data-km-final="543.6" data-km-inicial="543.3" data-qtd-acidentes="0" data-qtd-acidentes-2007="" data-qtd-acidentes-2008="" data-qtd-acidentes-2009="" data-qtd-acidentes-2010="" data-qtd-acidentes-2011="" data-qtd-acidentes-2012="" data-rodovia="BR-364"/><path d="M288.9,112.7L317.1,113.4L320.6,114.4 " data-km-final="543.3" data-km-inicial="499.3" data-qtd-acidentes="0" data-qtd-acidentes-2007="" data-qtd-acidentes-2008="" data-qtd-acidentes-2009="" data-qtd-acidentes-2010="" data-qtd-acidentes-2011="" data-qtd-acidentes-2012="" data-rodovia="BR-364"/><path d="M410.5,174.8L408.7,173.6L408.2,172.7L407.0,170.7 " data-km-final="346.3" data-km-inicial="339.5" data-qtd-acidentes="31" data-qtd-acidentes-2007="4" data-qtd-acidentes-2008="4" data-qtd-acidentes-2009="5" data-qtd-acidentes-2010="3" data-qtd-acidentes-2011="10" data-qtd-acidentes-2012="5" data-rodovia="BR-364"/><path d="M356.1,146.4L338.0,140.1L336.2,136.9 " data-km-final="470.8" data-km-inicial="447.1" data-qtd-acidentes="1" data-qtd-acidentes-2007="NULL" data-qtd-acidentes-2008="NULL" data-qtd-acidentes-2009="NULL" data-qtd-acidentes-2010="NULL" data-qtd-acidentes-2011="NULL" data-qtd-acidentes-2012="1" data-rodovia="BR-364"/><path d="M396.1,164.6L395.2,164.2L395.1,164.1L394.1,163.6 " data-km-final="386.3" data-km-inicial="380.2" data-qtd-acidentes="5" data-qtd-acidentes-2007="NULL" data-qtd-acidentes-2008="NULL" data-qtd-acidentes-2009="NULL" data-qtd-acidentes-2010="NULL" data-qtd-acidentes-2011="NULL" data-qtd-acidentes-2012="5" data-rodovia="BR-364"/><path d="M285.1,111.8L286.7,111.8L286.8,111.8L288.4,112.7 " data-km-final="548.2" data-km-inicial="544.0" data-qtd-acidentes="0" data-qtd-acidentes-2007="" data-qtd-acidentes-2008="" data-qtd-acidentes-2009="" data-qtd-acidentes-2010="" data-qtd-acidentes-2011="" data-qtd-acidentes-2012="" data-rodovia="BR-364"/><path d="M407.0,170.7L404.1,168.9L396.1,164.6 " data-km-final="380.2" data-km-inicial="346.3" data-qtd-acidentes="5" data-qtd-acidentes-2007="NULL" data-qtd-acidentes-2008="NULL" data-qtd-acidentes-2009="NULL" data-qtd-acidentes-2010="NULL" data-qtd-acidentes-2011="NULL" data-qtd-acidentes-2012="5" data-rodovia="BR-364"/><path d="M320.6,114.4L320.8,112.4 " data-km-final="4.0" data-km-inicial="0.0" data-qtd-acidentes="0" data-qtd-acidentes-2007="" data-qtd-acidentes-2008="" data-qtd-acidentes-2009="" data-qtd-acidentes-2010="" data-qtd-acidentes-2011="" data-qtd-acidentes-2012="" data-rodovia="BR-409"/><path d="M320.6,114.4L318.9,129.0 " data-km-final="32.0" data-km-inicial="4.0" data-qtd-acidentes="0" data-qtd-acidentes-2007="" data-qtd-acidentes-2008="" data-qtd-acidentes-2009="" data-qtd-acidentes-2010="" data-qtd-acidentes-2011="" data-qtd-acidentes-2012="" data-rodovia="BR-409"/><path d="M318.9,129.0L312.6,185.5 " data-km-final="122.0" data-km-inicial="32.0" data-qtd-acidentes="0" data-qtd-acidentes-2007="" data-qtd-acidentes-2008="" data-qtd-acidentes-2009="" data-qtd-acidentes-2010="" data-qtd-acidentes-2011="" data-qtd-acidentes-2012="" data-rodovia="BR-409"/><path d="M312.6,185.5L310.8,220.5 " data-km-final="152.0" data-km-inicial="122.0" data-qtd-acidentes="0" data-qtd-acidentes-2007="" data-qtd-acidentes-2008="" data-qtd-acidentes-2009="" data-qtd-acidentes-2010="" data-qtd-acidentes-2011="" data-qtd-acidentes-2012="" data-rodovia="BR-409"/><path d="M102.9,73.1L104.2,69.3L112.7,70.6 " data-km-final="807.7" data-km-inicial="789.7" data-qtd-acidentes="0" data-qtd-acidentes-2007="" data-qtd-acidentes-2008="" data-qtd-acidentes-2009="" data-qtd-acidentes-2010="" data-qtd-acidentes-2011="" data-qtd-acidentes-2012="" data-rodovia="AC-405"/><path d="M128.5,78.4L123.0,77.2L116.6,73.9L115.3,71.4 " data-km-final="786.1" data-km-inicial="764.1" data-qtd-acidentes="0" data-qtd-acidentes-2007="" data-qtd-acidentes-2008="" data-qtd-acidentes-2009="" data-qtd-acidentes-2010="" data-qtd-acidentes-2011="" data-qtd-acidentes-2012="" data-rodovia="AC-407"/><path d="M112.7,70.6L113.7,70.9L115.3,71.4 " data-km-final="789.7" data-km-inicial="786.1" data-qtd-acidentes="0" data-qtd-acidentes-2007="" data-qtd-acidentes-2008="" data-qtd-acidentes-2009="" data-qtd-acidentes-2010="" data-qtd-acidentes-2011="" data-qtd-acidentes-2012="" data-rodovia="AC-407"/></g><g class="estado" id="estado"><path d="M619.7,263.9L605.2,257.1L458.6,191.0L318.1,110.9L134.8,67.9L92.9,49.7L43.1,29.5L45.1,34.9L48.5,49.4L36.3,54.5L30.3,65.6L50.5,85.2L46.4,94.3L59.5,106.8L81.9,145.7L82.7,151.9L108.9,187.4L108.0,194.7L93.0,215.7L97.9,218.0L142.0,219.6L149.0,221.9L169.0,246.7L169.6,266.0L186.6,273.2L216.5,273.2L246.4,270.1L264.5,259.0L305.4,223.2L296.9,267.0L295.0,342.9L308.9,357.1L316.0,359.8L355.5,348.6L368.4,351.4L418.5,353.3L451.5,367.9L485.7,350.8L502.0,330.9L508.2,328.7L532.6,331.7L533.9,324.6L564.1,300.7L583.9,294.8L602.5,275.2L618.2,265.6L619.7,263.9Z " data-uf="AC"/></g><g class="vizinho" id="vizinhos"><path d="M43.1,29.5L92.9,49.7L134.8,67.9L318.1,110.9L458.6,191.0L605.2,257.1L608.0,253.2L628.4,245.9L640.4,227.7L650.0,224.4L650.0,0.0L59.8,0.0L46.6,16.0L43.4,25.1L43.1,29.5Z " data-uf="AM"/><path d="M605.2,257.1L619.7,263.9L625.1,263.2L632.3,261.9L641.9,260.0L650.0,257.8L650.0,224.4L640.4,227.7L628.4,245.9L608.0,253.2L605.2,257.1Z " data-uf="RO"/></g></svg>