<?xml version="1.0" encoding="utf-8"?><!DOCTYPE svg  PUBLIC '-//W3C//DTD SVG 1.1//EN'  'http://www.w3.org/Graphics/SVG/1.1/DTD/svg11.dtd'><svg enable_background="new 0 0 650 398" height="398px" pretty_print="False" style="stroke-linejoin: round; stroke:#000; fill: none;" version="1.1" viewBox="0 0 650 398" width="650px" xmlns="http://www.w3.org/2000/svg" xmlns:xlink="http://www.w3.org/1999/xlink"><defs><style type="text/css"><![CDATA[path { fill-rule: evenodd; }]]></style></defs><metadata><views><view h="398.177566005" padding="0.05" w="650"><proj id="laea" lat0="-9.62352411028" lon0="-36.7324987652"/><bbox h="24.16" w="39.54" x="980.57" y="987.82"/></view></views></metadata><g class="" id="rodovias"><path d="M301.8,317.3L300.4,313.9L300.3,312.8 " data-km-final="247.8" data-km-inicial="244.7" data-qtd-acidentes="70" data-qtd-acidentes-2007="11" data-qtd-acidentes-2008="9" data-qtd-acidentes-2009="14" data-qtd-acidentes-2010="12" data-qtd-acidentes-2011="12" data-qtd-acidentes-2012="12" data-rodovia="BR-101"/><path d="M538.5,54.2L538.8,53.4L539.4,51.2 " data-km-final="2.6" data-km-inicial="1.0" data-qtd-acidentes="26" data-qtd-acidentes-2007="3" data-qtd-acidentes-2008="6" data-qtd-acidentes-2009="3" data-qtd-acidentes-2010="6" data-qtd-acidentes-2011="4" data-qtd-acidentes-2012="4" data-rodovia="BR-101"/><path d="M532.0,64.3L532.9,62.3L538.4,58.8 " data-km-final="10.2" data-km-inicial="5.3" data-qtd-acidentes="74" data-qtd-acidentes-2007="9" data-qtd-acidentes-2008="9" data-qtd-acidentes-2009="8" data-qtd-acidentes-2010="10" data-qtd-acidentes-2011="23" data-qtd-acidentes-2012="15" data-rodovia="BR-101"/><path d="M459.6,200.0L464.6,194.3L465.4,192.4L469.2,192.6 " data-km-final="112.3" data-km-inicial="104.1" data-qtd-acidentes="286" data-qtd-acidentes-2007="55" data-qtd-acidentes-2008="37" data-qtd-acidentes-2009="76" data-qtd-acidentes-2010="39" data-qtd-acidentes-2011="38" data-qtd-acidentes-2012="40" data-rodovia="BR-101"/><path d="M511.9,102.9L516.8,89.1L527.0,81.9L532.0,64.3 " data-km-final="37.4" data-km-inicial="10.2" data-qtd-acidentes="352" data-qtd-acidentes-2007="71" data-qtd-acidentes-2008="50" data-qtd-acidentes-2009="57" data-qtd-acidentes-2010="58" data-qtd-acidentes-2011="63" data-qtd-acidentes-2012="52" data-rodovia="BR-101"/><path d="M458.9,210.4L461.3,207.9L459.6,200.0 " data-km-final="119.1" data-km-inicial="112.3" data-qtd-acidentes="222" data-qtd-acidentes-2007="44" data-qtd-acidentes-2008="42" data-qtd-acidentes-2009="53" data-qtd-acidentes-2010="25" data-qtd-acidentes-2011="28" data-qtd-acidentes-2012="30" data-rodovia="BR-101"/><path d="M471.7,188.5L474.1,184.0L477.5,179.6L481.7,175.9 " data-km-final="101.2" data-km-inicial="92.0" data-qtd-acidentes="104" data-qtd-acidentes-2007="22" data-qtd-acidentes-2008="15" data-qtd-acidentes-2009="17" data-qtd-acidentes-2010="12" data-qtd-acidentes-2011="17" data-qtd-acidentes-2012="21" data-rodovia="BR-101"/><path d="M499.2,148.4L501.7,133.8L514.2,124.2 " data-km-final="70.5" data-km-inicial="51.8" data-qtd-acidentes="198" data-qtd-acidentes-2007="27" data-qtd-acidentes-2008="37" data-qtd-acidentes-2009="30" data-qtd-acidentes-2010="34" data-qtd-acidentes-2011="30" data-qtd-acidentes-2012="38" data-rodovia="BR-101"/><path d="M514.2,124.2L508.6,115.8L511.2,107.2L511.9,102.9 " data-km-final="51.8" data-km-inicial="37.4" data-qtd-acidentes="236" data-qtd-acidentes-2007="33" data-qtd-acidentes-2008="38" data-qtd-acidentes-2009="34" data-qtd-acidentes-2010="28" data-qtd-acidentes-2011="47" data-qtd-acidentes-2012="55" data-rodovia="BR-101"/><path d="M498.3,162.9L497.9,153.8L499.1,149.7L499.2,148.4 " data-km-final="78.9" data-km-inicial="70.5" data-qtd-acidentes="152" data-qtd-acidentes-2007="16" data-qtd-acidentes-2008="22" data-qtd-acidentes-2009="21" data-qtd-acidentes-2010="24" data-qtd-acidentes-2011="30" data-qtd-acidentes-2012="39" data-rodovia="BR-101"/><path d="M357.1,266.8L388.3,253.2L397.4,257.5L410.3,255.8 " data-km-final="200.1" data-km-inicial="164.2" data-qtd-acidentes="520" data-qtd-acidentes-2007="87" data-qtd-acidentes-2008="72" data-qtd-acidentes-2009="73" data-qtd-acidentes-2010="99" data-qtd-acidentes-2011="88" data-qtd-acidentes-2012="101" data-rodovia="BR-101"/><path d="M300.3,312.8L313.8,298.5L323.9,296.7 " data-km-final="244.7" data-km-inicial="226.6" data-qtd-acidentes="220" data-qtd-acidentes-2007="42" data-qtd-acidentes-2008="46" data-qtd-acidentes-2009="35" data-qtd-acidentes-2010="26" data-qtd-acidentes-2011="34" data-qtd-acidentes-2012="37" data-rodovia="BR-101"/><path d="M410.3,255.8L438.5,253.7L436.8,246.6L442.3,237.4 " data-km-final="164.2" data-km-inicial="137.7" data-qtd-acidentes="396" data-qtd-acidentes-2007="46" data-qtd-acidentes-2008="68" data-qtd-acidentes-2009="74" data-qtd-acidentes-2010="81" data-qtd-acidentes-2011="65" data-qtd-acidentes-2012="61" data-rodovia="BR-101"/><path d="M539.4,51.2L539.5,50.9L540.1,49.9L540.1,49.6 " data-km-final="1.0" data-km-inicial="0.0" data-qtd-acidentes="17" data-qtd-acidentes-2007="2" data-qtd-acidentes-2008="5" data-qtd-acidentes-2009="4" data-qtd-acidentes-2010="5" data-qtd-acidentes-2011="NULL" data-qtd-acidentes-2012="1" data-rodovia="BR-101"/><path d="M442.3,237.4L443.3,235.7L444.0,234.4 " data-km-final="137.7" data-km-inicial="135.8" data-qtd-acidentes="97" data-qtd-acidentes-2007="18" data-qtd-acidentes-2008="13" data-qtd-acidentes-2009="12" data-qtd-acidentes-2010="20" data-qtd-acidentes-2011="18" data-qtd-acidentes-2012="15" data-rodovia="BR-101"/><path d="M444.0,234.4L444.4,232.8L444.4,232.2L444.3,231.3 " data-km-final="135.8" data-km-inicial="133.7" data-qtd-acidentes="99" data-qtd-acidentes-2007="16" data-qtd-acidentes-2008="17" data-qtd-acidentes-2009="18" data-qtd-acidentes-2010="19" data-qtd-acidentes-2011="10" data-qtd-acidentes-2012="18" data-rodovia="BR-101"/><path d="M538.4,58.8L538.4,54.5L538.5,54.2 " data-km-final="5.3" data-km-inicial="2.6" data-qtd-acidentes="31" data-qtd-acidentes-2007="4" data-qtd-acidentes-2008="6" data-qtd-acidentes-2009="7" data-qtd-acidentes-2010="7" data-qtd-acidentes-2011="6" data-qtd-acidentes-2012="1" data-rodovia="BR-101"/><path d="M488.6,170.8L490.8,165.6L491.3,165.3L498.3,162.9 " data-km-final="86.8" data-km-inicial="78.9" data-qtd-acidentes="46" data-qtd-acidentes-2007="3" data-qtd-acidentes-2008="6" data-qtd-acidentes-2009="8" data-qtd-acidentes-2010="13" data-qtd-acidentes-2011="9" data-qtd-acidentes-2012="7" data-rodovia="BR-101"/><path d="M481.7,175.9L484.3,175.4L484.9,174.6L488.6,170.8 " data-km-final="92.0" data-km-inicial="86.8" data-qtd-acidentes="104" data-qtd-acidentes-2007="22" data-qtd-acidentes-2008="15" data-qtd-acidentes-2009="17" data-qtd-acidentes-2010="12" data-qtd-acidentes-2011="17" data-qtd-acidentes-2012="21" data-rodovia="BR-101"/><path d="M444.3,231.3L450.4,229.5L451.8,226.7 " data-km-final="133.7" data-km-inicial="129.7" data-qtd-acidentes="131" data-qtd-acidentes-2007="28" data-qtd-acidentes-2008="27" data-qtd-acidentes-2009="11" data-qtd-acidentes-2010="29" data-qtd-acidentes-2011="20" data-qtd-acidentes-2012="16" data-rodovia="BR-101"/><path d="M469.2,192.6L470.9,191.6L470.9,191.5L471.7,188.5 " data-km-final="104.1" data-km-inicial="101.2" data-qtd-acidentes="21" data-qtd-acidentes-2007="4" data-qtd-acidentes-2008="4" data-qtd-acidentes-2009="4" data-qtd-acidentes-2010="2" data-qtd-acidentes-2011="3" data-qtd-acidentes-2012="4" data-rodovia="BR-101"/><path d="M323.9,296.7L330.6,286.4L336.6,284.3L357.1,266.8 " data-km-final="226.6" data-km-inicial="200.1" data-qtd-acidentes="269" data-qtd-acidentes-2007="31" data-qtd-acidentes-2008="42" data-qtd-acidentes-2009="59" data-qtd-acidentes-2010="44" data-qtd-acidentes-2011="49" data-qtd-acidentes-2012="44" data-rodovia="BR-101"/><path d="M451.8,226.7L459.1,214.8L458.8,213.3L458.9,210.4 " data-km-final="129.7" data-km-inicial="119.1" data-qtd-acidentes="137" data-qtd-acidentes-2007="23" data-qtd-acidentes-2008="16" data-qtd-acidentes-2009="20" data-qtd-acidentes-2010="26" data-qtd-acidentes-2011="27" data-qtd-acidentes-2012="24" data-rodovia="BR-101"/><path d="M462.0,53.4L462.8,59.7L461.1,65.0 " data-km-final="7.1" data-km-inicial="0.0" data-qtd-acidentes="53" data-qtd-acidentes-2007="8" data-qtd-acidentes-2008="4" data-qtd-acidentes-2009="9" data-qtd-acidentes-2010="11" data-qtd-acidentes-2011="10" data-qtd-acidentes-2012="11" data-rodovia="BR-104"/><path d="M463.3,122.6L473.3,132.1L477.5,135.9 " data-km-final="58.9" data-km-inicial="46.1" data-qtd-acidentes="140" data-qtd-acidentes-2007="17" data-qtd-acidentes-2008="23" data-qtd-acidentes-2009="22" data-qtd-acidentes-2010="26" data-qtd-acidentes-2011="27" data-qtd-acidentes-2012="25" data-rodovia="BR-104"/><path d="M509.9,188.2L510.1,188.5 " data-km-final="98.2" data-km-inicial="98.0" data-qtd-acidentes="1287" data-qtd-acidentes-2007="168" data-qtd-acidentes-2008="205" data-qtd-acidentes-2009="174" data-qtd-acidentes-2010="269" data-qtd-acidentes-2011="276" data-qtd-acidentes-2012="195" data-rodovia="BR-104"/><path d="M458.1,79.5L455.6,91.1L457.0,97.3L461.6,107.5 " data-km-final="35.7" data-km-inicial="16.5" data-qtd-acidentes="280" data-qtd-acidentes-2007="34" data-qtd-acidentes-2008="26" data-qtd-acidentes-2009="49" data-qtd-acidentes-2010="63" data-qtd-acidentes-2011="61" data-qtd-acidentes-2012="43" data-rodovia="BR-104"/><path d="M459.4,118.1L460.4,120.2L460.9,120.8L463.3,122.6 " data-km-final="46.1" data-km-inicial="42.6" data-qtd-acidentes="153" data-qtd-acidentes-2007="25" data-qtd-acidentes-2008="17" data-qtd-acidentes-2009="26" data-qtd-acidentes-2010="33" data-qtd-acidentes-2011="28" data-qtd-acidentes-2012="23" data-rodovia="BR-104"/><path d="M504.4,177.8L504.7,178.3L505.9,180.8L506.5,182.0 " data-km-final="94.1" data-km-inicial="91.6" data-qtd-acidentes="1287" data-qtd-acidentes-2007="168" data-qtd-acidentes-2008="205" data-qtd-acidentes-2009="174" data-qtd-acidentes-2010="269" data-qtd-acidentes-2011="276" data-qtd-acidentes-2012="195" data-rodovia="BR-104"/><path d="M461.1,65.0L461.7,66.1L461.8,66.5L462.3,67.7 " data-km-final="8.9" data-km-inicial="7.1" data-qtd-acidentes="53" data-qtd-acidentes-2007="8" data-qtd-acidentes-2008="4" data-qtd-acidentes-2009="9" data-qtd-acidentes-2010="11" data-qtd-acidentes-2011="10" data-qtd-acidentes-2012="11" data-rodovia="BR-104"/><path d="M498.3,162.9L499.9,166.6L502.5,173.1L504.4,177.8 " data-km-final="91.6" data-km-inicial="82.8" data-qtd-acidentes="287" data-qtd-acidentes-2007="36" data-qtd-acidentes-2008="42" data-qtd-acidentes-2009="43" data-qtd-acidentes-2010="62" data-qtd-acidentes-2011="52" data-qtd-acidentes-2012="52" data-rodovia="BR-104"/><path d="M506.5,182.0L508.5,185.5L509.6,187.6L509.9,188.2 " data-km-final="98.0" data-km-inicial="94.1" data-qtd-acidentes="1287" data-qtd-acidentes-2007="168" data-qtd-acidentes-2008="205" data-qtd-acidentes-2009="174" data-qtd-acidentes-2010="269" data-qtd-acidentes-2011="276" data-qtd-acidentes-2012="195" data-rodovia="BR-104"/><path d="M477.5,135.9L484.6,140.6L495.2,146.0L499.2,148.4 " data-km-final="74.4" data-km-inicial="58.9" data-qtd-acidentes="140" data-qtd-acidentes-2007="16" data-qtd-acidentes-2008="26" data-qtd-acidentes-2009="17" data-qtd-acidentes-2010="28" data-qtd-acidentes-2011="28" data-qtd-acidentes-2012="25" data-rodovia="BR-104"/><path d="M462.3,67.7L460.2,70.2L458.1,79.5 " data-km-final="16.5" data-km-inicial="8.9" data-qtd-acidentes="67" data-qtd-acidentes-2007="13" data-qtd-acidentes-2008="7" data-qtd-acidentes-2009="7" data-qtd-acidentes-2010="14" data-qtd-acidentes-2011="15" data-qtd-acidentes-2012="11" data-rodovia="BR-104"/><path d="M461.6,107.5L458.8,110.2L458.6,110.5L459.4,118.1 " data-km-final="42.6" data-km-inicial="35.7" data-qtd-acidentes="153" data-qtd-acidentes-2007="25" data-qtd-acidentes-2008="17" data-qtd-acidentes-2009="26" data-qtd-acidentes-2010="33" data-qtd-acidentes-2011="28" data-qtd-acidentes-2012="23" data-rodovia="BR-104"/><path d="M518.7,205.4L516.8,196.2L510.1,188.5 " data-km-final="109.1" data-km-inicial="98.2" data-qtd-acidentes="0" data-qtd-acidentes-2007="" data-qtd-acidentes-2008="" data-qtd-acidentes-2009="" data-qtd-acidentes-2010="" data-qtd-acidentes-2011="" data-qtd-acidentes-2012="" data-rodovia="BR-104"/><path d="M419.9,178.2L422.8,175.8L422.7,174.9L423.9,173.2 " data-km-final="217.5" data-km-inicial="213.8" data-qtd-acidentes="56" data-qtd-acidentes-2007="10" data-qtd-acidentes-2008="9" data-qtd-acidentes-2009="13" data-qtd-acidentes-2010="8" data-qtd-acidentes-2011="9" data-qtd-acidentes-2012="7" data-rodovia="BR-316"/><path d="M435.9,172.0L440.4,173.6L459.1,176.5L465.3,177.9 " data-km-final="244.6" data-km-inicial="226.3" data-qtd-acidentes="257" data-qtd-acidentes-2007="32" data-qtd-acidentes-2008="35" data-qtd-acidentes-2009="38" data-qtd-acidentes-2010="54" data-qtd-acidentes-2011="46" data-qtd-acidentes-2012="52" data-rodovia="BR-316"/><path d="M147.0,98.0L154.6,102.9L155.5,103.9L163.2,112.9 " data-km-final="49.0" data-km-inicial="36.5" data-qtd-acidentes="25" data-qtd-acidentes-2007="6" data-qtd-acidentes-2008="5" data-qtd-acidentes-2009="6" data-qtd-acidentes-2010="4" data-qtd-acidentes-2011="4" data-qtd-acidentes-2012="NULL" data-rodovia="BR-316"/><path d="M403.1,191.6L399.4,191.3L395.5,188.7L390.3,188.7 " data-km-final="201.5" data-km-inicial="193.9" data-qtd-acidentes="29" data-qtd-acidentes-2007="3" data-qtd-acidentes-2008="4" data-qtd-acidentes-2009="3" data-qtd-acidentes-2010="8" data-qtd-acidentes-2011="4" data-qtd-acidentes-2012="7" data-rodovia="BR-316"/><path d="M215.0,147.9L212.3,146.7L210.4,143.6L205.5,140.0 " data-km-final="83.6" data-km-inicial="76.6" data-qtd-acidentes="58" data-qtd-acidentes-2007="1" data-qtd-acidentes-2008="9" data-qtd-acidentes-2009="13" data-qtd-acidentes-2010="15" data-qtd-acidentes-2011="9" data-qtd-acidentes-2012="11" data-rodovia="BR-316"/><path d="M474.7,193.3L475.1,193.3L476.2,193.3L477.7,193.4 " data-km-final="256.2" data-km-inicial="254.5" data-qtd-acidentes="48" data-qtd-acidentes-2007="7" data-qtd-acidentes-2008="8" data-qtd-acidentes-2009="7" data-qtd-acidentes-2010="5" data-qtd-acidentes-2011="11" data-qtd-acidentes-2012="10" data-rodovia="BR-316"/><path d="M187.8,128.8L165.2,114.4L163.2,112.9 " data-km-final="65.1" data-km-inicial="49.0" data-qtd-acidentes="63" data-qtd-acidentes-2007="5" data-qtd-acidentes-2008="12" data-qtd-acidentes-2009="8" data-qtd-acidentes-2010="17" data-qtd-acidentes-2011="10" data-qtd-acidentes-2012="11" data-rodovia="BR-316"/><path d="M134.5,94.6L137.2,95.3L137.6,95.5L143.1,97.1 " data-km-final="34.3" data-km-inicial="29.4" data-qtd-acidentes="25" data-qtd-acidentes-2007="6" data-qtd-acidentes-2008="5" data-qtd-acidentes-2009="6" data-qtd-acidentes-2010="4" data-qtd-acidentes-2011="4" data-qtd-acidentes-2012="NULL" data-rodovia="BR-316"/><path d="M248.1,152.5L223.7,152.7L221.9,151.0L215.0,147.9 " data-km-final="102.9" data-km-inicial="83.6" data-qtd-acidentes="143" data-qtd-acidentes-2007="23" data-qtd-acidentes-2008="21" data-qtd-acidentes-2009="22" data-qtd-acidentes-2010="24" data-qtd-acidentes-2011="27" data-qtd-acidentes-2012="26" data-rodovia="BR-316"/><path d="M489.6,192.8L491.5,192.9L494.9,192.8L498.0,191.2 " data-km-final="268.1" data-km-inicial="262.8" data-qtd-acidentes="1328" data-qtd-acidentes-2007="176" data-qtd-acidentes-2008="203" data-qtd-acidentes-2009="240" data-qtd-acidentes-2010="257" data-qtd-acidentes-2011="261" data-qtd-acidentes-2012="188" data-rodovia="BR-316"/><path d="M419.9,178.2L417.5,181.7L415.0,184.5L403.1,191.6 " data-km-final="213.8" data-km-inicial="201.5" data-qtd-acidentes="45" data-qtd-acidentes-2007="7" data-qtd-acidentes-2008="7" data-qtd-acidentes-2009="6" data-qtd-acidentes-2010="10" data-qtd-acidentes-2011="8" data-qtd-acidentes-2012="7" data-rodovia="BR-316"/><path d="M268.1,155.5L264.6,154.1L248.1,152.5 " data-km-final="114.4" data-km-inicial="102.9" data-qtd-acidentes="71" data-qtd-acidentes-2007="4" data-qtd-acidentes-2008="10" data-qtd-acidentes-2009="12" data-qtd-acidentes-2010="13" data-qtd-acidentes-2011="16" data-qtd-acidentes-2012="15" data-rodovia="BR-316"/><path d="M390.3,188.7L387.6,189.2L384.0,190.4L383.1,190.9 " data-km-final="193.9" data-km-inicial="189.6" data-qtd-acidentes="12" data-qtd-acidentes-2007="1" data-qtd-acidentes-2008="1" data-qtd-acidentes-2009="NULL" data-qtd-acidentes-2010="2" data-qtd-acidentes-2011="3" data-qtd-acidentes-2012="5" data-rodovia="BR-316"/><path d="M423.9,173.2L426.3,170.7L427.1,169.9L428.9,168.1 " data-km-final="221.6" data-km-inicial="217.5" data-qtd-acidentes="56" data-qtd-acidentes-2007="10" data-qtd-acidentes-2008="9" data-qtd-acidentes-2009="13" data-qtd-acidentes-2010="8" data-qtd-acidentes-2011="9" data-qtd-acidentes-2012="7" data-rodovia="BR-316"/><path d="M474.7,193.3L470.3,193.0L469.2,192.6 " data-km-final="2.9" data-km-inicial="0.0" data-qtd-acidentes="17" data-qtd-acidentes-2007="3" data-qtd-acidentes-2008="3" data-qtd-acidentes-2009="7" data-qtd-acidentes-2010="3" data-qtd-acidentes-2011="1" data-qtd-acidentes-2012="NULL" data-rodovia="BR-316"/><path d="M498.0,191.2L502.4,189.5L510.1,188.5 " data-km-final="276.1" data-km-inicial="268.1" data-qtd-acidentes="1328" data-qtd-acidentes-2007="176" data-qtd-acidentes-2008="203" data-qtd-acidentes-2009="240" data-qtd-acidentes-2010="257" data-qtd-acidentes-2011="261" data-qtd-acidentes-2012="188" data-rodovia="BR-316"/><path d="M143.1,97.1L144.5,97.5L145.1,97.6L147.0,98.0 " data-km-final="36.5" data-km-inicial="34.3" data-qtd-acidentes="25" data-qtd-acidentes-2007="6" data-qtd-acidentes-2008="5" data-qtd-acidentes-2009="6" data-qtd-acidentes-2010="4" data-qtd-acidentes-2011="4" data-qtd-acidentes-2012="NULL" data-rodovia="BR-316"/><path d="M428.9,168.1L432.5,169.3L435.9,172.0 " data-km-final="226.3" data-km-inicial="221.6" data-qtd-acidentes="257" data-qtd-acidentes-2007="32" data-qtd-acidentes-2008="35" data-qtd-acidentes-2009="38" data-qtd-acidentes-2010="54" data-qtd-acidentes-2011="46" data-qtd-acidentes-2012="52" data-rodovia="BR-316"/><path d="M328.1,155.9L326.0,154.7L299.7,152.7 " data-km-final="147.9" data-km-inicial="131.9" data-qtd-acidentes="104" data-qtd-acidentes-2007="13" data-qtd-acidentes-2008="11" data-qtd-acidentes-2009="13" data-qtd-acidentes-2010="21" data-qtd-acidentes-2011="27" data-qtd-acidentes-2012="18" data-rodovia="BR-316"/><path d="M343.8,162.0L341.2,158.8L341.0,158.8L339.0,160.1 " data-km-final="158.5" data-km-inicial="154.8" data-qtd-acidentes="89" data-qtd-acidentes-2007="14" data-qtd-acidentes-2008="17" data-qtd-acidentes-2009="12" data-qtd-acidentes-2010="12" data-qtd-acidentes-2011="16" data-qtd-acidentes-2012="18" data-rodovia="BR-316"/><path d="M103.9,65.4L110.3,81.3L111.4,82.6L134.5,94.6 " data-km-final="29.4" data-km-inicial="0.0" data-qtd-acidentes="12" data-qtd-acidentes-2007="6" data-qtd-acidentes-2008="3" data-qtd-acidentes-2009="1" data-qtd-acidentes-2010="1" data-qtd-acidentes-2011="1" data-qtd-acidentes-2012="NULL" data-rodovia="BR-316"/><path d="M339.0,160.1L335.7,160.8L334.9,160.2L328.1,155.9 " data-km-final="154.8" data-km-inicial="147.9" data-qtd-acidentes="75" data-qtd-acidentes-2007="10" data-qtd-acidentes-2008="13" data-qtd-acidentes-2009="7" data-qtd-acidentes-2010="10" data-qtd-acidentes-2011="16" data-qtd-acidentes-2012="19" data-rodovia="BR-316"/><path d="M510.1,188.5L515.8,186.5L521.9,198.5 " data-km-final="287.2" data-km-inicial="276.1" data-qtd-acidentes="2430" data-qtd-acidentes-2007="256" data-qtd-acidentes-2008="309" data-qtd-acidentes-2009="373" data-qtd-acidentes-2010="483" data-qtd-acidentes-2011="496" data-qtd-acidentes-2012="510" data-rodovia="BR-316"/><path d="M471.7,188.5L472.2,189.2L474.7,193.3 " data-km-final="254.5" data-km-inicial="251.4" data-qtd-acidentes="122" data-qtd-acidentes-2007="18" data-qtd-acidentes-2008="27" data-qtd-acidentes-2009="12" data-qtd-acidentes-2010="10" data-qtd-acidentes-2011="29" data-qtd-acidentes-2012="26" data-rodovia="BR-316"/><path d="M205.5,140.0L202.1,137.8L187.8,128.8 " data-km-final="76.6" data-km-inicial="65.1" data-qtd-acidentes="63" data-qtd-acidentes-2007="5" data-qtd-acidentes-2008="12" data-qtd-acidentes-2009="8" data-qtd-acidentes-2010="17" data-qtd-acidentes-2011="10" data-qtd-acidentes-2012="11" data-rodovia="BR-316"/><path d="M299.7,152.7L284.6,154.4L282.1,154.7L268.1,155.5 " data-km-final="131.9" data-km-inicial="114.4" data-qtd-acidentes="57" data-qtd-acidentes-2007="4" data-qtd-acidentes-2008="11" data-qtd-acidentes-2009="7" data-qtd-acidentes-2010="13" data-qtd-acidentes-2011="14" data-qtd-acidentes-2012="8" data-rodovia="BR-316"/><path d="M379.8,192.2L374.7,193.0L369.3,193.3L366.5,191.8 " data-km-final="187.6" data-km-inicial="179.1" data-qtd-acidentes="102" data-qtd-acidentes-2007="7" data-qtd-acidentes-2008="10" data-qtd-acidentes-2009="16" data-qtd-acidentes-2010="20" data-qtd-acidentes-2011="27" data-qtd-acidentes-2012="22" data-rodovia="BR-316"/><path d="M471.7,188.5L470.2,186.0L469.8,185.3L465.3,177.9 " data-km-final="251.4" data-km-inicial="244.6" data-qtd-acidentes="106" data-qtd-acidentes-2007="15" data-qtd-acidentes-2008="13" data-qtd-acidentes-2009="13" data-qtd-acidentes-2010="20" data-qtd-acidentes-2011="21" data-qtd-acidentes-2012="24" data-rodovia="BR-316"/><path d="M366.5,191.8L361.6,184.0L343.8,162.0 " data-km-final="179.1" data-km-inicial="158.5" data-qtd-acidentes="102" data-qtd-acidentes-2007="7" data-qtd-acidentes-2008="10" data-qtd-acidentes-2009="16" data-qtd-acidentes-2010="20" data-qtd-acidentes-2011="27" data-qtd-acidentes-2012="22" data-rodovia="BR-316"/><path d="M383.1,190.9L381.8,191.7L380.9,191.9L379.8,192.2 " data-km-final="189.6" data-km-inicial="187.6" data-qtd-acidentes="19" data-qtd-acidentes-2007="3" data-qtd-acidentes-2008="2" data-qtd-acidentes-2009="5" data-qtd-acidentes-2010="2" data-qtd-acidentes-2011="4" data-qtd-acidentes-2012="3" data-rodovia="BR-316"/><path d="M477.7,193.4L483.3,193.6L486.6,193.2L489.6,192.8 " data-km-final="262.8" data-km-inicial="256.2" data-qtd-acidentes="163" data-qtd-acidentes-2007="19" data-qtd-acidentes-2008="21" data-qtd-acidentes-2009="16" data-qtd-acidentes-2010="29" data-qtd-acidentes-2011="44" data-qtd-acidentes-2012="32" data-rodovia="BR-316"/><path d="M521.6,205.7L523.7,203.7L524.0,203.5L524.9,202.5 " data-km-final="294.1" data-km-inicial="291.6" data-qtd-acidentes="0" data-qtd-acidentes-2007="" data-qtd-acidentes-2008="" data-qtd-acidentes-2009="" data-qtd-acidentes-2010="" data-qtd-acidentes-2011="" data-qtd-acidentes-2012="" data-rodovia="BR-316"/><path d="M524.9,202.5L522.0,201.9L521.7,201.0L521.9,198.5 " data-km-final="291.6" data-km-inicial="287.2" data-qtd-acidentes="0" data-qtd-acidentes-2007="" data-qtd-acidentes-2008="" data-qtd-acidentes-2009="" data-qtd-acidentes-2010="" data-qtd-acidentes-2011="" data-qtd-acidentes-2012="" data-rodovia="BR-316"/><path d="M478.2,66.2L479.4,67.2L505.0,64.9L509.1,60.0 " data-km-final="45.6" data-km-inicial="24.3" data-qtd-acidentes="11" data-qtd-acidentes-2007="NULL" data-qtd-acidentes-2008="1" data-qtd-acidentes-2009="1" data-qtd-acidentes-2010="3" data-qtd-acidentes-2011="4" data-qtd-acidentes-2012="2" data-rodovia="BR-416"/><path d="M509.1,60.0L517.4,58.3L518.4,57.3L521.0,56.7 " data-km-final="24.3" data-km-inicial="17.6" data-qtd-acidentes="11" data-qtd-acidentes-2007="NULL" data-qtd-acidentes-2008="1" data-qtd-acidentes-2009="1" data-qtd-acidentes-2010="3" data-qtd-acidentes-2011="4" data-qtd-acidentes-2012="2" data-rodovia="BR-416"/><path d="M462.3,67.7L466.9,67.7L471.4,67.8L478.2,66.2 " data-km-final="57.0" data-km-inicial="45.6" data-qtd-acidentes="7" data-qtd-acidentes-2007="3" data-qtd-acidentes-2008="1" data-qtd-acidentes-2009="NULL" data-qtd-acidentes-2010="2" data-qtd-acidentes-2011="1" data-qtd-acidentes-2012="NULL" data-rodovia="BR-416"/><path d="M521.0,56.7L522.1,56.4L522.3,56.4L538.5,54.2 " data-km-final="17.6" data-km-inicial="7.6" data-qtd-acidentes="29" data-qtd-acidentes-2007="6" data-qtd-acidentes-2008="3" data-qtd-acidentes-2009="2" data-qtd-acidentes-2010="4" data-qtd-acidentes-2011="10" data-qtd-acidentes-2012="4" data-rodovia="BR-416"/><path d="M56.7,145.6L52.3,147.1L41.6,150.9L38.4,152.1 " data-km-final="101.4" data-km-inicial="87.3" data-qtd-acidentes="71" data-qtd-acidentes-2007="6" data-qtd-acidentes-2008="7" data-qtd-acidentes-2009="6" data-qtd-acidentes-2010="16" data-qtd-acidentes-2011="25" data-qtd-acidentes-2012="11" data-rodovia="BR-423"/><path d="M119.0,127.8L100.8,133.1L77.8,137.9L69.7,140.9 " data-km-final="79.7" data-km-inicial="51.6" data-qtd-acidentes="116" data-qtd-acidentes-2007="13" data-qtd-acidentes-2008="10" data-qtd-acidentes-2009="24" data-qtd-acidentes-2010="23" data-qtd-acidentes-2011="18" data-qtd-acidentes-2012="28" data-rodovia="BR-423"/><path d="M193.3,102.9L197.0,101.8L197.8,101.7 " data-km-final="8.5" data-km-inicial="0.0" data-qtd-acidentes="34" data-qtd-acidentes-2007="4" data-qtd-acidentes-2008="4" data-qtd-acidentes-2009="6" data-qtd-acidentes-2010="3" data-qtd-acidentes-2011="7" data-qtd-acidentes-2012="10" data-rodovia="BR-423"/><path d="M163.2,112.9L167.0,111.7L193.3,102.9 " data-km-final="26.0" data-km-inicial="8.5" data-qtd-acidentes="48" data-qtd-acidentes-2007="7" data-qtd-acidentes-2008="6" data-qtd-acidentes-2009="5" data-qtd-acidentes-2010="9" data-qtd-acidentes-2011="11" data-qtd-acidentes-2012="9" data-rodovia="BR-423"/><path d="M69.7,140.9L66.1,142.2L64.3,142.8L56.7,145.6 " data-km-final="87.3" data-km-inicial="79.7" data-qtd-acidentes="71" data-qtd-acidentes-2007="6" data-qtd-acidentes-2008="7" data-qtd-acidentes-2009="6" data-qtd-acidentes-2010="16" data-qtd-acidentes-2011="25" data-qtd-acidentes-2012="11" data-rodovia="BR-423"/><path d="M163.2,112.9L143.9,119.4L119.0,127.8 " data-km-final="51.6" data-km-inicial="26.0" data-qtd-acidentes="81" data-qtd-acidentes-2007="6" data-qtd-acidentes-2008="10" data-qtd-acidentes-2009="10" data-qtd-acidentes-2010="18" data-qtd-acidentes-2011="21" data-qtd-acidentes-2012="16" data-rodovia="BR-423"/><path d="M498.3,210.6L498.3,210.5L498.3,210.5 " data-km-final="102.7" data-km-inicial="102.6" data-qtd-acidentes="82" data-qtd-acidentes-2007="4" data-qtd-acidentes-2008="15" data-qtd-acidentes-2009="15" data-qtd-acidentes-2010="14" data-qtd-acidentes-2011="20" data-qtd-acidentes-2012="14" data-rodovia="BR-424"/><path d="M503.7,216.5L500.5,212.8L498.3,210.6 " data-km-final="107.5" data-km-inicial="102.7" data-qtd-acidentes="82" data-qtd-acidentes-2007="4" data-qtd-acidentes-2008="15" data-qtd-acidentes-2009="15" data-qtd-acidentes-2010="14" data-qtd-acidentes-2011="20" data-qtd-acidentes-2012="14" data-rodovia="BR-424"/><path d="M498.3,210.5L494.9,207.1L494.4,206.1L489.6,192.8 " data-km-final="102.6" data-km-inicial="91.3" data-qtd-acidentes="82" data-qtd-acidentes-2007="4" data-qtd-acidentes-2008="15" data-qtd-acidentes-2009="15" data-qtd-acidentes-2010="14" data-qtd-acidentes-2011="20" data-qtd-acidentes-2012="14" data-rodovia="BR-424"/><path d="M440.1,143.3L431.2,132.9L425.2,125.7L414.7,113.5 " data-km-final="40.0" data-km-inicial="12.0" data-qtd-acidentes="2" data-qtd-acidentes-2007="2" data-qtd-acidentes-2008="NULL" data-qtd-acidentes-2009="NULL" data-qtd-acidentes-2010="NULL" data-qtd-acidentes-2011="NULL" data-qtd-acidentes-2012="NULL" data-rodovia="BR-424"/><path d="M459.1,166.5L458.4,165.4L440.1,143.3 " data-km-final="65.0" data-km-inicial="40.0" data-qtd-acidentes="0" data-qtd-acidentes-2007="" data-qtd-acidentes-2008="" data-qtd-acidentes-2009="" data-qtd-acidentes-2010="" data-qtd-acidentes-2011="" data-qtd-acidentes-2012="" data-rodovia="BR-424"/><path d="M414.7,113.5L402.3,111.5 " data-km-final="12.0" data-km-inicial="0.0" data-qtd-acidentes="1" data-qtd-acidentes-2007="1" data-qtd-acidentes-2008="NULL" data-qtd-acidentes-2009="NULL" data-qtd-acidentes-2010="NULL" data-qtd-acidentes-2011="NULL" data-qtd-acidentes-2012="NULL" data-rodovia="BR-424"/><path d="M503.7,216.5L507.3,214.4L507.4,214.4L509.0,215.1 " data-km-final="110.9" data-km-inicial="107.5" data-qtd-acidentes="0" data-qtd-acidentes-2007="" data-qtd-acidentes-2008="" data-qtd-acidentes-2009="" data-qtd-acidentes-2010="" data-qtd-acidentes-2011="" data-qtd-acidentes-2012="" data-rodovia="AL-101"/><path d="M509.0,215.1L514.4,212.0L515.3,211.3L521.6,205.7 " data-km-final="120.8" data-km-inicial="110.9" data-qtd-acidentes="0" data-qtd-acidentes-2007="" data-qtd-acidentes-2008="" data-qtd-acidentes-2009="" data-qtd-acidentes-2010="" data-qtd-acidentes-2011="" data-qtd-acidentes-2012="" data-rodovia="AL-101"/><path d="M465.3,177.9L464.5,174.9L461.1,168.8 " data-km-final="73.1" data-km-inicial="66.9" data-qtd-acidentes="0" data-qtd-acidentes-2007="" data-qtd-acidentes-2008="" data-qtd-acidentes-2009="" data-qtd-acidentes-2010="" data-qtd-acidentes-2011="" data-qtd-acidentes-2012="" data-rodovia="AL-410"/><path d="M459.1,166.5L460.5,167.9L461.1,168.8 " data-km-final="66.9" data-km-inicial="65.0" data-qtd-acidentes="0" data-qtd-acidentes-2007="" data-qtd-acidentes-2008="" data-qtd-acidentes-2009="" data-qtd-acidentes-2010="" data-qtd-acidentes-2011="" data-qtd-acidentes-2012="" data-rodovia="AL-410"/></g><g class="estado" id="estado"><path d="M394.6,366.0L415.0,318.7L433.5,303.0L436.8,303.4L471.4,261.4L496.3,225.6L519.6,211.9L530.0,203.0L526.5,197.2L535.3,192.8L551.5,174.3L572.1,142.4L615.6,61.4L619.7,48.7L585.6,35.7L564.6,29.5L512.5,41.7L495.3,39.4L476.5,33.3L457.4,38.5L444.1,50.9L439.1,69.4L432.5,83.7L405.1,109.2L379.0,126.4L342.3,137.2L308.4,133.5L262.1,138.5L238.1,131.0L218.1,118.1L181.7,88.7L149.5,76.0L123.1,54.8L109.4,59.9L96.9,72.5L84.7,90.6L67.0,104.5L48.7,114.3L30.3,137.1L32.9,143.5L40.7,155.8L51.4,166.3L66.2,176.1L74.3,184.0L99.7,193.9L156.5,224.2L217.1,248.0L258.8,267.3L270.6,276.3L281.8,296.6L300.4,316.9L344.0,329.7L354.1,337.8L358.7,350.6L371.0,357.3L379.3,366.7L394.6,366.0Z " data-uf="AL"/></g><g class="vizinho" id="vizinhos"><path d="M74.3,184.0L66.2,176.1L51.4,166.3L40.7,155.8L32.9,143.5L30.3,137.1L29.0,134.0L18.2,117.1L11.6,83.3L0.0,91.7L0.0,396.2L118.6,396.2L120.8,376.7L115.8,347.1L121.4,300.2L116.4,284.8L75.8,245.1L66.4,230.0L64.2,211.1L66.1,199.4L74.3,184.0Z " data-uf="BA"/><path d="M30.3,137.1L48.7,114.3L67.0,104.5L84.7,90.6L96.9,72.5L109.4,59.9L123.1,54.8L149.5,76.0L181.7,88.7L218.1,118.1L238.1,131.0L262.1,138.5L308.4,133.5L342.3,137.2L379.0,126.4L405.1,109.2L432.5,83.7L439.1,69.4L444.1,50.9L457.4,38.5L476.5,33.3L495.3,39.4L512.5,41.7L564.6,29.5L585.6,35.7L619.7,48.7L631.0,25.3L631.5,21.7L638.8,0.0L0.0,0.0L0.0,91.7L11.6,83.3L18.2,117.1L29.0,134.0L30.3,137.1Z " data-uf="PE"/><path d="M379.3,366.7L371.0,357.3L358.7,350.6L354.1,337.8L344.0,329.7L300.4,316.9L281.8,296.6L270.6,276.3L258.8,267.3L217.1,248.0L156.5,224.2L99.7,193.9L74.3,184.0L66.1,199.4L64.2,211.1L66.4,230.0L75.8,245.1L116.4,284.8L121.4,300.2L115.8,347.1L120.8,376.7L118.6,396.2L341.3,396.2L341.7,395.8L360.4,383.6L374.0,373.8L379.3,366.7Z " data-uf="SE"/></g></svg>