<?xml version="1.0" encoding="utf-8"?><!DOCTYPE svg  PUBLIC '-//W3C//DTD SVG 1.1//EN'  'http://www.w3.org/Graphics/SVG/1.1/DTD/svg11.dtd'><svg enable_background="new 0 0 650 745" height="745px" pretty_print="False" style="stroke-linejoin: round; stroke:#000; fill: none;" version="1.1" viewBox="0 0 650 745" width="650px" xmlns="http://www.w3.org/2000/svg" xmlns:xlink="http://www.w3.org/1999/xlink"><defs><style type="text/css"><![CDATA[path { fill-rule: evenodd; }]]></style></defs><metadata><views><view h="745.102487875" padding="0.05" w="650"><proj id="laea" lat0="1.563003" lon0="-51.9737975793"/><bbox h="74.63" w="65.19" x="963.74" y="962.59"/></view></views></metadata><g class="" id="rodovias"><path d="M348.7,620.6L354.9,609.7L376.8,606.8L402.9,563.3 " data-km-final="192.6" data-km-inicial="109.1" data-qtd-acidentes="30" data-qtd-acidentes-2007="5" data-qtd-acidentes-2008="4" data-qtd-acidentes-2009="4" data-qtd-acidentes-2010="2" data-qtd-acidentes-2011="5" data-qtd-acidentes-2012="10" data-rodovia="BR-156"/><path d="M466.9,539.6L471.0,528.6L470.0,521.3L475.2,512.4 " data-km-final="298.7" data-km-inicial="271.2" data-qtd-acidentes="53" data-qtd-acidentes-2007="1" data-qtd-acidentes-2008="4" data-qtd-acidentes-2009="4" data-qtd-acidentes-2010="8" data-qtd-acidentes-2011="31" data-qtd-acidentes-2012="5" data-rodovia="BR-156"/><path d="M410.5,546.0L410.5,546.0L419.2,542.5L429.0,536.5 " data-km-final="235.5" data-km-inicial="212.1" data-qtd-acidentes="52" data-qtd-acidentes-2007="8" data-qtd-acidentes-2008="9" data-qtd-acidentes-2009="5" data-qtd-acidentes-2010="7" data-qtd-acidentes-2011="11" data-qtd-acidentes-2012="12" data-rodovia="BR-156"/><path d="M402.9,563.3L403.4,554.1L403.4,553.9L410.5,546.0 " data-km-final="212.1" data-km-inicial="192.6" data-qtd-acidentes="14" data-qtd-acidentes-2007="1" data-qtd-acidentes-2008="1" data-qtd-acidentes-2009="NULL" data-qtd-acidentes-2010="2" data-qtd-acidentes-2011="2" data-qtd-acidentes-2012="7" data-rodovia="BR-156"/><path d="M429.0,536.5L463.3,535.4L466.9,539.6 " data-km-final="271.2" data-km-inicial="235.5" data-qtd-acidentes="69" data-qtd-acidentes-2007="4" data-qtd-acidentes-2008="7" data-qtd-acidentes-2009="8" data-qtd-acidentes-2010="11" data-qtd-acidentes-2011="19" data-qtd-acidentes-2012="20" data-rodovia="BR-156"/><path d="M330.2,635.0L330.2,635.0L336.6,631.9 " data-km-final="87.1" data-km-inicial="78.8" data-qtd-acidentes="12" data-qtd-acidentes-2007="3" data-qtd-acidentes-2008="4" data-qtd-acidentes-2009="3" data-qtd-acidentes-2010="NULL" data-qtd-acidentes-2011="NULL" data-qtd-acidentes-2012="2" data-rodovia="BR-156"/><path d="M475.2,512.4L466.6,503.3L440.6,485.3L436.0,480.0 " data-km-final="350.9" data-km-inicial="298.7" data-qtd-acidentes="74" data-qtd-acidentes-2007="9" data-qtd-acidentes-2008="13" data-qtd-acidentes-2009="8" data-qtd-acidentes-2010="12" data-qtd-acidentes-2011="18" data-qtd-acidentes-2012="12" data-rodovia="BR-156"/><path d="M486.0,407.1L486.8,405.2L487.3,404.3L489.8,403.1 " data-km-final="446.3" data-km-inicial="440.7" data-qtd-acidentes="12" data-qtd-acidentes-2007="3" data-qtd-acidentes-2008="3" data-qtd-acidentes-2009="1" data-qtd-acidentes-2010="NULL" data-qtd-acidentes-2011="5" data-qtd-acidentes-2012="NULL" data-rodovia="BR-156"/><path d="M304.7,657.6L313.0,647.5L313.3,639.2L330.2,635.0 " data-km-final="78.8" data-km-inicial="42.6" data-qtd-acidentes="12" data-qtd-acidentes-2007="3" data-qtd-acidentes-2008="4" data-qtd-acidentes-2009="3" data-qtd-acidentes-2010="NULL" data-qtd-acidentes-2011="NULL" data-qtd-acidentes-2012="2" data-rodovia="BR-156"/><path d="M470.0,438.8L478.0,421.6L479.9,414.0L486.0,407.1 " data-km-final="440.7" data-km-inicial="406.1" data-qtd-acidentes="12" data-qtd-acidentes-2007="3" data-qtd-acidentes-2008="3" data-qtd-acidentes-2009="1" data-qtd-acidentes-2010="NULL" data-qtd-acidentes-2011="5" data-qtd-acidentes-2012="NULL" data-rodovia="BR-156"/><path d="M436.0,480.0L442.2,471.6L457.9,460.9 " data-km-final="379.2" data-km-inicial="350.9" data-qtd-acidentes="21" data-qtd-acidentes-2007="1" data-qtd-acidentes-2008="4" data-qtd-acidentes-2009="3" data-qtd-acidentes-2010="3" data-qtd-acidentes-2011="6" data-qtd-acidentes-2012="4" data-rodovia="BR-156"/><path d="M298.7,663.0L304.7,657.6 " data-km-final="42.6" data-km-inicial="27.0" data-qtd-acidentes="12" data-qtd-acidentes-2007="3" data-qtd-acidentes-2008="4" data-qtd-acidentes-2009="3" data-qtd-acidentes-2010="NULL" data-qtd-acidentes-2011="NULL" data-qtd-acidentes-2012="2" data-rodovia="BR-156"/><path d="M489.8,403.1L490.5,396.5L491.1,395.8L490.3,392.7 " data-km-final="455.7" data-km-inicial="446.3" data-qtd-acidentes="12" data-qtd-acidentes-2007="3" data-qtd-acidentes-2008="3" data-qtd-acidentes-2009="1" data-qtd-acidentes-2010="NULL" data-qtd-acidentes-2011="5" data-qtd-acidentes-2012="NULL" data-rodovia="BR-156"/><path d="M457.9,460.9L456.6,454.7L470.0,438.8 " data-km-final="406.1" data-km-inicial="379.2" data-qtd-acidentes="10" data-qtd-acidentes-2007="3" data-qtd-acidentes-2008="3" data-qtd-acidentes-2009="1" data-qtd-acidentes-2010="1" data-qtd-acidentes-2011="NULL" data-qtd-acidentes-2012="2" data-rodovia="BR-156"/><path d="M336.6,631.9L336.9,627.3L348.7,620.6 " data-km-final="109.1" data-km-inicial="87.1" data-qtd-acidentes="2" data-qtd-acidentes-2007="1" data-qtd-acidentes-2008="NULL" data-qtd-acidentes-2009="NULL" data-qtd-acidentes-2010="NULL" data-qtd-acidentes-2011="1" data-qtd-acidentes-2012="NULL" data-rodovia="BR-156"/><path d="M490.3,392.7L494.5,387.9L493.5,382.9L491.9,379.7 " data-km-final="472.8" data-km-inicial="455.7" data-qtd-acidentes="4" data-qtd-acidentes-2007="1" data-qtd-acidentes-2008="1" data-qtd-acidentes-2009="1" data-qtd-acidentes-2010="1" data-qtd-acidentes-2011="NULL" data-qtd-acidentes-2012="NULL" data-rodovia="BR-156"/><path d="M299.3,646.2L298.8,654.0L296.9,659.1 " data-km-final="27.0" data-km-inicial="0.0" data-qtd-acidentes="1" data-qtd-acidentes-2007="NULL" data-qtd-acidentes-2008="NULL" data-qtd-acidentes-2009="NULL" data-qtd-acidentes-2010="NULL" data-qtd-acidentes-2011="NULL" data-qtd-acidentes-2012="1" data-rodovia="BR-156"/><path d="M484.3,258.2L484.3,258.1L484.3,258.0 " data-km-final="604.5" data-km-inicial="604.4" data-qtd-acidentes="4" data-qtd-acidentes-2007="1" data-qtd-acidentes-2008="NULL" data-qtd-acidentes-2009="2" data-qtd-acidentes-2010="NULL" data-qtd-acidentes-2011="1" data-qtd-acidentes-2012="NULL" data-rodovia="BR-156"/><path d="M429.3,201.2L415.2,172.7L414.2,172.5 " data-km-final="731.3" data-km-inicial="701.6" data-qtd-acidentes="4" data-qtd-acidentes-2007="NULL" data-qtd-acidentes-2008="1" data-qtd-acidentes-2009="1" data-qtd-acidentes-2010="NULL" data-qtd-acidentes-2011="NULL" data-qtd-acidentes-2012="2" data-rodovia="BR-156"/><path d="M380.4,91.7L380.2,91.5 " data-km-final="822.5" data-km-inicial="821.5" data-qtd-acidentes="0" data-qtd-acidentes-2007="" data-qtd-acidentes-2008="" data-qtd-acidentes-2009="" data-qtd-acidentes-2010="" data-qtd-acidentes-2011="" data-qtd-acidentes-2012="" data-rodovia="BR-156"/><path d="M380.0,92.6L380.3,91.9L380.4,91.7 " data-km-final="821.5" data-km-inicial="820.6" data-qtd-acidentes="0" data-qtd-acidentes-2007="" data-qtd-acidentes-2008="" data-qtd-acidentes-2009="" data-qtd-acidentes-2010="" data-qtd-acidentes-2011="" data-qtd-acidentes-2012="" data-rodovia="BR-156"/><path d="M495.9,351.6L495.9,338.0L496.8,335.1L497.8,324.3 " data-km-final="528.1" data-km-inicial="502.1" data-qtd-acidentes="2" data-qtd-acidentes-2007="1" data-qtd-acidentes-2008="NULL" data-qtd-acidentes-2009="NULL" data-qtd-acidentes-2010="1" data-qtd-acidentes-2011="NULL" data-qtd-acidentes-2012="NULL" data-rodovia="BR-156"/><path d="M496.0,352.1L496.0,352.0L496.0,351.9L495.9,351.6 " data-km-final="473.3" data-km-inicial="472.8" data-qtd-acidentes="10" data-qtd-acidentes-2007="3" data-qtd-acidentes-2008="3" data-qtd-acidentes-2009="2" data-qtd-acidentes-2010="NULL" data-qtd-acidentes-2011="1" data-qtd-acidentes-2012="1" data-rodovia="BR-156"/><path d="M436.7,233.0L435.9,230.2L435.7,229.6L435.3,227.2 " data-km-final="676.5" data-km-inicial="671.2" data-qtd-acidentes="2" data-qtd-acidentes-2007="NULL" data-qtd-acidentes-2008="1" data-qtd-acidentes-2009="NULL" data-qtd-acidentes-2010="NULL" data-qtd-acidentes-2011="1" data-qtd-acidentes-2012="NULL" data-rodovia="BR-156"/><path d="M497.8,324.3L490.2,323.6L488.9,322.2L493.7,312.0 " data-km-final="548.7" data-km-inicial="528.1" data-qtd-acidentes="3" data-qtd-acidentes-2007="NULL" data-qtd-acidentes-2008="2" data-qtd-acidentes-2009="NULL" data-qtd-acidentes-2010="1" data-qtd-acidentes-2011="NULL" data-qtd-acidentes-2012="NULL" data-rodovia="BR-156"/><path d="M392.6,140.6L384.9,125.9L384.6,98.9L380.0,92.6 " data-km-final="820.6" data-km-inicial="769.8" data-qtd-acidentes="1" data-qtd-acidentes-2007="NULL" data-qtd-acidentes-2008="NULL" data-qtd-acidentes-2009="NULL" data-qtd-acidentes-2010="NULL" data-qtd-acidentes-2011="NULL" data-qtd-acidentes-2012="1" data-rodovia="BR-156"/><path d="M414.2,172.5L397.4,150.5L396.2,149.6 " data-km-final="758.3" data-km-inicial="731.3" data-qtd-acidentes="4" data-qtd-acidentes-2007="NULL" data-qtd-acidentes-2008="1" data-qtd-acidentes-2009="1" data-qtd-acidentes-2010="NULL" data-qtd-acidentes-2011="NULL" data-qtd-acidentes-2012="2" data-rodovia="BR-156"/><path d="M493.7,312.0L494.3,301.2L492.9,296.9L489.0,287.8 " data-km-final="573.2" data-km-inicial="548.7" data-qtd-acidentes="6" data-qtd-acidentes-2007="2" data-qtd-acidentes-2008="1" data-qtd-acidentes-2009="1" data-qtd-acidentes-2010="NULL" data-qtd-acidentes-2011="2" data-qtd-acidentes-2012="NULL" data-rodovia="BR-156"/><path d="M484.3,258.0L477.6,259.4L462.1,261.1 " data-km-final="629.1" data-km-inicial="604.5" data-qtd-acidentes="4" data-qtd-acidentes-2007="1" data-qtd-acidentes-2008="NULL" data-qtd-acidentes-2009="2" data-qtd-acidentes-2010="NULL" data-qtd-acidentes-2011="1" data-qtd-acidentes-2012="NULL" data-rodovia="BR-156"/><path d="M435.3,227.2L433.6,222.8L429.3,201.2 " data-km-final="701.6" data-km-inicial="676.5" data-qtd-acidentes="2" data-qtd-acidentes-2007="NULL" data-qtd-acidentes-2008="1" data-qtd-acidentes-2009="NULL" data-qtd-acidentes-2010="NULL" data-qtd-acidentes-2011="1" data-qtd-acidentes-2012="NULL" data-rodovia="BR-156"/><path d="M462.1,261.1L457.3,261.3L453.8,262.1L449.5,261.8 " data-km-final="642.4" data-km-inicial="629.1" data-qtd-acidentes="4" data-qtd-acidentes-2007="1" data-qtd-acidentes-2008="NULL" data-qtd-acidentes-2009="2" data-qtd-acidentes-2010="NULL" data-qtd-acidentes-2011="1" data-qtd-acidentes-2012="NULL" data-rodovia="BR-156"/><path d="M449.5,261.8L440.4,245.0L439.4,241.6L436.7,233.0 " data-km-final="671.2" data-km-inicial="642.4" data-qtd-acidentes="6" data-qtd-acidentes-2007="1" data-qtd-acidentes-2008="1" data-qtd-acidentes-2009="1" data-qtd-acidentes-2010="NULL" data-qtd-acidentes-2011="1" data-qtd-acidentes-2012="1" data-rodovia="BR-156"/><path d="M487.1,283.8L485.8,281.7L484.3,258.2 " data-km-final="604.4" data-km-inicial="577.8" data-qtd-acidentes="6" data-qtd-acidentes-2007="2" data-qtd-acidentes-2008="1" data-qtd-acidentes-2009="1" data-qtd-acidentes-2010="NULL" data-qtd-acidentes-2011="2" data-qtd-acidentes-2012="NULL" data-rodovia="BR-156"/><path d="M396.2,149.6L391.0,144.3L391.5,143.3L392.6,140.6 " data-km-final="769.8" data-km-inicial="758.3" data-qtd-acidentes="1" data-qtd-acidentes-2007="NULL" data-qtd-acidentes-2008="1" data-qtd-acidentes-2009="NULL" data-qtd-acidentes-2010="NULL" data-qtd-acidentes-2011="NULL" data-qtd-acidentes-2012="NULL" data-rodovia="BR-156"/><path d="M489.0,287.8L488.7,286.1L488.7,285.8L487.1,283.8 " data-km-final="577.8" data-km-inicial="573.2" data-qtd-acidentes="6" data-qtd-acidentes-2007="2" data-qtd-acidentes-2008="1" data-qtd-acidentes-2009="1" data-qtd-acidentes-2010="NULL" data-qtd-acidentes-2011="2" data-qtd-acidentes-2012="NULL" data-rodovia="BR-156"/><path d="M491.9,379.7L492.8,368.3L491.6,361.2L496.0,352.1 " data-km-final="502.1" data-km-inicial="473.3" data-qtd-acidentes="10" data-qtd-acidentes-2007="3" data-qtd-acidentes-2008="3" data-qtd-acidentes-2009="2" data-qtd-acidentes-2010="NULL" data-qtd-acidentes-2011="1" data-qtd-acidentes-2012="1" data-rodovia="BR-156"/><path d="M436.0,480.0L435.1,479.5L430.5,477.8 " data-km-final="106.2" data-km-inicial="100.5" data-qtd-acidentes="26" data-qtd-acidentes-2007="4" data-qtd-acidentes-2008="5" data-qtd-acidentes-2009="7" data-qtd-acidentes-2010="4" data-qtd-acidentes-2011="1" data-qtd-acidentes-2012="5" data-rodovia="BR-210"/><path d="M473.7,554.9L467.0,552.9L466.9,539.6 " data-km-final="20.8" data-km-inicial="0.0" data-qtd-acidentes="522" data-qtd-acidentes-2007="53" data-qtd-acidentes-2008="63" data-qtd-acidentes-2009="80" data-qtd-acidentes-2010="88" data-qtd-acidentes-2011="108" data-qtd-acidentes-2012="127" data-rodovia="BR-210"/><path d="M430.5,477.8L387.4,488.4L376.8,482.8L365.9,469.3 " data-km-final="179.3" data-km-inicial="106.2" data-qtd-acidentes="83" data-qtd-acidentes-2007="16" data-qtd-acidentes-2008="19" data-qtd-acidentes-2009="14" data-qtd-acidentes-2010="8" data-qtd-acidentes-2011="13" data-qtd-acidentes-2012="13" data-rodovia="BR-210"/><path d="M356.4,457.6L338.0,443.4L331.0,441.0L321.2,435.1 " data-km-final="236.8" data-km-inicial="193.0" data-qtd-acidentes="6" data-qtd-acidentes-2007="2" data-qtd-acidentes-2008="NULL" data-qtd-acidentes-2009="2" data-qtd-acidentes-2010="1" data-qtd-acidentes-2011="NULL" data-qtd-acidentes-2012="1" data-rodovia="BR-210"/><path d="M233.0,416.5L214.9,408.6L190.8,396.3L147.8,384.8 " data-km-final="438.2" data-km-inicial="353.2" data-qtd-acidentes="0" data-qtd-acidentes-2007="" data-qtd-acidentes-2008="" data-qtd-acidentes-2009="" data-qtd-acidentes-2010="" data-qtd-acidentes-2011="" data-qtd-acidentes-2012="" data-rodovia="BR-210"/><path d="M321.2,435.1L292.2,429.5L265.9,419.7 " data-km-final="305.2" data-km-inicial="236.8" data-qtd-acidentes="4" data-qtd-acidentes-2007="NULL" data-qtd-acidentes-2008="1" data-qtd-acidentes-2009="1" data-qtd-acidentes-2010="2" data-qtd-acidentes-2011="NULL" data-qtd-acidentes-2012="NULL" data-rodovia="BR-210"/><path d="M147.8,384.8L139.4,387.7L133.0,386.8L122.3,383.1 " data-km-final="471.2" data-km-inicial="438.2" data-qtd-acidentes="0" data-qtd-acidentes-2007="" data-qtd-acidentes-2008="" data-qtd-acidentes-2009="" data-qtd-acidentes-2010="" data-qtd-acidentes-2011="" data-qtd-acidentes-2012="" data-rodovia="BR-210"/><path d="M365.9,469.3L365.0,467.7L359.1,460.6L356.4,457.6 " data-km-final="193.0" data-km-inicial="179.3" data-qtd-acidentes="10" data-qtd-acidentes-2007="3" data-qtd-acidentes-2008="3" data-qtd-acidentes-2009="1" data-qtd-acidentes-2010="2" data-qtd-acidentes-2011="NULL" data-qtd-acidentes-2012="1" data-rodovia="BR-210"/><path d="M265.9,419.7L250.3,415.3L249.4,415.1L233.0,416.5 " data-km-final="353.2" data-km-inicial="305.2" data-qtd-acidentes="0" data-qtd-acidentes-2007="" data-qtd-acidentes-2008="" data-qtd-acidentes-2009="" data-qtd-acidentes-2010="" data-qtd-acidentes-2011="" data-qtd-acidentes-2012="" data-rodovia="BR-210"/></g><g class="estado" id="estado"><path d="M370.4,704.9L383.5,699.6L393.1,666.8L423.2,628.3L445.9,586.3L443.8,581.2L473.7,565.8L477.2,558.5L526.2,522.9L543.6,495.0L565.9,468.5L568.3,459.8L589.6,446.7L595.2,440.3L613.9,431.6L620.1,394.7L614.2,365.3L604.1,355.7L576.1,345.3L550.2,342.9L544.1,336.9L529.2,309.7L522.6,307.3L509.8,311.7L520.1,298.0L520.4,290.2L501.7,258.2L503.6,241.4L491.6,219.5L490.1,208.7L473.9,152.0L471.8,91.4L463.2,74.2L444.5,47.9L422.0,29.5L416.6,31.8L417.1,41.5L377.1,95.6L322.0,174.0L297.1,233.3L282.4,273.4L270.7,285.5L238.4,299.1L201.5,295.2L196.6,281.4L172.8,286.5L150.8,283.7L135.6,278.7L115.6,298.1L101.9,305.2L89.2,305.0L74.8,299.0L63.0,289.0L38.0,277.3L31.7,263.5L34.3,280.6L29.9,300.0L32.1,332.1L37.2,341.6L60.0,345.6L90.2,357.6L101.2,367.8L129.5,388.2L146.3,392.0L159.9,398.7L169.8,412.5L182.2,413.8L179.4,429.5L184.3,445.5L197.8,464.7L221.2,480.3L221.0,498.3L223.7,516.1L241.3,569.1L248.1,583.6L259.9,593.2L271.0,597.3L283.9,620.3L284.4,636.2L298.4,661.9L301.3,676.2L312.9,679.4L320.0,696.6L330.8,707.4L354.4,713.6L369.4,707.8L370.4,704.9Z M568.3,331.9L572.2,325.3L562.3,303.0L557.9,300.3L543.8,306.2L542.9,310.2L556.4,336.9L568.3,331.9Z M535.4,292.5L554.5,296.2L544.6,288.0L535.4,292.5Z M577.4,334.5L583.3,331.5L579.2,329.3L577.4,334.5Z " data-uf="AP"/></g><g class="vizinho" id="vizinhos"><path d="M369.4,707.8L354.4,713.6L330.8,707.4L320.0,696.6L312.9,679.4L301.3,676.2L298.4,661.9L284.4,636.2L283.9,620.3L271.0,597.3L259.9,593.2L248.1,583.6L241.3,569.1L223.7,516.1L221.0,498.3L221.2,480.3L197.8,464.7L184.3,445.5L179.4,429.5L182.2,413.8L169.8,412.5L159.9,398.7L146.3,392.0L129.5,388.2L101.2,367.8L90.2,357.6L60.0,345.6L37.2,341.6L32.1,332.1L29.9,300.0L34.3,280.6L31.7,263.5L19.8,264.8L8.0,261.8L0.0,253.3L0.0,743.1L334.4,743.1L368.0,732.0L371.0,725.7L371.7,707.9L369.4,707.8Z M508.1,743.1L505.9,732.2L498.6,735.2L504.0,718.7L485.9,707.5L457.8,712.8L402.2,743.1L508.1,743.1Z M650.0,596.9L606.8,586.6L581.1,583.6L567.8,589.0L569.4,612.2L567.4,629.4L525.0,639.3L562.0,657.9L561.4,681.8L553.5,663.9L551.7,675.4L543.5,695.3L548.1,703.5L539.0,704.7L563.9,720.2L565.9,724.0L545.5,743.1L650.0,743.1L650.0,596.9Z M391.6,743.1L419.6,719.9L445.6,691.1L454.1,657.3L462.0,647.6L447.5,634.9L430.6,640.1L413.3,653.8L409.1,661.7L401.1,694.8L379.2,720.3L372.5,743.1L391.6,743.1Z M648.0,536.2L634.8,528.5L600.4,535.1L591.9,534.5L564.4,540.8L561.7,546.4L573.1,557.3L599.5,559.1L623.2,566.8L648.0,536.2Z M537.8,652.6L513.1,670.7L511.7,695.5L532.1,697.3L546.7,679.7L545.9,660.0L537.8,652.6Z M539.3,743.1L558.2,726.7L541.1,714.4L513.4,704.5L509.9,715.7L513.8,732.4L527.6,743.1L539.3,743.1Z M521.7,619.6L521.5,628.3L547.1,630.6L560.2,613.3L557.1,605.6L539.3,593.2L527.2,600.6L521.7,619.6Z M650.0,562.9L636.8,571.6L635.5,576.5L650.0,581.4L650.0,562.9Z M524.7,565.3L491.9,577.6L482.9,591.9L525.9,583.0L528.2,575.3L524.7,565.3Z M602.6,484.4L597.0,490.5L580.2,496.7L574.3,510.9L604.3,494.8L602.6,484.4Z M562.5,493.1L551.9,522.1L554.0,541.4L570.8,528.2L564.6,515.1L562.5,493.1Z M464.8,587.2L455.4,591.3L437.8,623.4L442.6,622.2L457.9,606.3L464.8,587.2Z M472.8,666.0L504.8,652.3L503.2,645.6L494.9,644.6L478.3,656.0L472.8,666.0Z M459.0,683.0L446.7,704.0L451.4,708.7L459.0,683.0Z M468.7,633.9L489.0,608.2L477.3,607.2L468.7,633.9Z M485.5,696.4L499.2,701.4L485.1,688.0L485.5,696.4Z M497.5,565.1L495.9,571.9L515.0,559.8L503.2,559.8L497.5,565.1Z M481.7,677.4L462.2,696.1L465.2,696.5L481.7,677.4Z M552.5,556.2L543.3,566.1L547.7,566.9L552.5,556.2Z M491.3,629.2L503.7,615.2L496.8,618.5L491.3,629.2Z M605.0,519.6L592.8,524.4L591.8,529.8L605.0,519.6Z M477.3,626.0L489.8,622.2L490.5,619.3L477.3,626.0Z M650.0,522.0L645.9,524.9L647.3,526.1L650.0,522.0Z " data-uf="PA"/></g></svg>