<?xml version="1.0" encoding="utf-8"?><!DOCTYPE svg  PUBLIC '-//W3C//DTD SVG 1.1//EN'  'http://www.w3.org/Graphics/SVG/1.1/DTD/svg11.dtd'><svg enable_background="new 0 0 650 773" height="773px" pretty_print="False" style="stroke-linejoin: round; stroke:#000; fill: none;" version="1.1" viewBox="0 0 650 773" width="650px" xmlns="http://www.w3.org/2000/svg" xmlns:xlink="http://www.w3.org/1999/xlink"><defs><style type="text/css"><![CDATA[path { fill-rule: evenodd; }]]></style></defs><metadata><views><view h="773.43978607" padding="0.05" w="650"><proj id="laea" lat0="-5.369988" lon0="-39.3600946834"/><bbox h="66.46" w="55.93" x="972.64" y="966.8"/></view></views></metadata><g class="" id="rodovias"><path d="M397.2,170.6L405.8,163.7L414.5,157.3L417.3,155.9 " data-categoria="3" data-km-final="406.6" data-km-inicial="387.2" data-qtd-acidentes="484" data-rodovia="BR-020"/><path d="M423.1,164.5L422.0,163.0L420.9,161.1L417.3,155.9 " data-categoria="4" data-km-final="8.0" data-km-inicial="0.0" data-qtd-acidentes="530" data-rodovia="BR-020"/><path d="M424.3,152.4L425.8,152.2L426.7,152.1L426.9,152.1 " data-categoria="0" data-km-final="414.7" data-km-inicial="412.6" data-qtd-acidentes="0" data-rodovia="BR-020"/><path d="M417.3,155.9L418.1,155.5L423.3,152.8L424.3,152.4 " data-categoria="0" data-km-final="412.6" data-km-inicial="406.6" data-qtd-acidentes="4" data-rodovia="BR-020"/><path d="M445.2,169.6L443.6,170.6L441.1,170.8 " data-categoria="4" data-km-final="26.3" data-km-inicial="22.8" data-qtd-acidentes="530" data-rodovia="BR-020"/><path d="M226.2,395.4L235.5,380.8L264.2,350.6 " data-categoria="1" data-km-final="203.2" data-km-inicial="155.8" data-qtd-acidentes="87" data-rodovia="BR-020"/><path d="M226.2,395.4L210.6,421.4L199.1,462.1L186.1,476.7 " data-categoria="0" data-km-final="155.8" data-km-inicial="83.1" data-qtd-acidentes="36" data-rodovia="BR-020"/><path d="M300.2,298.2L310.8,285.0L312.0,284.6L318.2,272.4 " data-categoria="0" data-km-final="279.9" data-km-inicial="253.6" data-qtd-acidentes="35" data-rodovia="BR-020"/><path d="M118.0,546.5L126.7,534.6L136.8,525.1L141.4,517.1 " data-categoria="5" data-km-final="34.7" data-km-inicial="0.0" data-qtd-acidentes="1087" data-rodovia="BR-020"/><path d="M264.2,350.6L275.4,331.0L275.8,330.4L287.5,311.6 " data-categoria="2" data-km-final="239.1" data-km-inicial="203.2" data-qtd-acidentes="156" data-rodovia="BR-020"/><path d="M426.9,152.1L429.6,151.7L430.2,151.6L431.1,151.5 " data-categoria="0" data-km-final="418.0" data-km-inicial="414.7" data-qtd-acidentes="0" data-rodovia="BR-020"/><path d="M327.3,238.3L330.9,235.0L339.4,225.7L341.2,221.9 " data-categoria="2" data-km-final="326.2" data-km-inicial="308.8" data-qtd-acidentes="169" data-rodovia="BR-020"/><path d="M441.1,170.8L433.7,168.7L429.5,166.9L428.8,166.8 " data-categoria="4" data-km-final="22.8" data-km-inicial="12.7" data-qtd-acidentes="530" data-rodovia="BR-020"/><path d="M167.9,489.9L171.6,487.8L176.1,483.5L186.1,476.7 " data-categoria="0" data-km-final="83.1" data-km-inicial="65.3" data-qtd-acidentes="10" data-rodovia="BR-020"/><path d="M361.2,203.3L365.5,197.7L366.2,197.1L370.4,193.9 " data-categoria="1" data-km-final="358.9" data-km-inicial="348.5" data-qtd-acidentes="77" data-rodovia="BR-020"/><path d="M348.1,212.4L354.3,210.3L359.9,206.2L361.2,203.3 " data-categoria="1" data-km-final="348.5" data-km-inicial="335.5" data-qtd-acidentes="62" data-rodovia="BR-020"/><path d="M141.4,517.1L150.3,509.8L157.9,498.1L167.9,489.9 " data-categoria="0" data-km-final="65.3" data-km-inicial="34.7" data-qtd-acidentes="8" data-rodovia="BR-020"/><path d="M428.8,166.8L424.1,165.0L423.1,164.5 " data-categoria="4" data-km-final="12.7" data-km-inicial="8.0" data-qtd-acidentes="530" data-rodovia="BR-020"/><path d="M370.4,193.9L373.8,190.2L397.2,170.6 " data-categoria="3" data-km-final="387.2" data-km-inicial="358.9" data-qtd-acidentes="484" data-rodovia="BR-020"/><path d="M341.2,221.9L347.3,213.3L348.1,212.4 " data-categoria="0" data-km-final="335.5" data-km-inicial="326.2" data-qtd-acidentes="44" data-rodovia="BR-020"/><path d="M318.2,272.4L317.8,265.7L327.3,238.3 " data-categoria="2" data-km-final="308.8" data-km-inicial="279.9" data-qtd-acidentes="164" data-rodovia="BR-020"/><path d="M287.5,311.6L291.1,306.2L294.7,303.1L300.2,298.2 " data-categoria="0" data-km-final="253.6" data-km-inicial="239.1" data-qtd-acidentes="40" data-rodovia="BR-020"/><path d="M444.9,157.9L445.4,156.1L445.0,149.4 " data-categoria="0" data-km-final="51.3" data-km-inicial="39.9" data-qtd-acidentes="0" data-rodovia="BR-020"/><path d="M444.3,165.3L444.1,161.0L444.9,157.9 " data-categoria="0" data-km-final="39.9" data-km-inicial="31.4" data-qtd-acidentes="0" data-rodovia="BR-020"/><path d="M445.2,169.6L444.8,168.4L444.3,165.3 " data-categoria="0" data-km-final="31.4" data-km-inicial="26.3" data-qtd-acidentes="0" data-rodovia="BR-020"/><path d="M399.8,630.0L400.1,632.9L400.7,635.7L400.3,644.1 " data-categoria="2" data-km-final="455.4" data-km-inicial="444.5" data-qtd-acidentes="102" data-rodovia="BR-116"/><path d="M440.3,197.8L440.7,199.5L441.1,201.0 " data-categoria="1" data-km-final="37.0" data-km-inicial="34.5" data-qtd-acidentes="98" data-rodovia="BR-116"/><path d="M422.4,474.0L415.6,508.5L402.4,524.7L391.2,533.7 " data-categoria="3" data-km-final="375.6" data-km-inicial="318.3" data-qtd-acidentes="253" data-rodovia="BR-116"/><path d="M360.6,726.6L359.4,729.3L357.6,734.9 " data-categoria="1" data-km-final="548.4" data-km-inicial="538.3" data-qtd-acidentes="81" data-rodovia="BR-116"/><path d="M444.1,210.2L441.9,213.7L442.1,215.0L445.3,217.5 " data-categoria="2" data-km-final="52.9" data-km-inicial="45.5" data-qtd-acidentes="160" data-rodovia="BR-116"/><path d="M368.4,695.4L364.8,704.9L364.8,708.5L367.9,717.7 " data-categoria="1" data-km-final="528.2" data-km-inicial="509.7" data-qtd-acidentes="79" data-rodovia="BR-116"/><path d="M484.3,365.9L485.6,369.5L485.8,370.3L487.2,375.4 " data-categoria="0" data-km-final="213.8" data-km-inicial="206.0" data-qtd-acidentes="17" data-rodovia="BR-116"/><path d="M441.1,201.0L441.3,201.7L442.1,204.9 " data-categoria="3" data-km-final="41.5" data-km-inicial="37.0" data-qtd-acidentes="208" data-rodovia="BR-116"/><path d="M504.8,334.5L493.5,347.6L491.1,349.7 " data-categoria="2" data-km-final="189.0" data-km-inicial="173.8" data-qtd-acidentes="199" data-rodovia="BR-116"/><path d="M378.5,663.1L375.1,673.8L374.6,675.6 " data-categoria="1" data-km-final="493.0" data-km-inicial="482.3" data-qtd-acidentes="92" data-rodovia="BR-116"/><path d="M503.8,302.7L505.3,309.0L506.1,310.3 " data-categoria="0" data-km-final="149.5" data-km-inicial="143.1" data-qtd-acidentes="40" data-rodovia="BR-116"/><path d="M371.5,688.6L370.0,693.5L368.4,695.4 " data-categoria="0" data-km-final="509.7" data-km-inicial="503.4" data-qtd-acidentes="50" data-rodovia="BR-116"/><path d="M398.6,581.7L403.4,589.2L404.0,590.3L404.0,591.5 " data-categoria="0" data-km-final="424.8" data-km-inicial="415.9" data-qtd-acidentes="50" data-rodovia="BR-116"/><path d="M384.3,662.1L382.1,662.1L379.2,663.1L378.5,663.1 " data-categoria="0" data-km-final="482.3" data-km-inicial="477.5" data-qtd-acidentes="44" data-rodovia="BR-116"/><path d="M461.1,261.7L466.3,263.7L482.2,274.2 " data-categoria="2" data-km-final="113.2" data-km-inicial="93.7" data-qtd-acidentes="159" data-rodovia="BR-116"/><path d="M404.0,591.5L404.6,593.5L405.0,594.1L406.6,596.2 " data-categoria="0" data-km-final="429.0" data-km-inicial="424.8" data-qtd-acidentes="39" data-rodovia="BR-116"/><path d="M482.5,361.3L482.9,362.9L483.2,364.4L484.3,365.9 " data-categoria="0" data-km-final="206.0" data-km-inicial="202.1" data-qtd-acidentes="38" data-rodovia="BR-116"/><path d="M482.2,274.2L491.8,285.0L498.3,289.9L504.9,299.8 " data-categoria="2" data-km-final="140.4" data-km-inicial="113.2" data-qtd-acidentes="116" data-rodovia="BR-116"/><path d="M374.6,675.6L373.0,681.2L371.5,688.6 " data-categoria="2" data-km-final="503.4" data-km-inicial="493.0" data-qtd-acidentes="111" data-rodovia="BR-116"/><path d="M422.8,462.1L421.4,466.6L421.8,468.6L422.4,474.0 " data-categoria="0" data-km-final="318.3" data-km-inicial="308.9" data-qtd-acidentes="39" data-rodovia="BR-116"/><path d="M400.3,644.1L391.0,657.1L384.3,662.1 " data-categoria="2" data-km-final="477.5" data-km-inicial="455.4" data-qtd-acidentes="163" data-rodovia="BR-116"/><path d="M442.1,204.9L442.5,205.9L443.2,207.8L444.1,210.2 " data-categoria="2" data-km-final="45.5" data-km-inicial="41.5" data-qtd-acidentes="118" data-rodovia="BR-116"/><path d="M504.9,299.8L505.2,300.6L505.2,300.7L503.8,302.7 " data-categoria="0" data-km-final="143.1" data-km-inicial="140.4" data-qtd-acidentes="20" data-rodovia="BR-116"/><path d="M438.9,185.5L438.6,187.7L440.3,197.8 " data-categoria="3" data-km-final="34.5" data-km-inicial="25.9" data-qtd-acidentes="260" data-rodovia="BR-116"/><path d="M487.2,375.4L486.3,379.0L484.8,382.2L479.0,388.9 " data-categoria="0" data-km-final="226.4" data-km-inicial="213.8" data-qtd-acidentes="15" data-rodovia="BR-116"/><path d="M367.9,717.7L366.8,718.3L365.3,719.4L360.6,726.6 " data-categoria="1" data-km-final="538.3" data-km-inicial="528.2" data-qtd-acidentes="81" data-rodovia="BR-116"/><path d="M441.5,167.8L441.6,167.9L441.1,170.8 " data-categoria="3" data-km-final="14.2" data-km-inicial="11.8" data-qtd-acidentes="400" data-rodovia="BR-116"/><path d="M437.7,154.3L440.7,161.6L440.8,162.1L441.5,167.8 " data-categoria="5" data-km-final="11.8" data-km-inicial="0.0" data-qtd-acidentes="3699" data-rodovia="BR-116"/><path d="M441.1,170.8L440.7,172.7L440.7,173.1L440.2,175.4 " data-categoria="4" data-km-final="17.9" data-km-inicial="14.2" data-qtd-acidentes="827" data-rodovia="BR-116"/><path d="M479.0,388.9L469.2,393.5L466.8,395.0L455.2,401.9 " data-categoria="0" data-km-final="247.7" data-km-inicial="226.4" data-qtd-acidentes="46" data-rodovia="BR-116"/><path d="M506.1,310.3L507.7,313.3L512.3,320.4 " data-categoria="1" data-km-final="160.5" data-km-inicial="149.5" data-qtd-acidentes="78" data-rodovia="BR-116"/><path d="M391.2,533.7L389.8,541.2L388.9,548.5L394.4,568.4 " data-categoria="1" data-km-final="404.8" data-km-inicial="375.6" data-qtd-acidentes="97" data-rodovia="BR-116"/><path d="M443.9,237.3L460.6,256.6L461.0,258.1L461.1,261.7 " data-categoria="3" data-km-final="93.7" data-km-inicial="69.8" data-qtd-acidentes="215" data-rodovia="BR-116"/><path d="M445.3,217.5L442.0,228.6L441.4,230.6L440.6,232.1 " data-categoria="3" data-km-final="64.8" data-km-inicial="52.9" data-qtd-acidentes="419" data-rodovia="BR-116"/><path d="M489.8,354.0L489.3,355.7L482.5,361.3 " data-categoria="0" data-km-final="202.1" data-km-inicial="193.0" data-qtd-acidentes="38" data-rodovia="BR-116"/><path d="M394.4,568.4L395.9,572.7L396.1,573.6L398.6,581.7 " data-categoria="0" data-km-final="415.9" data-km-inicial="404.8" data-qtd-acidentes="28" data-rodovia="BR-116"/><path d="M455.2,401.9L454.9,414.9L453.4,421.3L438.0,439.5 " data-categoria="2" data-km-final="286.5" data-km-inicial="247.7" data-qtd-acidentes="115" data-rodovia="BR-116"/><path d="M440.6,232.1L441.6,234.7L442.3,235.3L443.9,237.3 " data-categoria="3" data-km-final="69.8" data-km-inicial="64.8" data-qtd-acidentes="211" data-rodovia="BR-116"/><path d="M491.1,349.7L489.3,352.9L489.8,354.0 " data-categoria="0" data-km-final="193.0" data-km-inicial="189.0" data-qtd-acidentes="32" data-rodovia="BR-116"/><path d="M440.2,175.4L439.9,177.3L439.2,181.8L438.9,185.5 " data-categoria="4" data-km-final="25.9" data-km-inicial="17.9" data-qtd-acidentes="827" data-rodovia="BR-116"/><path d="M402.6,622.2L400.0,626.1L399.9,626.4L399.8,630.0 " data-categoria="2" data-km-final="444.5" data-km-inicial="437.9" data-qtd-acidentes="102" data-rodovia="BR-116"/><path d="M404.4,619.6L403.1,621.4L402.6,622.2 " data-categoria="0" data-km-final="437.9" data-km-inicial="435.5" data-qtd-acidentes="13" data-rodovia="BR-116"/><path d="M438.0,439.5L432.1,452.6L431.4,453.4L422.8,462.1 " data-categoria="2" data-km-final="308.9" data-km-inicial="286.5" data-qtd-acidentes="131" data-rodovia="BR-116"/><path d="M406.6,596.2L406.6,597.8L407.9,601.2L407.8,602.9 " data-categoria="0" data-km-final="435.5" data-km-inicial="429.0" data-qtd-acidentes="10" data-rodovia="BR-116"/><path d="M512.3,320.4L510.3,329.0L505.1,333.4L504.8,334.5 " data-categoria="2" data-km-final="173.8" data-km-inicial="160.5" data-qtd-acidentes="199" data-rodovia="BR-116"/><path d="M444.1,210.2L446.4,215.0L446.4,215.4L445.3,217.5 " data-categoria="0" data-km-final="6.4" data-km-inicial="0.0" data-qtd-acidentes="0" data-rodovia="BR-116"/><path d="M441.1,201.0L440.3,203.2L440.3,203.3L442.1,204.9 " data-categoria="0" data-km-final="3.9" data-km-inicial="0.0" data-qtd-acidentes="0" data-rodovia="BR-116"/><path d="M369.7,327.3L363.8,333.9L364.0,335.3L360.3,342.6 " data-categoria="0" data-km-final="115.7" data-km-inicial="100.1" data-qtd-acidentes="0" data-rodovia="BR-122"/><path d="M380.3,379.1L382.8,359.3L382.2,358.3L360.3,342.6 " data-categoria="0" data-km-final="158.7" data-km-inicial="115.7" data-qtd-acidentes="0" data-rodovia="BR-122"/><path d="M368.8,437.6L369.9,441.4L366.2,452.1L359.0,467.1 " data-categoria="0" data-km-final="233.7" data-km-inicial="208.7" data-qtd-acidentes="0" data-rodovia="BR-122"/><path d="M431.2,263.2L429.1,266.1L427.3,268.4L424.1,272.7 " data-categoria="0" data-km-final="37.5" data-km-inicial="28.2" data-qtd-acidentes="0" data-rodovia="BR-122"/><path d="M424.1,272.7L419.7,278.7L414.7,285.7L412.3,288.9 " data-categoria="0" data-km-final="53.4" data-km-inicial="37.5" data-qtd-acidentes="0" data-rodovia="BR-122"/><path d="M359.0,467.1L355.0,477.9L355.7,486.4L341.3,511.5 " data-categoria="0" data-km-final="267.7" data-km-inicial="233.7" data-qtd-acidentes="0" data-rodovia="BR-122"/><path d="M369.3,325.2L386.6,313.0L403.4,298.6L412.3,288.9 " data-categoria="0" data-km-final="96.0" data-km-inicial="53.4" data-qtd-acidentes="0" data-rodovia="BR-122"/><path d="M369.3,325.2L367.9,326.6L368.1,327.7L369.7,327.3 " data-categoria="0" data-km-final="100.1" data-km-inicial="96.0" data-qtd-acidentes="0" data-rodovia="BR-122"/><path d="M443.9,237.3L439.6,252.0L435.3,257.8L431.2,263.2 " data-categoria="0" data-km-final="28.2" data-km-inicial="5.0" data-qtd-acidentes="0" data-rodovia="BR-122"/><path d="M325.4,589.1L325.8,593.2L326.5,593.9L327.6,598.9 " data-categoria="0" data-km-final="360.6" data-km-inicial="354.0" data-qtd-acidentes="0" data-rodovia="BR-122"/><path d="M327.6,598.9L328.3,624.1L327.1,629.7L326.7,630.6 " data-categoria="0" data-km-final="381.0" data-km-inicial="360.6" data-qtd-acidentes="0" data-rodovia="BR-122"/><path d="M373.3,415.0L380.3,379.1 " data-categoria="0" data-km-final="189.4" data-km-inicial="158.7" data-qtd-acidentes="0" data-rodovia="BR-122"/><path d="M368.8,437.6L373.3,415.0 " data-categoria="0" data-km-final="208.7" data-km-inicial="189.4" data-qtd-acidentes="0" data-rodovia="BR-122"/><path d="M172.0,145.6L173.3,145.1L173.8,145.0L175.1,145.0 " data-categoria="5" data-km-final="2.5" data-km-inicial="0.0" data-qtd-acidentes="1243" data-rodovia="BR-222"/><path d="M318.6,143.4L304.5,153.7L295.8,152.6 " data-categoria="3" data-km-final="112.6" data-km-inicial="91.0" data-qtd-acidentes="240" data-rodovia="BR-222"/><path d="M418.9,151.3L407.7,150.7L406.1,151.3 " data-categoria="5" data-km-final="11.2" data-km-inicial="0.3" data-qtd-acidentes="2665" data-rodovia="BR-222"/><path d="M220.0,153.0L208.2,158.7L198.8,161.0L187.2,159.7 " data-categoria="2" data-km-final="211.0" data-km-inicial="179.8" data-qtd-acidentes="196" data-rodovia="BR-222"/><path d="M220.0,153.0L239.3,150.5L262.9,154.3L286.7,145.6 " data-categoria="3" data-km-final="179.8" data-km-inicial="122.7" data-qtd-acidentes="381" data-rodovia="BR-222"/><path d="M147.1,154.3L145.6,154.2L145.3,154.2L143.1,154.1 " data-categoria="3" data-km-final="252.7" data-km-inicial="249.6" data-qtd-acidentes="410" data-rodovia="BR-222"/><path d="M177.3,144.0L178.0,146.2L178.1,146.4L178.7,148.7 " data-categoria="0" data-km-final="3.8" data-km-inicial="0.0" data-qtd-acidentes="0" data-rodovia="BR-222"/><path d="M382.1,144.1L382.0,144.1L381.9,144.1L381.1,143.8 " data-categoria="1" data-km-final="42.0" data-km-inicial="41.3" data-qtd-acidentes="87" data-rodovia="BR-222"/><path d="M180.3,149.9L179.5,149.3L179.3,149.2L178.7,148.7 " data-categoria="0" data-km-final="222.8" data-km-inicial="221.2" data-qtd-acidentes="43" data-rodovia="BR-222"/><path d="M85.3,148.5L84.5,149.1L84.2,149.5L83.3,151.2 " data-categoria="1" data-km-final="314.3" data-km-inicial="311.4" data-qtd-acidentes="59" data-rodovia="BR-222"/><path d="M335.1,142.4L342.0,142.0L345.7,141.9L352.6,142.2 " data-categoria="2" data-km-final="77.8" data-km-inicial="64.2" data-qtd-acidentes="157" data-rodovia="BR-222"/><path d="M381.1,143.8L378.2,142.8L376.3,142.3L372.7,141.9 " data-categoria="1" data-km-final="48.2" data-km-inicial="42.0" data-qtd-acidentes="87" data-rodovia="BR-222"/><path d="M95.2,140.6L93.5,139.4L85.3,148.5 " data-categoria="3" data-km-final="311.4" data-km-inicial="296.2" data-qtd-acidentes="410" data-rodovia="BR-222"/><path d="M417.3,155.9L412.5,154.7L412.3,154.6L406.1,151.3 " data-categoria="3" data-km-final="21.2" data-km-inicial="11.4" data-qtd-acidentes="295" data-rodovia="BR-222"/><path d="M157.7,151.1L155.9,152.1L147.1,154.3 " data-categoria="1" data-km-final="249.6" data-km-inicial="240.6" data-qtd-acidentes="60" data-rodovia="BR-222"/><path d="M95.2,140.6L111.7,154.9L128.2,153.2L143.1,154.1 " data-categoria="3" data-km-final="296.2" data-km-inicial="252.7" data-qtd-acidentes="410" data-rodovia="BR-222"/><path d="M406.1,151.3L405.3,151.0L394.6,147.8 " data-categoria="2" data-km-final="30.5" data-km-inicial="21.2" data-qtd-acidentes="178" data-rodovia="BR-222"/><path d="M172.0,145.6L171.3,146.0L166.8,147.8L157.7,151.1 " data-categoria="2" data-km-final="240.6" data-km-inicial="228.6" data-qtd-acidentes="104" data-rodovia="BR-222"/><path d="M388.0,145.9L387.5,145.8L382.1,144.1 " data-categoria="1" data-km-final="41.3" data-km-inicial="35.7" data-qtd-acidentes="73" data-rodovia="BR-222"/><path d="M419.3,151.4L420.2,151.6L422.6,152.1L424.3,152.4 " data-categoria="0" data-km-final="3.8" data-km-inicial="0.0" data-qtd-acidentes="0" data-rodovia="BR-222"/><path d="M318.6,143.4L323.4,142.1L325.4,142.2L329.6,142.6 " data-categoria="1" data-km-final="91.0" data-km-inicial="82.3" data-qtd-acidentes="87" data-rodovia="BR-222"/><path d="M295.8,152.6L287.4,146.0L286.7,145.6 " data-categoria="3" data-km-final="122.7" data-km-inicial="112.6" data-qtd-acidentes="240" data-rodovia="BR-222"/><path d="M187.2,159.7L186.4,156.6L180.3,149.9 " data-categoria="1" data-km-final="221.2" data-km-inicial="211.0" data-qtd-acidentes="98" data-rodovia="BR-222"/><path d="M394.6,147.8L390.3,146.6L389.1,146.4L388.0,145.9 " data-categoria="1" data-km-final="35.7" data-km-inicial="30.5" data-qtd-acidentes="82" data-rodovia="BR-222"/><path d="M83.3,151.2L62.3,169.6L60.7,171.2 " data-categoria="2" data-km-final="348.7" data-km-inicial="314.3" data-qtd-acidentes="105" data-rodovia="BR-222"/><path d="M335.1,142.4L332.3,142.5L331.5,142.6L329.6,142.6 " data-categoria="1" data-km-final="82.3" data-km-inicial="77.8" data-qtd-acidentes="73" data-rodovia="BR-222"/><path d="M372.7,141.9L368.8,141.6L366.6,141.7L352.6,142.2 " data-categoria="2" data-km-final="64.2" data-km-inicial="48.2" data-qtd-acidentes="186" data-rodovia="BR-222"/><path d="M178.7,148.7L176.8,147.6L174.1,146.8L172.0,145.6 " data-categoria="1" data-km-final="228.6" data-km-inicial="222.8" data-qtd-acidentes="97" data-rodovia="BR-222"/><path d="M418.9,151.3L419.0,151.3L419.1,151.3L419.3,151.4 " data-categoria="5" data-km-final="0.3" data-km-inicial="0.0" data-qtd-acidentes="2665" data-rodovia="BR-222"/><path d="M350.9,437.3L348.5,434.7L347.3,433.2L340.6,430.0 " data-categoria="0" data-km-final="139.5" data-km-inicial="129.0" data-qtd-acidentes="0" data-rodovia="BR-226"/><path d="M340.6,430.0L321.6,421.6L317.1,415.1 " data-categoria="0" data-km-final="166.8" data-km-inicial="139.5" data-qtd-acidentes="0" data-rodovia="BR-226"/><path d="M183.0,390.4L155.9,374.2L134.0,359.1 " data-categoria="0" data-km-final="332.6" data-km-inicial="285.9" data-qtd-acidentes="0" data-rodovia="BR-226"/><path d="M284.4,407.9L281.4,407.1L266.5,397.3 " data-categoria="0" data-km-final="219.1" data-km-inicial="200.2" data-qtd-acidentes="0" data-rodovia="BR-226"/><path d="M226.2,395.4L208.9,395.1L206.6,395.6L183.0,390.4 " data-categoria="0" data-km-final="285.9" data-km-inicial="249.1" data-qtd-acidentes="2" data-rodovia="BR-226"/><path d="M284.4,407.9L289.4,404.8L292.0,406.5L298.7,407.3 " data-categoria="0" data-km-final="200.2" data-km-inicial="186.4" data-qtd-acidentes="0" data-rodovia="BR-226"/><path d="M226.2,395.4L254.9,396.7L266.5,397.3 " data-categoria="0" data-km-final="249.1" data-km-inicial="219.1" data-qtd-acidentes="1" data-rodovia="BR-226"/><path d="M467.7,489.7L467.4,483.8L466.3,480.5L462.6,479.9 " data-categoria="0" data-km-final="12.0" data-km-inicial="0.0" data-qtd-acidentes="0" data-rodovia="BR-226"/><path d="M459.0,476.6L454.1,478.4L452.2,477.8L446.1,483.0 " data-categoria="0" data-km-final="26.0" data-km-inicial="15.2" data-qtd-acidentes="0" data-rodovia="BR-226"/><path d="M417.4,459.7L395.7,445.2L384.2,445.0L368.8,437.6 " data-categoria="0" data-km-final="113.0" data-km-inicial="68.1" data-qtd-acidentes="0" data-rodovia="BR-226"/><path d="M317.1,415.1L313.9,411.0L298.7,407.3 " data-categoria="0" data-km-final="186.4" data-km-inicial="166.8" data-qtd-acidentes="0" data-rodovia="BR-226"/><path d="M422.8,462.1L421.8,461.6L419.6,459.2 " data-categoria="0" data-km-final="66.6" data-km-inicial="63.2" data-qtd-acidentes="0" data-rodovia="BR-226"/><path d="M462.6,479.9L461.1,478.9L460.9,478.6L459.0,476.6 " data-categoria="0" data-km-final="15.2" data-km-inicial="12.0" data-qtd-acidentes="0" data-rodovia="BR-226"/><path d="M446.1,482.0L438.2,482.5L437.2,482.9L422.4,474.0 " data-categoria="0" data-km-final="53.8" data-km-inicial="26.8" data-qtd-acidentes="0" data-rodovia="BR-226"/><path d="M368.8,437.6L360.1,438.6L350.9,437.3 " data-categoria="0" data-km-final="129.0" data-km-inicial="113.0" data-qtd-acidentes="0" data-rodovia="BR-226"/><path d="M102.3,343.8L96.3,339.5L94.3,339.5 " data-categoria="0" data-km-final="374.6" data-km-inicial="359.6" data-qtd-acidentes="0" data-rodovia="BR-226"/><path d="M134.0,359.1L103.6,345.2L102.3,343.8 " data-categoria="0" data-km-final="359.6" data-km-inicial="332.6" data-qtd-acidentes="0" data-rodovia="BR-226"/><path d="M419.6,459.2L419.5,459.2L417.4,459.7 " data-categoria="0" data-km-final="68.1" data-km-inicial="66.6" data-qtd-acidentes="0" data-rodovia="BR-226"/><path d="M446.1,483.0L446.1,482.7L446.1,482.0 " data-categoria="0" data-km-final="26.8" data-km-inicial="26.0" data-qtd-acidentes="0" data-rodovia="BR-226"/><path d="M314.0,594.6L294.8,602.1L290.4,605.5L287.6,608.8 " data-categoria="0" data-km-final="116.0" data-km-inicial="92.0" data-qtd-acidentes="0" data-rodovia="BR-230"/><path d="M328.6,589.1L326.8,589.4L326.2,589.4 " data-categoria="0" data-km-final="80.5" data-km-inicial="78.5" data-qtd-acidentes="0" data-rodovia="BR-230"/><path d="M364.4,585.5L361.8,585.4L358.6,586.0L352.1,584.2 " data-categoria="0" data-km-final="58.5" data-km-inicial="48.4" data-qtd-acidentes="3" data-rodovia="BR-230"/><path d="M336.5,588.1L329.3,589.0L328.6,589.1 " data-categoria="0" data-km-final="78.5" data-km-inicial="72.4" data-qtd-acidentes="0" data-rodovia="BR-230"/><path d="M352.1,584.2L342.3,583.7L340.4,586.7L336.5,588.1 " data-categoria="0" data-km-final="72.4" data-km-inicial="58.5" data-qtd-acidentes="0" data-rodovia="BR-230"/><path d="M325.4,589.1L324.4,588.6L314.0,594.6 " data-categoria="0" data-km-final="92.0" data-km-inicial="81.6" data-qtd-acidentes="0" data-rodovia="BR-230"/><path d="M326.2,589.4L326.2,589.4L325.9,589.3L325.4,589.1 " data-categoria="0" data-km-final="81.6" data-km-inicial="80.5" data-qtd-acidentes="0" data-rodovia="BR-230"/><path d="M374.5,583.4L373.4,582.7L368.5,585.7L364.4,585.5 " data-categoria="0" data-km-final="48.4" data-km-inicial="39.5" data-qtd-acidentes="5" data-rodovia="BR-230"/><path d="M398.6,581.7L388.5,584.4L378.5,583.2L374.5,583.4 " data-categoria="0" data-km-final="39.5" data-km-inicial="19.8" data-qtd-acidentes="4" data-rodovia="BR-230"/><path d="M414.7,598.5L412.9,598.3L406.6,596.2 " data-categoria="0" data-km-final="6.7" data-km-inicial="0.0" data-qtd-acidentes="8" data-rodovia="BR-230"/><path d="M245.6,599.8L205.8,602.3 " data-categoria="0" data-km-final="201.0" data-km-inicial="151.0" data-qtd-acidentes="0" data-rodovia="BR-230"/><path d="M287.6,608.8L245.6,599.8 " data-categoria="0" data-km-final="151.0" data-km-inicial="116.0" data-qtd-acidentes="0" data-rodovia="BR-230"/><path d="M314.0,594.6L315.2,597.3L315.9,600.6 " data-categoria="0" data-km-final="5.9" data-km-inicial="0.0" data-qtd-acidentes="0" data-rodovia="BR-230"/><path d="M549.6,271.6L559.8,275.7L575.4,293.0 " data-categoria="2" data-km-final="79.5" data-km-inicial="52.9" data-qtd-acidentes="160" data-rodovia="BR-304"/><path d="M575.4,293.0L584.0,304.6L585.9,307.6L591.0,315.6 " data-categoria="1" data-km-final="100.8" data-km-inicial="79.5" data-qtd-acidentes="61" data-rodovia="BR-304"/><path d="M542.0,271.8L544.5,272.5L544.6,272.5L547.7,270.9 " data-categoria="1" data-km-final="51.3" data-km-inicial="46.8" data-qtd-acidentes="86" data-rodovia="BR-304"/><path d="M482.2,274.2L484.0,273.8L533.7,272.4 " data-categoria="1" data-km-final="40.2" data-km-inicial="0.0" data-qtd-acidentes="60" data-rodovia="BR-304"/><path d="M547.7,270.9L547.9,270.9L549.6,271.6 " data-categoria="2" data-km-final="52.9" data-km-inicial="51.3" data-qtd-acidentes="160" data-rodovia="BR-304"/><path d="M533.7,272.4L538.4,272.3L538.8,272.3L542.0,271.8 " data-categoria="1" data-km-final="46.8" data-km-inicial="40.2" data-qtd-acidentes="57" data-rodovia="BR-304"/><path d="M64.7,49.5L79.8,44.6L97.6,40.6L100.0,38.8 " data-categoria="0" data-km-final="52.3" data-km-inicial="18.6" data-qtd-acidentes="0" data-rodovia="CE-085"/><path d="M52.2,52.5L63.6,49.0 " data-categoria="0" data-km-final="17.6" data-km-inicial="5.2" data-qtd-acidentes="0" data-rodovia="CE-085"/><path d="M63.6,49.0L63.7,49.0L64.0,49.0L64.1,49.1 " data-categoria="0" data-km-final="18.0" data-km-inicial="17.6" data-qtd-acidentes="0" data-rodovia="CE-085"/><path d="M64.1,49.1L64.4,49.2L64.7,49.5 " data-categoria="0" data-km-final="18.6" data-km-inicial="18.0" data-qtd-acidentes="0" data-rodovia="CE-085"/><path d="M103.9,40.7L107.1,64.7 " data-categoria="0" data-km-final="75.1" data-km-inicial="52.3" data-qtd-acidentes="0" data-rodovia="CE-085"/><path d="M209.0,78.4L212.0,77.7L213.9,78.0 " data-categoria="0" data-km-final="42.9" data-km-inicial="39.1" data-qtd-acidentes="0" data-rodovia="CE-178"/><path d="M189.7,133.3L191.7,130.3L193.9,125.8L197.4,111.5 " data-categoria="0" data-km-final="90.4" data-km-inicial="72.0" data-qtd-acidentes="0" data-rodovia="CE-178"/><path d="M197.4,111.5L205.0,99.5L209.0,87.0L209.0,78.4 " data-categoria="0" data-km-final="72.0" data-km-inicial="42.9" data-qtd-acidentes="0" data-rodovia="CE-178"/><path d="M180.3,149.9L182.1,146.3L187.2,137.5L189.7,133.3 " data-categoria="0" data-km-final="105.2" data-km-inicial="90.4" data-qtd-acidentes="0" data-rodovia="CE-178"/><path d="M160.4,205.2L158.9,194.6L158.5,189.4 " data-categoria="0" data-km-final="167.2" data-km-inicial="155.3" data-qtd-acidentes="0" data-rodovia="CE-183"/><path d="M158.6,216.4L160.8,212.1L160.4,205.2 " data-categoria="0" data-km-final="176.2" data-km-inicial="167.2" data-qtd-acidentes="0" data-rodovia="CE-183"/><path d="M158.5,189.4L157.9,185.3L157.9,183.6L157.6,181.5 " data-categoria="0" data-km-final="155.3" data-km-inicial="149.4" data-qtd-acidentes="0" data-rodovia="CE-183"/><path d="M130.0,443.2L137.9,452.5L158.8,457.9L186.1,476.7 " data-categoria="0" data-km-final="222.3" data-km-inicial="164.4" data-qtd-acidentes="0" data-rodovia="CE-187"/><path d="M147.0,290.1L154.2,299.0L155.3,311.6L150.3,323.5 " data-categoria="0" data-km-final="290.6" data-km-inicial="265.7" data-qtd-acidentes="0" data-rodovia="CE-187"/><path d="M124.6,266.8L143.3,271.4L146.3,274.9L147.0,290.1 " data-categoria="0" data-km-final="265.7" data-km-inicial="234.8" data-qtd-acidentes="0" data-rodovia="CE-187"/><path d="M150.3,323.5L147.1,342.3L138.1,350.5L134.0,359.1 " data-categoria="0" data-km-final="326.5" data-km-inicial="290.6" data-qtd-acidentes="0" data-rodovia="CE-187"/><path d="M117.1,408.2L116.8,412.0L118.0,415.8L130.0,443.2 " data-categoria="0" data-km-final="164.4" data-km-inicial="132.1" data-qtd-acidentes="0" data-rodovia="CE-187"/><path d="M126.1,235.8L125.9,243.3 " data-categoria="0" data-km-final="217.4" data-km-inicial="209.6" data-qtd-acidentes="0" data-rodovia="CE-187"/><path d="M134.0,359.1L127.8,368.8L117.1,408.2 " data-categoria="0" data-km-final="132.1" data-km-inicial="85.0" data-qtd-acidentes="0" data-rodovia="CE-187"/><path d="M125.9,243.3L125.4,254.2L124.9,260.1L124.6,266.8 " data-categoria="0" data-km-final="234.8" data-km-inicial="217.4" data-qtd-acidentes="0" data-rodovia="CE-187"/><path d="M332.7,529.9L345.2,532.9L355.9,531.9L363.9,534.9 " data-categoria="0" data-km-final="383.9" data-km-inicial="351.7" data-qtd-acidentes="0" data-rodovia="CE-282"/><path d="M391.2,533.7L380.8,534.0L378.6,535.1L376.3,534.4 " data-categoria="0" data-km-final="406.7" data-km-inicial="394.0" data-qtd-acidentes="0" data-rodovia="CE-282"/><path d="M376.3,534.4L366.3,534.8L363.9,534.9 " data-categoria="0" data-km-final="394.0" data-km-inicial="383.9" data-qtd-acidentes="0" data-rodovia="CE-282"/><path d="M174.9,628.6L174.3,628.6L161.9,630.2 " data-categoria="0" data-km-final="241.9" data-km-inicial="232.9" data-qtd-acidentes="0" data-rodovia="CE-292"/><path d="M300.6,655.9L305.6,653.2 " data-categoria="0" data-km-final="428.8" data-km-inicial="424.5" data-qtd-acidentes="0" data-rodovia="CE-292"/><path d="M309.9,649.6L309.9,649.3L310.0,648.6 " data-categoria="0" data-km-final="420.1" data-km-inicial="419.4" data-qtd-acidentes="0" data-rodovia="CE-292"/><path d="M305.6,653.2L309.3,650.8L309.9,649.6 " data-categoria="0" data-km-final="424.5" data-km-inicial="420.1" data-qtd-acidentes="0" data-rodovia="CE-292"/><path d="M310.0,648.6L325.0,649.0 " data-categoria="0" data-km-final="419.4" data-km-inicial="408.4" data-qtd-acidentes="0" data-rodovia="CE-292"/><path d="M126.1,235.8L127.6,233.7L132.7,231.8L139.1,226.1 " data-categoria="0" data-km-final="209.6" data-km-inicial="195.7" data-qtd-acidentes="0" data-rodovia="CE-329"/><path d="M139.1,226.1L143.6,222.8L152.5,214.6 " data-categoria="0" data-km-final="195.7" data-km-inicial="181.0" data-qtd-acidentes="0" data-rodovia="CE-329"/><path d="M152.5,214.6L155.8,216.3L158.6,216.4 " data-categoria="0" data-km-final="181.0" data-km-inicial="176.2" data-qtd-acidentes="0" data-rodovia="CE-366"/><path d="M205.8,602.3L200.9,607.7L185.9,621.2L174.9,628.6 " data-categoria="0" data-km-final="232.9" data-km-inicial="201.0" data-qtd-acidentes="0" data-rodovia="CE-371"/><path d="M321.7,519.9L325.9,516.7 " data-categoria="0" data-km-final="283.7" data-km-inicial="279.8" data-qtd-acidentes="0" data-rodovia="CE-375"/><path d="M325.9,516.7L330.5,513.6L332.9,513.2L341.3,511.5 " data-categoria="0" data-km-final="279.8" data-km-inicial="267.7" data-qtd-acidentes="0" data-rodovia="CE-375"/><path d="M284.5,668.1L289.5,664.2L295.4,660.0L300.6,655.9 " data-categoria="0" data-km-final="445.5" data-km-inicial="428.8" data-qtd-acidentes="0" data-rodovia="CE-494"/><path d="M161.4,72.4L152.5,60.3L142.6,56.1L130.7,51.5 " data-categoria="0" data-km-final="128.9" data-km-inicial="94.6" data-qtd-acidentes="0" data-rodovia="BR-402"/><path d="M281.7,115.4L284.7,117.0L285.5,117.1L286.4,117.5 " data-categoria="0" data-km-final="262.5" data-km-inicial="258.5" data-qtd-acidentes="0" data-rodovia="BR-402"/><path d="M308.5,139.8L297.4,117.3L295.5,116.0L289.8,114.2 " data-categoria="0" data-km-final="295.4" data-km-inicial="266.4" data-qtd-acidentes="0" data-rodovia="BR-402"/><path d="M107.1,64.7L127.2,54.2L129.9,51.5 " data-categoria="0" data-km-final="94.1" data-km-inicial="75.1" data-qtd-acidentes="0" data-rodovia="BR-402"/><path d="M214.4,63.7L213.8,77.4L213.9,78.0 " data-categoria="0" data-km-final="193.9" data-km-inicial="183.0" data-qtd-acidentes="0" data-rodovia="BR-402"/><path d="M204.8,63.9L208.6,63.7L209.4,63.7L214.4,63.7 " data-categoria="0" data-km-final="183.0" data-km-inicial="175.5" data-qtd-acidentes="0" data-rodovia="BR-402"/><path d="M161.4,72.4L167.0,78.1L182.6,66.0L204.8,63.9 " data-categoria="0" data-km-final="175.5" data-km-inicial="128.9" data-qtd-acidentes="0" data-rodovia="BR-402"/><path d="M129.9,51.5L130.3,51.5L130.5,51.5L130.7,51.5 " data-categoria="0" data-km-final="94.6" data-km-inicial="94.1" data-qtd-acidentes="0" data-rodovia="BR-402"/><path d="M213.9,78.0L228.2,79.9L230.5,80.2L238.8,84.7 " data-categoria="0" data-km-final="214.7" data-km-inicial="193.9" data-qtd-acidentes="0" data-rodovia="BR-402"/><path d="M286.4,117.5L287.7,116.0L289.8,114.2 " data-categoria="0" data-km-final="266.4" data-km-inicial="262.5" data-qtd-acidentes="0" data-rodovia="BR-402"/><path d="M249.2,98.1L252.0,98.7L260.4,104.0L281.7,115.4 " data-categoria="0" data-km-final="258.5" data-km-inicial="229.5" data-qtd-acidentes="0" data-rodovia="BR-402"/><path d="M318.6,143.4L311.3,141.2L310.6,140.7L308.5,139.8 " data-categoria="0" data-km-final="304.1" data-km-inicial="295.4" data-qtd-acidentes="0" data-rodovia="BR-402"/><path d="M238.8,84.7L240.2,85.9L241.2,89.7L249.2,98.1 " data-categoria="0" data-km-final="229.5" data-km-inicial="214.7" data-qtd-acidentes="0" data-rodovia="BR-402"/><path d="M209.5,32.0L209.5,32.1L209.5,32.3L209.5,32.7 " data-categoria="0" data-km-final="2.6" data-km-inicial="1.9" data-qtd-acidentes="0" data-rodovia="BR-403"/><path d="M157.7,151.1L154.9,159.2L155.6,163.4L157.6,181.5 " data-categoria="0" data-km-final="149.4" data-km-inicial="124.6" data-qtd-acidentes="0" data-rodovia="BR-403"/><path d="M202.2,34.1L207.6,32.8L209.5,32.7 " data-categoria="0" data-km-final="6.7" data-km-inicial="0.0" data-qtd-acidentes="0" data-rodovia="BR-403"/><path d="M209.5,32.7L208.4,49.5L214.6,57.9L214.4,63.7 " data-categoria="0" data-km-final="28.2" data-km-inicial="2.6" data-qtd-acidentes="0" data-rodovia="BR-403"/><path d="M134.0,359.1L123.9,331.9L117.7,319.0 " data-categoria="0" data-km-final="85.0" data-km-inicial="55.0" data-qtd-acidentes="0" data-rodovia="BR-404"/><path d="M105.3,304.6L117.7,319.0 " data-categoria="0" data-km-final="55.0" data-km-inicial="43.7" data-qtd-acidentes="0" data-rodovia="BR-404"/><path d="M288.0,510.9L322.3,524.0 " data-categoria="0" data-km-final="341.4" data-km-inicial="311.0" data-qtd-acidentes="0" data-rodovia="BR-404"/><path d="M244.4,494.1L268.5,503.4 " data-categoria="0" data-km-final="293.7" data-km-inicial="272.3" data-qtd-acidentes="0" data-rodovia="BR-404"/><path d="M268.5,503.4L288.0,510.9 " data-categoria="0" data-km-final="311.0" data-km-inicial="293.7" data-qtd-acidentes="0" data-rodovia="BR-404"/><path d="M94.7,294.5L95.2,294.9L105.3,304.6 " data-categoria="0" data-km-final="43.7" data-km-inicial="35.0" data-qtd-acidentes="0" data-rodovia="BR-404"/><path d="M186.1,476.7L244.4,494.1 " data-categoria="0" data-km-final="272.3" data-km-inicial="222.3" data-qtd-acidentes="0" data-rodovia="BR-404"/><path d="M322.3,524.0L327.3,529.0 " data-categoria="0" data-km-final="347.3" data-km-inicial="341.4" data-qtd-acidentes="0" data-rodovia="BR-404"/><path d="M87.1,290.3L94.7,294.5 " data-categoria="0" data-km-final="35.0" data-km-inicial="0.0" data-qtd-acidentes="0" data-rodovia="BR-404"/><path d="M427.6,532.3L427.6,532.2L391.2,533.7 " data-categoria="0" data-km-final="38.0" data-km-inicial="0.0" data-qtd-acidentes="0" data-rodovia="BR-434"/><path d="M542.8,364.7L518.8,364.2L507.6,367.5L496.6,371.2 " data-categoria="0" data-km-final="46.1" data-km-inicial="0.0" data-qtd-acidentes="0" data-rodovia="BR-437"/><path d="M496.6,371.2L495.9,370.7L495.5,370.3L494.5,369.9 " data-categoria="0" data-km-final="48.5" data-km-inicial="46.1" data-qtd-acidentes="0" data-rodovia="BR-437"/><path d="M332.7,529.9L330.3,528.8L330.1,528.8L327.3,529.0 " data-categoria="0" data-km-final="296.4" data-km-inicial="292.0" data-qtd-acidentes="0" data-rodovia="CE-060"/><path d="M323.8,522.2L322.7,521.0L321.7,519.9 " data-categoria="0" data-km-final="286.1" data-km-inicial="283.7" data-qtd-acidentes="0" data-rodovia="CE-060"/><path d="M326.7,630.6L326.7,631.1L325.1,641.0L324.8,646.3 " data-categoria="0" data-km-final="404.3" data-km-inicial="381.0" data-qtd-acidentes="0" data-rodovia="CE-060"/><path d="M324.8,646.3L325.0,649.0 " data-categoria="0" data-km-final="408.4" data-km-inicial="404.3" data-qtd-acidentes="0" data-rodovia="CE-060"/><path d="M325.9,555.9L322.9,564.8L332.3,568.7L325.4,589.1 " data-categoria="0" data-km-final="354.0" data-km-inicial="320.9" data-qtd-acidentes="0" data-rodovia="CE-060"/><path d="M327.3,529.0L326.3,526.0L324.9,523.6L323.8,522.2 " data-categoria="0" data-km-final="292.0" data-km-inicial="286.1" data-qtd-acidentes="0" data-rodovia="CE-060"/><path d="M332.7,529.9L330.0,536.7L324.0,548.7L325.9,555.9 " data-categoria="0" data-km-final="320.9" data-km-inicial="296.4" data-qtd-acidentes="0" data-rodovia="CE-060"/></g><g class="estado" id="estado"><path d="M167.9,680.2L186.7,678.2L227.1,679.9L267.2,672.0L284.1,676.4L296.4,682.9L325.6,703.5L344.4,727.8L352.4,727.3L359.3,737.4L371.1,741.9L380.2,739.6L404.7,718.3L412.4,715.0L417.9,706.2L436.8,684.4L437.3,667.5L422.4,648.7L422.7,640.8L406.6,628.0L408.6,616.5L419.8,606.9L426.2,594.6L425.1,583.0L428.2,565.2L437.4,556.3L441.2,539.3L435.4,543.2L430.6,540.2L439.2,521.3L445.7,518.5L480.6,490.6L482.7,482.2L504.2,448.4L509.1,432.0L532.5,396.8L561.3,333.8L568.5,326.7L620.1,312.8L616.0,301.1L572.5,281.0L557.1,265.2L520.8,234.3L446.1,149.7L413.5,141.1L376.0,109.7L347.2,96.2L333.9,84.6L298.3,69.1L280.9,58.8L244.4,40.5L227.2,33.5L193.2,30.7L161.6,29.5L143.3,31.4L121.1,38.9L115.2,59.6L105.7,41.6L98.1,37.9L49.1,40.9L51.4,49.8L53.4,56.7L46.6,75.0L37.9,82.8L29.9,112.8L30.9,125.8L48.7,151.3L58.0,161.8L63.5,180.7L72.7,200.7L71.5,209.5L75.8,236.2L86.8,245.9L91.7,257.2L86.3,281.2L89.5,317.0L98.9,360.7L95.3,397.7L101.0,400.3L103.9,464.4L113.9,518.9L117.1,528.0L118.6,558.0L141.8,585.7L169.8,600.2L151.2,649.1L154.6,668.3L159.7,678.5L167.9,680.2Z " data-uf="CE"/></g><g class="vizinho" id="vizinhos"><path d="M650.0,771.4L650.0,692.5L624.3,700.4L628.7,723.3L605.4,758.5L607.7,761.5L625.9,759.7L632.4,763.4L631.8,771.4L650.0,771.4Z M441.2,539.3L437.4,556.3L428.2,565.2L425.1,583.0L426.2,594.6L419.8,606.9L408.6,616.5L406.6,628.0L422.7,640.8L422.4,648.7L437.3,667.5L436.8,684.4L417.9,706.2L412.4,715.0L419.4,719.6L433.1,726.9L446.9,729.5L468.2,726.6L473.1,736.1L481.1,740.6L516.0,727.2L530.6,715.2L546.7,709.8L564.4,700.1L592.3,678.4L614.7,666.3L631.8,670.4L650.0,680.4L650.0,588.9L637.1,599.0L626.2,602.9L613.5,588.6L582.1,581.7L580.9,575.6L596.0,554.1L603.3,539.5L630.3,508.7L624.7,496.7L600.4,497.7L581.9,503.3L549.3,520.2L536.2,532.4L501.9,558.4L491.0,559.7L464.1,550.3L456.0,539.1L443.7,537.0L441.2,539.3Z " data-uf="PB"/><path d="M412.4,715.0L404.7,718.3L380.2,739.6L371.1,741.9L359.3,737.4L352.4,727.3L344.4,727.8L325.6,703.5L296.4,682.9L284.1,676.4L267.2,672.0L227.1,679.9L186.7,678.2L167.9,680.2L159.7,678.5L150.8,680.8L139.8,677.0L132.1,681.8L131.2,693.3L142.6,711.8L154.8,753.3L153.1,771.4L631.8,771.4L632.4,763.4L625.9,759.7L607.7,761.5L605.4,758.5L628.7,723.3L624.3,700.4L650.0,692.5L650.0,680.4L631.8,670.4L614.7,666.3L592.3,678.4L564.4,700.1L546.7,709.8L530.6,715.2L516.0,727.2L481.1,740.6L473.1,736.1L468.2,726.6L446.9,729.5L433.1,726.9L419.4,719.6L412.4,715.0Z " data-uf="PE"/><path d="M159.7,678.5L154.6,668.3L151.2,649.1L169.8,600.2L141.8,585.7L118.6,558.0L117.1,528.0L113.9,518.9L103.9,464.4L101.0,400.3L95.3,397.7L98.9,360.7L89.5,317.0L86.3,281.2L91.7,257.2L86.8,245.9L75.8,236.2L71.5,209.5L72.7,200.7L63.5,180.7L58.0,161.8L48.7,151.3L30.9,125.8L29.9,112.8L37.9,82.8L46.6,75.0L53.4,56.7L44.4,57.7L32.5,48.0L19.8,43.3L0.0,40.1L0.0,771.4L153.1,771.4L154.8,753.3L142.6,711.8L131.2,693.3L132.1,681.8L139.8,677.0L150.8,680.8L159.7,678.5Z " data-uf="PI"/><path d="M620.1,312.8L568.5,326.7L561.3,333.8L532.5,396.8L509.1,432.0L504.2,448.4L482.7,482.2L480.6,490.6L445.7,518.5L439.2,521.3L430.6,540.2L435.4,543.2L441.2,539.3L443.7,537.0L456.0,539.1L464.1,550.3L491.0,559.7L501.9,558.4L536.2,532.4L549.3,520.2L581.9,503.3L600.4,497.7L624.7,496.7L630.3,508.7L603.3,539.5L596.0,554.1L580.9,575.6L582.1,581.7L613.5,588.6L626.2,602.9L637.1,599.0L650.0,588.9L650.0,334.2L647.1,333.3L634.2,323.8L620.1,312.8Z " data-uf="RN"/></g></svg>