<?xml version="1.0" encoding="utf-8"?><!DOCTYPE svg  PUBLIC '-//W3C//DTD SVG 1.1//EN'  'http://www.w3.org/Graphics/SVG/1.1/DTD/svg11.dtd'><svg enable_background="new 0 0 650 444" height="444px" pretty_print="False" style="stroke-linejoin: round; stroke:#000; fill: none;" version="1.1" viewBox="0 0 650 444" width="650px" xmlns="http://www.w3.org/2000/svg" xmlns:xlink="http://www.w3.org/1999/xlink"><defs><style type="text/css"><![CDATA[path { fill-rule: evenodd; }]]></style></defs><metadata><views><view h="444.12541871" padding="0.05" w="650"><proj id="laea" lat0="-15.893034" lon0="-47.7522405355"/><bbox h="8.32" w="12.2" x="993.9" y="994.25"/></view></views></metadata><g class="" id="rodovias"><path d="M373.6,112.3L376.4,110.9L382.3,109.9L387.1,110.3 " data-km-final="25.6" data-km-inicial="22.6" data-qtd-acidentes="0" data-qtd-acidentes-2007="" data-qtd-acidentes-2008="" data-qtd-acidentes-2009="" data-qtd-acidentes-2010="" data-qtd-acidentes-2011="" data-qtd-acidentes-2012="" data-rodovia="BR-010"/><path d="M291.9,155.8L302.5,150.6L303.0,150.4L306.3,148.9 " data-km-final="8.4" data-km-inicial="6.0" data-qtd-acidentes="0" data-qtd-acidentes-2007="" data-qtd-acidentes-2008="" data-qtd-acidentes-2009="" data-qtd-acidentes-2010="" data-qtd-acidentes-2011="" data-qtd-acidentes-2012="" data-rodovia="BR-010"/><path d="M269.5,167.7L278.0,164.5L289.3,157.0L291.9,155.8 " data-km-final="6.0" data-km-inicial="2.5" data-qtd-acidentes="0" data-qtd-acidentes-2007="" data-qtd-acidentes-2008="" data-qtd-acidentes-2009="" data-qtd-acidentes-2010="" data-qtd-acidentes-2011="" data-qtd-acidentes-2012="" data-rodovia="BR-010"/><path d="M306.3,148.9L329.1,137.8L331.4,136.7L353.9,123.6 " data-km-final="18.8" data-km-inicial="8.4" data-qtd-acidentes="0" data-qtd-acidentes-2007="" data-qtd-acidentes-2008="" data-qtd-acidentes-2009="" data-qtd-acidentes-2010="" data-qtd-acidentes-2011="" data-qtd-acidentes-2012="" data-rodovia="BR-010"/><path d="M387.1,110.3L391.1,110.5L410.8,112.3L439.1,104.4 " data-km-final="33.6" data-km-inicial="25.6" data-qtd-acidentes="0" data-qtd-acidentes-2007="" data-qtd-acidentes-2008="" data-qtd-acidentes-2009="" data-qtd-acidentes-2010="" data-qtd-acidentes-2011="" data-qtd-acidentes-2012="" data-rodovia="BR-010"/><path d="M353.9,123.6L369.1,114.8L373.6,112.3 " data-km-final="22.6" data-km-inicial="18.8" data-qtd-acidentes="0" data-qtd-acidentes-2007="" data-qtd-acidentes-2008="" data-qtd-acidentes-2009="" data-qtd-acidentes-2010="" data-qtd-acidentes-2011="" data-qtd-acidentes-2012="" data-rodovia="BR-010"/><path d="M257.7,171.2L261.4,170.4L262.5,170.0L269.5,167.7 " data-km-final="2.5" data-km-inicial="0.0" data-qtd-acidentes="0" data-qtd-acidentes-2007="" data-qtd-acidentes-2008="" data-qtd-acidentes-2009="" data-qtd-acidentes-2010="" data-qtd-acidentes-2011="" data-qtd-acidentes-2012="" data-rodovia="BR-010"/><path d="M577.8,102.8L579.5,102.4L582.8,101.7L583.4,101.5 " data-km-final="57.9" data-km-inicial="57.1" data-qtd-acidentes="18" data-qtd-acidentes-2007="1" data-qtd-acidentes-2008="3" data-qtd-acidentes-2009="7" data-qtd-acidentes-2010="2" data-qtd-acidentes-2011="3" data-qtd-acidentes-2012="2" data-rodovia="BR-020"/><path d="M486.3,100.0L493.6,98.4L504.2,98.2L528.7,101.7 " data-km-final="48.8" data-km-inicial="41.6" data-qtd-acidentes="143" data-qtd-acidentes-2007="12" data-qtd-acidentes-2008="11" data-qtd-acidentes-2009="13" data-qtd-acidentes-2010="26" data-qtd-acidentes-2011="42" data-qtd-acidentes-2012="38" data-rodovia="BR-020"/><path d="M439.1,104.4L447.8,101.6L450.4,101.5 " data-km-final="35.6" data-km-inicial="33.6" data-qtd-acidentes="40" data-qtd-acidentes-2007="2" data-qtd-acidentes-2008="5" data-qtd-acidentes-2009="17" data-qtd-acidentes-2010="7" data-qtd-acidentes-2011="4" data-qtd-acidentes-2012="5" data-rodovia="BR-020"/><path d="M450.4,101.5L451.2,101.5L451.7,101.5L452.3,101.5 " data-km-final="36.4" data-km-inicial="35.6" data-qtd-acidentes="18" data-qtd-acidentes-2007="3" data-qtd-acidentes-2008="1" data-qtd-acidentes-2009="3" data-qtd-acidentes-2010="5" data-qtd-acidentes-2011="5" data-qtd-acidentes-2012="1" data-rodovia="BR-020"/><path d="M545.9,100.2L573.2,104.4L577.8,102.8 " data-km-final="57.1" data-km-inicial="52.1" data-qtd-acidentes="106" data-qtd-acidentes-2007="11" data-qtd-acidentes-2008="9" data-qtd-acidentes-2009="13" data-qtd-acidentes-2010="21" data-qtd-acidentes-2011="24" data-qtd-acidentes-2012="28" data-rodovia="BR-020"/><path d="M486.3,100.0L478.4,101.4L466.8,101.4L452.3,101.5 " data-km-final="41.6" data-km-inicial="36.4" data-qtd-acidentes="65" data-qtd-acidentes-2007="5" data-qtd-acidentes-2008="9" data-qtd-acidentes-2009="17" data-qtd-acidentes-2010="8" data-qtd-acidentes-2011="14" data-qtd-acidentes-2012="12" data-rodovia="BR-020"/><path d="M528.7,101.7L532.6,101.4L545.9,100.2 " data-km-final="52.1" data-km-inicial="48.8" data-qtd-acidentes="52" data-qtd-acidentes-2007="8" data-qtd-acidentes-2008="4" data-qtd-acidentes-2009="3" data-qtd-acidentes-2010="10" data-qtd-acidentes-2011="11" data-qtd-acidentes-2012="16" data-rodovia="BR-020"/><path d="M180.6,407.9L180.5,408.6L180.4,408.8L180.3,409.4 " data-km-final="8.4" data-km-inicial="8.2" data-qtd-acidentes="3" data-qtd-acidentes-2007="NULL" data-qtd-acidentes-2008="NULL" data-qtd-acidentes-2009="NULL" data-qtd-acidentes-2010="1" data-qtd-acidentes-2011="1" data-qtd-acidentes-2012="1" data-rodovia="BR-040"/><path d="M174.9,360.7L176.2,365.2L176.6,366.7L178.7,377.6 " data-km-final="2.2" data-km-inicial="0.0" data-qtd-acidentes="740" data-qtd-acidentes-2007="90" data-qtd-acidentes-2008="102" data-qtd-acidentes-2009="136" data-qtd-acidentes-2010="156" data-qtd-acidentes-2011="146" data-qtd-acidentes-2012="109" data-rodovia="BR-040"/><path d="M182.0,394.7L181.8,399.7L180.6,407.9 " data-km-final="8.2" data-km-inicial="5.6" data-qtd-acidentes="353" data-qtd-acidentes-2007="47" data-qtd-acidentes-2008="46" data-qtd-acidentes-2009="56" data-qtd-acidentes-2010="65" data-qtd-acidentes-2011="56" data-qtd-acidentes-2012="77" data-rodovia="BR-040"/><path d="M178.7,377.6L179.2,380.0L179.5,381.6L180.6,387.3 " data-km-final="5.0" data-km-inicial="2.2" data-qtd-acidentes="555" data-qtd-acidentes-2007="58" data-qtd-acidentes-2008="77" data-qtd-acidentes-2009="109" data-qtd-acidentes-2010="102" data-qtd-acidentes-2011="106" data-qtd-acidentes-2012="103" data-rodovia="BR-040"/><path d="M180.6,387.3L180.8,388.0L181.5,391.9L182.0,394.7 " data-km-final="5.6" data-km-inicial="5.0" data-qtd-acidentes="47" data-qtd-acidentes-2007="6" data-qtd-acidentes-2008="9" data-qtd-acidentes-2009="10" data-qtd-acidentes-2010="12" data-qtd-acidentes-2011="5" data-qtd-acidentes-2012="5" data-rodovia="BR-040"/><path d="M104.6,307.1L86.6,312.8L86.2,312.9L78.3,315.4 " data-km-final="9.2" data-km-inicial="4.4" data-qtd-acidentes="333" data-qtd-acidentes-2007="57" data-qtd-acidentes-2008="46" data-qtd-acidentes-2009="54" data-qtd-acidentes-2010="37" data-qtd-acidentes-2011="80" data-qtd-acidentes-2012="57" data-rodovia="BR-060"/><path d="M113.7,304.2L111.4,304.9L107.8,306.1L104.6,307.1 " data-km-final="4.4" data-km-inicial="3.0" data-qtd-acidentes="169" data-qtd-acidentes-2007="24" data-qtd-acidentes-2008="20" data-qtd-acidentes-2009="18" data-qtd-acidentes-2010="27" data-qtd-acidentes-2011="37" data-qtd-acidentes-2012="43" data-rodovia="BR-060"/><path d="M78.3,315.4L77.7,315.6L77.5,315.6L77.1,315.7 " data-km-final="9.4" data-km-inicial="9.2" data-qtd-acidentes="333" data-qtd-acidentes-2007="57" data-qtd-acidentes-2008="46" data-qtd-acidentes-2009="54" data-qtd-acidentes-2010="37" data-qtd-acidentes-2011="80" data-qtd-acidentes-2012="57" data-rodovia="BR-060"/><path d="M130.6,298.9L130.5,298.9L113.7,304.2 " data-km-final="3.0" data-km-inicial="0.0" data-qtd-acidentes="177" data-qtd-acidentes-2007="28" data-qtd-acidentes-2008="17" data-qtd-acidentes-2009="33" data-qtd-acidentes-2010="27" data-qtd-acidentes-2011="29" data-qtd-acidentes-2012="43" data-rodovia="BR-060"/><path d="M77.1,315.7L68.8,318.4L63.9,326.0 " data-km-final="12.4" data-km-inicial="9.4" data-qtd-acidentes="145" data-qtd-acidentes-2007="24" data-qtd-acidentes-2008="25" data-qtd-acidentes-2009="31" data-qtd-acidentes-2010="20" data-qtd-acidentes-2011="20" data-qtd-acidentes-2012="25" data-rodovia="BR-060"/><path d="M63.9,326.0L50.7,358.5L50.1,359.1L35.4,365.1 " data-km-final="22.4" data-km-inicial="12.4" data-qtd-acidentes="176" data-qtd-acidentes-2007="38" data-qtd-acidentes-2008="25" data-qtd-acidentes-2009="24" data-qtd-acidentes-2010="30" data-qtd-acidentes-2011="30" data-qtd-acidentes-2012="29" data-rodovia="BR-060"/><path d="M135.0,239.6L90.5,234.3L87.1,234.2 " data-km-final="8.2" data-km-inicial="0.0" data-qtd-acidentes="829" data-qtd-acidentes-2007="112" data-qtd-acidentes-2008="129" data-qtd-acidentes-2009="127" data-qtd-acidentes-2010="114" data-qtd-acidentes-2011="191" data-qtd-acidentes-2012="153" data-rodovia="BR-070"/><path d="M59.7,242.2L58.5,242.8L44.8,241.8 " data-km-final="15.8" data-km-inicial="13.2" data-qtd-acidentes="99" data-qtd-acidentes-2007="28" data-qtd-acidentes-2008="15" data-qtd-acidentes-2009="11" data-qtd-acidentes-2010="14" data-qtd-acidentes-2011="17" data-qtd-acidentes-2012="14" data-rodovia="BR-070"/><path d="M87.1,234.2L63.0,241.4L61.0,242.0L59.7,242.2 " data-km-final="13.2" data-km-inicial="8.2" data-qtd-acidentes="414" data-qtd-acidentes-2007="64" data-qtd-acidentes-2008="59" data-qtd-acidentes-2009="43" data-qtd-acidentes-2010="71" data-qtd-acidentes-2011="100" data-qtd-acidentes-2012="75" data-rodovia="BR-070"/><path d="M44.8,241.8L31.2,238.8 " data-km-final="19.8" data-km-inicial="15.8" data-qtd-acidentes="220" data-qtd-acidentes-2007="23" data-qtd-acidentes-2008="25" data-qtd-acidentes-2009="26" data-qtd-acidentes-2010="36" data-qtd-acidentes-2011="60" data-qtd-acidentes-2012="50" data-rodovia="BR-070"/><path d="M38.9,170.2L39.1,168.2L39.4,165.0L39.3,164.2 " data-km-final="20.6" data-km-inicial="17.2" data-qtd-acidentes="0" data-qtd-acidentes-2007="" data-qtd-acidentes-2008="" data-qtd-acidentes-2009="" data-qtd-acidentes-2010="" data-qtd-acidentes-2011="" data-qtd-acidentes-2012="" data-rodovia="BR-080"/><path d="M38.6,171.3L38.6,171.2L38.8,170.7L38.9,170.2 " data-km-final="17.2" data-km-inicial="17.0" data-qtd-acidentes="0" data-qtd-acidentes-2007="" data-qtd-acidentes-2008="" data-qtd-acidentes-2009="" data-qtd-acidentes-2010="" data-qtd-acidentes-2011="" data-qtd-acidentes-2012="" data-rodovia="BR-080"/><path d="M90.3,198.4L81.9,199.6L63.6,199.6L62.7,199.4 " data-km-final="9.7" data-km-inicial="5.0" data-qtd-acidentes="0" data-qtd-acidentes-2007="" data-qtd-acidentes-2008="" data-qtd-acidentes-2009="" data-qtd-acidentes-2010="" data-qtd-acidentes-2011="" data-qtd-acidentes-2012="" data-rodovia="BR-080"/><path d="M43.1,187.4L40.7,179.5L39.6,175.8L38.6,171.3 " data-km-final="17.0" data-km-inicial="14.4" data-qtd-acidentes="0" data-qtd-acidentes-2007="" data-qtd-acidentes-2008="" data-qtd-acidentes-2009="" data-qtd-acidentes-2010="" data-qtd-acidentes-2011="" data-qtd-acidentes-2012="" data-rodovia="BR-080"/><path d="M121.4,202.7L115.1,201.1L113.0,200.9L90.3,198.4 " data-km-final="5.0" data-km-inicial="0.0" data-qtd-acidentes="0" data-qtd-acidentes-2007="" data-qtd-acidentes-2008="" data-qtd-acidentes-2009="" data-qtd-acidentes-2010="" data-qtd-acidentes-2011="" data-qtd-acidentes-2012="" data-rodovia="BR-080"/><path d="M62.7,199.4L49.3,199.5L48.6,199.4L43.1,187.4 " data-km-final="14.4" data-km-inicial="9.7" data-qtd-acidentes="0" data-qtd-acidentes-2007="" data-qtd-acidentes-2008="" data-qtd-acidentes-2009="" data-qtd-acidentes-2010="" data-qtd-acidentes-2011="" data-qtd-acidentes-2012="" data-rodovia="BR-080"/><path d="M326.6,335.0L325.8,334.7L324.2,334.4L320.5,335.3 " data-km-final="32.9" data-km-inicial="31.9" data-qtd-acidentes="9" data-qtd-acidentes-2007="1" data-qtd-acidentes-2008="NULL" data-qtd-acidentes-2009="NULL" data-qtd-acidentes-2010="3" data-qtd-acidentes-2011="2" data-qtd-acidentes-2012="3" data-rodovia="BR-251"/><path d="M320.5,335.3L300.8,340.2L299.2,340.1L277.8,336.3 " data-km-final="42.1" data-km-inicial="32.9" data-qtd-acidentes="48" data-qtd-acidentes-2007="6" data-qtd-acidentes-2008="5" data-qtd-acidentes-2009="7" data-qtd-acidentes-2010="4" data-qtd-acidentes-2011="12" data-qtd-acidentes-2012="13" data-rodovia="BR-251"/><path d="M444.1,375.1L440.9,374.2L438.8,372.3L437.1,369.5 " data-km-final="8.0" data-km-inicial="6.8" data-qtd-acidentes="5" data-qtd-acidentes-2007="NULL" data-qtd-acidentes-2008="1" data-qtd-acidentes-2009="NULL" data-qtd-acidentes-2010="1" data-qtd-acidentes-2011="2" data-qtd-acidentes-2012="1" data-rodovia="BR-251"/><path d="M428.9,356.1L428.4,354.9L418.8,339.0 " data-km-final="13.9" data-km-inicial="10.5" data-qtd-acidentes="8" data-qtd-acidentes-2007="2" data-qtd-acidentes-2008="NULL" data-qtd-acidentes-2009="1" data-qtd-acidentes-2010="NULL" data-qtd-acidentes-2011="3" data-qtd-acidentes-2012="2" data-rodovia="BR-251"/><path d="M437.1,369.5L433.1,362.8L430.6,358.5L428.9,356.1 " data-km-final="10.5" data-km-inicial="8.0" data-qtd-acidentes="7" data-qtd-acidentes-2007="NULL" data-qtd-acidentes-2008="NULL" data-qtd-acidentes-2009="2" data-qtd-acidentes-2010="2" data-qtd-acidentes-2011="3" data-qtd-acidentes-2012="NULL" data-rodovia="BR-251"/><path d="M460.2,407.9L453.6,387.8L450.4,378.1L448.7,376.2 " data-km-final="6.0" data-km-inicial="0.0" data-qtd-acidentes="19" data-qtd-acidentes-2007="5" data-qtd-acidentes-2008="2" data-qtd-acidentes-2009="2" data-qtd-acidentes-2010="3" data-qtd-acidentes-2011="1" data-qtd-acidentes-2012="5" data-rodovia="BR-251"/><path d="M257.5,342.6L275.5,337.0L277.8,336.3 " data-km-final="45.6" data-km-inicial="42.1" data-qtd-acidentes="3" data-qtd-acidentes-2007="1" data-qtd-acidentes-2008="2" data-qtd-acidentes-2009="NULL" data-qtd-acidentes-2010="NULL" data-qtd-acidentes-2011="NULL" data-qtd-acidentes-2012="NULL" data-rodovia="BR-251"/><path d="M418.8,339.0L414.7,334.4L403.5,340.5L397.8,349.6L379.4,350.1L373.7,343.3L357.1,343.4L326.6,335.0 " data-km-final="31.9" data-km-inicial="13.9" data-qtd-acidentes="75" data-qtd-acidentes-2007="14" data-qtd-acidentes-2008="12" data-qtd-acidentes-2009="7" data-qtd-acidentes-2010="10" data-qtd-acidentes-2011="15" data-qtd-acidentes-2012="16" data-rodovia="BR-251"/><path d="M448.7,376.2L446.3,375.5L446.1,375.4L444.1,375.1 " data-km-final="6.8" data-km-inicial="6.0" data-qtd-acidentes="0" data-qtd-acidentes-2007="" data-qtd-acidentes-2008="" data-qtd-acidentes-2009="" data-qtd-acidentes-2010="" data-qtd-acidentes-2011="" data-qtd-acidentes-2012="" data-rodovia="BR-251"/><path d="M140.7,329.2L142.3,334.2L143.2,336.2L145.0,339.2 " data-km-final="69.5" data-km-inicial="67.6" data-qtd-acidentes="0" data-qtd-acidentes-2007="" data-qtd-acidentes-2008="" data-qtd-acidentes-2009="" data-qtd-acidentes-2010="" data-qtd-acidentes-2011="" data-qtd-acidentes-2012="" data-rodovia="DF-001"/><path d="M216.6,362.7L202.4,363.4L190.6,359.1L174.9,360.7 " data-km-final="60.8" data-km-inicial="53.4" data-qtd-acidentes="0" data-qtd-acidentes-2007="" data-qtd-acidentes-2008="" data-qtd-acidentes-2009="" data-qtd-acidentes-2010="" data-qtd-acidentes-2011="" data-qtd-acidentes-2012="" data-rodovia="DF-001"/><path d="M135.5,295.9L133.7,296.9L133.2,297.1L130.6,298.9 " data-km-final="76.1" data-km-inicial="75.1" data-qtd-acidentes="0" data-qtd-acidentes-2007="" data-qtd-acidentes-2008="" data-qtd-acidentes-2009="" data-qtd-acidentes-2010="" data-qtd-acidentes-2011="" data-qtd-acidentes-2012="" data-rodovia="DF-001"/><path d="M151.5,293.5L140.6,292.5L138.6,293.6L135.5,295.9 " data-km-final="78.9" data-km-inicial="76.1" data-qtd-acidentes="0" data-qtd-acidentes-2007="" data-qtd-acidentes-2008="" data-qtd-acidentes-2009="" data-qtd-acidentes-2010="" data-qtd-acidentes-2011="" data-qtd-acidentes-2012="" data-rodovia="DF-001"/><path d="M134.7,310.1L135.2,311.6L138.1,320.9L140.7,329.2 " data-km-final="72.9" data-km-inicial="69.5" data-qtd-acidentes="0" data-qtd-acidentes-2007="" data-qtd-acidentes-2008="" data-qtd-acidentes-2009="" data-qtd-acidentes-2010="" data-qtd-acidentes-2011="" data-qtd-acidentes-2012="" data-rodovia="DF-001"/><path d="M135.0,239.6L140.6,220.4L139.2,214.4 " data-km-final="93.5" data-km-inicial="89.1" data-qtd-acidentes="0" data-qtd-acidentes-2007="" data-qtd-acidentes-2008="" data-qtd-acidentes-2009="" data-qtd-acidentes-2010="" data-qtd-acidentes-2011="" data-qtd-acidentes-2012="" data-rodovia="DF-001"/><path d="M135.0,239.6L132.2,253.8L133.8,259.3L137.2,264.6 " data-km-final="89.1" data-km-inicial="84.6" data-qtd-acidentes="0" data-qtd-acidentes-2007="" data-qtd-acidentes-2008="" data-qtd-acidentes-2009="" data-qtd-acidentes-2010="" data-qtd-acidentes-2011="" data-qtd-acidentes-2012="" data-rodovia="DF-001"/><path d="M145.0,339.2L146.7,341.3L148.5,343.6L156.1,352.8 " data-km-final="67.6" data-km-inicial="64.6" data-qtd-acidentes="0" data-qtd-acidentes-2007="" data-qtd-acidentes-2008="" data-qtd-acidentes-2009="" data-qtd-acidentes-2010="" data-qtd-acidentes-2011="" data-qtd-acidentes-2012="" data-rodovia="DF-001"/><path d="M137.2,264.6L141.2,273.7L147.9,286.4L151.5,293.5 " data-km-final="84.6" data-km-inicial="78.9" data-qtd-acidentes="0" data-qtd-acidentes-2007="" data-qtd-acidentes-2008="" data-qtd-acidentes-2009="" data-qtd-acidentes-2010="" data-qtd-acidentes-2011="" data-qtd-acidentes-2012="" data-rodovia="DF-001"/><path d="M130.6,298.9L131.5,300.8L134.7,310.1 " data-km-final="75.1" data-km-inicial="72.9" data-qtd-acidentes="0" data-qtd-acidentes-2007="" data-qtd-acidentes-2008="" data-qtd-acidentes-2009="" data-qtd-acidentes-2010="" data-qtd-acidentes-2011="" data-qtd-acidentes-2012="" data-rodovia="DF-001"/><path d="M174.9,360.7L159.0,356.3L156.1,352.8 " data-km-final="64.6" data-km-inicial="60.8" data-qtd-acidentes="0" data-qtd-acidentes-2007="" data-qtd-acidentes-2008="" data-qtd-acidentes-2009="" data-qtd-acidentes-2010="" data-qtd-acidentes-2011="" data-qtd-acidentes-2012="" data-rodovia="DF-001"/><path d="M139.2,214.4L128.8,203.2L128.4,203.1L121.4,202.7 " data-km-final="97.4" data-km-inicial="93.5" data-qtd-acidentes="0" data-qtd-acidentes-2007="" data-qtd-acidentes-2008="" data-qtd-acidentes-2009="" data-qtd-acidentes-2010="" data-qtd-acidentes-2011="" data-qtd-acidentes-2012="" data-rodovia="DF-001"/><path d="M257.5,342.6L247.4,350.6L242.6,352.8L216.6,362.7 " data-km-final="53.4" data-km-inicial="45.6" data-qtd-acidentes="0" data-qtd-acidentes-2007="" data-qtd-acidentes-2008="" data-qtd-acidentes-2009="" data-qtd-acidentes-2010="" data-qtd-acidentes-2011="" data-qtd-acidentes-2012="" data-rodovia="DF-001"/><path d="M491.5,170.8L499.2,173.8L507.5,177.1L519.9,182.0 " data-km-final="19.0" data-km-inicial="13.8" data-qtd-acidentes="0" data-qtd-acidentes-2007="" data-qtd-acidentes-2008="" data-qtd-acidentes-2009="" data-qtd-acidentes-2010="" data-qtd-acidentes-2011="" data-qtd-acidentes-2012="" data-rodovia="DF-250"/><path d="M600.5,191.0L595.5,191.9L592.6,192.5L588.9,192.8 " data-km-final="1.9" data-km-inicial="0.0" data-qtd-acidentes="0" data-qtd-acidentes-2007="" data-qtd-acidentes-2008="" data-qtd-acidentes-2009="" data-qtd-acidentes-2010="" data-qtd-acidentes-2011="" data-qtd-acidentes-2012="" data-rodovia="DF-250"/><path d="M523.7,183.5L526.2,184.5L528.0,185.1 " data-km-final="13.1" data-km-inicial="12.4" data-qtd-acidentes="0" data-qtd-acidentes-2007="" data-qtd-acidentes-2008="" data-qtd-acidentes-2009="" data-qtd-acidentes-2010="" data-qtd-acidentes-2011="" data-qtd-acidentes-2012="" data-rodovia="DF-250"/><path d="M359.0,205.4L371.4,201.8L372.6,200.9L383.4,196.5 " data-km-final="43.3" data-km-inicial="38.7" data-qtd-acidentes="0" data-qtd-acidentes-2007="" data-qtd-acidentes-2008="" data-qtd-acidentes-2009="" data-qtd-acidentes-2010="" data-qtd-acidentes-2011="" data-qtd-acidentes-2012="" data-rodovia="DF-250"/><path d="M519.9,182.0L520.2,182.2L523.3,183.4L523.7,183.5 " data-km-final="13.8" data-km-inicial="13.1" data-qtd-acidentes="0" data-qtd-acidentes-2007="" data-qtd-acidentes-2008="" data-qtd-acidentes-2009="" data-qtd-acidentes-2010="" data-qtd-acidentes-2011="" data-qtd-acidentes-2012="" data-rodovia="DF-250"/><path d="M475.9,170.3L484.5,168.0L491.5,170.8 " data-km-final="21.7" data-km-inicial="19.0" data-qtd-acidentes="0" data-qtd-acidentes-2007="" data-qtd-acidentes-2008="" data-qtd-acidentes-2009="" data-qtd-acidentes-2010="" data-qtd-acidentes-2011="" data-qtd-acidentes-2012="" data-rodovia="DF-250"/><path d="M576.7,193.7L573.0,193.1L567.3,192.1L553.8,189.7 " data-km-final="8.0" data-km-inicial="4.0" data-qtd-acidentes="0" data-qtd-acidentes-2007="" data-qtd-acidentes-2008="" data-qtd-acidentes-2009="" data-qtd-acidentes-2010="" data-qtd-acidentes-2011="" data-qtd-acidentes-2012="" data-rodovia="DF-250"/><path d="M440.0,188.0L443.8,186.2L445.0,185.6L472.5,171.9 " data-km-final="28.3" data-km-inicial="22.2" data-qtd-acidentes="0" data-qtd-acidentes-2007="" data-qtd-acidentes-2008="" data-qtd-acidentes-2009="" data-qtd-acidentes-2010="" data-qtd-acidentes-2011="" data-qtd-acidentes-2012="" data-rodovia="DF-250"/><path d="M383.4,196.5L399.7,193.9L404.6,197.7L418.4,197.4 " data-km-final="38.7" data-km-inicial="32.3" data-qtd-acidentes="0" data-qtd-acidentes-2007="" data-qtd-acidentes-2008="" data-qtd-acidentes-2009="" data-qtd-acidentes-2010="" data-qtd-acidentes-2011="" data-qtd-acidentes-2012="" data-rodovia="DF-250"/><path d="M548.5,188.7L552.8,189.5L553.2,189.6L553.8,189.7 " data-km-final="8.9" data-km-inicial="8.0" data-qtd-acidentes="0" data-qtd-acidentes-2007="" data-qtd-acidentes-2008="" data-qtd-acidentes-2009="" data-qtd-acidentes-2010="" data-qtd-acidentes-2011="" data-qtd-acidentes-2012="" data-rodovia="DF-250"/><path d="M528.0,185.1L528.4,185.1L541.7,187.4L548.5,188.7 " data-km-final="12.4" data-km-inicial="8.9" data-qtd-acidentes="0" data-qtd-acidentes-2007="" data-qtd-acidentes-2008="" data-qtd-acidentes-2009="" data-qtd-acidentes-2010="" data-qtd-acidentes-2011="" data-qtd-acidentes-2012="" data-rodovia="DF-250"/><path d="M472.5,171.9L474.6,170.9L475.9,170.3 " data-km-final="22.2" data-km-inicial="21.7" data-qtd-acidentes="0" data-qtd-acidentes-2007="" data-qtd-acidentes-2008="" data-qtd-acidentes-2009="" data-qtd-acidentes-2010="" data-qtd-acidentes-2011="" data-qtd-acidentes-2012="" data-rodovia="DF-250"/><path d="M418.4,197.4L420.7,197.3L424.8,195.5L440.0,188.0 " data-km-final="32.3" data-km-inicial="28.3" data-qtd-acidentes="0" data-qtd-acidentes-2007="" data-qtd-acidentes-2008="" data-qtd-acidentes-2009="" data-qtd-acidentes-2010="" data-qtd-acidentes-2011="" data-qtd-acidentes-2012="" data-rodovia="DF-250"/><path d="M588.9,192.8L584.3,193.2L578.5,193.7L576.7,193.7 " data-km-final="4.0" data-km-inicial="1.9" data-qtd-acidentes="0" data-qtd-acidentes-2007="" data-qtd-acidentes-2008="" data-qtd-acidentes-2009="" data-qtd-acidentes-2010="" data-qtd-acidentes-2011="" data-qtd-acidentes-2012="" data-rodovia="DF-250"/><path d="M309.1,216.6L337.6,219.7L339.9,218.6L359.0,205.4 " data-km-final="52.9" data-km-inicial="43.3" data-qtd-acidentes="0" data-qtd-acidentes-2007="" data-qtd-acidentes-2008="" data-qtd-acidentes-2009="" data-qtd-acidentes-2010="" data-qtd-acidentes-2011="" data-qtd-acidentes-2012="" data-rodovia="DF-250"/><path d="M439.1,104.4L439.4,101.3L439.6,100.7L452.7,83.4 " data-km-final="37.7" data-km-inicial="33.6" data-qtd-acidentes="0" data-qtd-acidentes-2007="" data-qtd-acidentes-2008="" data-qtd-acidentes-2009="" data-qtd-acidentes-2010="" data-qtd-acidentes-2011="" data-qtd-acidentes-2012="" data-rodovia="DF-345"/><path d="M465.6,60.6L469.2,49.2L469.7,48.0 " data-km-final="44.6" data-km-inicial="42.3" data-qtd-acidentes="0" data-qtd-acidentes-2007="" data-qtd-acidentes-2008="" data-qtd-acidentes-2009="" data-qtd-acidentes-2010="" data-qtd-acidentes-2011="" data-qtd-acidentes-2012="" data-rodovia="DF-345"/><path d="M452.7,83.4L461.7,71.4L462.8,69.6L465.6,60.6 " data-km-final="42.3" data-km-inicial="37.7" data-qtd-acidentes="0" data-qtd-acidentes-2007="" data-qtd-acidentes-2008="" data-qtd-acidentes-2009="" data-qtd-acidentes-2010="" data-qtd-acidentes-2011="" data-qtd-acidentes-2012="" data-rodovia="DF-345"/><path d="M227.2,195.4L225.9,197.5L224.0,200.7L221.5,204.9 " data-km-final="8.6" data-km-inicial="6.7" data-qtd-acidentes="6" data-qtd-acidentes-2007="2" data-qtd-acidentes-2008="3" data-qtd-acidentes-2009="NULL" data-qtd-acidentes-2010="NULL" data-qtd-acidentes-2011="NULL" data-qtd-acidentes-2012="NULL" data-rodovia="BR-450"/><path d="M221.5,204.9L217.9,211.0L213.0,219.2 " data-km-final="11.6" data-km-inicial="8.6" data-qtd-acidentes="5" data-qtd-acidentes-2007="3" data-qtd-acidentes-2008="1" data-qtd-acidentes-2009="NULL" data-qtd-acidentes-2010="NULL" data-qtd-acidentes-2011="1" data-qtd-acidentes-2012="NULL" data-rodovia="BR-450"/><path d="M173.8,341.5L174.1,354.0L174.9,360.7 " data-km-final="36.8" data-km-inicial="33.5" data-qtd-acidentes="408" data-qtd-acidentes-2007="58" data-qtd-acidentes-2008="52" data-qtd-acidentes-2009="85" data-qtd-acidentes-2010="57" data-qtd-acidentes-2011="86" data-qtd-acidentes-2012="66" data-rodovia="BR-450"/><path d="M201.4,251.4L198.7,268.5L198.5,270.1L198.2,271.3 " data-km-final="20.6" data-km-inicial="17.2" data-qtd-acidentes="22" data-qtd-acidentes-2007="11" data-qtd-acidentes-2008="1" data-qtd-acidentes-2009="NULL" data-qtd-acidentes-2010="1" data-qtd-acidentes-2011="1" data-qtd-acidentes-2012="5" data-rodovia="BR-450"/><path d="M206.0,234.9L201.9,248.0L201.4,251.4 " data-km-final="17.2" data-km-inicial="14.4" data-qtd-acidentes="14" data-qtd-acidentes-2007="6" data-qtd-acidentes-2008="2" data-qtd-acidentes-2009="NULL" data-qtd-acidentes-2010="1" data-qtd-acidentes-2011="2" data-qtd-acidentes-2012="1" data-rodovia="BR-450"/><path d="M257.7,171.2L250.3,175.1L246.7,176.9L232.2,187.3 " data-km-final="5.2" data-km-inicial="0.0" data-qtd-acidentes="9" data-qtd-acidentes-2007="3" data-qtd-acidentes-2008="2" data-qtd-acidentes-2009="NULL" data-qtd-acidentes-2010="NULL" data-qtd-acidentes-2011="2" data-qtd-acidentes-2012="1" data-rodovia="BR-450"/><path d="M213.0,219.2L209.4,225.1L208.6,226.7L208.0,228.7 " data-km-final="13.3" data-km-inicial="11.6" data-qtd-acidentes="7" data-qtd-acidentes-2007="5" data-qtd-acidentes-2008="NULL" data-qtd-acidentes-2009="NULL" data-qtd-acidentes-2010="1" data-qtd-acidentes-2011="1" data-qtd-acidentes-2012="NULL" data-rodovia="BR-450"/><path d="M194.5,295.8L191.5,314.0L176.3,337.9L173.8,341.5 " data-km-final="33.5" data-km-inicial="24.8" data-qtd-acidentes="122" data-qtd-acidentes-2007="22" data-qtd-acidentes-2008="35" data-qtd-acidentes-2009="18" data-qtd-acidentes-2010="12" data-qtd-acidentes-2011="13" data-qtd-acidentes-2012="21" data-rodovia="BR-450"/><path d="M194.8,293.5L194.8,293.6L194.6,294.6L194.5,295.8 " data-km-final="24.8" data-km-inicial="24.4" data-qtd-acidentes="1" data-qtd-acidentes-2007="NULL" data-qtd-acidentes-2008="NULL" data-qtd-acidentes-2009="1" data-qtd-acidentes-2010="NULL" data-qtd-acidentes-2011="NULL" data-qtd-acidentes-2012="NULL" data-rodovia="BR-450"/><path d="M196.1,285.4L196.0,285.9L194.8,293.5 " data-km-final="24.4" data-km-inicial="23.0" data-qtd-acidentes="6" data-qtd-acidentes-2007="4" data-qtd-acidentes-2008="NULL" data-qtd-acidentes-2009="1" data-qtd-acidentes-2010="NULL" data-qtd-acidentes-2011="NULL" data-qtd-acidentes-2012="1" data-rodovia="BR-450"/><path d="M232.2,187.3L230.6,189.6L230.1,190.5L227.2,195.4 " data-km-final="6.7" data-km-inicial="5.2" data-qtd-acidentes="1" data-qtd-acidentes-2007="NULL" data-qtd-acidentes-2008="1" data-qtd-acidentes-2009="NULL" data-qtd-acidentes-2010="NULL" data-qtd-acidentes-2011="NULL" data-qtd-acidentes-2012="NULL" data-rodovia="BR-450"/><path d="M198.2,271.3L197.1,278.6L196.7,281.3L196.1,285.4 " data-km-final="23.0" data-km-inicial="20.6" data-qtd-acidentes="2" data-qtd-acidentes-2007="NULL" data-qtd-acidentes-2008="NULL" data-qtd-acidentes-2009="NULL" data-qtd-acidentes-2010="NULL" data-qtd-acidentes-2011="NULL" data-qtd-acidentes-2012="2" data-rodovia="BR-450"/><path d="M208.0,228.7L207.1,231.3L206.7,232.5L206.0,234.9 " data-km-final="14.4" data-km-inicial="13.3" data-qtd-acidentes="1" data-qtd-acidentes-2007="1" data-qtd-acidentes-2008="NULL" data-qtd-acidentes-2009="NULL" data-qtd-acidentes-2010="NULL" data-qtd-acidentes-2011="NULL" data-qtd-acidentes-2012="NULL" data-rodovia="BR-450"/></g><g class="estado" id="estado"><path d="M36.9,410.7L136.2,412.6L186.8,409.4L244.1,403.6L341.3,411.0L428.2,406.5L506.2,409.9L619.8,411.4L611.3,131.9L606.5,99.3L560.0,41.4L547.6,32.7L74.4,29.5L69.3,82.3L56.8,117.0L43.3,145.0L30.2,208.0L36.9,410.7Z " data-uf="DF"/></g><g class="vizinho" id="vizinhos"><path d="M650.0,0.0L0.0,0.0L0.0,442.1L620.4,442.1L625.7,431.0L641.2,395.4L650.0,387.4L650.0,0.0Z M36.9,410.7L30.2,208.0L43.3,145.0L56.8,117.0L69.3,82.3L74.4,29.5L547.6,32.7L560.0,41.4L606.5,99.3L611.3,131.9L619.8,411.4L506.2,409.9L428.2,406.5L341.3,411.0L244.1,403.6L186.8,409.4L136.2,412.6L36.9,410.7Z " data-uf="GO"/><path d="M650.0,442.1L650.0,387.4L641.2,395.4L625.7,431.0L620.4,442.1L650.0,442.1Z " data-uf="MG"/></g></svg>