<?xml version="1.0" encoding="utf-8"?><!DOCTYPE svg  PUBLIC '-//W3C//DTD SVG 1.1//EN'  'http://www.w3.org/Graphics/SVG/1.1/DTD/svg11.dtd'><svg enable_background="new 0 0 650 1057" height="1057px" pretty_print="False" style="stroke-linejoin: round; stroke:#000; fill: none;" version="1.1" viewBox="0 0 650 1057" width="650px" xmlns="http://www.w3.org/2000/svg" xmlns:xlink="http://www.w3.org/1999/xlink"><defs><style type="text/css"><![CDATA[path { fill-rule: evenodd; }]]></style></defs><metadata><views><view h="1057.13181695" padding="0.05" w="650"><proj id="laea" lat0="-19.6022045" lon0="-40.412915183"/><bbox h="43.57" w="26.82" x="982.75" y="978.16"/></view></views></metadata><g class="" id="rodovias" stroke-width="5px"><path d="M503.1,489.5L506.6,484.1L512.3,475.5L515.2,473.8 " data-categoria="3" data-km-inicial="151.3" data-qtd-acidentes="212" data-rodovia="BR-101" stroke="#FB6A4A"/><path d="M456.5,717.5L457.6,716.2L458.0,715.2L458.2,712.5 " data-categoria="5" data-km-inicial="268.0" data-qtd-acidentes="1922" data-rodovia="BR-101" stroke="#A50F15"/><path d="M447.7,684.0L442.5,681.2L434.4,669.5 " data-categoria="4" data-km-inicial="251.9" data-qtd-acidentes="962" data-rodovia="BR-101" stroke="#DE2D26"/><path d="M420.1,627.4L420.1,623.7L419.7,620.1L417.7,610.4 " data-categoria="4" data-km-inicial="222.5" data-qtd-acidentes="807" data-rodovia="BR-101" stroke="#DE2D26"/><path d="M420.2,750.4L422.9,744.9L423.0,738.0 " data-categoria="4" data-km-inicial="291.1" data-qtd-acidentes="885" data-rodovia="BR-101" stroke="#DE2D26"/><path d="M573.8,266.2L573.6,266.0L573.2,265.8L570.7,264.6 " data-categoria="4" data-km-inicial="66.8" data-qtd-acidentes="957" data-rodovia="BR-101" stroke="#DE2D26"/><path d="M418.5,649.8L417.7,644.1L419.1,641.9L420.1,627.4 " data-categoria="4" data-km-inicial="229.3" data-qtd-acidentes="814" data-rodovia="BR-101" stroke="#DE2D26"/><path d="M183.5,978.3L193.1,966.6L197.6,964.6L213.8,950.3 " data-categoria="3" data-km-inicial="426.2" data-qtd-acidentes="490" data-rodovia="BR-101" stroke="#FB6A4A"/><path d="M306.7,885.3L290.0,898.9L288.9,901.5L279.8,906.9 " data-categoria="4" data-km-inicial="376.6" data-qtd-acidentes="552" data-rodovia="BR-101" stroke="#DE2D26"/><path d="M507.7,407.2L527.5,361.9L533.9,347.9L542.5,328.9 " data-categoria="4" data-km-inicial="93.9" data-qtd-acidentes="669" data-rodovia="BR-101" stroke="#DE2D26"/><path d="M434.4,669.5L434.0,669.2L433.8,669.1L433.6,668.9 " data-categoria="4" data-km-inicial="251.7" data-qtd-acidentes="962" data-rodovia="BR-101" stroke="#DE2D26"/><path d="M454.5,554.1L468.0,545.4L470.5,537.7 " data-categoria="4" data-km-inicial="180.7" data-qtd-acidentes="874" data-rodovia="BR-101" stroke="#DE2D26"/><path d="M430.2,718.2L435.3,712.9L447.2,709.7L452.1,713.2 " data-categoria="5" data-km-inicial="272.8" data-qtd-acidentes="2224" data-rodovia="BR-101" stroke="#A50F15"/><path d="M458.2,712.5L459.4,702.1L452.6,691.2L447.7,684.0 " data-categoria="5" data-km-inicial="256.1" data-qtd-acidentes="5183" data-rodovia="BR-101" stroke="#A50F15"/><path d="M510.0,433.7L509.9,433.0L507.9,412.8L507.7,407.2 " data-categoria="2" data-km-inicial="126.6" data-qtd-acidentes="186" data-rodovia="BR-101" stroke="#FC9272"/><path d="M515.2,473.8L515.7,472.5L515.8,472.2L516.4,470.8 " data-categoria="0" data-km-inicial="150.1" data-qtd-acidentes="22" data-rodovia="BR-101" stroke="#FEE5D9"/><path d="M168.5,1013.7L171.8,1011.7L171.3,1010.4L170.7,1006.7 " data-categoria="1" data-km-inicial="457.1" data-qtd-acidentes="76" data-rodovia="BR-101" stroke="#FCBBA1"/><path d="M456.5,717.5L456.3,718.2L456.1,718.6L452.5,724.4 " data-categoria="5" data-km-inicial="0.0" data-qtd-acidentes="1020" data-rodovia="BR-101" stroke="#A50F15"/><path d="M366.9,846.2L356.9,842.4L344.8,852.8 " data-categoria="3" data-km-inicial="342.9" data-qtd-acidentes="326" data-rodovia="BR-101" stroke="#FB6A4A"/><path d="M399.7,803.4L399.7,803.8L399.7,804.0L399.5,804.3 " data-categoria="0" data-km-inicial="320.7" data-qtd-acidentes="13" data-rodovia="BR-101" stroke="#FEE5D9"/><path d="M320.0,878.2L322.0,873.7L321.5,873.4L320.9,868.8 " data-categoria="3" data-km-inicial="366.1" data-qtd-acidentes="436" data-rodovia="BR-101" stroke="#FB6A4A"/><path d="M417.7,610.4L424.2,607.1L429.3,597.0 " data-categoria="4" data-km-inicial="213.8" data-qtd-acidentes="807" data-rodovia="BR-101" stroke="#DE2D26"/><path d="M569.7,262.1L573.4,257.6L573.2,252.9 " data-categoria="4" data-km-inicial="60.3" data-qtd-acidentes="571" data-rodovia="BR-101" stroke="#DE2D26"/><path d="M570.7,264.6L569.7,264.0L569.4,262.9L569.7,262.1 " data-categoria="4" data-km-inicial="65.7" data-qtd-acidentes="957" data-rodovia="BR-101" stroke="#DE2D26"/><path d="M516.4,470.8L515.5,465.8L511.1,440.0L510.0,433.7 " data-categoria="5" data-km-inicial="135.5" data-qtd-acidentes="3184" data-rodovia="BR-101" stroke="#A50F15"/><path d="M556.4,193.5L555.4,189.9L555.0,188.2L553.9,179.7 " data-categoria="1" data-km-inicial="32.9" data-qtd-acidentes="71" data-rodovia="BR-101" stroke="#FCBBA1"/><path d="M404.1,762.8L406.0,767.4L406.1,768.1L404.9,773.3 " data-categoria="4" data-km-inicial="304.7" data-qtd-acidentes="641" data-rodovia="BR-101" stroke="#DE2D26"/><path d="M420.4,652.1L419.9,651.3L418.5,649.8 " data-categoria="4" data-km-inicial="244.8" data-qtd-acidentes="814" data-rodovia="BR-101" stroke="#DE2D26"/><path d="M404.9,773.3L404.5,782.4L403.1,787.3L399.7,803.4 " data-categoria="4" data-km-inicial="309.0" data-qtd-acidentes="641" data-rodovia="BR-101" stroke="#DE2D26"/><path d="M565.2,224.5L559.1,202.8L558.4,200.4L556.4,193.5 " data-categoria="2" data-km-inicial="37.4" data-qtd-acidentes="149" data-rodovia="BR-101" stroke="#FC9272"/><path d="M279.8,906.9L276.7,906.6L275.8,906.6L271.5,906.9 " data-categoria="3" data-km-inicial="391.9" data-qtd-acidentes="392" data-rodovia="BR-101" stroke="#FB6A4A"/><path d="M423.0,738.0L424.6,728.2L427.1,726.3L430.2,718.2 " data-categoria="5" data-km-inicial="282.9" data-qtd-acidentes="2224" data-rodovia="BR-101" stroke="#A50F15"/><path d="M213.8,950.3L215.8,949.2L223.1,940.3 " data-categoria="1" data-km-inicial="420.8" data-qtd-acidentes="93" data-rodovia="BR-101" stroke="#FCBBA1"/><path d="M404.1,762.8L409.8,756.4L411.4,756.1L420.2,750.4 " data-categoria="1" data-km-inicial="296.0" data-qtd-acidentes="91" data-rodovia="BR-101" stroke="#FCBBA1"/><path d="M428.2,572.1L440.1,561.9L440.5,560.1L454.5,554.1 " data-categoria="3" data-km-inicial="190.1" data-qtd-acidentes="353" data-rodovia="BR-101" stroke="#FB6A4A"/><path d="M429.3,597.0L430.1,579.1L427.4,575.4L428.2,572.1 " data-categoria="4" data-km-inicial="203.3" data-qtd-acidentes="564" data-rodovia="BR-101" stroke="#DE2D26"/><path d="M546.4,320.6L570.9,282.3L573.7,276.3L573.8,266.2 " data-categoria="4" data-km-inicial="68.1" data-qtd-acidentes="957" data-rodovia="BR-101" stroke="#DE2D26"/><path d="M433.6,668.9L424.8,661.2L424.1,660.6L420.4,652.1 " data-categoria="4" data-km-inicial="246.9" data-qtd-acidentes="962" data-rodovia="BR-101" stroke="#DE2D26"/><path d="M337.4,854.1L333.7,856.8L320.9,868.8 " data-categoria="3" data-km-inicial="357.2" data-qtd-acidentes="436" data-rodovia="BR-101" stroke="#FB6A4A"/><path d="M573.2,252.9L571.1,245.2L570.7,243.8L565.2,224.5 " data-categoria="2" data-km-inicial="49.4" data-qtd-acidentes="160" data-rodovia="BR-101" stroke="#FC9272"/><path d="M344.8,852.8L343.3,853.7L343.1,853.9L337.4,854.1 " data-categoria="2" data-km-inicial="354.2" data-qtd-acidentes="124" data-rodovia="BR-101" stroke="#FC9272"/><path d="M271.5,906.9L266.9,909.8L265.2,909.4L255.6,913.9 " data-categoria="3" data-km-inicial="395.0" data-qtd-acidentes="392" data-rodovia="BR-101" stroke="#FB6A4A"/><path d="M542.5,328.9L544.5,324.6L545.2,323.2L546.4,320.6 " data-categoria="4" data-km-inicial="90.6" data-qtd-acidentes="957" data-rodovia="BR-101" stroke="#DE2D26"/><path d="M399.5,804.3L393.0,827.8L385.7,835.4 " data-categoria="4" data-km-inicial="321.0" data-qtd-acidentes="675" data-rodovia="BR-101" stroke="#DE2D26"/><path d="M470.5,537.7L485.4,515.8L491.4,506.7L503.1,489.5 " data-categoria="4" data-km-inicial="158.8" data-qtd-acidentes="874" data-rodovia="BR-101" stroke="#DE2D26"/><path d="M547.3,140.1L547.3,146.3L546.8,153.6L553.9,179.7 " data-categoria="3" data-km-inicial="16.4" data-qtd-acidentes="374" data-rodovia="BR-101" stroke="#FB6A4A"/><path d="M170.7,1006.7L171.5,999.8L179.0,990.7L176.2,986.4 " data-categoria="3" data-km-inicial="447.4" data-qtd-acidentes="249" data-rodovia="BR-101" stroke="#FB6A4A"/><path d="M223.1,940.3L229.1,932.3L231.8,927.5L232.3,924.6 " data-categoria="2" data-km-inicial="413.7" data-qtd-acidentes="157" data-rodovia="BR-101" stroke="#FC9272"/><path d="M558.3,103.1L548.4,119.5L546.8,133.8L547.3,140.1 " data-categoria="3" data-km-inicial="0.0" data-qtd-acidentes="209" data-rodovia="BR-101" stroke="#FB6A4A"/><path d="M176.2,986.4L180.7,980.9L181.1,979.7L183.5,978.3 " data-categoria="3" data-km-inicial="443.3" data-qtd-acidentes="490" data-rodovia="BR-101" stroke="#FB6A4A"/><path d="M306.7,885.3L308.5,884.6L309.5,883.5L320.0,878.2 " data-categoria="3" data-km-inicial="370.2" data-qtd-acidentes="400" data-rodovia="BR-101" stroke="#FB6A4A"/><path d="M452.1,713.2L454.3,715.9L455.6,716.9L456.5,717.5 " data-categoria="5" data-km-inicial="270.5" data-qtd-acidentes="2224" data-rodovia="BR-101" stroke="#A50F15"/><path d="M255.6,913.9L247.6,916.6L235.8,918.9L232.3,924.6 " data-categoria="3" data-km-inicial="402.1" data-qtd-acidentes="343" data-rodovia="BR-101" stroke="#FB6A4A"/><path d="M385.7,835.4L383.1,836.0L366.9,846.2 " data-categoria="2" data-km-inicial="334.7" data-qtd-acidentes="187" data-rodovia="BR-101" stroke="#FC9272"/><path d="M434.4,669.5L433.6,682.1L451.7,708.2L452.1,713.2 " data-categoria="0" data-km-inicial="0.0" data-qtd-acidentes="0" data-rodovia="BR-101" stroke="#FEE5D9"/><path d="M364.0,501.9L363.6,501.0L362.9,500.7L361.6,499.7 " data-categoria="2" data-km-inicial="49.8" data-qtd-acidentes="123" data-rodovia="BR-259" stroke="#FC9272"/><path d="M413.5,545.6L407.9,547.8L404.1,542.7 " data-categoria="4" data-km-inicial="15.3" data-qtd-acidentes="505" data-rodovia="BR-259" stroke="#DE2D26"/><path d="M364.3,502.3L364.2,502.1L364.0,501.9 " data-categoria="0" data-km-inicial="49.6" data-qtd-acidentes="16" data-rodovia="BR-259" stroke="#FEE5D9"/><path d="M357.5,498.9L351.8,497.7L350.0,499.6L349.0,502.5 " data-categoria="2" data-km-inicial="52.8" data-qtd-acidentes="123" data-rodovia="BR-259" stroke="#FC9272"/><path d="M248.5,505.0L243.0,501.4L242.0,499.1L237.7,498.4 " data-categoria="0" data-km-inicial="102.3" data-qtd-acidentes="9" data-rodovia="BR-259" stroke="#FEE5D9"/><path d="M428.2,572.1L420.1,542.1L413.5,545.6 " data-categoria="3" data-km-inicial="0.0" data-qtd-acidentes="402" data-rodovia="BR-259" stroke="#FB6A4A"/><path d="M394.4,515.2L371.3,508.0L365.0,503.9 " data-categoria="4" data-km-inicial="34.8" data-qtd-acidentes="505" data-rodovia="BR-259" stroke="#DE2D26"/><path d="M251.8,504.8L250.5,505.3L249.8,505.3L248.5,505.0 " data-categoria="0" data-km-inicial="101.1" data-qtd-acidentes="2" data-rodovia="BR-259" stroke="#FEE5D9"/><path d="M361.6,499.7L362.2,501.2L356.5,506.4 " data-categoria="0" data-km-inicial="0.0" data-qtd-acidentes="0" data-rodovia="BR-259" stroke="#FEE5D9"/><path d="M291.8,502.1L278.2,501.7L267.6,499.5L251.8,504.8 " data-categoria="2" data-km-inicial="83.1" data-qtd-acidentes="106" data-rodovia="BR-259" stroke="#FC9272"/><path d="M349.0,502.5L325.6,500.7L321.4,497.3L309.4,507.1L291.8,502.1 " data-categoria="3" data-km-inicial="57.4" data-qtd-acidentes="256" data-rodovia="BR-259" stroke="#FB6A4A"/><path d="M365.0,503.9L364.8,503.6L364.6,503.3L364.3,502.3 " data-categoria="0" data-km-inicial="49.1" data-qtd-acidentes="16" data-rodovia="BR-259" stroke="#FEE5D9"/><path d="M390.9,524.5L391.5,520.6L394.4,515.2 " data-categoria="4" data-km-inicial="30.8" data-qtd-acidentes="505" data-rodovia="BR-259" stroke="#DE2D26"/><path d="M361.6,499.7L359.5,499.1L357.5,498.9 " data-categoria="2" data-km-inicial="51.1" data-qtd-acidentes="123" data-rodovia="BR-259" stroke="#FC9272"/><path d="M404.1,542.7L398.9,533.6L396.9,533.1L390.9,524.5 " data-categoria="4" data-km-inicial="20.3" data-qtd-acidentes="505" data-rodovia="BR-259" stroke="#DE2D26"/><path d="M344.7,770.3L345.3,768.9L346.6,763.6 " data-categoria="2" data-km-inicial="42.1" data-qtd-acidentes="187" data-rodovia="BR-262" stroke="#FC9272"/><path d="M236.1,757.2L227.1,752.7L225.7,752.8L217.2,747.5 " data-categoria="3" data-km-inicial="95.0" data-qtd-acidentes="480" data-rodovia="BR-262" stroke="#FB6A4A"/><path d="M236.1,757.2L236.8,757.8L236.6,759.0L237.2,759.9 " data-categoria="0" data-km-inicial="93.7" data-qtd-acidentes="38" data-rodovia="BR-262" stroke="#FEE5D9"/><path d="M151.9,718.0L152.3,717.7L152.5,717.5L153.3,717.6 " data-categoria="3" data-km-inicial="138.2" data-qtd-acidentes="217" data-rodovia="BR-262" stroke="#FB6A4A"/><path d="M346.6,763.6L347.9,762.8L351.3,763.2L354.3,762.4 " data-categoria="2" data-km-inicial="40.3" data-qtd-acidentes="187" data-rodovia="BR-262" stroke="#FC9272"/><path d="M420.2,750.4L420.6,750.3L421.0,750.3L421.8,750.1 " data-categoria="5" data-km-inicial="6.4" data-qtd-acidentes="3059" data-rodovia="BR-262" stroke="#A50F15"/><path d="M321.0,771.4L334.8,772.2L336.3,771.0L344.7,770.3 " data-categoria="4" data-km-inicial="43.6" data-qtd-acidentes="542" data-rodovia="BR-262" stroke="#DE2D26"/><path d="M434.3,747.2L431.2,746.8L431.1,746.9L428.3,748.2 " data-categoria="5" data-km-inicial="1.3" data-qtd-acidentes="2048" data-rodovia="BR-262" stroke="#A50F15"/><path d="M90.7,727.9L92.7,728.1L93.7,727.3L95.4,724.2 " data-categoria="0" data-km-inicial="166.2" data-qtd-acidentes="42" data-rodovia="BR-262" stroke="#FEE5D9"/><path d="M189.6,736.3L183.1,735.0L180.7,733.0L163.4,720.7 " data-categoria="3" data-km-inicial="120.3" data-qtd-acidentes="217" data-rodovia="BR-262" stroke="#FB6A4A"/><path d="M154.2,717.9L154.4,718.2L154.7,718.6L154.9,718.9 " data-categoria="3" data-km-inicial="137.5" data-qtd-acidentes="217" data-rodovia="BR-262" stroke="#FB6A4A"/><path d="M189.6,736.3L188.9,740.1L185.9,740.9L190.3,743.5 " data-categoria="2" data-km-inicial="115.3" data-qtd-acidentes="128" data-rodovia="BR-262" stroke="#FC9272"/><path d="M36.7,733.9L43.8,741.2L50.4,744.0L54.9,739.3 " data-categoria="3" data-km-inicial="184.7" data-qtd-acidentes="212" data-rodovia="BR-262" stroke="#FB6A4A"/><path d="M421.8,750.1L422.2,750.0L422.3,749.9L423.0,749.6 " data-categoria="5" data-km-inicial="5.9" data-qtd-acidentes="3059" data-rodovia="BR-262" stroke="#A50F15"/><path d="M54.9,739.3L69.6,735.3L73.3,731.8L90.7,727.9 " data-categoria="3" data-km-inicial="169.1" data-qtd-acidentes="212" data-rodovia="BR-262" stroke="#FB6A4A"/><path d="M95.4,724.2L127.7,712.9L140.3,720.0L151.8,718.0 " data-categoria="4" data-km-inicial="138.9" data-qtd-acidentes="639" data-rodovia="BR-262" stroke="#DE2D26"/><path d="M217.2,747.5L214.9,745.4L213.6,745.5L200.0,749.1 " data-categoria="3" data-km-inicial="104.4" data-qtd-acidentes="343" data-rodovia="BR-262" stroke="#FB6A4A"/><path d="M354.3,762.4L391.5,761.0L397.7,765.3L404.1,762.8 " data-categoria="5" data-km-inicial="15.8" data-qtd-acidentes="1427" data-rodovia="BR-262" stroke="#A50F15"/><path d="M423.0,749.6L424.5,748.5L425.2,748.4L428.3,748.2 " data-categoria="5" data-km-inicial="3.7" data-qtd-acidentes="3059" data-rodovia="BR-262" stroke="#A50F15"/><path d="M435.4,743.8L435.6,744.5L434.3,747.2 " data-categoria="4" data-km-inicial="0.0" data-qtd-acidentes="718" data-rodovia="BR-262" stroke="#DE2D26"/><path d="M151.8,718.0L151.9,718.0L151.9,718.0L151.9,718.0 " data-categoria="3" data-km-inicial="138.8" data-qtd-acidentes="217" data-rodovia="BR-262" stroke="#FB6A4A"/><path d="M197.3,749.1L195.1,745.8L190.3,743.5 " data-categoria="3" data-km-inicial="112.4" data-qtd-acidentes="343" data-rodovia="BR-262" stroke="#FB6A4A"/><path d="M252.2,765.7L259.2,768.1L277.3,770.0L288.0,773.4 " data-categoria="4" data-km-inicial="69.0" data-qtd-acidentes="763" data-rodovia="BR-262" stroke="#DE2D26"/><path d="M200.0,749.1L199.7,749.1L198.8,749.2L197.3,749.1 " data-categoria="3" data-km-inicial="111.4" data-qtd-acidentes="343" data-rodovia="BR-262" stroke="#FB6A4A"/><path d="M237.2,759.9L243.7,761.2L248.3,763.0L252.2,765.7 " data-categoria="2" data-km-inicial="87.0" data-qtd-acidentes="166" data-rodovia="BR-262" stroke="#FC9272"/><path d="M288.0,773.4L292.9,771.2L311.4,775.8L316.6,774.2 " data-categoria="4" data-km-inicial="56.1" data-qtd-acidentes="763" data-rodovia="BR-262" stroke="#DE2D26"/><path d="M163.4,720.7L160.5,721.6L158.1,718.7L154.9,718.9 " data-categoria="3" data-km-inicial="133.0" data-qtd-acidentes="217" data-rodovia="BR-262" stroke="#FB6A4A"/><path d="M316.6,774.2L319.0,773.3L319.5,772.6L321.0,771.4 " data-categoria="4" data-km-inicial="53.6" data-qtd-acidentes="542" data-rodovia="BR-262" stroke="#DE2D26"/><path d="M154.2,717.9L154.1,717.9L153.3,717.6 " data-categoria="3" data-km-inicial="137.9" data-qtd-acidentes="217" data-rodovia="BR-262" stroke="#FB6A4A"/><path d="M502.6,74.3L492.9,62.1L492.4,60.0 " data-categoria="0" data-km-inicial="36.0" data-qtd-acidentes="0" data-rodovia="ES-410" stroke="#FEE5D9"/><path d="M492.4,60.0L492.3,59.4L492.1,59.2L491.8,58.7 " data-categoria="0" data-km-inicial="43.0" data-qtd-acidentes="0" data-rodovia="ES-410" stroke="#FEE5D9"/><path d="M290.0,279.6L309.9,292.3L314.2,300.5L320.2,295.3 " data-categoria="0" data-km-inicial="108.2" data-qtd-acidentes="0" data-rodovia="ES-080" stroke="#FEE5D9"/><path d="M290.0,279.6L287.3,276.6L287.0,276.5L283.6,277.6 " data-categoria="0" data-km-inicial="125.7" data-qtd-acidentes="0" data-rodovia="ES-080" stroke="#FEE5D9"/><path d="M325.3,307.0L323.9,302.2L322.8,300.8L320.2,295.3 " data-categoria="0" data-km-inicial="103.7" data-qtd-acidentes="0" data-rodovia="ES-080" stroke="#FEE5D9"/><path d="M421.9,262.3L413.7,267.1L406.4,273.6L401.1,279.3 " data-categoria="0" data-km-inicial="59.9" data-qtd-acidentes="0" data-rodovia="ES-137" stroke="#FEE5D9"/><path d="M283.0,601.8L288.5,598.2L294.3,592.9L293.8,588.7 " data-categoria="0" data-km-inicial="55.1" data-qtd-acidentes="0" data-rodovia="ES-164" stroke="#FEE5D9"/><path d="M283.0,601.8L283.4,605.8L287.7,610.9 " data-categoria="0" data-km-inicial="63.1" data-qtd-acidentes="0" data-rodovia="ES-164" stroke="#FEE5D9"/><path d="M502.6,74.3L511.7,103.2L526.0,114.7L531.2,125.7L547.3,140.1 " data-categoria="0" data-km-inicial="0.0" data-qtd-acidentes="0" data-rodovia="ES-209" stroke="#FEE5D9"/><path d="M282.2,275.7L281.5,276.9L278.2,281.0L269.2,281.2 " data-categoria="0" data-km-inicial="130.0" data-qtd-acidentes="0" data-rodovia="ES-381" stroke="#FEE5D9"/><path d="M283.6,277.6L283.1,277.7L282.5,276.2L282.2,275.7 " data-categoria="0" data-km-inicial="129.0" data-qtd-acidentes="0" data-rodovia="ES-381" stroke="#FEE5D9"/><path d="M219.6,677.9L218.2,671.1L218.4,669.8L221.1,667.8 " data-categoria="0" data-km-inicial="111.8" data-qtd-acidentes="0" data-rodovia="ES-484" stroke="#FEE5D9"/><path d="M189.6,736.3L200.1,702.8L213.4,691.1L219.6,677.9 " data-categoria="0" data-km-inicial="116.4" data-qtd-acidentes="0" data-rodovia="ES-484" stroke="#FEE5D9"/><path d="M57.1,895.6L58.0,891.0L59.4,888.2L59.9,887.0 " data-categoria="0" data-km-inicial="249.2" data-qtd-acidentes="0" data-rodovia="ES-484" stroke="#FEE5D9"/><path d="M57.1,895.6L64.3,910.9L59.7,914.9L62.5,931.8L66.3,932.4L74.2,948.5 " data-categoria="0" data-km-inicial="252.7" data-qtd-acidentes="0" data-rodovia="ES-484" stroke="#FEE5D9"/><path d="M73.1,954.4L72.0,964.0L69.2,967.5L65.8,982.2 " data-categoria="0" data-km-inicial="281.2" data-qtd-acidentes="0" data-rodovia="ES-484" stroke="#FEE5D9"/><path d="M74.2,948.5L73.8,952.7L73.1,953.5L73.1,954.4 " data-categoria="0" data-km-inicial="278.2" data-qtd-acidentes="0" data-rodovia="ES-484" stroke="#FEE5D9"/><path d="M421.9,262.3L421.8,261.4L421.5,257.7 " data-categoria="0" data-km-inicial="125.9" data-qtd-acidentes="0" data-rodovia="BR-342" stroke="#FEE5D9"/><path d="M415.7,248.3L394.0,234.3L384.0,232.5L383.0,229.6 " data-categoria="0" data-km-inicial="105.9" data-qtd-acidentes="0" data-rodovia="BR-342" stroke="#FEE5D9"/><path d="M421.5,257.7L417.8,251.1L416.2,250.8L415.7,248.3 " data-categoria="0" data-km-inicial="120.9" data-qtd-acidentes="0" data-rodovia="BR-342" stroke="#FEE5D9"/><path d="M337.6,169.2L332.2,168.0L308.8,161.9L300.0,163.0 " data-categoria="0" data-km-inicial="52.2" data-qtd-acidentes="0" data-rodovia="BR-342" stroke="#FEE5D9"/><path d="M292.7,119.1L300.5,140.3L300.0,143.1L299.2,157.0 " data-categoria="0" data-km-inicial="28.0" data-qtd-acidentes="0" data-rodovia="BR-342" stroke="#FEE5D9"/><path d="M337.6,169.2L371.8,182.5L379.4,194.1L383.0,229.6 " data-categoria="0" data-km-inicial="69.3" data-qtd-acidentes="0" data-rodovia="BR-342" stroke="#FEE5D9"/><path d="M299.1,161.7L298.0,159.5L297.8,158.4L299.2,157.0 " data-categoria="0" data-km-inicial="49.6" data-qtd-acidentes="0" data-rodovia="BR-342" stroke="#FEE5D9"/><path d="M285.3,87.0L289.6,100.0L288.7,104.6L292.7,119.1 " data-categoria="0" data-km-inicial="0.0" data-qtd-acidentes="0" data-rodovia="BR-342" stroke="#FEE5D9"/><path d="M300.0,163.0L300.0,162.5L299.1,161.7 " data-categoria="0" data-km-inicial="51.6" data-qtd-acidentes="0" data-rodovia="BR-342" stroke="#FEE5D9"/><path d="M421.9,262.3L428.4,259.2L433.0,261.8L440.3,267.0 " data-categoria="0" data-km-inicial="127.8" data-qtd-acidentes="0" data-rodovia="BR-342" stroke="#FEE5D9"/><path d="M490.7,378.2L496.5,392.8L507.3,402.6L507.7,407.2 " data-categoria="0" data-km-inicial="177.9" data-qtd-acidentes="0" data-rodovia="BR-342" stroke="#FEE5D9"/><path d="M440.3,267.0L455.0,304.2L468.5,342.1L486.4,367.3L490.7,378.2 " data-categoria="0" data-km-inicial="135.9" data-qtd-acidentes="0" data-rodovia="BR-342" stroke="#FEE5D9"/><path d="M570.7,264.6L569.8,263.9L570.3,263.2L569.7,262.1 " data-categoria="0" data-km-inicial="0.0" data-qtd-acidentes="0" data-rodovia="BR-381" stroke="#FEE5D9"/><path d="M440.0,267.1L427.5,267.1L427.9,263.5L421.9,262.3 " data-categoria="0" data-km-inicial="43.8" data-qtd-acidentes="0" data-rodovia="BR-381" stroke="#FEE5D9"/><path d="M473.2,268.6L463.4,269.9L459.1,266.1L440.3,267.0 " data-categoria="0" data-km-inicial="38.0" data-qtd-acidentes="0" data-rodovia="BR-381" stroke="#FEE5D9"/><path d="M569.7,262.1L528.4,258.1L490.2,264.0L473.2,268.6 " data-categoria="0" data-km-inicial="1.3" data-qtd-acidentes="0" data-rodovia="BR-381" stroke="#FEE5D9"/><path d="M440.3,267.0L440.2,267.0L440.0,267.1 " data-categoria="0" data-km-inicial="43.8" data-qtd-acidentes="0" data-rodovia="BR-381" stroke="#FEE5D9"/><path d="M401.1,279.3L371.4,284.7L368.3,288.3L347.4,281.1L325.3,307.0 " data-categoria="0" data-km-inicial="67.9" data-qtd-acidentes="0" data-rodovia="BR-381" stroke="#FEE5D9"/><path d="M158.1,932.6L165.9,924.5L169.5,922.0L174.5,915.3 " data-categoria="2" data-km-inicial="19.1" data-qtd-acidentes="144" data-rodovia="BR-393" stroke="#FC9272"/><path d="M174.5,915.3L175.6,914.9L176.3,913.4L178.5,912.8 " data-categoria="2" data-km-inicial="17.2" data-qtd-acidentes="144" data-rodovia="BR-393" stroke="#FC9272"/><path d="M209.8,899.9L208.6,898.9L207.3,898.4L204.4,897.1 " data-categoria="2" data-km-inicial="0.0" data-qtd-acidentes="189" data-rodovia="BR-393" stroke="#FC9272"/><path d="M204.4,897.1L202.1,895.2L193.4,894.8L178.5,912.8 " data-categoria="2" data-km-inicial="2.3" data-qtd-acidentes="144" data-rodovia="BR-393" stroke="#FC9272"/><path d="M155.6,934.0L156.6,933.7L156.9,933.6L158.1,932.6 " data-categoria="0" data-km-inicial="25.5" data-qtd-acidentes="17" data-rodovia="BR-393" stroke="#FEE5D9"/><path d="M113.3,938.3L105.6,946.8L89.3,957.1L69.3,984.7 " data-categoria="0" data-km-inicial="48.0" data-qtd-acidentes="0" data-rodovia="BR-393" stroke="#FEE5D9"/><path d="M69.3,984.7L66.5,985.9L66.4,986.1L65.4,987.7 " data-categoria="0" data-km-inicial="73.8" data-qtd-acidentes="0" data-rodovia="BR-393" stroke="#FEE5D9"/><path d="M155.6,934.0L152.7,931.6L141.7,930.7L138.4,931.3 " data-categoria="0" data-km-inicial="26.6" data-qtd-acidentes="17" data-rodovia="BR-393" stroke="#FEE5D9"/><path d="M117.0,933.0L115.6,934.7L114.9,936.9L113.3,938.3 " data-categoria="0" data-km-inicial="45.6" data-qtd-acidentes="17" data-rodovia="BR-393" stroke="#FEE5D9"/><path d="M138.4,931.3L131.4,935.2L125.4,934.5L117.0,933.0 " data-categoria="0" data-km-inicial="34.0" data-qtd-acidentes="17" data-rodovia="BR-393" stroke="#FEE5D9"/><path d="M434.3,747.2L434.7,750.1L435.6,752.0L440.1,753.8 " data-categoria="0" data-km-inicial="0.0" data-qtd-acidentes="10" data-rodovia="BR-447" stroke="#FEE5D9"/><path d="M440.1,753.8L441.6,753.3L442.6,752.9L445.0,751.2 " data-categoria="0" data-km-inicial="10.0" data-qtd-acidentes="19" data-rodovia="BR-447" stroke="#FEE5D9"/><path d="M447.8,751.0L448.0,749.3L447.2,749.7L445.0,751.2 " data-categoria="2" data-km-inicial="12.0" data-qtd-acidentes="115" data-rodovia="BR-447" stroke="#FC9272"/><path d="M67.5,881.4L66.3,880.5L66.1,880.5L64.6,881.1 " data-categoria="0" data-km-inicial="105.1" data-qtd-acidentes="0" data-rodovia="BR-482" stroke="#FEE5D9"/><path d="M118.6,871.9L114.0,875.3L111.1,877.4L105.8,876.7 " data-categoria="0" data-km-inicial="76.9" data-qtd-acidentes="0" data-rodovia="BR-482" stroke="#FEE5D9"/><path d="M64.6,881.1L64.1,882.3L61.6,885.1L59.9,887.0 " data-categoria="0" data-km-inicial="106.3" data-qtd-acidentes="0" data-rodovia="BR-482" stroke="#FEE5D9"/><path d="M105.8,876.7L97.2,876.4L92.3,874.1L88.7,877.1 " data-categoria="0" data-km-inicial="83.9" data-qtd-acidentes="0" data-rodovia="BR-482" stroke="#FEE5D9"/><path d="M232.3,924.6L230.6,919.6L228.4,916.0L223.1,907.2 " data-categoria="0" data-km-inicial="0.0" data-qtd-acidentes="0" data-rodovia="BR-482" stroke="#FEE5D9"/><path d="M59.9,887.0L50.6,889.6L48.6,891.6L30.0,881.0 " data-categoria="0" data-km-inicial="109.5" data-qtd-acidentes="0" data-rodovia="BR-482" stroke="#FEE5D9"/><path d="M16.4,857.2L16.1,857.1L16.0,857.0L16.0,856.7 " data-categoria="0" data-km-inicial="130.8" data-qtd-acidentes="0" data-rodovia="BR-482" stroke="#FEE5D9"/><path d="M180.0,875.8L168.7,881.0L164.0,881.7L150.5,887.8 " data-categoria="0" data-km-inicial="49.2" data-qtd-acidentes="0" data-rodovia="BR-482" stroke="#FEE5D9"/><path d="M88.7,877.1L75.6,880.4L71.4,884.0L67.5,881.4 " data-categoria="0" data-km-inicial="95.2" data-qtd-acidentes="0" data-rodovia="BR-482" stroke="#FEE5D9"/><path d="M150.5,887.8L133.6,878.2L130.2,878.3L118.6,871.9 " data-categoria="0" data-km-inicial="61.9" data-qtd-acidentes="0" data-rodovia="BR-482" stroke="#FEE5D9"/><path d="M201.5,873.4L195.3,876.2L192.6,874.0L180.0,875.8 " data-categoria="0" data-km-inicial="40.3" data-qtd-acidentes="0" data-rodovia="BR-482" stroke="#FEE5D9"/><path d="M223.1,907.2L222.6,906.6L220.3,904.2 " data-categoria="0" data-km-inicial="8.0" data-qtd-acidentes="0" data-rodovia="BR-482" stroke="#FEE5D9"/><path d="M210.8,885.5L203.4,873.4L201.5,873.4 " data-categoria="0" data-km-inicial="33.2" data-qtd-acidentes="0" data-rodovia="BR-482" stroke="#FEE5D9"/><path d="M30.0,881.0L19.1,866.2L18.5,864.5L16.4,857.2 " data-categoria="0" data-km-inicial="119.7" data-qtd-acidentes="0" data-rodovia="BR-482" stroke="#FEE5D9"/><path d="M229.4,895.4L227.4,898.2L226.8,899.3 " data-categoria="0" data-km-inicial="13.1" data-qtd-acidentes="0" data-rodovia="BR-482" stroke="#FEE5D9"/><path d="M220.3,904.2L224.2,901.5L225.7,900.7L226.8,899.3 " data-categoria="0" data-km-inicial="10.0" data-qtd-acidentes="0" data-rodovia="BR-482" stroke="#FEE5D9"/><path d="M231.1,887.8L230.5,890.0L230.6,892.7L229.4,895.4 " data-categoria="0" data-km-inicial="15.0" data-qtd-acidentes="0" data-rodovia="BR-482" stroke="#FEE5D9"/><path d="M231.8,883.9L231.2,885.1L231.2,885.3L231.1,887.8 " data-categoria="0" data-km-inicial="22.0" data-qtd-acidentes="0" data-rodovia="BR-482" stroke="#FEE5D9"/><path d="M210.8,885.5L218.0,887.3L220.8,883.2L231.8,883.9 " data-categoria="0" data-km-inicial="23.7" data-qtd-acidentes="0" data-rodovia="BR-482" stroke="#FEE5D9"/><path d="M357.4,509.0L356.6,509.6L355.3,510.6 " data-categoria="0" data-km-inicial="6.3" data-qtd-acidentes="0" data-rodovia="BR-484" stroke="#FEE5D9"/><path d="M365.0,503.9L360.8,506.1L357.4,509.0 " data-categoria="0" data-km-inicial="0.0" data-qtd-acidentes="0" data-rodovia="BR-484" stroke="#FEE5D9"/><path d="M65.8,982.2L65.8,983.7L65.7,985.2L65.8,985.8 " data-categoria="0" data-km-inicial="298.7" data-qtd-acidentes="0" data-rodovia="BR-484" stroke="#FEE5D9"/><path d="M65.4,987.7L65.2,987.4L65.6,986.6L65.8,985.8 " data-categoria="0" data-km-inicial="301.6" data-qtd-acidentes="0" data-rodovia="BR-484" stroke="#FEE5D9"/><path d="M114.7,781.0L148.0,721.8L151.8,718.0 " data-categoria="0" data-km-inicial="162.4" data-qtd-acidentes="0" data-rodovia="BR-484" stroke="#FEE5D9"/><path d="M355.3,510.6L312.9,547.8L295.8,584.9L293.8,588.7 " data-categoria="0" data-km-inicial="7.9" data-qtd-acidentes="0" data-rodovia="BR-484" stroke="#FEE5D9"/><path d="M67.5,881.4L71.6,874.1L73.2,870.9L80.9,841.2 " data-categoria="0" data-km-inicial="236.2" data-qtd-acidentes="0" data-rodovia="BR-484" stroke="#FEE5D9"/><path d="M114.7,781.0L105.2,797.9L89.1,826.6L80.9,841.2 " data-categoria="0" data-km-inicial="189.4" data-qtd-acidentes="0" data-rodovia="BR-484" stroke="#FEE5D9"/><path d="M65.4,987.7L65.2,988.2L65.1,988.6 " data-categoria="0" data-km-inicial="302.3" data-qtd-acidentes="0" data-rodovia="BR-484" stroke="#FEE5D9"/><path d="M244.7,649.4L263.1,637.0L272.9,625.0L287.7,610.9 " data-categoria="0" data-km-inicial="68.1" data-qtd-acidentes="0" data-rodovia="BR-484" stroke="#FEE5D9"/><path d="M221.1,667.8L234.6,669.3L238.5,667.2L244.7,649.4 " data-categoria="0" data-km-inicial="96.5" data-qtd-acidentes="0" data-rodovia="BR-484" stroke="#FEE5D9"/></g><g class="estado" id="estado" stroke-width="1px"><path d="M37.0,901.4L41.7,916.9L39.6,944.6L46.0,963.4L62.1,983.8L84.3,995.3L113.7,1007.3L140.0,1015.3L164.0,1020.2L212.8,1022.8L232.6,1025.6L278.9,1015.8L284.1,1004.7L306.9,966.9L307.2,954.5L320.5,917.9L334.4,904.0L370.9,887.8L385.9,875.2L423.7,829.4L441.6,790.5L452.2,749.0L456.2,739.4L474.6,726.9L481.9,699.2L481.8,676.9L484.0,654.7L491.2,642.1L532.2,592.7L572.0,550.4L588.9,536.3L601.5,514.7L612.2,473.4L616.9,408.6L611.7,381.6L596.5,338.9L592.9,297.4L594.4,268.1L611.1,242.5L614.3,226.8L620.2,165.7L617.9,149.1L609.0,139.5L542.2,97.7L496.4,73.1L475.5,53.1L450.5,38.2L428.5,30.6L384.5,29.5L332.7,40.0L279.4,43.4L280.2,49.2L321.7,79.7L323.7,88.4L305.1,86.1L284.4,77.7L265.9,85.7L244.9,101.4L221.3,114.9L213.0,145.1L212.7,167.9L229.4,176.5L247.8,189.9L257.2,210.1L251.2,251.2L255.6,264.3L271.0,282.0L277.3,297.6L270.1,310.9L219.4,309.1L202.5,314.9L197.4,320.5L210.1,338.7L231.6,355.9L246.1,379.6L261.0,425.8L261.7,490.5L259.9,506.8L229.6,546.7L204.7,597.6L177.6,634.3L168.4,652.3L156.6,700.8L147.0,712.9L127.2,717.0L79.8,710.9L60.5,713.6L45.7,724.8L35.7,749.1L30.1,780.9L35.0,811.6L44.1,838.4L42.8,856.4L36.8,873.8L29.8,889.2L37.0,901.4Z " data-estado="Espírito Santo" data-uf="ES"/></g><g class="vizinho" fill="#E6E6E6" id="vizinhos" stroke-width="1px"><path d="M475.5,53.1L496.4,73.1L542.2,97.7L609.0,139.5L617.9,149.1L624.6,103.5L633.9,81.7L650.0,60.5L650.0,0.0L476.1,0.0L476.4,10.5L474.5,43.9L475.5,53.1Z " data-estado="Bahia" data-uf="BA"/><path d="M29.8,889.2L36.8,873.8L42.8,856.4L44.1,838.4L35.0,811.6L30.1,780.9L35.7,749.1L45.7,724.8L60.5,713.6L79.8,710.9L127.2,717.0L147.0,712.9L156.6,700.8L168.4,652.3L177.6,634.3L204.7,597.6L229.6,546.7L259.9,506.8L261.7,490.5L261.0,425.8L246.1,379.6L231.6,355.9L210.1,338.7L197.4,320.5L202.5,314.9L219.4,309.1L270.1,310.9L277.3,297.6L271.0,282.0L255.6,264.3L251.2,251.2L257.2,210.1L247.8,189.9L229.4,176.5L212.7,167.9L213.0,145.1L221.3,114.9L244.9,101.4L265.9,85.7L284.4,77.7L305.1,86.1L323.7,88.4L321.7,79.7L280.2,49.2L279.4,43.4L332.7,40.0L384.5,29.5L428.5,30.6L450.5,38.2L475.5,53.1L474.5,43.9L476.4,10.5L476.1,0.0L0.0,0.0L0.0,900.9L29.8,889.2Z " data-estado="Minas Gerais" data-uf="MG"/><path d="M278.9,1015.8L232.6,1025.6L212.8,1022.8L164.0,1020.2L140.0,1015.3L113.7,1007.3L84.3,995.3L62.1,983.8L46.0,963.4L39.6,944.6L41.7,916.9L37.0,901.4L29.8,889.2L0.0,900.9L0.0,1055.1L246.9,1055.1L258.7,1032.4L267.8,1022.2L278.9,1015.8Z " data-estado="Rio de Janeiro" data-uf="RJ"/></g></svg>