<?xml version="1.0" encoding="utf-8"?><!DOCTYPE svg  PUBLIC '-//W3C//DTD SVG 1.1//EN'  'http://www.w3.org/Graphics/SVG/1.1/DTD/svg11.dtd'><svg enable_background="new 0 0 650 846" height="846px" pretty_print="False" style="stroke-linejoin: round; stroke:#000; fill: none;" version="1.1" viewBox="0 0 650 846" width="650px" xmlns="http://www.w3.org/2000/svg" xmlns:xlink="http://www.w3.org/1999/xlink"><defs><style type="text/css"><![CDATA[path { fill-rule: evenodd; }]]></style></defs><metadata><views><view h="846.902387453" padding="0.05" w="650"><proj id="laea" lat0="-5.730023" lon0="-45.2529531889"/><bbox h="121.9" w="93.67" x="953.19" y="939.08"/></view></views></metadata><g class="" id="rodovias"><path d="M145.5,425.4L145.5,421.1L136.9,407.1 " data-categoria="5" data-km-final="250.1" data-km-inicial="223.1" data-qtd-acidentes="1306" data-rodovia="BR-010"/><path d="M144.3,475.8L145.4,471.2L146.5,466.0L145.2,460.4 " data-categoria="2" data-km-final="176.8" data-km-inicial="156.4" data-qtd-acidentes="141" data-rodovia="BR-010"/><path d="M138.1,560.4L139.9,550.5L136.9,527.3 M138.1,519.1L139.8,514.5L139.4,509.6 " data-categoria="2" data-km-final="128.8" data-km-inicial="34.0" data-qtd-acidentes="139" data-rodovia="BR-010"/><path d="M142.3,488.9L143.6,487.4L142.9,484.5 M144.0,477.3L144.3,476.1 " data-categoria="3" data-km-final="156.1" data-km-inicial="129.6" data-qtd-acidentes="237" data-rodovia="BR-010"/><path d="M143.5,439.8L145.0,437.1L145.3,436.0L145.5,425.4 " data-categoria="1" data-km-final="223.1" data-km-inicial="203.5" data-qtd-acidentes="87" data-rodovia="BR-010"/><path d="M136.9,407.1L136.4,406.4L136.0,405.8L135.9,404.7 " data-categoria="5" data-km-final="253.6" data-km-inicial="250.1" data-qtd-acidentes="1306" data-rodovia="BR-010"/><path d="M135.9,404.7L131.2,375.6L130.1,373.5 " data-categoria="4" data-km-final="295.2" data-km-inicial="253.6" data-qtd-acidentes="958" data-rodovia="BR-010"/><path d="M145.2,460.4L143.8,454.0L143.7,451.9L143.5,439.8 " data-categoria="2" data-km-final="203.5" data-km-inicial="176.8" data-qtd-acidentes="143" data-rodovia="BR-010"/><path d="M133.0,356.2L133.8,333.1L134.1,323.6L131.8,316.6 " data-categoria="3" data-km-final="378.7" data-km-inicial="319.8" data-qtd-acidentes="225" data-rodovia="BR-010"/><path d="M129.2,370.3L128.3,366.4L129.3,363.1L133.0,356.2 " data-categoria="2" data-km-final="319.8" data-km-inicial="299.5" data-qtd-acidentes="186" data-rodovia="BR-010"/><path d="M144.3,476.1L144.3,476.0L144.3,475.9L144.3,475.8 " data-categoria="3" data-km-final="156.4" data-km-inicial="156.1" data-qtd-acidentes="237" data-rodovia="BR-010"/><path d="M130.1,373.5L129.9,372.9L129.6,371.5L129.2,370.3 " data-categoria="2" data-km-final="299.5" data-km-inicial="295.2" data-qtd-acidentes="186" data-rodovia="BR-010"/><path d="M146.7,584.1L138.1,560.4 " data-categoria="0" data-km-final="34.0" data-km-inicial="0.0" data-qtd-acidentes="3" data-rodovia="BR-010"/><path d="M441.7,489.5L445.0,489.7L456.3,487.7 " data-categoria="0" data-km-final="536.1" data-km-inicial="514.6" data-qtd-acidentes="0" data-rodovia="BR-135"/><path d="M400.4,352.2L396.5,357.8L395.2,359.3L394.5,363.5 " data-categoria="0" data-km-final="309.9" data-km-inicial="291.4" data-qtd-acidentes="18" data-rodovia="BR-135"/><path d="M402.3,305.8L401.9,309.6L401.7,310.4L399.6,312.6 " data-categoria="1" data-km-final="234.9" data-km-inicial="224.5" data-qtd-acidentes="52" data-rodovia="BR-135"/><path d="M391.7,291.0L397.4,302.6L402.3,305.8 " data-categoria="0" data-km-final="224.5" data-km-inicial="199.5" data-qtd-acidentes="0" data-rodovia="BR-135"/><path d="M389.2,383.9L389.3,384.0L389.8,385.5 " data-categoria="0" data-km-final="341.5" data-km-inicial="339.3" data-qtd-acidentes="2" data-rodovia="BR-135"/><path d="M400.3,180.1L404.8,186.4 " data-categoria="4" data-km-final="51.0" data-km-inicial="23.7" data-qtd-acidentes="744" data-rodovia="BR-135"/><path d="M393.7,217.2L390.1,221.3L389.4,222.1 " data-categoria="2" data-km-final="104.1" data-km-inicial="95.6" data-qtd-acidentes="125" data-rodovia="BR-135"/><path d="M394.5,363.5L392.9,367.3L392.6,367.9L392.3,370.1 " data-categoria="0" data-km-final="323.2" data-km-inicial="309.9" data-qtd-acidentes="5" data-rodovia="BR-135"/><path d="M382.1,237.6L384.3,242.2L384.4,242.4 " data-categoria="0" data-km-final="134.2" data-km-inicial="127.3" data-qtd-acidentes="35" data-rodovia="BR-135"/><path d="M402.3,420.4L403.0,423.8L403.6,427.4L406.1,434.5 " data-categoria="0" data-km-final="411.4" data-km-inicial="391.3" data-qtd-acidentes="4" data-rodovia="BR-135"/><path d="M432.0,481.6L432.2,482.0L432.3,482.0L432.3,482.1 " data-categoria="0" data-km-final="496.3" data-km-inicial="495.6" data-qtd-acidentes="0" data-rodovia="BR-135"/><path d="M432.0,481.6L432.0,481.5L431.7,480.6 " data-categoria="0" data-km-final="495.6" data-km-inicial="494.2" data-qtd-acidentes="20" data-rodovia="BR-135"/><path d="M411.0,448.2L416.8,453.3L433.2,468.5 " data-categoria="0" data-km-final="475.9" data-km-inicial="432.6" data-qtd-acidentes="11" data-rodovia="BR-135"/><path d="M406.1,434.5L408.3,440.5L410.9,448.0 " data-categoria="0" data-km-final="432.4" data-km-inicial="411.4" data-qtd-acidentes="2" data-rodovia="BR-135"/><path d="M466.2,486.5L476.2,494.5L477.0,496.4 " data-categoria="0" data-km-final="571.9" data-km-inicial="550.9" data-qtd-acidentes="0" data-rodovia="BR-135"/><path d="M389.4,222.1L387.8,224.8L382.1,237.6 " data-categoria="3" data-km-final="127.3" data-km-inicial="104.1" data-qtd-acidentes="206" data-rodovia="BR-135"/><path d="M391.8,275.7L390.7,266.1L388.2,257.5L384.4,242.4 " data-categoria="2" data-km-final="179.5" data-km-inicial="134.2" data-qtd-acidentes="168" data-rodovia="BR-135"/><path d="M410.9,448.0L411.0,448.1L411.0,448.1L411.0,448.2 " data-categoria="0" data-km-final="432.6" data-km-inicial="432.4" data-qtd-acidentes="11" data-rodovia="BR-135"/><path d="M432.3,482.1L434.0,485.0L436.8,487.4L441.7,489.5 " data-categoria="0" data-km-final="514.6" data-km-inicial="496.3" data-qtd-acidentes="20" data-rodovia="BR-135"/><path d="M392.3,370.1L392.6,371.1L392.7,371.7L392.7,372.5 " data-categoria="0" data-km-final="325.9" data-km-inicial="323.2" data-qtd-acidentes="9" data-rodovia="BR-135"/><path d="M399.6,312.6L403.5,333.0L404.1,346.2L400.4,352.2 " data-categoria="2" data-km-final="291.4" data-km-inicial="234.9" data-qtd-acidentes="109" data-rodovia="BR-135"/><path d="M392.2,398.5L393.2,402.4L393.4,403.1L398.7,408.8 " data-categoria="0" data-km-final="375.6" data-km-inicial="358.2" data-qtd-acidentes="1" data-rodovia="BR-135"/><path d="M456.3,487.7L459.8,488.3L466.2,486.5 " data-categoria="0" data-km-final="550.9" data-km-inicial="536.1" data-qtd-acidentes="0" data-rodovia="BR-135"/><path d="M398.7,408.8L399.2,409.9L399.3,409.9L399.5,410.2 " data-categoria="0" data-km-final="377.7" data-km-inicial="375.6" data-qtd-acidentes="2" data-rodovia="BR-135"/><path d="M404.8,186.4L400.9,206.1L400.9,208.2L393.7,217.2 " data-categoria="4" data-km-final="95.6" data-km-inicial="51.0" data-qtd-acidentes="837" data-rodovia="BR-135"/><path d="M399.5,410.2L399.8,411.0L402.3,420.4 " data-categoria="0" data-km-final="391.3" data-km-inicial="377.7" data-qtd-acidentes="2" data-rodovia="BR-135"/><path d="M431.7,480.6L432.6,473.5L433.2,468.5 " data-categoria="0" data-km-final="494.2" data-km-inicial="475.9" data-qtd-acidentes="20" data-rodovia="BR-135"/><path d="M392.7,372.5L390.9,378.0L390.5,380.5L389.2,383.9 " data-categoria="0" data-km-final="339.3" data-km-inicial="325.9" data-qtd-acidentes="9" data-rodovia="BR-135"/><path d="M389.8,385.5L391.7,391.4L391.8,396.6L392.2,398.5 " data-categoria="0" data-km-final="358.2" data-km-inicial="341.5" data-qtd-acidentes="2" data-rodovia="BR-135"/><path d="M411.0,154.4L410.8,155.1L410.5,155.6 " data-categoria="3" data-km-final="7.6" data-km-inicial="0.0" data-qtd-acidentes="398" data-rodovia="BR-135"/><path d="M391.8,275.7L391.6,286.4L391.6,287.8L391.7,291.0 " data-categoria="1" data-km-final="199.5" data-km-inicial="179.5" data-qtd-acidentes="77" data-rodovia="BR-135"/><path d="M365.6,228.4L360.6,227.1L357.6,227.9 " data-categoria="0" data-km-final="289.8" data-km-inicial="278.4" data-qtd-acidentes="28" data-rodovia="BR-222"/><path d="M357.3,228.2L357.3,229.1L357.3,229.4 " data-categoria="0" data-km-final="292.1" data-km-inicial="290.3" data-qtd-acidentes="3" data-rodovia="BR-222"/><path d="M181.7,326.0L172.0,339.4L161.6,341.3L133.0,356.2 " data-categoria="4" data-km-final="678.3" data-km-inicial="598.1" data-qtd-acidentes="810" data-rodovia="BR-222"/><path d="M487.3,253.4L467.8,248.2L467.0,245.0L460.8,241.0 " data-categoria="0" data-km-final="116.2" data-km-inicial="74.9" data-qtd-acidentes="22" data-rodovia="BR-222"/><path d="M401.1,222.5L401.0,222.5L401.0,222.4 " data-categoria="1" data-km-final="205.8" data-km-inicial="205.6" data-qtd-acidentes="76" data-rodovia="BR-222"/><path d="M403.3,226.4L402.2,224.7L402.1,224.0L401.8,223.5 " data-categoria="1" data-km-final="203.9" data-km-inicial="199.7" data-qtd-acidentes="73" data-rodovia="BR-222"/><path d="M221.9,301.3L219.7,300.1L188.2,315.3 " data-categoria="2" data-km-final="580.9" data-km-inicial="525.2" data-qtd-acidentes="103" data-rodovia="BR-222"/><path d="M320.2,249.1L316.1,246.6L315.3,246.3L313.1,246.5 " data-categoria="0" data-km-final="360.8" data-km-inicial="350.5" data-qtd-acidentes="9" data-rodovia="BR-222"/><path d="M289.5,271.0L289.5,271.1L289.5,271.1L289.5,271.2 " data-categoria="0" data-km-final="405.9" data-km-inicial="405.8" data-qtd-acidentes="0" data-rodovia="BR-222"/><path d="M460.8,241.0L449.0,240.5L447.7,238.5L439.0,236.2 " data-categoria="0" data-km-final="148.0" data-km-inicial="116.2" data-qtd-acidentes="46" data-rodovia="BR-222"/><path d="M424.5,229.9L417.1,230.6L407.6,228.8L403.3,226.4 " data-categoria="1" data-km-final="199.7" data-km-inicial="169.5" data-qtd-acidentes="73" data-rodovia="BR-222"/><path d="M439.0,236.2L438.7,236.2L438.6,236.2L438.1,235.7 " data-categoria="1" data-km-final="149.4" data-km-inicial="148.0" data-qtd-acidentes="67" data-rodovia="BR-222"/><path d="M357.3,229.4L355.5,234.9L330.5,243.6 " data-categoria="2" data-km-final="335.1" data-km-inicial="292.1" data-qtd-acidentes="140" data-rodovia="BR-222"/><path d="M289.5,271.4L280.2,277.1L264.1,281.2L238.7,301.1 " data-categoria="2" data-km-final="499.9" data-km-inicial="406.2" data-qtd-acidentes="174" data-rodovia="BR-222"/><path d="M382.1,237.6L372.6,237.7L368.8,235.8L365.6,228.4 " data-categoria="1" data-km-final="278.4" data-km-inicial="249.2" data-qtd-acidentes="74" data-rodovia="BR-222"/><path d="M330.5,243.6L325.5,246.2L323.6,247.2L320.2,249.1 " data-categoria="0" data-km-final="350.5" data-km-inicial="335.1" data-qtd-acidentes="48" data-rodovia="BR-222"/><path d="M401.8,223.5L401.5,223.1L401.1,222.5 " data-categoria="1" data-km-final="205.6" data-km-inicial="203.9" data-qtd-acidentes="73" data-rodovia="BR-222"/><path d="M401.0,222.4L397.4,219.7L396.7,219.1L393.7,217.2 " data-categoria="1" data-km-final="217.5" data-km-inicial="205.8" data-qtd-acidentes="76" data-rodovia="BR-222"/><path d="M238.7,301.1L230.4,303.6L226.3,304.3L221.9,301.3 " data-categoria="0" data-km-final="525.2" data-km-inicial="499.9" data-qtd-acidentes="29" data-rodovia="BR-222"/><path d="M188.2,315.3L185.6,319.3L185.2,321.2L181.7,326.0 " data-categoria="0" data-km-final="598.1" data-km-inicial="580.9" data-qtd-acidentes="19" data-rodovia="BR-222"/><path d="M289.5,271.2L289.5,271.3L289.5,271.3L289.5,271.4 " data-categoria="0" data-km-final="406.2" data-km-inicial="405.9" data-qtd-acidentes="0" data-rodovia="BR-222"/><path d="M290.0,270.7L289.9,270.7L289.6,270.9L289.5,271.0 " data-categoria="0" data-km-final="405.8" data-km-inicial="404.7" data-qtd-acidentes="0" data-rodovia="BR-222"/><path d="M438.1,235.7L431.8,232.5L431.3,232.4L424.5,229.9 " data-categoria="1" data-km-final="169.5" data-km-inicial="149.4" data-qtd-acidentes="67" data-rodovia="BR-222"/><path d="M357.6,227.9L357.5,228.0L357.3,228.2 " data-categoria="0" data-km-final="290.3" data-km-inicial="289.8" data-qtd-acidentes="3" data-rodovia="BR-222"/><path d="M301.1,261.8L298.4,263.9L296.7,265.9L290.0,270.7 " data-categoria="2" data-km-final="404.7" data-km-inicial="386.2" data-qtd-acidentes="155" data-rodovia="BR-222"/><path d="M313.1,246.5L310.7,249.6L304.3,259.5L301.1,261.8 " data-categoria="2" data-km-final="386.2" data-km-inicial="360.8" data-qtd-acidentes="155" data-rodovia="BR-222"/><path d="M544.9,247.0L535.2,246.1 " data-categoria="0" data-km-final="9.9" data-km-inicial="0.0" data-qtd-acidentes="0" data-rodovia="BR-222"/><path d="M326.1,402.5L325.3,402.7L324.3,402.3L322.0,399.5 " data-categoria="0" data-km-final="307.7" data-km-inicial="299.8" data-qtd-acidentes="10" data-rodovia="BR-226"/><path d="M144.3,475.8L180.4,458.3L186.2,457.8L207.7,448.6 " data-categoria="2" data-km-final="570.7" data-km-inicial="478.4" data-qtd-acidentes="171" data-rodovia="BR-226"/><path d="M322.0,399.5L318.0,396.1L314.9,394.5L304.8,399.6 " data-categoria="0" data-km-final="334.1" data-km-inicial="307.7" data-qtd-acidentes="10" data-rodovia="BR-226"/><path d="M389.8,385.5L398.8,385.4L402.2,387.9 " data-categoria="0" data-km-final="201.9" data-km-inicial="184.5" data-qtd-acidentes="16" data-rodovia="BR-226"/><path d="M413.6,391.3L427.1,388.2L430.0,386.7 " data-categoria="0" data-km-final="168.4" data-km-inicial="145.0" data-qtd-acidentes="16" data-rodovia="BR-226"/><path d="M380.3,387.3L340.1,397.0L326.1,402.5 " data-categoria="0" data-km-final="299.8" data-km-inicial="217.2" data-qtd-acidentes="45" data-rodovia="BR-226"/><path d="M250.5,429.3L249.5,430.2L249.4,430.3L247.7,430.4 " data-categoria="0" data-km-final="419.9" data-km-inicial="415.7" data-qtd-acidentes="1" data-rodovia="BR-226"/><path d="M304.8,399.6L303.8,400.6L300.7,402.3 " data-categoria="0" data-km-final="340.3" data-km-inicial="334.1" data-qtd-acidentes="10" data-rodovia="BR-226"/><path d="M279.6,413.7L255.1,425.6L250.5,429.3 " data-categoria="0" data-km-final="415.7" data-km-inicial="372.7" data-qtd-acidentes="31" data-rodovia="BR-226"/><path d="M389.2,383.9L382.7,385.9L382.2,386.5L380.3,387.3 " data-categoria="0" data-km-final="217.2" data-km-inicial="204.1" data-qtd-acidentes="11" data-rodovia="BR-226"/><path d="M402.2,387.9L405.5,388.4L413.6,391.3 " data-categoria="0" data-km-final="184.5" data-km-inicial="168.4" data-qtd-acidentes="16" data-rodovia="BR-226"/><path d="M247.7,430.4L225.6,442.7L214.4,448.5L207.7,448.6 " data-categoria="0" data-km-final="478.4" data-km-inicial="419.9" data-qtd-acidentes="44" data-rodovia="BR-226"/><path d="M300.7,402.3L287.3,409.7L279.6,413.7 " data-categoria="0" data-km-final="372.7" data-km-inicial="340.3" data-qtd-acidentes="31" data-rodovia="BR-226"/><path d="M430.0,386.7L439.0,387.5L441.8,384.1L451.7,384.3 " data-categoria="0" data-km-final="145.0" data-km-inicial="112.7" data-qtd-acidentes="16" data-rodovia="BR-226"/><path d="M460.5,383.7L453.6,385.2L451.7,384.3 " data-categoria="0" data-km-final="112.7" data-km-inicial="100.0" data-qtd-acidentes="3" data-rodovia="BR-226"/><path d="M532.0,371.4L531.2,371.7L531.1,371.8L530.2,372.0 " data-categoria="0" data-km-final="3.1" data-km-inicial="0.6" data-qtd-acidentes="3" data-rodovia="BR-226"/><path d="M520.0,368.5L525.7,370.4L528.7,372.3 " data-categoria="0" data-km-final="19.5" data-km-inicial="7.0" data-qtd-acidentes="11" data-rodovia="BR-226"/><path d="M478.5,379.2L475.4,379.0L469.0,379.7L460.5,383.7 " data-categoria="0" data-km-final="100.0" data-km-inicial="77.0" data-qtd-acidentes="15" data-rodovia="BR-226"/><path d="M530.2,372.0L529.2,372.2L528.8,372.3L528.7,372.3 " data-categoria="0" data-km-final="7.0" data-km-inicial="3.1" data-qtd-acidentes="2" data-rodovia="BR-226"/><path d="M478.6,379.2L493.8,377.7L500.7,373.6L520.0,368.5 " data-categoria="0" data-km-final="77.0" data-km-inicial="19.5" data-qtd-acidentes="11" data-rodovia="BR-226"/><path d="M209.3,562.2L206.6,563.6L206.5,563.9L204.8,567.2 " data-categoria="1" data-km-final="489.9" data-km-inicial="481.1" data-qtd-acidentes="83" data-rodovia="BR-230"/><path d="M257.2,575.5L229.9,566.3L210.4,561.7 " data-categoria="3" data-km-final="479.3" data-km-inicial="405.1" data-qtd-acidentes="208" data-rodovia="BR-230"/><path d="M514.3,510.3L506.0,507.1L500.7,506.0 " data-categoria="2" data-km-final="20.9" data-km-inicial="1.4" data-qtd-acidentes="162" data-rodovia="BR-230"/><path d="M359.4,515.5L348.8,515.2L345.7,515.9L332.0,518.4 " data-categoria="0" data-km-final="274.5" data-km-inicial="237.7" data-qtd-acidentes="23" data-rodovia="BR-230"/><path d="M375.5,515.9L367.4,515.8L366.8,516.0L359.4,515.5 " data-categoria="0" data-km-final="237.7" data-km-inicial="214.9" data-qtd-acidentes="38" data-rodovia="BR-230"/><path d="M423.7,496.9L409.8,505.6L375.5,515.9 " data-categoria="1" data-km-final="214.9" data-km-inicial="143.1" data-qtd-acidentes="56" data-rodovia="BR-230"/><path d="M423.9,496.7L423.7,496.9L423.7,496.9L423.7,496.9 " data-categoria="1" data-km-final="143.1" data-km-inicial="142.7" data-qtd-acidentes="56" data-rodovia="BR-230"/><path d="M305.9,532.5L283.6,545.2L271.0,550.6 " data-categoria="1" data-km-final="366.8" data-km-inicial="314.2" data-qtd-acidentes="68" data-rodovia="BR-230"/><path d="M271.0,550.6L268.5,553.0L257.2,575.5 " data-categoria="3" data-km-final="405.1" data-km-inicial="366.8" data-qtd-acidentes="403" data-rodovia="BR-230"/><path d="M515.0,510.5L514.8,510.3L514.8,510.3L514.3,510.3 " data-categoria="2" data-km-final="1.4" data-km-inicial="0.0" data-qtd-acidentes="162" data-rodovia="BR-230"/><path d="M424.6,496.1L424.2,496.4L423.9,496.7 " data-categoria="0" data-km-final="142.7" data-km-inicial="141.6" data-qtd-acidentes="21" data-rodovia="BR-230"/><path d="M441.7,489.5L434.8,492.9L424.6,496.1 " data-categoria="0" data-km-final="141.6" data-km-inicial="114.8" data-qtd-acidentes="21" data-rodovia="BR-230"/><path d="M500.7,506.0L478.8,495.6L477.0,496.4 " data-categoria="1" data-km-final="57.5" data-km-inicial="20.9" data-qtd-acidentes="85" data-rodovia="BR-230"/><path d="M332.0,518.4L326.2,519.8L305.9,532.5 " data-categoria="0" data-km-final="314.2" data-km-inicial="274.5" data-qtd-acidentes="39" data-rodovia="BR-230"/><path d="M204.8,567.2L188.2,566.0L159.2,566.4L138.1,560.4 " data-categoria="1" data-km-final="572.5" data-km-inicial="489.9" data-qtd-acidentes="83" data-rodovia="BR-230"/><path d="M210.4,561.7L209.6,562.1L209.6,562.1L209.3,562.2 " data-categoria="3" data-km-final="481.1" data-km-inicial="479.3" data-qtd-acidentes="208" data-rodovia="BR-230"/><path d="M267.0,711.4L198.1,713.9 " data-categoria="0" data-km-final="90.0" data-km-inicial="0.0" data-qtd-acidentes="0" data-rodovia="BR-235"/><path d="M198.1,713.9L189.5,714.3 " data-categoria="0" data-km-final="130.0" data-km-inicial="90.0" data-qtd-acidentes="0" data-rodovia="BR-235"/><path d="M364.6,142.0L364.4,142.2L364.2,144.5 " data-categoria="0" data-km-final="276.9" data-km-inicial="273.9" data-qtd-acidentes="0" data-rodovia="BR-308"/><path d="M380.0,146.3L384.0,145.2L386.2,146.1L387.4,146.4 " data-categoria="0" data-km-final="313.4" data-km-inicial="302.4" data-qtd-acidentes="0" data-rodovia="BR-308"/><path d="M363.0,114.8L364.5,110.8L365.0,109.4L365.0,108.6 " data-categoria="0" data-km-final="232.1" data-km-inicial="223.6" data-qtd-acidentes="0" data-rodovia="BR-308"/><path d="M365.0,108.6L366.1,99.2L358.1,91.3L357.6,88.4 " data-categoria="0" data-km-final="223.6" data-km-inicial="192.5" data-qtd-acidentes="0" data-rodovia="BR-308"/><path d="M364.2,144.5L367.0,144.7L369.2,146.9L380.0,146.3 " data-categoria="0" data-km-final="302.4" data-km-inicial="276.9" data-qtd-acidentes="0" data-rodovia="BR-308"/><path d="M361.1,119.7L361.4,119.0L363.0,114.8 " data-categoria="0" data-km-final="238.9" data-km-inicial="232.1" data-qtd-acidentes="0" data-rodovia="BR-308"/><path d="M313.5,74.6L314.8,75.0L314.8,75.2L334.4,89.3 " data-categoria="0" data-km-final="162.5" data-km-inicial="122.5" data-qtd-acidentes="0" data-rodovia="BR-308"/><path d="M257.4,40.4L258.2,40.8 " data-categoria="0" data-km-final="8.0" data-km-inicial="0.0" data-qtd-acidentes="0" data-rodovia="BR-308"/><path d="M284.2,56.7L313.5,74.6 " data-categoria="0" data-km-final="122.5" data-km-inicial="54.5" data-qtd-acidentes="0" data-rodovia="BR-308"/><path d="M361.1,119.7L364.6,142.0 " data-categoria="0" data-km-final="273.9" data-km-inicial="238.9" data-qtd-acidentes="0" data-rodovia="BR-308"/><path d="M532.0,371.4L530.8,367.9L529.4,366.7L526.2,365.6 " data-categoria="3" data-km-final="620.3" data-km-inicial="608.4" data-qtd-acidentes="386" data-rodovia="BR-316"/><path d="M241.4,86.5L244.1,86.6L251.6,88.2 " data-categoria="1" data-km-final="25.4" data-km-inicial="0.0" data-qtd-acidentes="55" data-rodovia="BR-316"/><path d="M403.2,306.3L413.4,310.7L432.2,322.1 " data-categoria="3" data-km-final="468.3" data-km-inicial="424.8" data-qtd-acidentes="209" data-rodovia="BR-316"/><path d="M270.7,114.8L274.6,129.2L275.5,132.5L276.2,135.0 " data-categoria="1" data-km-final="94.4" data-km-inicial="67.6" data-qtd-acidentes="53" data-rodovia="BR-316"/><path d="M263.8,106.5L270.2,113.8L270.7,114.8 " data-categoria="0" data-km-final="67.6" data-km-inicial="54.7" data-qtd-acidentes="24" data-rodovia="BR-316"/><path d="M402.3,305.8L402.7,306.1L403.2,306.3 " data-categoria="3" data-km-final="424.8" data-km-inicial="423.5" data-qtd-acidentes="209" data-rodovia="BR-316"/><path d="M286.2,172.3L289.6,184.7L290.2,186.7L291.0,205.3 " data-categoria="2" data-km-final="188.7" data-km-inicial="144.9" data-qtd-acidentes="102" data-rodovia="BR-316"/><path d="M293.6,234.5L294.2,235.0L294.6,235.3 " data-categoria="1" data-km-final="231.0" data-km-inicial="229.4" data-qtd-acidentes="98" data-rodovia="BR-316"/><path d="M486.6,350.3L489.0,349.1L489.4,349.2 " data-categoria="2" data-km-final="558.3" data-km-inicial="554.9" data-qtd-acidentes="183" data-rodovia="BR-316"/><path d="M483.1,349.4L484.6,350.3L484.9,350.4L486.6,350.3 " data-categoria="2" data-km-final="554.9" data-km-inicial="550.9" data-qtd-acidentes="183" data-rodovia="BR-316"/><path d="M356.5,294.3L360.9,293.9L362.4,293.9L365.8,293.6 " data-categoria="3" data-km-final="362.4" data-km-inicial="349.6" data-qtd-acidentes="245" data-rodovia="BR-316"/><path d="M349.6,289.0L352.4,291.4L355.0,293.6L356.5,294.3 " data-categoria="3" data-km-final="349.6" data-km-inicial="338.1" data-qtd-acidentes="245" data-rodovia="BR-316"/><path d="M251.6,88.2L262.1,103.5L262.7,104.2L263.8,106.5 " data-categoria="1" data-km-final="54.7" data-km-inicial="25.4" data-qtd-acidentes="55" data-rodovia="BR-316"/><path d="M276.8,137.5L277.2,138.9L279.4,147.0 " data-categoria="1" data-km-final="110.6" data-km-inicial="98.0" data-qtd-acidentes="53" data-rodovia="BR-316"/><path d="M526.2,365.6L519.8,362.0L512.6,359.7L501.1,354.0 " data-categoria="3" data-km-final="608.4" data-km-inicial="571.9" data-qtd-acidentes="386" data-rodovia="BR-316"/><path d="M320.2,249.1L326.7,253.2L327.5,253.9L332.2,264.6 " data-categoria="2" data-km-final="297.9" data-km-inicial="271.2" data-qtd-acidentes="116" data-rodovia="BR-316"/><path d="M291.0,205.3L290.2,213.7L288.9,229.7L293.6,234.5 " data-categoria="1" data-km-final="229.4" data-km-inicial="188.7" data-qtd-acidentes="98" data-rodovia="BR-316"/><path d="M276.2,135.0L276.5,136.3L276.5,136.4L276.7,137.0 " data-categoria="1" data-km-final="97.2" data-km-inicial="94.4" data-qtd-acidentes="53" data-rodovia="BR-316"/><path d="M332.2,264.6L335.6,272.9L336.6,275.1 " data-categoria="1" data-km-final="312.7" data-km-inicial="297.9" data-qtd-acidentes="74" data-rodovia="BR-316"/><path d="M340.6,280.2L346.1,284.1L347.7,287.3L349.6,289.0 " data-categoria="0" data-km-final="338.1" data-km-inicial="321.3" data-qtd-acidentes="49" data-rodovia="BR-316"/><path d="M376.0,292.5L382.6,291.3L391.7,291.0 " data-categoria="1" data-km-final="398.5" data-km-inicial="376.3" data-qtd-acidentes="60" data-rodovia="BR-316"/><path d="M532.4,371.4L532.2,371.5L532.0,371.4 " data-categoria="0" data-km-final="0.6" data-km-inicial="0.0" data-qtd-acidentes="3" data-rodovia="BR-316"/><path d="M489.4,349.2L493.4,351.0L501.1,354.0 " data-categoria="2" data-km-final="571.9" data-km-inicial="558.3" data-qtd-acidentes="183" data-rodovia="BR-316"/><path d="M365.8,293.6L366.9,293.3L376.0,292.5 " data-categoria="1" data-km-final="376.3" data-km-inicial="362.4" data-qtd-acidentes="68" data-rodovia="BR-316"/><path d="M432.2,322.1L470.1,344.0L483.1,349.4 " data-categoria="3" data-km-final="550.9" data-km-inicial="468.3" data-qtd-acidentes="419" data-rodovia="BR-316"/><path d="M279.4,147.0L282.3,157.7L284.4,165.7L286.2,172.3 " data-categoria="1" data-km-final="144.9" data-km-inicial="110.6" data-qtd-acidentes="100" data-rodovia="BR-316"/><path d="M313.1,246.5L309.8,244.5L307.0,245.3L294.6,235.3 " data-categoria="3" data-km-final="260.9" data-km-inicial="231.0" data-qtd-acidentes="235" data-rodovia="BR-316"/><path d="M336.6,275.1L338.0,278.1L338.1,278.2L340.6,280.2 " data-categoria="1" data-km-final="321.3" data-km-inicial="312.7" data-qtd-acidentes="74" data-rodovia="BR-316"/><path d="M276.7,137.0L276.6,137.2L276.7,137.4L276.8,137.5 " data-categoria="1" data-km-final="98.0" data-km-inicial="97.2" data-qtd-acidentes="53" data-rodovia="BR-316"/><path d="M526.2,365.6L523.4,367.5L523.5,368.1L520.0,368.5 " data-categoria="0" data-km-final="7.8" data-km-inicial="0.0" data-qtd-acidentes="0" data-rodovia="BR-316"/><path d="M506.6,246.2L509.8,248.7L517.7,248.1 " data-categoria="0" data-km-final="47.9" data-km-inicial="32.9" data-qtd-acidentes="0" data-rodovia="MA-230"/><path d="M488.2,251.9L488.0,252.0L487.8,252.7L487.3,253.4 " data-categoria="0" data-km-final="74.9" data-km-inicial="72.6" data-qtd-acidentes="0" data-rodovia="MA-234"/><path d="M488.2,251.9L500.7,250.2L506.6,246.2 " data-categoria="0" data-km-final="72.6" data-km-inicial="47.9" data-qtd-acidentes="0" data-rodovia="MA-234"/><path d="M259.0,626.8L267.4,651.1L267.5,654.4L282.7,656.5 " data-categoria="0" data-km-final="143.0" data-km-inicial="74.0" data-qtd-acidentes="0" data-rodovia="MA-006"/><path d="M257.4,576.2L259.3,578.0L261.1,581.0 " data-categoria="0" data-km-final="9.3" data-km-inicial="1.0" data-qtd-acidentes="0" data-rodovia="MA-006"/><path d="M257.2,575.5L257.3,575.9L257.4,575.9L257.4,576.2 " data-categoria="0" data-km-final="1.0" data-km-inicial="0.0" data-qtd-acidentes="0" data-rodovia="MA-006"/><path d="M261.1,581.0L259.2,596.4L262.4,617.0L259.0,626.8 " data-categoria="0" data-km-final="74.0" data-km-inicial="9.3" data-qtd-acidentes="0" data-rodovia="MA-006"/><path d="M535.2,246.1L530.0,246.7L526.7,247.0L517.7,248.1 " data-categoria="0" data-km-final="32.9" data-km-inicial="9.9" data-qtd-acidentes="0" data-rodovia="MA-034"/><path d="M284.2,56.7L281.2,55.8L281.1,55.6L280.2,54.3 " data-categoria="0" data-km-final="54.5" data-km-inicial="47.8" data-qtd-acidentes="0" data-rodovia="MA-101"/><path d="M279.7,53.0L278.4,52.0L275.8,52.0L269.0,45.4 " data-categoria="0" data-km-final="45.5" data-km-inicial="26.0" data-qtd-acidentes="0" data-rodovia="MA-101"/><path d="M258.2,40.8L260.7,41.8L261.6,43.2L269.0,45.4 " data-categoria="0" data-km-final="26.0" data-km-inicial="8.0" data-qtd-acidentes="0" data-rodovia="MA-101"/><path d="M280.2,54.3L280.3,53.3L280.2,53.1L279.7,53.0 " data-categoria="0" data-km-final="47.8" data-km-inicial="45.5" data-qtd-acidentes="0" data-rodovia="MA-101"/><path d="M419.7,181.6L422.8,178.8L424.1,177.7L426.4,175.8 " data-categoria="0" data-km-final="35.6" data-km-inicial="23.0" data-qtd-acidentes="0" data-rodovia="MA-110"/><path d="M404.8,186.4L406.6,185.0L410.6,183.8 " data-categoria="0" data-km-final="9.2" data-km-inicial="0.0" data-qtd-acidentes="0" data-rodovia="MA-110"/><path d="M410.6,183.8L412.5,184.2L419.7,181.6 " data-categoria="0" data-km-final="23.0" data-km-inicial="9.2" data-qtd-acidentes="0" data-rodovia="MA-110"/><path d="M426.4,175.8L427.3,176.9L427.8,176.6 " data-categoria="0" data-km-final="38.2" data-km-inicial="35.6" data-qtd-acidentes="0" data-rodovia="MA-110"/><path d="M357.1,88.3L345.5,90.7L340.8,91.8L334.4,89.3 " data-categoria="0" data-km-final="192.5" data-km-inicial="162.5" data-qtd-acidentes="0" data-rodovia="MA-303"/><path d="M597.2,191.6L597.5,191.8L597.6,192.2L601.6,194.2 " data-categoria="0" data-km-final="302.0" data-km-inicial="294.8" data-qtd-acidentes="0" data-rodovia="MA-345"/><path d="M601.6,194.2L602.9,195.0L606.2,195.5L611.1,197.5 " data-categoria="0" data-km-final="316.0" data-km-inicial="302.0" data-qtd-acidentes="0" data-rodovia="MA-346"/><path d="M477.0,496.4L472.0,501.7L470.2,502.4L466.3,508.0 " data-categoria="0" data-km-final="601.9" data-km-inicial="571.9" data-qtd-acidentes="0" data-rodovia="MA-364"/><path d="M317.2,573.2L319.1,575.6L324.2,577.1L325.4,578.2 " data-categoria="0" data-km-final="107.0" data-km-inicial="93.1" data-qtd-acidentes="0" data-rodovia="MA-378"/><path d="M274.3,575.5L295.1,579.8L304.2,569.6L317.2,573.2 " data-categoria="0" data-km-final="93.1" data-km-inicial="20.0" data-qtd-acidentes="0" data-rodovia="MA-378"/><path d="M261.1,581.0L264.8,578.2L274.3,575.5 " data-categoria="0" data-km-final="20.0" data-km-inicial="0.0" data-qtd-acidentes="0" data-rodovia="MA-378"/><path d="M427.8,176.6L446.1,175.4L455.3,167.9L472.2,165.8 " data-categoria="0" data-km-final="103.2" data-km-inicial="38.2" data-qtd-acidentes="15" data-rodovia="MA-402"/><path d="M479.8,164.8L473.9,165.2L472.2,165.8 " data-categoria="0" data-km-final="113.4" data-km-inicial="103.2" data-qtd-acidentes="7" data-rodovia="BR-402"/><path d="M489.3,168.4L486.5,166.8L483.3,165.0L479.8,164.8 " data-categoria="0" data-km-final="127.5" data-km-inicial="113.4" data-qtd-acidentes="7" data-rodovia="BR-402"/><path d="M524.7,176.9L489.7,170.0L489.3,168.4 " data-categoria="0" data-km-final="179.9" data-km-inicial="127.5" data-qtd-acidentes="7" data-rodovia="BR-402"/><path d="M524.7,176.9L551.8,179.1 " data-categoria="0" data-km-final="218.4" data-km-inicial="179.9" data-qtd-acidentes="0" data-rodovia="BR-402"/><path d="M551.8,179.1L576.7,181.1 " data-categoria="0" data-km-final="253.7" data-km-inicial="218.4" data-qtd-acidentes="0" data-rodovia="BR-402"/><path d="M576.7,181.1L589.9,186.2L597.2,191.6 " data-categoria="0" data-km-final="294.8" data-km-inicial="253.7" data-qtd-acidentes="0" data-rodovia="BR-402"/></g><g class="estado" id="estado"><path d="M274.8,812.1L280.9,778.8L283.4,746.4L274.1,734.5L268.1,711.8L270.1,694.1L287.3,666.0L299.8,631.4L311.8,591.3L320.1,584.6L354.8,575.8L381.5,565.8L429.8,516.7L455.8,510.3L477.0,519.6L521.5,508.9L526.4,501.9L530.2,482.2L527.5,469.2L514.2,458.2L511.5,449.0L512.2,417.8L516.9,412.9L536.6,376.2L525.2,346.5L528.5,322.8L521.9,307.2L525.3,295.5L555.1,242.3L560.8,237.2L583.7,230.3L610.1,209.3L618.5,197.2L616.4,180.0L619.2,173.0L605.6,174.6L585.1,173.1L582.8,169.6L566.0,170.2L546.7,155.7L512.2,141.8L494.9,137.5L487.1,140.3L486.1,147.6L476.9,144.4L446.7,155.2L431.1,166.1L431.5,171.7L421.7,178.4L408.7,173.6L427.7,142.5L414.6,145.5L399.5,182.1L379.2,203.2L378.1,191.9L382.0,172.5L393.6,152.1L401.7,124.2L391.9,113.5L391.0,100.6L382.7,87.6L373.5,87.2L359.7,74.2L363.3,61.5L351.2,71.7L351.0,63.9L340.5,59.7L326.5,62.3L318.3,49.6L312.1,61.2L311.0,45.3L303.7,52.6L299.5,36.8L290.8,51.3L286.8,35.8L274.0,41.5L264.2,36.6L260.1,32.7L240.9,88.0L244.2,93.1L238.3,120.8L233.0,126.4L226.5,147.7L208.9,165.1L214.0,172.4L204.4,200.8L174.1,246.2L151.7,284.1L146.3,296.1L128.2,321.7L110.0,326.3L67.2,362.2L42.1,381.2L29.9,396.2L32.1,394.9L57.1,381.1L88.7,389.7L98.4,388.9L132.0,408.8L138.6,420.3L144.2,475.5L135.5,537.1L119.1,550.0L137.2,559.2L132.7,571.6L178.9,617.6L210.6,612.1L218.2,613.3L224.1,627.2L221.1,654.2L207.8,656.3L193.7,668.9L189.3,688.8L176.5,705.7L188.5,712.1L199.8,736.5L219.8,745.5L211.7,767.3L224.7,777.8L232.8,797.7L237.9,802.0L271.5,815.4L277.9,815.2L274.8,812.1Z M352.9,48.7L352.6,54.0L362.4,48.6L352.9,48.7Z M596.6,167.3L602.4,166.5L593.6,163.0L596.6,167.3Z M467.9,135.0L462.3,137.8L460.4,138.4L467.9,135.0Z M468.1,128.5L460.0,135.5L468.3,129.8L468.1,128.5Z " data-uf="MA"/></g><g class="vizinho" id="vizinhos"><path d="M287.3,816.2L284.1,821.4L282.1,827.4L276.3,833.2L256.3,844.9L319.6,844.9L310.3,824.1L304.5,819.4L294.2,817.3L287.3,816.2Z M650.0,844.9L650.0,696.1L627.7,709.6L625.6,721.6L593.7,728.4L575.8,734.5L565.2,744.0L549.8,749.5L526.3,746.3L517.3,737.0L489.4,738.2L479.1,726.3L466.2,732.9L451.8,746.9L463.4,771.4L458.7,791.6L447.7,817.6L418.5,840.2L405.9,836.9L384.0,844.9L650.0,844.9Z " data-uf="BA"/><path d="M0.0,523.9L35.4,508.4L44.4,487.3L68.0,457.2L68.9,432.4L80.4,419.0L63.2,404.6L35.6,400.0L29.9,396.2L42.1,381.2L67.2,362.2L110.0,326.3L128.2,321.7L146.3,296.1L151.7,284.1L174.1,246.2L204.4,200.8L214.0,172.4L208.9,165.1L226.5,147.7L233.0,126.4L238.3,120.8L244.2,93.1L240.9,88.0L260.1,32.7L259.4,27.9L251.8,33.1L247.1,19.3L210.7,14.6L208.3,8.1L192.3,0.0L181.8,10.6L175.0,0.1L84.4,0.0L72.4,24.8L71.5,31.2L45.8,52.4L44.9,58.0L28.7,66.5L5.8,94.9L0.0,93.3L0.0,523.9Z M0.0,56.9L15.7,60.2L19.5,56.3L20.6,39.3L17.5,34.0L35.1,27.8L48.6,3.7L47.9,0.0L0.0,0.0L0.0,56.9Z M66.6,26.0L60.7,25.8L54.5,33.8L66.6,26.0Z M15.4,72.3L4.7,80.5L9.2,85.3L15.4,72.3Z M225.8,10.3L216.9,15.8L225.2,18.1L225.8,10.3Z M0.0,90.8L1.3,84.7L0.0,84.2L0.0,90.8Z " data-uf="PA"/><path d="M616.4,180.0L618.5,197.2L610.1,209.3L583.7,230.3L560.8,237.2L555.1,242.3L525.3,295.5L521.9,307.2L528.5,322.8L525.2,346.5L536.6,376.2L516.9,412.9L512.2,417.8L511.5,449.0L514.2,458.2L527.5,469.2L530.2,482.2L526.4,501.9L521.5,508.9L477.0,519.6L455.8,510.3L429.8,516.7L381.5,565.8L354.8,575.8L320.1,584.6L311.8,591.3L299.8,631.4L287.3,666.0L270.1,694.1L268.1,711.8L274.1,734.5L283.4,746.4L280.9,778.8L274.8,812.1L277.9,815.2L287.3,816.2L294.2,817.3L304.5,819.4L310.3,824.1L319.6,844.9L384.0,844.9L405.9,836.9L418.5,840.2L447.7,817.6L458.7,791.6L463.4,771.4L451.8,746.9L466.2,732.9L479.1,726.3L489.4,738.2L517.3,737.0L526.3,746.3L549.8,749.5L565.2,744.0L575.8,734.5L593.7,728.4L625.6,721.6L627.7,709.6L650.0,696.1L650.0,187.8L639.3,186.2L632.4,183.4L622.3,176.3L616.4,180.0Z " data-uf="PI"/><path d="M287.3,816.2L277.9,815.2L271.5,815.4L237.9,802.0L232.8,797.7L224.7,777.8L211.7,767.3L219.8,745.5L199.8,736.5L188.5,712.1L176.5,705.7L189.3,688.8L193.7,668.9L207.8,656.3L221.1,654.2L224.1,627.2L218.2,613.3L210.6,612.1L178.9,617.6L132.7,571.6L137.2,559.2L119.1,550.0L135.5,537.1L144.2,475.5L138.6,420.3L132.0,408.8L98.4,388.9L88.7,389.7L57.1,381.1L32.1,394.9L29.9,396.2L35.6,400.0L63.2,404.6L80.4,419.0L68.9,432.4L68.0,457.2L44.4,487.3L35.4,508.4L0.0,523.9L0.0,844.9L256.3,844.9L276.3,833.2L282.1,827.4L284.1,821.4L287.3,816.2Z " data-uf="TO"/></g></svg>