<?xml version="1.0" encoding="utf-8"?><!DOCTYPE svg  PUBLIC '-//W3C//DTD SVG 1.1//EN'  'http://www.w3.org/Graphics/SVG/1.1/DTD/svg11.dtd'><svg enable_background="new 0 0 650 417" height="417px" pretty_print="False" style="stroke-linejoin: round; stroke:#000; fill: none;" version="1.1" viewBox="0 0 650 417" width="650px" xmlns="http://www.w3.org/2000/svg" xmlns:xlink="http://www.w3.org/1999/xlink"><defs><style type="text/css"><![CDATA[path { fill-rule: evenodd; }]]></style></defs><metadata><views><view h="417.996166764" padding="0.05" w="650"><proj id="laea" lat0="-5.9411125" lon0="-36.6671039049"/><bbox h="30.84" w="48.08" x="974.49" y="984.47"/></view></views></metadata><g class="" id="rodovias"><path d="M539.0,86.9L538.4,86.5L536.4,83.6L537.1,81.7 " data-categoria="0" data-km-final="6.1" data-km-inicial="1.9" data-qtd-acidentes="6" data-rodovia="BR-101"/><path d="M582.3,238.9L582.1,238.6L582.1,238.4L582.0,233.0 " data-categoria="3" data-km-final="126.3" data-km-inicial="122.4" data-qtd-acidentes="247" data-rodovia="BR-101"/><path d="M582.0,233.0L582.0,232.9L582.0,232.5 " data-categoria="3" data-km-final="122.4" data-km-inicial="122.1" data-qtd-acidentes="247" data-rodovia="BR-101"/><path d="M573.4,180.0L572.8,176.0L572.7,174.8L575.0,173.3 " data-categoria="3" data-km-final="81.4" data-km-inicial="75.9" data-qtd-acidentes="403" data-rodovia="BR-101"/><path d="M586.4,194.4L586.0,192.9L585.8,191.8L586.0,191.0 " data-categoria="5" data-km-final="95.9" data-km-inicial="93.4" data-qtd-acidentes="1371" data-rodovia="BR-101"/><path d="M567.3,133.5L566.9,130.8L566.7,130.4L565.3,129.3 " data-categoria="0" data-km-final="45.3" data-km-inicial="42.0" data-qtd-acidentes="10" data-rodovia="BR-101"/><path d="M578.3,201.5L578.7,201.5L579.0,201.4L579.9,201.2 " data-categoria="5" data-km-final="103.8" data-km-inicial="102.8" data-qtd-acidentes="5130" data-rodovia="BR-101"/><path d="M582.0,232.5L581.4,231.2L578.9,222.4 " data-categoria="2" data-km-final="122.1" data-km-inicial="115.0" data-qtd-acidentes="179" data-rodovia="BR-101"/><path d="M537.1,81.7L537.2,81.5L538.1,79.6L538.3,79.2 " data-categoria="0" data-km-final="1.9" data-km-inicial="0.0" data-qtd-acidentes="18" data-rodovia="BR-101"/><path d="M568.9,143.5L568.0,138.5L567.8,137.1L567.3,133.5 " data-categoria="1" data-km-final="52.1" data-km-inicial="45.3" data-qtd-acidentes="58" data-rodovia="BR-101"/><path d="M579.6,161.6L579.5,161.1L579.5,160.9L579.5,160.2 " data-categoria="1" data-km-final="66.9" data-km-inicial="65.9" data-qtd-acidentes="56" data-rodovia="BR-101"/><path d="M579.5,160.2L579.8,157.3L579.3,155.5L575.4,151.1 " data-categoria="0" data-km-final="65.9" data-km-inicial="58.8" data-qtd-acidentes="37" data-rodovia="BR-101"/><path d="M550.5,102.5L538.8,90.2L539.0,86.9 " data-categoria="0" data-km-final="20.5" data-km-inicial="6.1" data-qtd-acidentes="33" data-rodovia="BR-101"/><path d="M577.4,205.5L578.3,201.7L578.3,201.5 " data-categoria="3" data-km-final="105.9" data-km-inicial="103.8" data-qtd-acidentes="423" data-rodovia="BR-101"/><path d="M601.5,292.2L599.6,288.9L599.1,287.9L597.5,285.1 " data-categoria="1" data-km-final="165.5" data-km-inicial="160.1" data-qtd-acidentes="79" data-rodovia="BR-101"/><path d="M597.5,285.1L586.5,265.5L586.1,264.5 " data-categoria="3" data-km-final="160.1" data-km-inicial="144.3" data-qtd-acidentes="369" data-rodovia="BR-101"/><path d="M579.9,201.2L582.9,200.6L586.4,194.4 " data-categoria="5" data-km-final="102.8" data-km-inicial="95.9" data-qtd-acidentes="5130" data-rodovia="BR-101"/><path d="M602.2,303.7L601.8,302.8L602.4,294.4 " data-categoria="1" data-km-final="173.5" data-km-inicial="167.1" data-qtd-acidentes="78" data-rodovia="BR-101"/><path d="M577.0,207.4L577.1,206.3L577.1,206.0L577.4,205.5 " data-categoria="5" data-km-final="106.9" data-km-inicial="105.9" data-qtd-acidentes="1425" data-rodovia="BR-101"/><path d="M576.6,181.3L575.1,180.7L573.7,180.2L573.4,180.0 " data-categoria="4" data-km-final="83.7" data-km-inicial="81.4" data-qtd-acidentes="835" data-rodovia="BR-101"/><path d="M565.3,129.3L563.2,127.2L563.7,125.1L562.3,121.3 " data-categoria="0" data-km-final="42.0" data-km-inicial="35.6" data-qtd-acidentes="13" data-rodovia="BR-101"/><path d="M579.8,182.8L579.2,182.3L578.9,182.2 " data-categoria="3" data-km-final="86.1" data-km-inicial="85.4" data-qtd-acidentes="202" data-rodovia="BR-101"/><path d="M586.1,264.5L584.7,259.9L585.1,258.2L585.0,255.9 " data-categoria="1" data-km-final="144.3" data-km-inicial="138.3" data-qtd-acidentes="96" data-rodovia="BR-101"/><path d="M575.0,173.3L576.9,170.5L577.4,169.0L578.1,164.9 " data-categoria="2" data-km-final="75.9" data-km-inicial="69.7" data-qtd-acidentes="132" data-rodovia="BR-101"/><path d="M575.4,151.1L572.1,147.3L568.9,143.5 " data-categoria="1" data-km-final="58.8" data-km-inicial="52.1" data-qtd-acidentes="58" data-rodovia="BR-101"/><path d="M578.9,182.2L577.6,181.7L577.5,181.7L576.6,181.3 " data-categoria="4" data-km-final="85.4" data-km-inicial="83.7" data-qtd-acidentes="782" data-rodovia="BR-101"/><path d="M558.8,114.8L555.3,109.3L555.1,109.1L550.5,102.5 " data-categoria="0" data-km-final="30.8" data-km-inicial="20.5" data-qtd-acidentes="21" data-rodovia="BR-101"/><path d="M577.7,219.3L577.0,215.9L577.0,214.9L577.0,209.2 " data-categoria="5" data-km-final="112.8" data-km-inicial="107.8" data-qtd-acidentes="1425" data-rodovia="BR-101"/><path d="M562.3,121.3L560.9,119.9L559.7,116.3L558.8,114.8 " data-categoria="0" data-km-final="35.6" data-km-inicial="30.8" data-qtd-acidentes="9" data-rodovia="BR-101"/><path d="M578.1,164.9L579.8,163.4L579.9,163.0L579.6,161.6 " data-categoria="1" data-km-final="69.7" data-km-inicial="66.9" data-qtd-acidentes="70" data-rodovia="BR-101"/><path d="M581.5,186.2L581.2,185.6L580.6,184.8L579.8,182.8 " data-categoria="0" data-km-final="87.9" data-km-inicial="86.1" data-qtd-acidentes="0" data-rodovia="BR-101"/><path d="M602.4,294.4L602.2,293.4L601.5,292.2 " data-categoria="1" data-km-final="167.1" data-km-inicial="165.5" data-qtd-acidentes="78" data-rodovia="BR-101"/><path d="M578.9,222.4L578.9,222.3L577.7,219.3 " data-categoria="1" data-km-final="115.0" data-km-inicial="112.8" data-qtd-acidentes="89" data-rodovia="BR-101"/><path d="M585.0,255.9L585.5,251.1L582.3,238.9 " data-categoria="3" data-km-final="138.3" data-km-inicial="126.3" data-qtd-acidentes="236" data-rodovia="BR-101"/><path d="M586.0,191.0L586.9,188.4L586.8,188.3L581.5,186.2 " data-categoria="0" data-km-final="93.4" data-km-inicial="87.9" data-qtd-acidentes="0" data-rodovia="BR-101"/><path d="M577.0,209.2L577.0,207.6L577.0,207.4 " data-categoria="5" data-km-final="107.8" data-km-inicial="106.9" data-qtd-acidentes="1425" data-rodovia="BR-101"/><path d="M580.0,203.0L580.0,202.5L579.9,202.1L579.9,201.2 " data-categoria="0" data-km-final="1.4" data-km-inicial="0.0" data-qtd-acidentes="0" data-rodovia="BR-101"/><path d="M415.3,170.2L414.0,170.2L409.0,167.7L404.4,167.6 " data-categoria="0" data-km-final="92.2" data-km-inicial="84.4" data-qtd-acidentes="0" data-rodovia="BR-104"/><path d="M389.3,253.0L408.4,253.7L412.8,251.0L426.4,255.2 " data-categoria="0" data-km-final="196.5" data-km-inicial="169.7" data-qtd-acidentes="0" data-rodovia="BR-104"/><path d="M357.6,78.2L356.1,77.6L354.8,77.3L352.7,74.7 " data-categoria="0" data-km-final="5.5" data-km-inicial="0.0" data-qtd-acidentes="0" data-rodovia="BR-104"/><path d="M357.6,78.2L371.0,104.2L376.6,113.7L391.1,139.2 " data-categoria="0" data-km-final="58.4" data-km-inicial="5.5" data-qtd-acidentes="0" data-rodovia="BR-104"/><path d="M238.2,196.2L238.1,196.5L238.0,196.6L237.9,196.8 " data-categoria="0" data-km-final="126.7" data-km-inicial="126.3" data-qtd-acidentes="6" data-rodovia="BR-110"/><path d="M269.5,45.0L268.1,45.2 " data-categoria="0" data-km-final="8.3" data-km-inicial="0.2" data-qtd-acidentes="44" data-rodovia="BR-110"/><path d="M246.8,161.1L239.6,173.3L242.5,175.9L238.3,195.6 " data-categoria="0" data-km-final="125.9" data-km-inicial="101.0" data-qtd-acidentes="6" data-rodovia="BR-110"/><path d="M222.3,222.3L228.5,215.5L229.4,210.9L237.3,197.7 " data-categoria="0" data-km-final="147.3" data-km-inicial="127.3" data-qtd-acidentes="4" data-rodovia="BR-110"/><path d="M236.5,145.6L235.9,143.6L235.6,134.7L234.6,90.4 " data-categoria="0" data-km-final="88.5" data-km-inicial="51.3" data-qtd-acidentes="6" data-rodovia="BR-110"/><path d="M246.6,159.1L246.8,159.5L246.8,161.1 " data-categoria="0" data-km-final="101.0" data-km-inicial="99.7" data-qtd-acidentes="6" data-rodovia="BR-110"/><path d="M237.9,196.8L237.7,197.0L237.7,197.1L237.3,197.7 " data-categoria="0" data-km-final="127.3" data-km-inicial="126.7" data-qtd-acidentes="6" data-rodovia="BR-110"/><path d="M236.1,90.6L235.6,89.8L235.2,89.0L234.4,87.7 " data-categoria="4" data-km-final="50.4" data-km-inicial="48.2" data-qtd-acidentes="822" data-rodovia="BR-110"/><path d="M246.2,158.6L239.9,151.6L237.3,147.8L236.5,145.6 " data-categoria="0" data-km-final="99.3" data-km-inicial="88.5" data-qtd-acidentes="8" data-rodovia="BR-110"/><path d="M274.3,52.5L275.4,50.3L275.6,49.4 " data-categoria="0" data-km-final="10.6" data-km-inicial="8.3" data-qtd-acidentes="44" data-rodovia="BR-110"/><path d="M234.4,87.7L246.8,81.0L253.2,79.0 " data-categoria="4" data-km-final="48.2" data-km-inicial="33.6" data-qtd-acidentes="822" data-rodovia="BR-110"/><path d="M238.3,195.6L238.2,195.9L238.2,196.1L238.2,196.2 " data-categoria="0" data-km-final="126.3" data-km-inicial="125.9" data-qtd-acidentes="6" data-rodovia="BR-110"/><path d="M246.6,159.1L246.4,158.9L246.3,158.8L246.2,158.6 " data-categoria="0" data-km-final="99.7" data-km-inicial="99.3" data-qtd-acidentes="8" data-rodovia="BR-110"/><path d="M236.1,90.6L235.7,90.4L235.4,90.5L234.6,90.4 " data-categoria="0" data-km-final="51.3" data-km-inicial="50.4" data-qtd-acidentes="5" data-rodovia="BR-110"/><path d="M253.2,79.0L257.1,69.8L274.3,52.5 " data-categoria="4" data-km-final="33.6" data-km-inicial="10.6" data-qtd-acidentes="822" data-rodovia="BR-110"/><path d="M268.1,45.2L268.0,45.4L268.0,45.4L267.9,45.5 " data-categoria="0" data-km-final="0.2" data-km-inicial="0.0" data-qtd-acidentes="44" data-rodovia="BR-110"/><path d="M213.4,326.3L212.8,324.1 " data-categoria="0" data-km-final="176.2" data-km-inicial="159.9" data-qtd-acidentes="0" data-rodovia="BR-110"/><path d="M222.3,222.3L223.3,223.7L224.6,231.4L224.1,238.4 " data-categoria="0" data-km-final="159.9" data-km-inicial="147.3" data-qtd-acidentes="0" data-rodovia="BR-110"/><path d="M257.2,195.8L264.9,200.9L268.5,201.3L287.1,224.5 " data-categoria="0" data-km-final="276.9" data-km-inicial="246.0" data-qtd-acidentes="32" data-rodovia="BR-226"/><path d="M369.9,262.6L370.4,262.1L370.5,262.1L370.6,262.0 " data-categoria="0" data-km-final="177.4" data-km-inicial="175.6" data-qtd-acidentes="20" data-rodovia="BR-226"/><path d="M188.1,235.5L192.8,233.9L193.7,233.4L205.0,231.7 " data-categoria="0" data-km-final="337.7" data-km-inicial="325.3" data-qtd-acidentes="2" data-rodovia="BR-226"/><path d="M149.4,246.8L151.7,245.6L152.0,244.9L153.9,244.6 " data-categoria="0" data-km-final="366.3" data-km-inicial="361.2" data-qtd-acidentes="0" data-rodovia="BR-226"/><path d="M579.7,189.0L580.1,188.4L580.3,188.2L581.1,187.2 " data-categoria="2" data-km-final="2.3" data-km-inicial="0.8" data-qtd-acidentes="142" data-rodovia="BR-226"/><path d="M368.8,265.4L368.5,264.5L369.2,263.4L369.9,262.6 " data-categoria="0" data-km-final="178.5" data-km-inicial="177.4" data-qtd-acidentes="1" data-rodovia="BR-226"/><path d="M456.7,259.9L471.9,263.3L481.2,258.6L488.2,252.6 " data-categoria="1" data-km-final="107.8" data-km-inicial="84.2" data-qtd-acidentes="86" data-rodovia="BR-226"/><path d="M488.2,252.6L492.9,249.6L501.7,239.8L504.1,236.5 " data-categoria="1" data-km-final="84.2" data-km-inicial="68.0" data-qtd-acidentes="87" data-rodovia="BR-226"/><path d="M287.1,224.5L292.9,229.0L294.2,230.3 " data-categoria="0" data-km-final="246.0" data-km-inicial="239.8" data-qtd-acidentes="9" data-rodovia="BR-226"/><path d="M183.9,234.4L185.5,235.0L186.0,235.1L188.1,235.5 " data-categoria="0" data-km-final="340.8" data-km-inicial="337.7" data-qtd-acidentes="3" data-rodovia="BR-226"/><path d="M153.9,244.6L159.1,245.2L160.2,244.8L161.9,245.3 " data-categoria="0" data-km-final="361.2" data-km-inicial="356.3" data-qtd-acidentes="1" data-rodovia="BR-226"/><path d="M161.9,245.3L167.3,243.6L176.2,239.6L181.6,238.7 " data-categoria="0" data-km-final="356.3" data-km-inicial="344.2" data-qtd-acidentes="0" data-rodovia="BR-226"/><path d="M370.6,262.0L375.7,261.7L381.1,257.6L389.3,253.0 " data-categoria="2" data-km-final="175.6" data-km-inicial="160.9" data-qtd-acidentes="102" data-rodovia="BR-226"/><path d="M144.5,254.5L148.1,249.0L149.4,246.8 " data-categoria="0" data-km-final="370.8" data-km-inicial="366.3" data-qtd-acidentes="0" data-rodovia="BR-226"/><path d="M530.2,208.7L532.1,206.6L534.0,205.2L539.7,201.1 " data-categoria="0" data-km-final="41.1" data-km-inicial="32.9" data-qtd-acidentes="43" data-rodovia="BR-226"/><path d="M523.6,217.2L524.2,216.9L526.1,214.6 " data-categoria="0" data-km-final="47.7" data-km-inicial="45.5" data-qtd-acidentes="45" data-rodovia="BR-226"/><path d="M205.0,231.7L211.1,228.2L213.2,227.1L222.3,222.3 " data-categoria="0" data-km-final="325.3" data-km-inicial="311.2" data-qtd-acidentes="3" data-rodovia="BR-226"/><path d="M442.7,252.0L448.8,252.3L451.9,254.4L451.9,256.5 " data-categoria="1" data-km-final="117.3" data-km-inicial="111.9" data-qtd-acidentes="92" data-rodovia="BR-226"/><path d="M426.4,255.2L428.1,255.7L431.2,251.5L436.3,249.1 " data-categoria="0" data-km-final="134.1" data-km-inicial="125.0" data-qtd-acidentes="32" data-rodovia="BR-226"/><path d="M563.6,196.9L574.1,192.3L574.5,190.0L579.7,189.0 " data-categoria="3" data-km-final="16.2" data-km-inicial="2.3" data-qtd-acidentes="364" data-rodovia="BR-226"/><path d="M237.3,197.7L241.3,196.2L257.2,195.8 " data-categoria="0" data-km-final="291.2" data-km-inicial="276.9" data-qtd-acidentes="11" data-rodovia="BR-226"/><path d="M90.1,237.8L86.9,238.3L85.7,238.7 " data-categoria="0" data-km-final="419.1" data-km-inicial="409.9" data-qtd-acidentes="0" data-rodovia="BR-226"/><path d="M526.1,214.6L528.3,211.7L528.8,211.0L530.2,208.7 " data-categoria="0" data-km-final="45.5" data-km-inicial="41.1" data-qtd-acidentes="45" data-rodovia="BR-226"/><path d="M562.1,197.1L562.4,197.1L562.4,197.1L563.6,196.9 " data-categoria="0" data-km-final="17.2" data-km-inicial="16.2" data-qtd-acidentes="8" data-rodovia="BR-226"/><path d="M539.7,201.1L550.7,197.7L551.5,197.5L562.1,197.1 " data-categoria="0" data-km-final="32.9" data-km-inicial="17.2" data-qtd-acidentes="8" data-rodovia="BR-226"/><path d="M520.7,219.0L522.2,217.8L523.6,217.2 " data-categoria="0" data-km-final="50.1" data-km-inicial="47.7" data-qtd-acidentes="44" data-rodovia="BR-226"/><path d="M436.3,249.1L439.5,250.8L440.3,251.1L442.7,252.0 " data-categoria="0" data-km-final="125.0" data-km-inicial="117.3" data-qtd-acidentes="23" data-rodovia="BR-226"/><path d="M504.1,236.5L508.5,229.3L509.3,227.3 " data-categoria="0" data-km-final="68.0" data-km-inicial="60.8" data-qtd-acidentes="38" data-rodovia="BR-226"/><path d="M181.6,238.7L182.6,236.8L183.0,235.8L183.9,234.4 " data-categoria="0" data-km-final="344.2" data-km-inicial="340.8" data-qtd-acidentes="1" data-rodovia="BR-226"/><path d="M294.2,230.3L300.9,234.4L302.4,236.6L319.4,240.7 " data-categoria="0" data-km-final="239.8" data-km-inicial="219.4" data-qtd-acidentes="24" data-rodovia="BR-226"/><path d="M451.9,256.5L453.5,258.7L455.3,259.4L456.7,259.9 " data-categoria="1" data-km-final="111.9" data-km-inicial="107.8" data-qtd-acidentes="68" data-rodovia="BR-226"/><path d="M581.1,187.2L581.5,186.8L581.6,186.7L581.5,186.2 " data-categoria="0" data-km-final="0.8" data-km-inicial="0.0" data-qtd-acidentes="37" data-rodovia="BR-226"/><path d="M142.1,255.2L142.5,255.3L143.3,255.2L144.5,254.5 " data-categoria="0" data-km-final="371.8" data-km-inicial="370.8" data-qtd-acidentes="0" data-rodovia="BR-226"/><path d="M509.3,227.3L514.9,221.5L516.1,221.4L520.7,219.0 " data-categoria="0" data-km-final="60.8" data-km-inicial="50.1" data-qtd-acidentes="44" data-rodovia="BR-226"/><path d="M142.1,255.2L136.5,253.7L131.8,252.1L128.4,249.7 " data-categoria="0" data-km-final="378.9" data-km-inicial="371.8" data-qtd-acidentes="0" data-rodovia="BR-226"/><path d="M90.1,237.8L102.6,242.4L109.0,246.5L125.7,253.0 " data-categoria="0" data-km-final="409.9" data-km-inicial="381.9" data-qtd-acidentes="4" data-rodovia="BR-226"/><path d="M128.4,249.7L127.4,250.8L125.7,253.0 " data-categoria="0" data-km-final="381.9" data-km-inicial="378.9" data-qtd-acidentes="1" data-rodovia="BR-226"/><path d="M354.8,165.9L354.3,165.7L354.2,165.6L353.5,165.5 " data-categoria="2" data-km-final="149.5" data-km-inicial="148.6" data-qtd-acidentes="116" data-rodovia="BR-304"/><path d="M357.7,168.0L356.2,167.3L355.8,166.5L354.8,165.9 " data-categoria="1" data-km-final="152.1" data-km-inicial="149.5" data-qtd-acidentes="54" data-rodovia="BR-304"/><path d="M320.3,161.7L317.7,160.4L316.5,159.8L312.3,157.7 " data-categoria="0" data-km-final="126.2" data-km-inicial="120.2" data-qtd-acidentes="45" data-rodovia="BR-304"/><path d="M312.3,157.7L310.3,156.7L303.3,153.2 " data-categoria="2" data-km-final="120.2" data-km-inicial="107.4" data-qtd-acidentes="181" data-rodovia="BR-304"/><path d="M578.3,201.5L576.1,200.9L563.6,196.9 " data-categoria="3" data-km-final="308.0" data-km-inicial="297.7" data-qtd-acidentes="420" data-rodovia="BR-304"/><path d="M404.4,167.6L399.1,167.8L395.8,167.5L379.3,166.0 " data-categoria="1" data-km-final="184.6" data-km-inicial="167.6" data-qtd-acidentes="85" data-rodovia="BR-304"/><path d="M539.7,201.1L522.6,197.3L520.5,196.5L506.5,193.1 " data-categoria="2" data-km-final="281.0" data-km-inicial="258.4" data-qtd-acidentes="152" data-rodovia="BR-304"/><path d="M250.8,117.1L246.6,109.6L238.4,94.7L236.1,90.6 " data-categoria="2" data-km-final="69.0" data-km-inicial="48.8" data-qtd-acidentes="163" data-rodovia="BR-304"/><path d="M478.6,180.6L476.1,178.2L470.1,177.4L468.7,177.5 " data-categoria="1" data-km-final="236.8" data-km-inicial="228.4" data-qtd-acidentes="60" data-rodovia="BR-304"/><path d="M494.0,190.8L489.9,190.0L488.3,189.8L484.7,187.9 " data-categoria="0" data-km-final="249.9" data-km-inicial="243.2" data-qtd-acidentes="40" data-rodovia="BR-304"/><path d="M484.7,187.9L480.2,183.3L479.1,181.6L478.6,180.6 " data-categoria="0" data-km-final="243.2" data-km-inicial="236.8" data-qtd-acidentes="37" data-rodovia="BR-304"/><path d="M228.7,83.0L231.3,80.5L233.4,70.8L234.8,64.1 " data-categoria="4" data-km-final="37.9" data-km-inicial="24.4" data-qtd-acidentes="955" data-rodovia="BR-304"/><path d="M294.9,150.7L267.1,137.0L258.5,127.6 " data-categoria="3" data-km-final="102.4" data-km-inicial="77.7" data-qtd-acidentes="242" data-rodovia="BR-304"/><path d="M227.0,85.1L227.2,84.7L227.4,84.6L228.7,83.0 " data-categoria="4" data-km-final="39.7" data-km-inicial="37.9" data-qtd-acidentes="955" data-rodovia="BR-304"/><path d="M367.2,168.4L366.3,169.0L365.5,168.9L357.7,168.0 " data-categoria="1" data-km-final="158.8" data-km-inicial="152.1" data-qtd-acidentes="54" data-rodovia="BR-304"/><path d="M229.2,89.2L227.6,87.8L226.9,85.6L227.0,85.1 " data-categoria="3" data-km-final="43.5" data-km-inicial="39.7" data-qtd-acidentes="352" data-rodovia="BR-304"/><path d="M298.1,150.7L297.3,150.4L294.9,150.7 " data-categoria="3" data-km-final="104.2" data-km-inicial="102.4" data-qtd-acidentes="242" data-rodovia="BR-304"/><path d="M506.5,193.1L494.5,190.8L494.0,190.8 " data-categoria="0" data-km-final="258.4" data-km-inicial="249.9" data-qtd-acidentes="40" data-rodovia="BR-304"/><path d="M258.5,127.6L255.0,123.2L252.7,120.3L250.8,117.1 " data-categoria="1" data-km-final="77.7" data-km-inicial="69.0" data-qtd-acidentes="59" data-rodovia="BR-304"/><path d="M379.3,166.0L372.8,165.3L372.0,165.7L367.2,168.4 " data-categoria="0" data-km-final="167.6" data-km-inicial="158.8" data-qtd-acidentes="44" data-rodovia="BR-304"/><path d="M468.7,177.5L465.9,177.3L459.4,179.3L457.5,178.9 " data-categoria="1" data-km-final="228.4" data-km-inicial="219.7" data-qtd-acidentes="53" data-rodovia="BR-304"/><path d="M303.3,153.2L301.2,152.2L300.0,151.6L298.1,150.7 " data-categoria="3" data-km-final="107.4" data-km-inicial="104.2" data-qtd-acidentes="242" data-rodovia="BR-304"/><path d="M234.6,90.4L232.5,90.4L229.2,89.2 " data-categoria="3" data-km-final="47.9" data-km-inicial="43.5" data-qtd-acidentes="352" data-rodovia="BR-304"/><path d="M457.5,178.9L450.9,178.6L438.8,175.9L415.3,170.2 " data-categoria="2" data-km-final="219.7" data-km-inicial="192.4" data-qtd-acidentes="145" data-rodovia="BR-304"/><path d="M234.8,64.1L227.0,51.4L220.2,40.3L217.9,36.7 " data-categoria="2" data-km-final="24.4" data-km-inicial="0.0" data-qtd-acidentes="145" data-rodovia="BR-304"/><path d="M353.5,165.5L322.4,162.0L320.3,161.7 " data-categoria="2" data-km-final="148.6" data-km-inicial="126.2" data-qtd-acidentes="116" data-rodovia="BR-304"/><path d="M342.2,255.7L353.9,263.7L355.6,263.4L368.8,265.4 " data-categoria="0" data-km-final="199.0" data-km-inicial="178.5" data-qtd-acidentes="36" data-rodovia="RN-226"/><path d="M324.2,248.2L325.4,250.7L342.2,255.7 " data-categoria="0" data-km-final="213.2" data-km-inicial="199.0" data-qtd-acidentes="25" data-rodovia="RN-226"/><path d="M319.4,240.7L323.8,246.7L324.2,248.2 " data-categoria="0" data-km-final="219.4" data-km-inicial="213.2" data-qtd-acidentes="25" data-rodovia="RN-226"/><path d="M420.2,288.6L421.5,291.3 " data-categoria="0" data-km-final="223.7" data-km-inicial="221.7" data-qtd-acidentes="0" data-rodovia="RN-023"/><path d="M419.2,282.8L419.4,284.1L419.8,287.8L420.2,288.6 " data-categoria="0" data-km-final="221.7" data-km-inicial="215.7" data-qtd-acidentes="0" data-rodovia="RN-023"/><path d="M398.3,227.8L398.0,226.9L397.0,224.9L396.7,224.0 " data-categoria="0" data-km-final="145.7" data-km-inicial="142.6" data-qtd-acidentes="0" data-rodovia="RN-042"/><path d="M396.7,224.0L396.4,220.2L397.5,214.8L402.1,205.5 " data-categoria="0" data-km-final="142.6" data-km-inicial="125.6" data-qtd-acidentes="0" data-rodovia="RN-042"/><path d="M389.3,253.0L389.0,251.3L392.7,246.9L396.0,232.0 " data-categoria="0" data-km-final="169.7" data-km-inicial="149.7" data-qtd-acidentes="0" data-rodovia="RN-042"/><path d="M396.0,232.0L397.5,228.9L398.1,228.1L398.3,227.8 " data-categoria="0" data-km-final="149.7" data-km-inicial="145.7" data-qtd-acidentes="0" data-rodovia="RN-042"/><path d="M391.1,139.2L396.0,150.6L399.5,154.7L404.4,167.6 " data-categoria="0" data-km-final="84.4" data-km-inicial="58.4" data-qtd-acidentes="0" data-rodovia="RN-104"/><path d="M424.8,260.5L424.6,267.1L422.2,275.2L419.2,282.8 " data-categoria="0" data-km-final="215.7" data-km-inicial="200.0" data-qtd-acidentes="0" data-rodovia="RN-104"/><path d="M426.4,255.2L426.1,258.8L425.7,259.5L424.8,260.5 " data-categoria="0" data-km-final="200.0" data-km-inicial="196.5" data-qtd-acidentes="0" data-rodovia="RN-104"/><path d="M415.3,170.2L408.4,176.9L404.4,196.8L402.1,205.5 " data-categoria="0" data-km-final="125.6" data-km-inicial="92.2" data-qtd-acidentes="0" data-rodovia="RN-104"/><path d="M221.4,331.0L220.7,331.7L220.0,332.5L219.4,336.6 " data-categoria="0" data-km-final="180.9" data-km-inicial="176.2" data-qtd-acidentes="0" data-rodovia="RN-110"/><path d="M128.2,190.7L127.2,191.9L124.1,195.1 " data-categoria="0" data-km-final="111.2" data-km-inicial="107.1" data-qtd-acidentes="9" data-rodovia="BR-405"/><path d="M134.8,186.6L130.9,189.5L130.7,189.6L128.2,190.7 " data-categoria="0" data-km-final="107.1" data-km-inicial="101.8" data-qtd-acidentes="43" data-rodovia="BR-405"/><path d="M90.1,237.8L90.3,243.5L90.2,244.2L87.2,251.1 " data-categoria="1" data-km-final="159.9" data-km-inicial="150.5" data-qtd-acidentes="53" data-rodovia="BR-405"/><path d="M85.1,256.3L84.1,257.5L81.2,266.1 " data-categoria="0" data-km-final="171.1" data-km-inicial="163.8" data-qtd-acidentes="11" data-rodovia="BR-405"/><path d="M81.2,266.1L75.9,275.0L68.7,291.8 " data-categoria="0" data-km-final="190.8" data-km-inicial="171.1" data-qtd-acidentes="16" data-rodovia="BR-405"/><path d="M230.6,84.6L230.8,84.6L231.2,84.7L231.3,84.7 " data-categoria="2" data-km-final="0.4" data-km-inicial="0.0" data-qtd-acidentes="169" data-rodovia="BR-405"/><path d="M165.4,147.0L160.1,154.4L157.2,157.4L157.3,163.1 " data-categoria="0" data-km-final="77.0" data-km-inicial="64.3" data-qtd-acidentes="49" data-rodovia="BR-405"/><path d="M115.0,203.0L102.9,213.6L93.4,222.4 M93.1,222.9L90.1,237.8 " data-categoria="0" data-km-final="150.5" data-km-inicial="119.2" data-qtd-acidentes="41" data-rodovia="BR-405"/><path d="M68.7,291.8L66.0,292.6L64.7,293.4L62.6,295.6 " data-categoria="0" data-km-final="195.8" data-km-inicial="190.8" data-qtd-acidentes="5" data-rodovia="BR-405"/><path d="M207.2,88.7L178.1,129.0L165.4,147.0 " data-categoria="2" data-km-final="64.3" data-km-inicial="16.6" data-qtd-acidentes="101" data-rodovia="BR-405"/><path d="M87.2,251.1L86.8,253.0L86.7,254.0L85.1,256.3 " data-categoria="1" data-km-final="163.8" data-km-inicial="159.9" data-qtd-acidentes="53" data-rodovia="BR-405"/><path d="M115.0,203.0L115.3,202.7L118.5,199.6L124.1,195.1 " data-categoria="0" data-km-final="119.2" data-km-inicial="111.2" data-qtd-acidentes="4" data-rodovia="BR-405"/><path d="M207.2,88.7L213.7,86.7L219.3,85.6L227.0,85.1 " data-categoria="1" data-km-final="16.6" data-km-inicial="2.9" data-qtd-acidentes="89" data-rodovia="BR-405"/><path d="M157.3,163.1L158.9,164.7L159.3,165.7L156.4,170.2 " data-categoria="0" data-km-final="82.8" data-km-inicial="77.0" data-qtd-acidentes="49" data-rodovia="BR-405"/><path d="M156.4,170.2L142.7,179.5L142.2,181.0L134.8,186.6 " data-categoria="0" data-km-final="101.8" data-km-inicial="82.8" data-qtd-acidentes="43" data-rodovia="BR-405"/><path d="M227.0,85.1L228.7,84.9L228.8,84.9L230.6,84.6 " data-categoria="2" data-km-final="2.9" data-km-inicial="0.4" data-qtd-acidentes="169" data-rodovia="BR-405"/><path d="M479.1,138.1L476.6,137.4L441.9,115.6 " data-categoria="2" data-km-final="98.0" data-km-inicial="67.1" data-qtd-acidentes="135" data-rodovia="BR-406"/><path d="M518.2,152.5L512.2,150.6L501.4,147.2L487.3,142.8 " data-categoria="1" data-km-final="126.7" data-km-inicial="104.6" data-qtd-acidentes="72" data-rodovia="BR-406"/><path d="M441.9,115.6L438.9,114.2L436.7,113.2 " data-categoria="2" data-km-final="67.1" data-km-inicial="63.1" data-qtd-acidentes="135" data-rodovia="BR-406"/><path d="M573.4,180.0L562.8,176.1L551.2,161.4L550.1,161.3 " data-categoria="3" data-km-final="172.2" data-km-inicial="151.6" data-qtd-acidentes="405" data-rodovia="BR-406"/><path d="M550.1,161.3L526.5,162.1L521.6,156.9 " data-categoria="2" data-km-final="151.6" data-km-inicial="130.8" data-qtd-acidentes="195" data-rodovia="BR-406"/><path d="M380.4,88.5L365.4,81.8L359.6,79.2 " data-categoria="0" data-km-final="22.2" data-km-inicial="7.0" data-qtd-acidentes="13" data-rodovia="BR-406"/><path d="M487.3,142.8L485.3,140.4L483.9,139.5L479.1,138.1 " data-categoria="1" data-km-final="104.6" data-km-inicial="98.0" data-qtd-acidentes="68" data-rodovia="BR-406"/><path d="M359.6,79.2L358.9,78.8L358.8,78.8L357.6,78.2 " data-categoria="0" data-km-final="7.0" data-km-inicial="5.5" data-qtd-acidentes="3" data-rodovia="BR-406"/><path d="M521.6,156.9L519.9,156.2L519.1,153.3L518.2,152.5 " data-categoria="0" data-km-final="130.8" data-km-inicial="126.7" data-qtd-acidentes="37" data-rodovia="BR-406"/><path d="M415.2,103.4L403.4,98.3L399.4,96.6L393.5,94.2 " data-categoria="0" data-km-final="46.4" data-km-inicial="31.2" data-qtd-acidentes="40" data-rodovia="BR-406"/><path d="M436.7,113.2L424.7,107.6L420.4,105.7L415.2,103.4 " data-categoria="2" data-km-final="63.1" data-km-inicial="46.4" data-qtd-acidentes="135" data-rodovia="BR-406"/><path d="M393.5,94.2L388.7,92.2L387.1,91.5L380.4,88.5 " data-categoria="0" data-km-final="31.2" data-km-inicial="22.2" data-qtd-acidentes="16" data-rodovia="BR-406"/><path d="M347.5,309.0L349.1,305.4L349.4,291.1 " data-categoria="0" data-km-final="39.8" data-km-inicial="27.3" data-qtd-acidentes="37" data-rodovia="BR-427"/><path d="M213.4,326.3L217.4,328.9L220.7,329.7L221.4,331.0 " data-categoria="0" data-km-final="154.3" data-km-inicial="147.7" data-qtd-acidentes="5" data-rodovia="BR-427"/><path d="M323.9,318.3L324.7,318.4L328.0,317.4 " data-categoria="0" data-km-final="57.7" data-km-inicial="54.8" data-qtd-acidentes="22" data-rodovia="BR-427"/><path d="M273.3,295.8L277.6,298.1L279.1,299.4 " data-categoria="2" data-km-final="99.0" data-km-inicial="94.1" data-qtd-acidentes="126" data-rodovia="BR-427"/><path d="M328.0,317.4L333.0,312.8L347.5,309.0 " data-categoria="0" data-km-final="54.8" data-km-inicial="39.8" data-qtd-acidentes="29" data-rodovia="BR-427"/><path d="M279.1,299.4L279.4,299.5L279.5,299.5L279.6,299.5 " data-categoria="2" data-km-final="94.1" data-km-inicial="93.8" data-qtd-acidentes="101" data-rodovia="BR-427"/><path d="M226.2,329.0L235.5,322.8L249.4,309.0L255.8,297.5 " data-categoria="0" data-km-final="144.0" data-km-inicial="113.9" data-qtd-acidentes="34" data-rodovia="BR-427"/><path d="M210.8,326.9L213.4,326.3 " data-categoria="0" data-km-final="158.1" data-km-inicial="154.3" data-qtd-acidentes="5" data-rodovia="BR-427"/><path d="M258.4,292.6L258.9,292.4L273.3,295.8 " data-categoria="2" data-km-final="109.9" data-km-inicial="99.0" data-qtd-acidentes="126" data-rodovia="BR-427"/><path d="M349.4,291.1L349.9,291.0L351.1,290.6 " data-categoria="0" data-km-final="1.2" data-km-inicial="0.0" data-qtd-acidentes="26" data-rodovia="BR-427"/><path d="M279.6,299.5L290.6,307.1L318.9,315.4L323.9,318.3 " data-categoria="2" data-km-final="93.8" data-km-inicial="57.7" data-qtd-acidentes="101" data-rodovia="BR-427"/><path d="M221.4,331.0L222.1,331.1L223.4,329.9L226.2,329.0 " data-categoria="0" data-km-final="147.7" data-km-inicial="144.0" data-qtd-acidentes="34" data-rodovia="BR-427"/><path d="M349.4,291.1L364.3,274.1L368.8,265.4 " data-categoria="2" data-km-final="27.3" data-km-inicial="1.3" data-qtd-acidentes="133" data-rodovia="BR-427"/><path d="M255.8,297.5L256.7,296.6L257.4,295.2L258.4,292.6 " data-categoria="0" data-km-final="113.9" data-km-inicial="109.9" data-qtd-acidentes="8" data-rodovia="BR-427"/><path d="M204.7,88.9L205.3,88.8L205.9,88.8L207.2,88.7 " data-categoria="0" data-km-final="1.7" data-km-inicial="0.0" data-qtd-acidentes="0" data-rodovia="BR-437"/><path d="M204.7,88.9L193.8,89.5L164.8,90.1 " data-categoria="0" data-km-final="32.0" data-km-inicial="1.7" data-qtd-acidentes="0" data-rodovia="BR-437"/></g><g class="estado" id="estado"><path d="M45.5,291.0L52.2,287.7L69.2,306.4L100.5,317.1L113.1,315.5L153.0,285.1L168.1,270.9L205.8,251.1L227.3,244.5L255.5,243.1L262.1,257.1L230.9,292.9L222.6,310.0L205.1,335.1L206.5,342.1L243.1,349.9L258.0,366.5L270.6,361.9L288.7,347.2L300.8,354.1L324.0,354.0L327.0,379.9L333.1,386.5L363.1,370.4L368.7,347.7L363.5,336.5L366.6,329.0L379.4,328.6L367.2,307.3L371.3,296.0L393.2,284.5L405.5,287.9L412.1,300.9L422.7,303.0L437.4,300.2L450.1,303.5L479.0,304.8L500.5,298.7L517.2,299.3L531.3,305.5L557.0,310.8L606.8,311.2L613.7,306.9L619.7,295.6L600.4,278.6L604.9,270.5L590.8,263.8L594.7,239.2L591.3,216.1L586.3,202.7L589.9,187.6L580.2,183.7L579.1,177.5L585.6,167.7L582.5,156.6L570.9,142.4L563.6,115.3L540.1,77.8L506.7,78.7L450.1,67.3L421.4,74.1L372.9,68.1L344.9,77.3L333.3,69.0L280.7,53.2L265.7,42.2L249.2,29.5L224.8,34.4L189.4,45.9L181.0,54.2L147.8,127.6L120.8,168.6L115.3,187.7L90.5,227.0L88.0,236.8L47.6,269.4L40.2,272.7L30.3,294.8L35.9,298.3L42.5,293.7L45.5,291.0Z " data-uf="RN"/></g><g class="vizinho" id="vizinhos"><path d="M42.5,293.7L35.9,298.3L30.3,294.8L40.2,272.7L47.6,269.4L88.0,236.8L90.5,227.0L115.3,187.7L120.8,168.6L147.8,127.6L181.0,54.2L189.4,45.9L224.8,34.4L249.2,29.5L244.4,15.9L231.9,8.0L212.7,0.0L0.0,0.0L0.0,416.0L21.6,416.0L2.9,396.9L5.1,383.6L18.1,372.4L25.5,358.0L24.2,344.5L27.7,323.8L38.2,313.5L42.5,293.7Z " data-uf="CE"/><path d="M613.7,306.9L606.8,311.2L557.0,310.8L531.3,305.5L517.2,299.3L500.5,298.7L479.0,304.8L450.1,303.5L437.4,300.2L422.7,303.0L412.1,300.9L405.5,287.9L393.2,284.5L371.3,296.0L367.2,307.3L379.4,328.6L366.6,329.0L363.5,336.5L368.7,347.7L363.1,370.4L333.1,386.5L327.0,379.9L324.0,354.0L300.8,354.1L288.7,347.2L270.6,361.9L258.0,366.5L243.1,349.9L206.5,342.1L205.1,335.1L222.6,310.0L230.9,292.9L262.1,257.1L255.5,243.1L227.3,244.5L205.8,251.1L168.1,270.9L153.0,285.1L113.1,315.5L100.5,317.1L69.2,306.4L52.2,287.7L45.5,291.0L42.5,293.7L38.2,313.5L27.7,323.8L24.2,344.5L25.5,358.0L18.1,372.4L5.1,383.6L2.9,396.9L21.6,416.0L647.6,416.0L650.0,379.1L643.0,379.5L630.7,389.7L616.6,349.4L619.7,321.3L613.7,306.9Z " data-uf="PB"/></g></svg>