<?xml version="1.0" encoding="utf-8"?><!DOCTYPE svg  PUBLIC '-//W3C//DTD SVG 1.1//EN'  'http://www.w3.org/Graphics/SVG/1.1/DTD/svg11.dtd'><svg enable_background="new 0 0 650 539" height="539px" pretty_print="False" style="stroke-linejoin: round; stroke:#000; fill: none;" version="1.1" viewBox="0 0 650 539" width="650px" xmlns="http://www.w3.org/2000/svg" xmlns:xlink="http://www.w3.org/1999/xlink"><defs><style type="text/css"><![CDATA[path { fill-rule: evenodd; }]]></style></defs><metadata><views><view h="539.250624917" padding="0.05" w="650"><proj id="laea" lat0="-10.844728" lon0="-63.4732284696"/><bbox h="78.06" w="94.26" x="953.74" y="960.96"/></view></views></metadata><g class="" id="rodovias"><path d="M600.6,439.5L600.4,439.0L600.2,438.1L599.0,434.5 " data-categoria="2" data-km-final="6.9" data-km-inicial="0.0" data-qtd-acidentes="156" data-rodovia="BR-174"/><path d="M596.5,431.6L595.9,431.4L595.8,431.4 " data-categoria="0" data-km-final="13.2" data-km-inicial="12.2" data-qtd-acidentes="11" data-rodovia="BR-174"/><path d="M596.1,430.2L597.0,428.1L598.4,425.2L600.2,416.8 " data-categoria="1" data-km-final="33.2" data-km-inicial="14.8" data-qtd-acidentes="74" data-rodovia="BR-174"/><path d="M599.0,434.5L598.6,433.2L596.5,431.6 " data-categoria="0" data-km-final="12.2" data-km-inicial="6.9" data-qtd-acidentes="11" data-rodovia="BR-174"/><path d="M596.1,430.2L595.8,431.4L595.8,431.4 " data-categoria="0" data-km-final="14.8" data-km-inicial="13.2" data-qtd-acidentes="45" data-rodovia="BR-174"/><path d="M600.2,416.8L605.7,411.0L609.3,409.5L617.5,400.1 " data-categoria="0" data-km-final="78.9" data-km-inicial="33.2" data-qtd-acidentes="6" data-rodovia="BR-174"/><path d="M283.0,90.2L283.1,90.2L283.9,90.0L284.0,90.0 " data-categoria="0" data-km-final="61.0" data-km-inicial="59.6" data-qtd-acidentes="0" data-rodovia="BR-319"/><path d="M284.0,90.0L284.1,90.4L284.1,90.4L284.2,90.8 " data-categoria="0" data-km-final="62.1" data-km-inicial="61.0" data-qtd-acidentes="0" data-rodovia="BR-319"/><path d="M275.1,81.1L276.6,88.7L277.4,89.3 " data-categoria="0" data-km-final="51.5" data-km-inicial="39.4" data-qtd-acidentes="0" data-rodovia="BR-319"/><path d="M284.2,90.8L284.3,91.5L284.5,92.2L284.6,92.6 " data-categoria="0" data-km-final="64.6" data-km-inicial="62.1" data-qtd-acidentes="0" data-rodovia="BR-319"/><path d="M281.8,90.2L281.8,90.0L281.7,89.8L281.6,89.8 " data-categoria="0" data-km-final="58.1" data-km-inicial="57.4" data-qtd-acidentes="0" data-rodovia="BR-319"/><path d="M277.4,89.3L278.9,90.2L281.0,89.8 " data-categoria="0" data-km-final="56.7" data-km-inicial="51.5" data-qtd-acidentes="0" data-rodovia="BR-319"/><path d="M281.8,90.2L282.0,90.3L282.6,90.2L283.0,90.2 " data-categoria="0" data-km-final="59.6" data-km-inicial="58.1" data-qtd-acidentes="0" data-rodovia="BR-319"/><path d="M308.4,33.6L317.9,30.7 " data-categoria="5" data-km-final="30.3" data-km-inicial="0.0" data-qtd-acidentes="4139" data-rodovia="BR-319"/><path d="M304.3,35.5L306.3,34.2L306.4,34.2L308.4,33.6 " data-categoria="0" data-km-final="36.9" data-km-inicial="30.3" data-qtd-acidentes="0" data-rodovia="BR-319"/><path d="M281.0,89.8L281.6,89.8 " data-categoria="0" data-km-final="57.4" data-km-inicial="56.7" data-qtd-acidentes="0" data-rodovia="BR-319"/><path d="M281.6,89.8L284.4,84.5L287.8,84.0 " data-categoria="0" data-km-final="28.0" data-km-inicial="0.0" data-qtd-acidentes="0" data-rodovia="BR-319"/><path d="M561.3,463.8L561.2,469.2L561.2,469.3 " data-categoria="0" data-km-final="92.4" data-km-inicial="85.1" data-qtd-acidentes="0" data-rodovia="RO-399"/><path d="M537.6,468.9L534.9,468.8L531.8,468.8L527.7,468.8 " data-categoria="0" data-km-final="137.2" data-km-inicial="124.5" data-qtd-acidentes="0" data-rodovia="RO-399"/><path d="M561.2,469.3L543.0,468.7L539.8,468.9 " data-categoria="0" data-km-final="121.5" data-km-inicial="92.4" data-qtd-acidentes="0" data-rodovia="RO-399"/><path d="M538.4,468.9L538.0,468.9L537.9,468.9L537.6,468.9 " data-categoria="0" data-km-final="124.5" data-km-inicial="123.4" data-qtd-acidentes="0" data-rodovia="RO-399"/><path d="M562.6,463.1L562.5,463.1L562.0,463.2L561.3,463.3 " data-categoria="0" data-km-final="84.4" data-km-inicial="82.7" data-qtd-acidentes="0" data-rodovia="RO-399"/><path d="M561.3,463.3L561.3,463.4L561.3,463.8 " data-categoria="0" data-km-final="85.1" data-km-inicial="84.4" data-qtd-acidentes="0" data-rodovia="RO-399"/><path d="M539.8,468.9L539.5,468.9L539.2,468.9L538.4,468.9 " data-categoria="0" data-km-final="123.4" data-km-inicial="121.5" data-qtd-acidentes="0" data-rodovia="RO-399"/><path d="M585.0,429.7L581.8,433.1L575.5,445.2 " data-categoria="0" data-km-final="41.5" data-km-inicial="14.4" data-qtd-acidentes="0" data-rodovia="RO-399"/><path d="M527.7,468.8L527.5,476.8L527.5,487.8 " data-categoria="0" data-km-final="161.7" data-km-inicial="137.2" data-qtd-acidentes="0" data-rodovia="RO-399"/><path d="M575.5,445.2L573.2,457.2L575.0,460.1L576.0,460.9 " data-categoria="0" data-km-final="64.0" data-km-inicial="41.5" data-qtd-acidentes="0" data-rodovia="RO-399"/><path d="M576.0,460.9L571.1,462.1L562.6,463.1 " data-categoria="0" data-km-final="82.7" data-km-inicial="64.0" data-qtd-acidentes="0" data-rodovia="RO-399"/><path d="M527.5,487.8L524.4,490.1L524.0,490.8L520.3,493.2 " data-categoria="0" data-km-final="173.4" data-km-inicial="161.7" data-qtd-acidentes="0" data-rodovia="RO-399"/><path d="M520.3,493.2L520.1,493.3L519.7,493.6L519.6,493.7 " data-categoria="0" data-km-final="174.4" data-km-inicial="173.4" data-qtd-acidentes="0" data-rodovia="RO-399"/><path d="M323.0,227.5L321.8,225.7L318.0,225.7L314.1,225.8 " data-categoria="0" data-km-final="80.9" data-km-inicial="69.0" data-qtd-acidentes="0" data-rodovia="RO-460"/><path d="M314.1,225.8L303.8,225.7L289.8,214.9 " data-categoria="0" data-km-final="115.8" data-km-inicial="80.9" data-qtd-acidentes="0" data-rodovia="RO-460"/><path d="M285.4,93.1L284.7,92.7L284.7,92.7L284.6,92.6 " data-categoria="4" data-km-final="713.4" data-km-inicial="712.0" data-qtd-acidentes="646" data-rodovia="BR-364"/><path d="M447.7,275.5L447.7,275.3L447.7,274.0 " data-categoria="5" data-km-final="339.7" data-km-inicial="337.8" data-qtd-acidentes="2096" data-rodovia="BR-364"/><path d="M277.8,104.4L274.3,115.6L249.2,129.0L240.9,134.1 " data-categoria="4" data-km-final="800.9" data-km-inicial="732.0" data-qtd-acidentes="554" data-rodovia="BR-364"/><path d="M299.0,94.9L297.5,95.1L295.4,95.2L291.1,95.1 " data-categoria="3" data-km-final="703.7" data-km-inicial="693.1" data-qtd-acidentes="408" data-rodovia="BR-364"/><path d="M444.5,270.8L444.1,270.5L443.8,270.3L441.8,269.0 " data-categoria="3" data-km-final="350.7" data-km-inicial="346.3" data-qtd-acidentes="351" data-rodovia="BR-364"/><path d="M446.5,272.0L445.4,271.2L445.3,271.1L444.5,270.8 " data-categoria="5" data-km-final="346.3" data-km-inicial="343.2" data-qtd-acidentes="2096" data-rodovia="BR-364"/><path d="M172.6,174.0L166.1,175.4L165.9,175.3L159.9,171.6 " data-categoria="0" data-km-final="929.3" data-km-inicial="910.8" data-qtd-acidentes="29" data-rodovia="BR-364"/><path d="M449.1,289.9L448.6,278.4L447.7,275.5 " data-categoria="5" data-km-final="337.8" data-km-inicial="317.6" data-qtd-acidentes="2096" data-rodovia="BR-364"/><path d="M593.6,430.8L591.2,430.1L590.8,430.1L585.0,429.7 " data-categoria="3" data-km-final="27.6" data-km-inicial="16.2" data-qtd-acidentes="212" data-rodovia="BR-364"/><path d="M280.0,98.5L280.0,97.9L280.1,97.5L281.8,95.8 " data-categoria="3" data-km-final="723.6" data-km-inicial="719.0" data-qtd-acidentes="470" data-rodovia="BR-364"/><path d="M352.2,156.5L352.1,155.3L350.1,152.8 " data-categoria="3" data-km-final="570.3" data-km-inicial="564.6" data-qtd-acidentes="230" data-rodovia="BR-364"/><path d="M300.8,94.8L313.3,93.4L316.6,93.0L318.2,92.9 " data-categoria="3" data-km-final="690.6" data-km-inicial="668.1" data-qtd-acidentes="240" data-rodovia="BR-364"/><path d="M353.9,191.8L354.0,191.0L354.0,189.9 " data-categoria="3" data-km-final="516.3" data-km-inicial="513.7" data-qtd-acidentes="462" data-rodovia="BR-364"/><path d="M114.3,170.9L106.2,172.3L77.4,178.7 " data-categoria="0" data-km-final="1041.3" data-km-inicial="991.5" data-qtd-acidentes="43" data-rodovia="BR-364"/><path d="M493.9,324.9L496.6,327.1L507.8,336.4 " data-categoria="3" data-km-final="226.8" data-km-inicial="202.7" data-qtd-acidentes="234" data-rodovia="BR-364"/><path d="M77.4,178.7L63.3,181.1L62.7,180.8L40.4,179.0 " data-categoria="1" data-km-final="1091.7" data-km-inicial="1041.3" data-qtd-acidentes="51" data-rodovia="BR-364"/><path d="M280.0,98.5L279.4,100.7L279.3,101.0L277.8,104.4 " data-categoria="2" data-km-final="732.0" data-km-inicial="723.6" data-qtd-acidentes="136" data-rodovia="BR-364"/><path d="M291.1,95.1L289.2,95.2L288.9,95.2L285.4,93.1 " data-categoria="4" data-km-final="712.0" data-km-inicial="703.7" data-qtd-acidentes="963" data-rodovia="BR-364"/><path d="M403.2,235.0L402.0,233.9L401.3,233.4L399.0,231.6 " data-categoria="3" data-km-final="431.1" data-km-inicial="424.0" data-qtd-acidentes="431" data-rodovia="BR-364"/><path d="M447.7,274.0L447.7,273.0L447.3,272.5L446.5,272.0 " data-categoria="5" data-km-final="343.2" data-km-inicial="339.7" data-qtd-acidentes="2096" data-rodovia="BR-364"/><path d="M299.0,94.9L299.4,94.9L299.6,94.9L300.8,94.8 " data-categoria="1" data-km-final="693.1" data-km-inicial="690.6" data-qtd-acidentes="84" data-rodovia="BR-364"/><path d="M481.8,319.8L473.8,319.4L471.7,318.4L462.5,315.2 " data-categoria="2" data-km-final="274.3" data-km-inicial="245.5" data-qtd-acidentes="194" data-rodovia="BR-364"/><path d="M509.1,340.3L512.9,344.2L515.7,346.1L523.6,355.4 " data-categoria="3" data-km-final="197.0" data-km-inicial="169.0" data-qtd-acidentes="362" data-rodovia="BR-364"/><path d="M348.7,173.0L349.2,172.2L349.4,171.8L349.5,171.7 " data-categoria="0" data-km-final="543.6" data-km-inicial="541.3" data-qtd-acidentes="33" data-rodovia="BR-364"/><path d="M159.9,171.6L158.2,170.0L155.7,169.1L154.6,169.2 " data-categoria="0" data-km-final="937.4" data-km-inicial="929.3" data-qtd-acidentes="9" data-rodovia="BR-364"/><path d="M596.5,431.6L596.8,430.8L598.4,427.1 " data-categoria="1" data-km-final="7.0" data-km-inicial="0.0" data-qtd-acidentes="67" data-rodovia="BR-364"/><path d="M283.4,93.8L284.1,93.2L284.6,92.6 " data-categoria="3" data-km-final="715.6" data-km-inicial="713.4" data-qtd-acidentes="363" data-rodovia="BR-364"/><path d="M543.2,370.3L535.6,369.1L535.1,368.9 " data-categoria="1" data-km-final="142.9" data-km-inicial="132.0" data-qtd-acidentes="89" data-rodovia="BR-364"/><path d="M343.8,129.4L348.3,146.8L350.1,152.8 " data-categoria="2" data-km-final="602.5" data-km-inicial="570.3" data-qtd-acidentes="142" data-rodovia="BR-364"/><path d="M343.8,129.4L343.6,129.1L343.2,128.8L343.0,128.6 " data-categoria="2" data-km-final="603.9" data-km-inicial="602.5" data-qtd-acidentes="142" data-rodovia="BR-364"/><path d="M281.8,95.8L282.1,95.1L282.2,94.9L283.4,93.8 " data-categoria="2" data-km-final="719.0" data-km-inicial="715.6" data-qtd-acidentes="197" data-rodovia="BR-364"/><path d="M585.0,429.7L576.2,413.2L566.6,410.8L556.7,402.9L550.3,387.4 " data-categoria="3" data-km-final="107.4" data-km-inicial="27.6" data-qtd-acidentes="296" data-rodovia="BR-364"/><path d="M462.5,315.2L461.5,315.3L459.7,315.0 " data-categoria="0" data-km-final="278.0" data-km-inicial="274.3" data-qtd-acidentes="21" data-rodovia="BR-364"/><path d="M456.3,314.1L452.3,310.5L449.9,306.2L450.0,299.2 " data-categoria="3" data-km-final="305.3" data-km-inicial="282.6" data-qtd-acidentes="215" data-rodovia="BR-364"/><path d="M419.1,255.5L408.4,241.5L406.6,239.1 " data-categoria="3" data-km-final="416.7" data-km-inicial="388.0" data-qtd-acidentes="458" data-rodovia="BR-364"/><path d="M420.9,257.8L420.4,257.1L420.0,256.6L419.1,255.5 " data-categoria="1" data-km-final="388.0" data-km-inicial="384.4" data-qtd-acidentes="82" data-rodovia="BR-364"/><path d="M450.0,299.2L450.0,298.3L450.0,295.2L450.0,294.9 " data-categoria="5" data-km-final="310.9" data-km-inicial="305.3" data-qtd-acidentes="2096" data-rodovia="BR-364"/><path d="M343.0,128.6L330.2,118.2L326.3,118.5 " data-categoria="3" data-km-final="632.0" data-km-inicial="603.9" data-qtd-acidentes="342" data-rodovia="BR-364"/><path d="M488.8,320.5L488.6,320.4L487.9,320.2L486.4,319.4 " data-categoria="4" data-km-final="239.2" data-km-inicial="235.7" data-qtd-acidentes="843" data-rodovia="BR-364"/><path d="M368.0,207.8L362.7,205.6L353.9,191.8 " data-categoria="3" data-km-final="513.7" data-km-inicial="483.1" data-qtd-acidentes="462" data-rodovia="BR-364"/><path d="M441.8,269.0L436.8,263.5L434.6,263.0L426.9,260.4 " data-categoria="3" data-km-final="374.9" data-km-inicial="350.7" data-qtd-acidentes="351" data-rodovia="BR-364"/><path d="M595.8,431.4L594.6,431.0L593.6,430.8 " data-categoria="3" data-km-final="16.2" data-km-inicial="13.2" data-qtd-acidentes="303" data-rodovia="BR-364"/><path d="M153.7,169.8L144.7,168.1L133.9,167.9L114.3,170.9 " data-categoria="0" data-km-final="991.5" data-km-inicial="938.6" data-qtd-acidentes="49" data-rodovia="BR-364"/><path d="M172.6,174.0L177.7,172.4L194.4,166.8L196.1,164.8 " data-categoria="1" data-km-final="910.8" data-km-inicial="877.3" data-qtd-acidentes="87" data-rodovia="BR-364"/><path d="M349.5,171.7L352.4,166.3L352.6,164.4L352.2,156.5 " data-categoria="3" data-km-final="564.6" data-km-inicial="543.6" data-qtd-acidentes="230" data-rodovia="BR-364"/><path d="M493.9,324.9L491.5,322.4L488.8,320.5 " data-categoria="4" data-km-final="235.7" data-km-inicial="226.8" data-qtd-acidentes="843" data-rodovia="BR-364"/><path d="M354.0,189.9L353.0,182.9L351.6,180.5L348.7,173.0 " data-categoria="4" data-km-final="541.3" data-km-inicial="516.3" data-qtd-acidentes="518" data-rodovia="BR-364"/><path d="M326.3,118.5L323.4,112.0L321.1,98.1L318.2,92.9 " data-categoria="3" data-km-final="668.1" data-km-inicial="632.0" data-qtd-acidentes="342" data-rodovia="BR-364"/><path d="M399.0,231.6L389.0,223.7L379.7,217.0L368.0,207.8 " data-categoria="3" data-km-final="483.1" data-km-inicial="431.1" data-qtd-acidentes="369" data-rodovia="BR-364"/><path d="M459.7,315.0L457.4,314.5L457.1,314.4L456.3,314.1 " data-categoria="3" data-km-final="282.6" data-km-inicial="278.0" data-qtd-acidentes="215" data-rodovia="BR-364"/><path d="M450.0,294.9L450.0,293.1L449.1,289.9 " data-categoria="5" data-km-final="317.6" data-km-inicial="310.9" data-qtd-acidentes="2096" data-rodovia="BR-364"/><path d="M420.9,257.8L422.6,259.0L423.3,260.1L426.9,260.4 " data-categoria="3" data-km-final="384.4" data-km-inicial="374.9" data-qtd-acidentes="210" data-rodovia="BR-364"/><path d="M486.4,319.4L485.2,319.8L484.7,319.9L481.8,319.8 " data-categoria="2" data-km-final="245.5" data-km-inicial="239.2" data-qtd-acidentes="154" data-rodovia="BR-364"/><path d="M550.3,387.4L548.0,381.2L545.2,377.0L543.2,370.3 " data-categoria="1" data-km-final="132.0" data-km-inicial="107.4" data-qtd-acidentes="89" data-rodovia="BR-364"/><path d="M523.6,355.4L528.3,366.2L532.0,368.7L535.1,368.9 " data-categoria="3" data-km-final="169.0" data-km-inicial="142.9" data-qtd-acidentes="362" data-rodovia="BR-364"/><path d="M406.6,239.1L405.0,237.7L404.9,237.6L403.2,235.0 " data-categoria="3" data-km-final="424.0" data-km-inicial="416.7" data-qtd-acidentes="458" data-rodovia="BR-364"/><path d="M507.8,336.4L508.8,338.9L508.8,339.4L509.1,340.3 " data-categoria="3" data-km-final="202.7" data-km-inicial="197.0" data-qtd-acidentes="286" data-rodovia="BR-364"/><path d="M196.1,164.8L207.6,154.9L216.5,148.2L240.9,134.1 " data-categoria="3" data-km-final="877.3" data-km-inicial="800.9" data-qtd-acidentes="346" data-rodovia="BR-364"/><path d="M445.6,274.7L447.7,275.5 " data-categoria="2" data-km-final="2.7" data-km-inicial="0.0" data-qtd-acidentes="102" data-rodovia="BR-364"/><path d="M441.8,269.0L441.4,269.8L445.6,274.7 " data-categoria="2" data-km-final="12.0" data-km-inicial="2.7" data-qtd-acidentes="102" data-rodovia="BR-364"/><path d="M449.8,273.7L450.2,272.3 " data-categoria="2" data-km-final="24.0" data-km-inicial="21.0" data-qtd-acidentes="130" data-rodovia="BR-364"/><path d="M444.6,268.5L443.4,268.4L442.7,268.5L441.8,269.0 " data-categoria="2" data-km-final="6.2" data-km-inicial="0.0" data-qtd-acidentes="130" data-rodovia="BR-364"/><path d="M447.7,275.5L448.6,275.2L449.8,273.7 " data-categoria="0" data-km-final="12.0" data-km-inicial="0.0" data-qtd-acidentes="0" data-rodovia="BR-364"/><path d="M154.6,169.2L153.7,169.8 " data-categoria="0" data-km-final="938.6" data-km-inicial="937.4" data-qtd-acidentes="2" data-rodovia="BR-364"/><path d="M450.2,272.3L449.9,271.3L448.9,270.2L444.6,268.5 " data-categoria="2" data-km-final="21.0" data-km-inicial="6.2" data-qtd-acidentes="130" data-rodovia="BR-364"/><path d="M168.7,258.2L164.5,248.9L164.2,242.7L164.2,231.4 " data-categoria="0" data-km-final="337.5" data-km-inicial="290.6" data-qtd-acidentes="0" data-rodovia="BR-421"/><path d="M333.3,220.0L329.8,225.2L325.4,226.4L323.0,227.5 " data-categoria="0" data-km-final="69.0" data-km-inicial="49.0" data-qtd-acidentes="0" data-rodovia="BR-421"/><path d="M323.0,227.5L321.6,230.0L321.1,230.5L318.5,234.8 " data-categoria="0" data-km-final="11.0" data-km-inicial="0.0" data-qtd-acidentes="1" data-rodovia="BR-421"/><path d="M354.0,189.9L352.5,190.9L347.7,194.9 " data-categoria="0" data-km-final="11.0" data-km-inicial="0.0" data-qtd-acidentes="0" data-rodovia="BR-421"/><path d="M347.7,194.9L339.3,206.2L333.3,220.0 " data-categoria="0" data-km-final="49.0" data-km-inicial="11.0" data-qtd-acidentes="0" data-rodovia="BR-421"/><path d="M303.0,244.9L260.9,234.8L250.0,231.4 " data-categoria="0" data-km-final="236.2" data-km-inicial="162.3" data-qtd-acidentes="0" data-rodovia="BR-421"/><path d="M242.3,237.9L236.9,248.9L216.7,252.0L201.2,258.7L189.8,253.1L168.7,258.2 " data-categoria="0" data-km-final="290.6" data-km-inicial="249.5" data-qtd-acidentes="0" data-rodovia="BR-421"/><path d="M306.2,245.7L304.6,245.7L303.9,245.1L303.0,244.9 " data-categoria="0" data-km-final="46.0" data-km-inicial="36.5" data-qtd-acidentes="0" data-rodovia="BR-421"/><path d="M250.0,231.4L246.2,235.6L242.3,237.9 " data-categoria="0" data-km-final="249.5" data-km-inicial="236.2" data-qtd-acidentes="0" data-rodovia="BR-421"/><path d="M318.5,234.8L315.7,240.2L306.2,245.7 " data-categoria="0" data-km-final="36.5" data-km-inicial="11.0" data-qtd-acidentes="0" data-rodovia="BR-421"/><path d="M303.0,244.9L290.6,220.1L289.8,214.9 " data-categoria="0" data-km-final="162.3" data-km-inicial="115.8" data-qtd-acidentes="0" data-rodovia="BR-421"/><path d="M172.6,174.0L168.0,214.9L164.2,231.4 " data-categoria="0" data-km-final="98.8" data-km-inicial="18.5" data-qtd-acidentes="23" data-rodovia="BR-425"/><path d="M168.7,258.2L168.5,259.1L165.0,262.6L164.4,263.2 " data-categoria="0" data-km-final="150.2" data-km-inicial="145.7" data-qtd-acidentes="0" data-rodovia="BR-425"/><path d="M164.4,263.2L162.9,264.4 " data-categoria="0" data-km-final="151.5" data-km-inicial="150.2" data-qtd-acidentes="0" data-rodovia="BR-425"/><path d="M446.2,299.2L441.9,299.3L441.0,299.4 " data-categoria="0" data-km-final="53.0" data-km-inicial="46.2" data-qtd-acidentes="17" data-rodovia="BR-429"/><path d="M441.0,299.4L431.7,300.3L424.8,302.5 " data-categoria="0" data-km-final="76.5" data-km-inicial="53.0" data-qtd-acidentes="15" data-rodovia="BR-429"/><path d="M450.0,299.2L447.5,299.3L447.1,299.0L446.2,299.2 " data-categoria="0" data-km-final="46.2" data-km-inicial="41.0" data-qtd-acidentes="17" data-rodovia="BR-429"/><path d="M388.7,336.7L393.4,329.0L406.8,324.1L411.5,318.5 " data-categoria="0" data-km-final="147.4" data-km-inicial="105.5" data-qtd-acidentes="0" data-rodovia="BR-429"/><path d="M274.9,371.5L254.2,381.6L253.8,390.3L256.2,403.8 " data-categoria="0" data-km-final="382.5" data-km-inicial="319.2" data-qtd-acidentes="0" data-rodovia="BR-429"/><path d="M275.4,371.6L275.3,371.6L275.3,371.5L274.9,371.5 " data-categoria="0" data-km-final="319.2" data-km-inicial="318.5" data-qtd-acidentes="0" data-rodovia="BR-429"/><path d="M416.5,312.9L413.9,315.7L412.9,316.9L411.5,318.5 " data-categoria="0" data-km-final="105.5" data-km-inicial="95.7" data-qtd-acidentes="1" data-rodovia="BR-429"/><path d="M320.8,371.2L281.7,372.6L275.4,371.6 " data-categoria="0" data-km-final="318.5" data-km-inicial="258.5" data-qtd-acidentes="1" data-rodovia="BR-429"/><path d="M381.9,341.7L373.8,344.8L370.6,346.5L355.8,346.8 " data-categoria="0" data-km-final="199.5" data-km-inicial="160.5" data-qtd-acidentes="0" data-rodovia="BR-429"/><path d="M256.2,403.8L256.3,403.9L256.3,403.9L256.3,404.0 " data-categoria="0" data-km-final="382.7" data-km-inicial="382.5" data-qtd-acidentes="0" data-rodovia="BR-429"/><path d="M383.0,342.0L382.4,341.8L382.3,341.8L381.9,341.7 " data-categoria="0" data-km-final="160.5" data-km-inicial="159.1" data-qtd-acidentes="0" data-rodovia="BR-429"/><path d="M256.3,404.4L256.4,404.6L256.4,404.9L256.4,405.2 " data-categoria="0" data-km-final="384.5" data-km-inicial="383.3" data-qtd-acidentes="0" data-rodovia="BR-429"/><path d="M388.7,336.7L385.1,342.2L383.0,342.0 " data-categoria="0" data-km-final="159.1" data-km-inicial="147.4" data-qtd-acidentes="0" data-rodovia="BR-429"/><path d="M422.2,306.2L422.5,306.8L421.9,307.3L419.8,309.5 " data-categoria="0" data-km-final="89.1" data-km-inicial="82.5" data-qtd-acidentes="2" data-rodovia="BR-429"/><path d="M417.7,311.7L417.3,312.1L416.5,312.9 " data-categoria="0" data-km-final="95.7" data-km-inicial="93.5" data-qtd-acidentes="1" data-rodovia="BR-429"/><path d="M424.8,302.5L424.3,303.3L422.2,305.8L422.2,306.2 " data-categoria="0" data-km-final="82.5" data-km-inicial="76.5" data-qtd-acidentes="0" data-rodovia="BR-429"/><path d="M355.8,346.8L351.1,348.6L331.7,368.7L320.8,371.2 " data-categoria="0" data-km-final="258.5" data-km-inicial="199.5" data-qtd-acidentes="1" data-rodovia="BR-429"/><path d="M256.3,404.0L256.3,404.1L256.3,404.4 " data-categoria="0" data-km-final="383.3" data-km-inicial="382.7" data-qtd-acidentes="0" data-rodovia="BR-429"/><path d="M419.8,309.5L417.8,311.7L417.7,311.7 " data-categoria="0" data-km-final="93.5" data-km-inicial="89.1" data-qtd-acidentes="2" data-rodovia="BR-429"/></g><g class="estado" id="estado"><path d="M544.4,507.8L582.8,468.1L597.5,450.0L619.9,416.1L613.1,371.4L602.2,344.0L612.7,318.0L605.4,297.2L564.5,281.1L488.3,281.0L481.6,270.1L484.5,265.4L485.0,241.9L483.0,231.7L474.4,214.6L480.0,162.3L471.8,142.6L483.6,110.7L479.5,100.2L478.1,97.6L461.5,91.3L454.3,88.8L444.6,93.9L443.9,100.8L429.6,96.1L409.0,78.1L398.7,60.6L380.9,55.4L367.0,32.0L360.6,30.5L310.2,30.8L305.2,32.0L293.9,55.6L281.3,59.5L268.3,74.0L266.4,90.4L260.9,90.7L250.8,111.2L200.5,115.1L179.8,149.3L172.0,151.3L160.1,137.8L146.1,153.8L128.6,155.2L118.7,163.5L106.0,151.7L72.3,151.8L65.0,155.2L53.2,173.8L32.8,181.6L30.1,185.6L44.9,192.2L50.3,191.3L86.3,182.6L123.0,178.0L132.2,183.4L145.5,172.3L157.9,189.5L155.8,223.3L148.3,235.2L147.5,243.9L159.8,282.5L159.1,320.3L174.8,342.2L182.7,360.0L196.0,369.9L220.6,383.7L231.4,407.1L265.4,411.8L284.8,405.4L317.5,423.8L334.9,420.6L344.3,436.0L358.8,450.2L376.2,453.2L424.9,476.4L442.9,495.2L453.5,493.1L524.4,501.3L544.4,507.8Z " data-uf="RO"/></g><g class="vizinho" id="vizinhos"><path d="M44.9,192.2L30.1,185.6L0.0,172.9L0.0,228.6L9.5,224.2L27.8,203.9L43.4,193.9L44.9,192.2Z " data-uf="AC"/><path d="M30.1,185.6L32.8,181.6L53.2,173.8L65.0,155.2L72.3,151.8L106.0,151.7L118.7,163.5L128.6,155.2L146.1,153.8L160.1,137.8L172.0,151.3L179.8,149.3L200.5,115.1L250.8,111.2L260.9,90.7L266.4,90.4L268.3,74.0L281.3,59.5L293.9,55.6L305.2,32.0L310.2,30.8L360.6,30.5L367.0,32.0L380.9,55.4L398.7,60.6L409.0,78.1L429.6,96.1L443.9,100.8L444.6,93.9L454.3,88.8L461.5,91.3L478.1,97.6L650.0,99.7L650.0,0.0L0.0,0.0L0.0,172.9L30.1,185.6Z " data-uf="AM"/><path d="M478.1,97.6L479.5,100.2L483.6,110.7L471.8,142.6L480.0,162.3L474.4,214.6L483.0,231.7L485.0,241.9L484.5,265.4L481.6,270.1L488.3,281.0L564.5,281.1L605.4,297.2L612.7,318.0L602.2,344.0L613.1,371.4L619.9,416.1L597.5,450.0L582.8,468.1L544.4,507.8L547.2,511.8L565.1,520.2L569.6,526.7L568.9,537.3L650.0,537.3L650.0,99.7L478.1,97.6Z " data-uf="MT"/></g></svg>