<?xml version="1.0" encoding="utf-8"?><!DOCTYPE svg  PUBLIC '-//W3C//DTD SVG 1.1//EN'  'http://www.w3.org/Graphics/SVG/1.1/DTD/svg11.dtd'><svg enable_background="new 0 0 650 752" height="752px" pretty_print="False" style="stroke-linejoin: round; stroke:#000; fill: none;" version="1.1" viewBox="0 0 650 752" width="650px" xmlns="http://www.w3.org/2000/svg" xmlns:xlink="http://www.w3.org/1999/xlink"><defs><style type="text/css"><![CDATA[path { fill-rule: evenodd; }]]></style></defs><metadata><views><view h="752.137932416" padding="0.05" w="650"><proj id="laea" lat0="1.945138" lon0="-61.3819117599"/><bbox h="91.94" w="79.56" x="955.87" y="953.96"/></view></views></metadata><g class="" id="rodovias" stroke-width="5px"><path d="M442.5,558.0L444.5,555.4L447.7,546.1L447.1,541.8 " data-categoria="0" data-km-inicial="118.5" data-qtd-acidentes="0" data-rodovia="BR-174" stroke="#FEE5D9"/><path d="M386.3,123.9L385.1,122.4L384.7,122.2L383.7,118.1 " data-categoria="0" data-km-inicial="712.1" data-qtd-acidentes="5" data-rodovia="BR-174" stroke="#FEE5D9"/><path d="M416.8,259.0L416.4,258.1L416.3,257.5L415.7,255.4 " data-categoria="0" data-km-inicial="542.0" data-qtd-acidentes="8" data-rodovia="BR-174" stroke="#FEE5D9"/><path d="M421.7,267.6L422.6,268.6L424.9,272.6 " data-categoria="0" data-km-inicial="524.5" data-qtd-acidentes="28" data-rodovia="BR-174" stroke="#FEE5D9"/><path d="M447.3,658.0L444.4,649.5L439.6,636.9L438.1,631.8 " data-categoria="0" data-km-inicial="0.0" data-qtd-acidentes="18" data-rodovia="BR-174" stroke="#FEE5D9"/><path d="M399.0,193.8L399.1,193.0L399.2,192.6L399.2,191.8 " data-categoria="0" data-km-inicial="617.5" data-qtd-acidentes="1" data-rodovia="BR-174" stroke="#FEE5D9"/><path d="M417.9,297.0L418.8,297.2L425.9,293.7 " data-categoria="4" data-km-inicial="485.9" data-qtd-acidentes="525" data-rodovia="BR-174" stroke="#DE2D26"/><path d="M448.3,443.0L443.2,441.2L440.3,437.4L434.9,431.6 " data-categoria="0" data-km-inicial="260.8" data-qtd-acidentes="5" data-rodovia="BR-174" stroke="#FEE5D9"/><path d="M430.1,288.9L429.8,287.9L429.4,286.8L428.1,286.4 " data-categoria="3" data-km-inicial="505.1" data-qtd-acidentes="248" data-rodovia="BR-174" stroke="#FB6A4A"/><path d="M425.9,293.7L424.5,293.2L420.3,288.5L419.5,284.5 " data-categoria="0" data-km-inicial="0.0" data-qtd-acidentes="0" data-rodovia="BR-174" stroke="#FEE5D9"/><path d="M413.5,239.5L410.6,230.2L409.7,227.5L407.8,222.6 " data-categoria="0" data-km-inicial="563.9" data-qtd-acidentes="26" data-rodovia="BR-174" stroke="#FEE5D9"/><path d="M453.2,512.4L453.7,507.2L453.9,506.2L454.7,502.4 " data-categoria="0" data-km-inicial="173.4" data-qtd-acidentes="0" data-rodovia="BR-174" stroke="#FEE5D9"/><path d="M395.5,144.3L395.3,143.8L395.3,143.7L395.4,143.1 " data-categoria="0" data-km-inicial="677.3" data-qtd-acidentes="4" data-rodovia="BR-174" stroke="#FEE5D9"/><path d="M434.9,569.6L435.3,568.1L435.8,566.4L437.3,565.1 " data-categoria="0" data-km-inicial="102.4" data-qtd-acidentes="1" data-rodovia="BR-174" stroke="#FEE5D9"/><path d="M456.1,479.7L456.2,478.7L461.1,465.6 " data-categoria="0" data-km-inicial="207.9" data-qtd-acidentes="4" data-rodovia="BR-174" stroke="#FEE5D9"/><path d="M423.9,425.2L433.4,429.5L434.9,431.6 " data-categoria="0" data-km-inicial="281.2" data-qtd-acidentes="8" data-rodovia="BR-174" stroke="#FEE5D9"/><path d="M400.3,414.6L393.6,405.3L390.1,402.5L385.2,396.9 " data-categoria="0" data-km-inicial="328.9" data-qtd-acidentes="13" data-rodovia="BR-174" stroke="#FEE5D9"/><path d="M397.3,145.5L397.0,144.9L396.9,144.9L395.5,144.3 " data-categoria="0" data-km-inicial="675.5" data-qtd-acidentes="4" data-rodovia="BR-174" stroke="#FEE5D9"/><path d="M402.4,207.3L401.9,205.6L401.4,203.8 " data-categoria="0" data-km-inicial="602.2" data-qtd-acidentes="9" data-rodovia="BR-174" stroke="#FEE5D9"/><path d="M461.1,465.6L459.1,457.0L460.9,448.3 " data-categoria="0" data-km-inicial="224.7" data-qtd-acidentes="2" data-rodovia="BR-174" stroke="#FEE5D9"/><path d="M386.8,386.5L387.3,385.6L387.3,381.2L388.0,378.9 " data-categoria="0" data-km-inicial="369.0" data-qtd-acidentes="7" data-rodovia="BR-174" stroke="#FEE5D9"/><path d="M447.1,541.8L446.9,538.7L446.9,538.5L447.7,536.5 " data-categoria="0" data-km-inicial="137.3" data-qtd-acidentes="0" data-rodovia="BR-174" stroke="#FEE5D9"/><path d="M419.5,284.5L419.7,282.6L424.9,272.6 " data-categoria="0" data-km-inicial="13.2" data-qtd-acidentes="0" data-rodovia="BR-174" stroke="#FEE5D9"/><path d="M395.4,143.1L385.1,134.4L387.9,125.4L386.3,123.9 " data-categoria="0" data-km-inicial="678.1" data-qtd-acidentes="11" data-rodovia="BR-174" stroke="#FEE5D9"/><path d="M415.7,255.4L415.9,252.5L415.8,251.9L415.1,246.6 " data-categoria="0" data-km-inicial="546.1" data-qtd-acidentes="16" data-rodovia="BR-174" stroke="#FEE5D9"/><path d="M394.6,165.8L394.9,156.9L395.3,154.9 " data-categoria="0" data-km-inicial="649.1" data-qtd-acidentes="7" data-rodovia="BR-174" stroke="#FEE5D9"/><path d="M388.0,378.9L389.9,364.2L390.5,358.5L394.9,351.5 " data-categoria="0" data-km-inicial="377.5" data-qtd-acidentes="23" data-rodovia="BR-174" stroke="#FEE5D9"/><path d="M425.9,293.7L428.2,291.9L429.1,290.9L429.2,290.3 " data-categoria="4" data-km-inicial="495.7" data-qtd-acidentes="525" data-rodovia="BR-174" stroke="#DE2D26"/><path d="M429.2,290.3L429.3,289.8L429.5,289.5L430.1,288.9 " data-categoria="4" data-km-inicial="501.2" data-qtd-acidentes="525" data-rodovia="BR-174" stroke="#DE2D26"/><path d="M438.1,631.8L436.3,627.3L436.0,626.4L434.5,621.9 " data-categoria="0" data-km-inicial="30.5" data-qtd-acidentes="5" data-rodovia="BR-174" stroke="#FEE5D9"/><path d="M428.1,286.4L427.8,285.7L429.4,282.4 " data-categoria="2" data-km-inicial="507.1" data-qtd-acidentes="179" data-rodovia="BR-174" stroke="#FC9272"/><path d="M413.1,422.7L404.9,420.8L400.3,414.6 " data-categoria="0" data-km-inicial="308.9" data-qtd-acidentes="6" data-rodovia="BR-174" stroke="#FEE5D9"/><path d="M401.4,203.8L399.3,196.2L399.0,193.8 " data-categoria="0" data-km-inicial="606.2" data-qtd-acidentes="8" data-rodovia="BR-174" stroke="#FEE5D9"/><path d="M423.9,425.2L421.1,424.2L417.7,422.2L413.1,422.7 " data-categoria="0" data-km-inicial="296.0" data-qtd-acidentes="1" data-rodovia="BR-174" stroke="#FEE5D9"/><path d="M406.0,340.0L408.3,338.0L407.8,334.5L406.9,328.1 " data-categoria="0" data-km-inicial="431.0" data-qtd-acidentes="32" data-rodovia="BR-174" stroke="#FEE5D9"/><path d="M429.9,600.4L430.1,598.0L430.1,597.0L430.0,594.5 " data-categoria="0" data-km-inicial="66.4" data-qtd-acidentes="1" data-rodovia="BR-174" stroke="#FEE5D9"/><path d="M407.8,222.6L407.5,220.0L406.4,216.3L404.7,212.3 " data-categoria="0" data-km-inicial="584.2" data-qtd-acidentes="12" data-rodovia="BR-174" stroke="#FEE5D9"/><path d="M421.7,267.6L420.0,265.1L419.4,264.1L416.8,259.0 " data-categoria="0" data-km-inicial="531.1" data-qtd-acidentes="22" data-rodovia="BR-174" stroke="#FEE5D9"/><path d="M434.5,621.9L430.2,603.9L430.4,602.8L429.9,600.4 " data-categoria="0" data-km-inicial="42.0" data-qtd-acidentes="16" data-rodovia="BR-174" stroke="#FEE5D9"/><path d="M395.3,154.9L398.1,152.5L397.9,150.1L397.3,145.5 " data-categoria="0" data-km-inicial="661.1" data-qtd-acidentes="9" data-rodovia="BR-174" stroke="#FEE5D9"/><path d="M454.4,492.0L454.7,490.9L455.4,488.1L456.1,479.7 " data-categoria="0" data-km-inicial="194.2" data-qtd-acidentes="4" data-rodovia="BR-174" stroke="#FEE5D9"/><path d="M399.2,191.8L399.2,186.2L399.0,183.9L398.7,181.1 " data-categoria="0" data-km-inicial="619.7" data-qtd-acidentes="4" data-rodovia="BR-174" stroke="#FEE5D9"/><path d="M454.3,492.3L454.4,492.1L454.4,492.1L454.4,492.0 " data-categoria="0" data-km-inicial="194.0" data-qtd-acidentes="4" data-rodovia="BR-174" stroke="#FEE5D9"/><path d="M409.2,321.4L410.7,319.6L411.2,316.7L417.9,297.0 " data-categoria="1" data-km-inicial="454.7" data-qtd-acidentes="68" data-rodovia="BR-174" stroke="#FCBBA1"/><path d="M454.7,502.4L453.9,493.8L454.3,492.3 " data-categoria="0" data-km-inicial="182.4" data-qtd-acidentes="2" data-rodovia="BR-174" stroke="#FEE5D9"/><path d="M404.7,212.3L402.8,208.7L402.4,207.3 " data-categoria="0" data-km-inicial="596.1" data-qtd-acidentes="10" data-rodovia="BR-174" stroke="#FEE5D9"/><path d="M385.2,396.9L384.9,396.5L384.8,396.4L384.6,396.2 " data-categoria="0" data-km-inicial="354.8" data-qtd-acidentes="1" data-rodovia="BR-174" stroke="#FEE5D9"/><path d="M448.3,443.0L452.8,446.0L455.4,446.3L460.9,448.3 " data-categoria="0" data-km-inicial="245.2" data-qtd-acidentes="1" data-rodovia="BR-174" stroke="#FEE5D9"/><path d="M406.9,328.1L406.9,323.2L407.2,322.6L409.2,321.4 " data-categoria="0" data-km-inicial="445.9" data-qtd-acidentes="32" data-rodovia="BR-174" stroke="#FEE5D9"/><path d="M452.7,519.7L453.0,517.1L453.1,515.8L453.2,512.4 " data-categoria="0" data-km-inicial="163.4" data-qtd-acidentes="2" data-rodovia="BR-174" stroke="#FEE5D9"/><path d="M394.9,351.5L401.2,345.0L402.1,342.6L406.0,340.0 " data-categoria="0" data-km-inicial="412.8" data-qtd-acidentes="12" data-rodovia="BR-174" stroke="#FEE5D9"/><path d="M447.7,536.5L449.2,533.8L449.6,533.0L450.8,530.3 " data-categoria="0" data-km-inicial="143.2" data-qtd-acidentes="0" data-rodovia="BR-174" stroke="#FEE5D9"/><path d="M437.3,565.1L440.5,560.7L441.3,559.8L442.5,558.0 " data-categoria="0" data-km-inicial="108.6" data-qtd-acidentes="1" data-rodovia="BR-174" stroke="#FEE5D9"/><path d="M450.8,530.3L451.7,528.1L452.0,527.0L452.7,519.7 " data-categoria="0" data-km-inicial="151.1" data-qtd-acidentes="2" data-rodovia="BR-174" stroke="#FEE5D9"/><path d="M415.1,246.6L414.7,244.0L414.2,241.7L413.5,239.5 " data-categoria="0" data-km-inicial="555.9" data-qtd-acidentes="13" data-rodovia="BR-174" stroke="#FEE5D9"/><path d="M429.4,282.4L429.1,281.0L424.9,272.6 " data-categoria="1" data-km-inicial="512.1" data-qtd-acidentes="73" data-rodovia="BR-174" stroke="#FCBBA1"/><path d="M429.3,580.8L432.6,573.6L434.3,571.4L434.9,569.6 " data-categoria="0" data-km-inicial="88.5" data-qtd-acidentes="3" data-rodovia="BR-174" stroke="#FEE5D9"/><path d="M430.0,594.5L430.4,589.7L430.6,585.8L429.3,580.8 " data-categoria="0" data-km-inicial="72.7" data-qtd-acidentes="3" data-rodovia="BR-174" stroke="#FEE5D9"/><path d="M398.7,181.1L394.5,168.8L394.6,165.8 " data-categoria="0" data-km-inicial="631.5" data-qtd-acidentes="7" data-rodovia="BR-174" stroke="#FEE5D9"/><path d="M384.6,396.2L384.2,395.9L384.1,388.8L386.8,386.5 " data-categoria="0" data-km-inicial="356.0" data-qtd-acidentes="8" data-rodovia="BR-174" stroke="#FEE5D9"/><path d="M508.3,475.7L505.4,475.3L499.0,471.2 " data-categoria="0" data-km-inicial="113.2" data-qtd-acidentes="0" data-rodovia="BR-210" stroke="#FEE5D9"/><path d="M478.4,459.8L482.7,465.0L491.6,467.8L494.1,468.6 " data-categoria="0" data-km-inicial="135.0" data-qtd-acidentes="0" data-rodovia="BR-210" stroke="#FEE5D9"/><path d="M495.8,469.5L496.6,469.9L499.0,471.2 " data-categoria="0" data-km-inicial="129.0" data-qtd-acidentes="0" data-rodovia="BR-210" stroke="#FEE5D9"/><path d="M478.4,459.8L476.7,454.9L468.0,450.1L460.9,448.3 " data-categoria="0" data-km-inicial="156.0" data-qtd-acidentes="1" data-rodovia="BR-210" stroke="#FEE5D9"/><path d="M494.1,468.6L494.8,469.0L495.0,469.0L495.8,469.5 " data-categoria="0" data-km-inicial="133.0" data-qtd-acidentes="0" data-rodovia="BR-210" stroke="#FEE5D9"/><path d="M508.5,475.8L508.5,475.8L508.3,475.7 " data-categoria="0" data-km-inicial="113.0" data-qtd-acidentes="0" data-rodovia="BR-210" stroke="#FEE5D9"/><path d="M610.7,498.5L581.0,501.8L574.3,497.5L571.1,494.9 " data-categoria="0" data-km-inicial="0.0" data-qtd-acidentes="0" data-rodovia="BR-210" stroke="#FEE5D9"/><path d="M261.7,401.7L246.8,410.9L242.4,412.1L222.9,419.9 " data-categoria="0" data-km-inicial="467.0" data-qtd-acidentes="0" data-rodovia="BR-210" stroke="#FEE5D9"/><path d="M270.2,396.5L268.5,397.5 " data-categoria="0" data-km-inicial="454.0" data-qtd-acidentes="0" data-rodovia="BR-210" stroke="#FEE5D9"/><path d="M305.9,378.5L292.2,381.6L289.0,385.4L270.2,396.5 " data-categoria="0" data-km-inicial="406.0" data-qtd-acidentes="0" data-rodovia="BR-210" stroke="#FEE5D9"/><path d="M268.5,397.5L267.6,398.1L261.7,401.7 " data-categoria="0" data-km-inicial="457.0" data-qtd-acidentes="0" data-rodovia="BR-210" stroke="#FEE5D9"/><path d="M353.0,370.2L335.6,377.4L312.6,377.4L305.9,378.5 " data-categoria="0" data-km-inicial="358.0" data-qtd-acidentes="0" data-rodovia="BR-210" stroke="#FEE5D9"/><path d="M388.0,378.9L362.3,372.9L359.5,370.5L353.0,370.2 " data-categoria="0" data-km-inicial="314.3" data-qtd-acidentes="1" data-rodovia="BR-210" stroke="#FEE5D9"/><path d="M571.1,494.9L564.0,492.4L562.0,491.3L557.3,491.1 " data-categoria="0" data-km-inicial="45.3" data-qtd-acidentes="0" data-rodovia="BR-210" stroke="#FEE5D9"/><path d="M556.9,491.1L550.5,489.3L543.7,488.5L534.5,483.6 " data-categoria="0" data-km-inicial="56.5" data-qtd-acidentes="0" data-rodovia="BR-210" stroke="#FEE5D9"/><path d="M557.3,491.1L557.2,491.1L557.2,491.1L557.1,491.1 " data-categoria="0" data-km-inicial="56.2" data-qtd-acidentes="0" data-rodovia="BR-210" stroke="#FEE5D9"/><path d="M508.9,475.8L508.7,475.8L508.6,475.8L508.5,475.8 " data-categoria="0" data-km-inicial="112.6" data-qtd-acidentes="0" data-rodovia="BR-210" stroke="#FEE5D9"/><path d="M557.1,491.1L557.0,491.1L557.0,491.1L556.9,491.1 " data-categoria="0" data-km-inicial="56.3" data-qtd-acidentes="0" data-rodovia="BR-210" stroke="#FEE5D9"/><path d="M533.4,483.4L523.6,480.1L512.5,477.1L508.9,475.8 " data-categoria="0" data-km-inicial="89.0" data-qtd-acidentes="0" data-rodovia="BR-210" stroke="#FEE5D9"/><path d="M534.5,483.6L533.5,483.5L533.4,483.4 " data-categoria="0" data-km-inicial="83.2" data-qtd-acidentes="0" data-rodovia="BR-210" stroke="#FEE5D9"/><path d="M430.1,288.9L430.6,289.2L430.6,289.2L431.3,289.5 " data-categoria="3" data-km-inicial="0.0" data-qtd-acidentes="216" data-rodovia="BR-401" stroke="#FB6A4A"/><path d="M450.9,278.5L465.9,258.3L487.9,243.5L504.8,238.0 " data-categoria="0" data-km-inicial="28.6" data-qtd-acidentes="32" data-rodovia="BR-401" stroke="#FEE5D9"/><path d="M431.3,289.5L435.4,289.9L438.1,288.3 " data-categoria="3" data-km-inicial="1.5" data-qtd-acidentes="216" data-rodovia="BR-401" stroke="#FB6A4A"/><path d="M525.7,188.6L529.2,185.7L532.6,182.7L536.0,180.8 " data-categoria="0" data-km-inicial="170.5" data-qtd-acidentes="2" data-rodovia="BR-401" stroke="#FEE5D9"/><path d="M525.7,188.6L515.1,203.4L514.5,204.1L513.8,207.6 " data-categoria="0" data-km-inicial="143.7" data-qtd-acidentes="1" data-rodovia="BR-401" stroke="#FEE5D9"/><path d="M513.8,207.6L513.3,209.3L511.5,211.6L510.6,212.1 " data-categoria="0" data-km-inicial="137.4" data-qtd-acidentes="1" data-rodovia="BR-401" stroke="#FEE5D9"/><path d="M510.6,212.1L506.8,215.7L506.6,216.1L504.8,238.0 " data-categoria="0" data-km-inicial="106.9" data-qtd-acidentes="3" data-rodovia="BR-401" stroke="#FEE5D9"/><path d="M504.8,238.0L513.3,233.2L514.4,232.8L518.3,231.0 " data-categoria="0" data-km-inicial="0.0" data-qtd-acidentes="15" data-rodovia="BR-401" stroke="#FEE5D9"/><path d="M438.1,288.3L444.0,282.4L445.6,281.8L450.9,278.5 " data-categoria="0" data-km-inicial="10.3" data-qtd-acidentes="10" data-rodovia="BR-401" stroke="#FEE5D9"/><path d="M321.2,623.5L353.7,615.6L366.0,612.3 " data-categoria="0" data-km-inicial="65.0" data-qtd-acidentes="0" data-rodovia="BR-431" stroke="#FEE5D9"/><path d="M366.0,612.3L387.8,606.4L426.4,596.4L430.0,594.5 " data-categoria="0" data-km-inicial="0.0" data-qtd-acidentes="0" data-rodovia="BR-431" stroke="#FEE5D9"/><path d="M435.4,317.7L435.3,316.2L435.3,315.6 " data-categoria="0" data-km-inicial="180.3" data-qtd-acidentes="6" data-rodovia="BR-432" stroke="#FEE5D9"/><path d="M438.2,290.6L438.2,290.1L438.2,288.7L438.1,288.3 " data-categoria="0" data-km-inicial="214.6" data-qtd-acidentes="6" data-rodovia="BR-432" stroke="#FEE5D9"/><path d="M435.3,315.6L435.7,313.7L435.6,313.1L435.6,312.9 " data-categoria="0" data-km-inicial="182.2" data-qtd-acidentes="3" data-rodovia="BR-432" stroke="#FEE5D9"/><path d="M435.6,312.9L435.7,312.3L435.1,311.4L439.4,309.1 " data-categoria="0" data-km-inicial="185.4" data-qtd-acidentes="3" data-rodovia="BR-432" stroke="#FEE5D9"/><path d="M439.4,309.1L438.1,296.8L438.2,290.6 " data-categoria="0" data-km-inicial="193.3" data-qtd-acidentes="33" data-rodovia="BR-432" stroke="#FEE5D9"/><path d="M432.4,327.6L434.6,325.7L435.4,317.7 " data-categoria="0" data-km-inicial="168.0" data-qtd-acidentes="6" data-rodovia="BR-432" stroke="#FEE5D9"/><path d="M434.5,363.8L435.4,362.5L437.6,358.8 " data-categoria="0" data-km-inicial="112.5" data-qtd-acidentes="0" data-rodovia="BR-432" stroke="#FEE5D9"/><path d="M432.4,327.6L432.1,327.8 " data-categoria="0" data-km-inicial="167.6" data-qtd-acidentes="0" data-rodovia="BR-432" stroke="#FEE5D9"/><path d="M437.6,358.8L427.8,353.0L431.7,346.6 " data-categoria="0" data-km-inicial="119.2" data-qtd-acidentes="0" data-rodovia="BR-432" stroke="#FEE5D9"/><path d="M431.7,346.6L433.8,343.0L435.4,335.5L432.1,327.8 " data-categoria="0" data-km-inicial="140.8" data-qtd-acidentes="4" data-rodovia="BR-432" stroke="#FEE5D9"/><path d="M460.9,448.3L465.8,434.9L465.9,432.8L466.3,422.6 " data-categoria="0" data-km-inicial="0.0" data-qtd-acidentes="1" data-rodovia="BR-432" stroke="#FEE5D9"/><path d="M465.0,412.5L460.3,402.6L457.5,400.4L450.9,397.3 " data-categoria="0" data-km-inicial="42.0" data-qtd-acidentes="0" data-rodovia="BR-432" stroke="#FEE5D9"/><path d="M450.9,397.3L446.8,393.6L431.9,368.5L434.5,363.8 " data-categoria="0" data-km-inicial="67.2" data-qtd-acidentes="0" data-rodovia="BR-432" stroke="#FEE5D9"/><path d="M466.3,422.6L466.0,415.1L466.0,414.4L465.0,412.5 " data-categoria="0" data-km-inicial="30.4" data-qtd-acidentes="0" data-rodovia="BR-432" stroke="#FEE5D9"/><path d="M419.6,149.2L401.4,144.9L397.3,145.5 " data-categoria="0" data-km-inicial="166.8" data-qtd-acidentes="2" data-rodovia="BR-433" stroke="#FEE5D9"/><path d="M454.9,172.9L453.5,170.7L455.5,166.7L446.4,150.8 " data-categoria="0" data-km-inicial="111.4" data-qtd-acidentes="0" data-rodovia="BR-433" stroke="#FEE5D9"/><path d="M473.9,181.3L470.7,178.3L468.2,177.6L454.9,172.9 " data-categoria="0" data-km-inicial="87.0" data-qtd-acidentes="0" data-rodovia="BR-433" stroke="#FEE5D9"/><path d="M446.4,150.8L422.1,148.9L420.3,149.1 " data-categoria="0" data-km-inicial="135.0" data-qtd-acidentes="2" data-rodovia="BR-433" stroke="#FEE5D9"/><path d="M525.7,188.6L512.7,180.7L503.6,185.0L473.9,181.3 " data-categoria="0" data-km-inicial="0.0" data-qtd-acidentes="1" data-rodovia="BR-433" stroke="#FEE5D9"/><path d="M420.3,149.1L419.8,149.2L419.6,149.2 " data-categoria="0" data-km-inicial="166.1" data-qtd-acidentes="2" data-rodovia="BR-433" stroke="#FEE5D9"/></g><g class="estado" id="estado" stroke-width="1px"><path d="M620.1,536.8L610.6,427.5L606.4,426.4L576.0,415.8L531.6,369.5L530.6,334.8L513.7,315.2L505.2,275.1L506.5,264.7L522.1,218.4L520.8,198.9L532.5,193.5L545.1,180.4L554.0,163.9L532.7,136.7L527.4,114.5L517.9,109.9L491.8,105.0L485.8,99.3L497.9,80.7L500.4,56.1L498.7,45.4L485.7,31.7L479.3,29.7L443.3,32.6L422.9,29.5L436.2,50.8L429.3,71.0L400.6,99.9L377.8,104.3L368.5,102.2L355.9,111.3L346.5,114.0L342.1,127.6L329.7,128.6L283.1,145.3L252.1,146.4L215.8,170.1L219.4,187.8L190.6,189.5L170.4,167.9L101.4,154.5L74.3,133.9L44.4,133.9L29.9,138.6L32.3,148.2L56.0,163.4L68.4,163.9L81.8,184.9L86.2,199.4L84.3,211.4L66.0,243.2L71.5,282.9L69.7,309.9L77.9,317.0L114.6,326.8L138.5,319.8L154.9,320.0L157.4,342.1L149.5,350.0L153.5,360.6L179.6,362.9L185.1,372.7L196.6,413.8L217.9,445.8L238.1,482.4L235.3,516.4L244.7,596.2L254.7,641.2L236.9,650.8L239.7,655.7L267.6,680.8L286.3,694.0L299.5,710.0L325.2,720.6L329.4,719.6L327.0,705.6L330.8,693.5L332.5,661.2L335.9,652.0L372.8,625.4L378.3,624.1L393.3,630.4L416.6,658.0L422.8,660.1L439.4,657.5L456.0,640.5L457.2,618.9L479.6,599.8L492.9,563.7L515.5,545.7L620.1,536.8Z " data-uf="RR"/></g><g class="vizinho" fill="#E6E6E6" id="vizinhos" stroke-width="1px"><path d="M620.1,536.8L515.5,545.7L492.9,563.7L479.6,599.8L457.2,618.9L456.0,640.5L439.4,657.5L422.8,660.1L416.6,658.0L393.3,630.4L378.3,624.1L372.8,625.4L335.9,652.0L332.5,661.2L330.8,693.5L327.0,705.6L329.4,719.6L325.2,720.6L299.5,710.0L286.3,694.0L267.6,680.8L239.7,655.7L236.9,650.8L254.7,641.2L244.7,596.2L235.3,516.4L238.1,482.4L217.9,445.8L196.6,413.8L185.1,372.7L179.6,362.9L153.5,360.6L149.5,350.0L139.6,351.5L129.2,353.1L116.9,363.8L90.2,363.1L85.5,395.6L64.7,416.2L56.2,411.2L34.9,431.0L10.5,436.3L0.0,445.1L0.0,750.1L650.0,750.1L650.0,645.2L645.6,641.0L635.0,633.3L631.7,627.4L620.1,536.8Z " data-uf="AM"/><path d="M610.6,427.5L620.1,536.8L631.7,627.4L635.0,633.3L645.6,641.0L650.0,645.2L650.0,441.3L648.7,442.4L621.4,449.7L615.6,448.9L610.6,427.5Z " data-uf="PA"/></g></svg>