<?xml version="1.0" encoding="utf-8"?><!DOCTYPE svg  PUBLIC '-//W3C//DTD SVG 1.1//EN'  'http://www.w3.org/Graphics/SVG/1.1/DTD/svg11.dtd'><svg enable_background="new 0 0 650 485" height="485px" pretty_print="False" style="stroke-linejoin: round; stroke:#000; fill: none;" version="1.1" viewBox="0 0 650 485" width="650px" xmlns="http://www.w3.org/2000/svg" xmlns:xlink="http://www.w3.org/1999/xlink"><defs><style type="text/css"><![CDATA[path { fill-rule: evenodd; }]]></style></defs><metadata><views><view h="485.207502154" padding="0.05" w="650"><proj id="laea" lat0="-27.3089141606" lon0="-48.6330139818"/><bbox h="46.63" w="62.6" x="940.91" y="980.76"/></view></views></metadata><g class="" id="rodovias" stroke-width="5px"><path d="M613.2,190.2L613.5,200.8L613.2,208.2 " data-categoria="4" data-km-inicial="163.6" data-qtd-acidentes="948" data-rodovia="BR-101" stroke="#DE2D26"/><path d="M613.4,211.4L613.8,215.3L610.5,222.3 " data-categoria="5" data-km-inicial="182.4" data-qtd-acidentes="1049" data-rodovia="BR-101" stroke="#A50F15"/><path d="M615.1,232.2L615.1,233.7L614.8,234.8 " data-categoria="5" data-km-inicial="203.1" data-qtd-acidentes="2214" data-rodovia="BR-101" stroke="#A50F15"/><path d="M610.5,222.3L612.3,226.0L615.1,232.2 " data-categoria="5" data-km-inicial="193.0" data-qtd-acidentes="3486" data-rodovia="BR-101" stroke="#A50F15"/><path d="M602.8,145.7L603.4,147.4L604.2,149.4 " data-categoria="4" data-km-inicial="117.3" data-qtd-acidentes="946" data-rodovia="BR-101" stroke="#DE2D26"/><path d="M607.6,134.1L607.7,134.4L607.7,134.5L607.6,135.0 " data-categoria="4" data-km-inicial="104.6" data-qtd-acidentes="691" data-rodovia="BR-101" stroke="#DE2D26"/><path d="M611.8,238.3L610.5,239.8L609.6,240.8L607.8,243.7 " data-categoria="5" data-km-inicial="209.6" data-qtd-acidentes="3283" data-rodovia="BR-101" stroke="#A50F15"/><path d="M580.7,57.9L580.4,61.6L580.6,62.2L581.7,64.8 " data-categoria="4" data-km-inicial="27.2" data-qtd-acidentes="803" data-rodovia="BR-101" stroke="#DE2D26"/><path d="M615.4,180.6L614.8,171.4L616.4,170.3L611.4,159.7 " data-categoria="5" data-km-inicial="133.0" data-qtd-acidentes="3878" data-rodovia="BR-101" stroke="#A50F15"/><path d="M607.6,135.0L607.1,136.8L606.0,138.3L603.4,139.6 " data-categoria="4" data-km-inicial="105.4" data-qtd-acidentes="691" data-rodovia="BR-101" stroke="#DE2D26"/><path d="M603.3,111.3L606.3,114.0L606.5,114.2L606.7,115.2 " data-categoria="3" data-km-inicial="82.8" data-qtd-acidentes="383" data-rodovia="BR-101" stroke="#FB6A4A"/><path d="M615.4,180.6L613.9,187.6L613.2,190.2 " data-categoria="4" data-km-inicial="155.0" data-qtd-acidentes="848" data-rodovia="BR-101" stroke="#DE2D26"/><path d="M603.7,102.2L603.0,104.0L603.3,111.3 " data-categoria="5" data-km-inicial="74.3" data-qtd-acidentes="1480" data-rodovia="BR-101" stroke="#A50F15"/><path d="M593.1,87.9L598.5,90.6L601.2,93.6L603.7,102.2 " data-categoria="5" data-km-inicial="57.4" data-qtd-acidentes="1480" data-rodovia="BR-101" stroke="#A50F15"/><path d="M584.1,69.8L586.6,74.1L587.0,78.6L593.1,87.9 " data-categoria="5" data-km-inicial="38.4" data-qtd-acidentes="2411" data-rodovia="BR-101" stroke="#A50F15"/><path d="M586.7,35.6L586.6,43.0L581.3,51.5L580.7,57.9 " data-categoria="5" data-km-inicial="6.2" data-qtd-acidentes="1333" data-rodovia="BR-101" stroke="#A50F15"/><path d="M606.7,115.2L605.0,122.7L605.1,125.3L607.6,134.1 " data-categoria="5" data-km-inicial="87.5" data-qtd-acidentes="1274" data-rodovia="BR-101" stroke="#A50F15"/><path d="M586.7,35.6L586.5,33.6L584.8,31.8L583.7,29.5 " data-categoria="4" data-km-inicial="0.0" data-qtd-acidentes="699" data-rodovia="BR-101" stroke="#DE2D26"/><path d="M613.2,208.2L613.0,209.5L613.0,209.7L613.4,211.4 " data-categoria="2" data-km-inicial="179.6" data-qtd-acidentes="193" data-rodovia="BR-101" stroke="#FC9272"/><path d="M603.4,139.6L601.8,143.0L601.9,143.2L602.8,145.7 " data-categoria="5" data-km-inicial="111.3" data-qtd-acidentes="1710" data-rodovia="BR-101" stroke="#A50F15"/><path d="M605.5,151.8L607.6,154.2L607.3,156.8L611.4,159.7 " data-categoria="5" data-km-inicial="123.1" data-qtd-acidentes="1843" data-rodovia="BR-101" stroke="#A50F15"/><path d="M604.2,149.4L604.7,150.8L604.8,151.0L605.5,151.8 " data-categoria="4" data-km-inicial="120.7" data-qtd-acidentes="652" data-rodovia="BR-101" stroke="#DE2D26"/><path d="M614.8,234.8L614.3,236.3L614.1,236.5L611.8,238.3 " data-categoria="5" data-km-inicial="205.4" data-qtd-acidentes="4039" data-rodovia="BR-101" stroke="#A50F15"/><path d="M581.7,64.8L582.8,66.2L584.0,69.0L584.1,69.8 " data-categoria="4" data-km-inicial="33.4" data-qtd-acidentes="803" data-rodovia="BR-101" stroke="#DE2D26"/><path d="M487.1,453.5L487.0,453.6L486.9,453.6L486.8,453.7 " data-categoria="4" data-km-inicial="463.4" data-qtd-acidentes="780" data-rodovia="BR-101" stroke="#DE2D26"/><path d="M566.8,351.1L565.6,359.5L565.8,361.4 " data-categoria="5" data-km-inicial="338.7" data-qtd-acidentes="1247" data-rodovia="BR-101" stroke="#A50F15"/><path d="M595.1,339.8L592.9,343.8L590.7,343.7L588.5,342.6 " data-categoria="4" data-km-inicial="308.0" data-qtd-acidentes="585" data-rodovia="BR-101" stroke="#DE2D26"/><path d="M487.2,445.2L487.6,449.3L487.8,450.4L487.1,453.5 " data-categoria="4" data-km-inicial="455.9" data-qtd-acidentes="780" data-rodovia="BR-101" stroke="#DE2D26"/><path d="M533.1,389.0L528.0,392.1L521.6,398.7 " data-categoria="5" data-km-inicial="387.5" data-qtd-acidentes="1141" data-rodovia="BR-101" stroke="#A50F15"/><path d="M565.8,361.4L565.9,362.0L566.6,363.2L565.9,364.6 " data-categoria="5" data-km-inicial="347.9" data-qtd-acidentes="1247" data-rodovia="BR-101" stroke="#A50F15"/><path d="M559.0,372.8L555.6,374.9L551.9,377.0L550.4,377.2 " data-categoria="5" data-km-inicial="360.5" data-qtd-acidentes="1253" data-rodovia="BR-101" stroke="#A50F15"/><path d="M606.1,304.3L606.3,306.9L605.7,312.3L605.4,315.0 " data-categoria="5" data-km-inicial="274.0" data-qtd-acidentes="1302" data-rodovia="BR-101" stroke="#A50F15"/><path d="M581.1,342.6L579.2,342.1L576.7,343.0L574.8,345.4 " data-categoria="5" data-km-inicial="323.1" data-qtd-acidentes="1483" data-rodovia="BR-101" stroke="#A50F15"/><path d="M504.7,419.4L502.4,422.8L501.8,425.3L500.6,430.2 " data-categoria="4" data-km-inicial="426.1" data-qtd-acidentes="805" data-rodovia="BR-101" stroke="#DE2D26"/><path d="M560.1,370.7L559.3,372.2L559.0,372.8 " data-categoria="5" data-km-inicial="358.5" data-qtd-acidentes="1253" data-rodovia="BR-101" stroke="#A50F15"/><path d="M567.3,350.1L567.3,350.4L567.3,350.6L566.8,351.1 " data-categoria="1" data-km-inicial="337.8" data-qtd-acidentes="96" data-rodovia="BR-101" stroke="#FCBBA1"/><path d="M560.5,370.0L560.3,370.4L560.2,370.5L560.1,370.7 " data-categoria="5" data-km-inicial="357.8" data-qtd-acidentes="1247" data-rodovia="BR-101" stroke="#A50F15"/><path d="M608.1,244.7L608.3,245.3L609.8,249.3 " data-categoria="5" data-km-inicial="216.5" data-qtd-acidentes="1160" data-rodovia="BR-101" stroke="#A50F15"/><path d="M607.8,243.7L607.8,244.0L608.1,244.7 " data-categoria="3" data-km-inicial="215.5" data-qtd-acidentes="386" data-rodovia="BR-101" stroke="#FB6A4A"/><path d="M521.6,398.7L516.3,407.9L516.2,408.2 " data-categoria="5" data-km-inicial="400.8" data-qtd-acidentes="1141" data-rodovia="BR-101" stroke="#A50F15"/><path d="M613.2,265.3L612.4,268.3L612.0,268.8L611.3,272.3 " data-categoria="4" data-km-inicial="235.3" data-qtd-acidentes="757" data-rodovia="BR-101" stroke="#DE2D26"/><path d="M588.5,342.6L584.2,342.2L583.4,342.0 " data-categoria="5" data-km-inicial="316.2" data-qtd-acidentes="1483" data-rodovia="BR-101" stroke="#A50F15"/><path d="M605.2,302.0L605.5,302.9L605.6,303.1L606.1,304.3 " data-categoria="1" data-km-inicial="271.7" data-qtd-acidentes="78" data-rodovia="BR-101" stroke="#FCBBA1"/><path d="M611.1,276.0L607.6,286.5L606.8,287.3L605.2,302.0 " data-categoria="5" data-km-inicial="245.0" data-qtd-acidentes="1070" data-rodovia="BR-101" stroke="#A50F15"/><path d="M600.7,332.8L598.2,335.9L598.2,335.9L595.1,339.8 " data-categoria="3" data-km-inicial="300.0" data-qtd-acidentes="281" data-rodovia="BR-101" stroke="#FB6A4A"/><path d="M565.9,364.6L561.8,368.4L560.9,369.3L560.5,370.0 " data-categoria="5" data-km-inicial="351.0" data-qtd-acidentes="1247" data-rodovia="BR-101" stroke="#A50F15"/><path d="M516.2,408.2L509.3,416.3L508.6,416.8L504.7,419.4 " data-categoria="5" data-km-inicial="412.0" data-qtd-acidentes="1344" data-rodovia="BR-101" stroke="#A50F15"/><path d="M605.4,315.0L604.6,324.7L600.7,332.8 " data-categoria="5" data-km-inicial="283.4" data-qtd-acidentes="1302" data-rodovia="BR-101" stroke="#A50F15"/><path d="M500.6,430.2L500.6,430.3L500.5,430.3L500.1,431.5 " data-categoria="4" data-km-inicial="436.3" data-qtd-acidentes="805" data-rodovia="BR-101" stroke="#DE2D26"/><path d="M550.4,377.2L546.2,379.4L545.5,379.8L540.9,384.2 " data-categoria="5" data-km-inicial="369.1" data-qtd-acidentes="1253" data-rodovia="BR-101" stroke="#A50F15"/><path d="M609.8,249.3L611.6,252.1L612.5,255.1L612.3,261.3 " data-categoria="5" data-km-inicial="220.9" data-qtd-acidentes="1323" data-rodovia="BR-101" stroke="#A50F15"/><path d="M583.4,342.0L582.8,342.0L582.3,342.2L581.1,342.6 " data-categoria="5" data-km-inicial="321.1" data-qtd-acidentes="1483" data-rodovia="BR-101" stroke="#A50F15"/><path d="M611.3,272.3L611.1,275.3L611.1,275.3L611.1,276.0 " data-categoria="4" data-km-inicial="241.7" data-qtd-acidentes="757" data-rodovia="BR-101" stroke="#DE2D26"/><path d="M574.8,345.4L573.5,346.2L571.4,347.6L569.9,347.8 " data-categoria="5" data-km-inicial="329.9" data-qtd-acidentes="1322" data-rodovia="BR-101" stroke="#A50F15"/><path d="M569.9,347.8L568.0,348.9L567.7,349.5 " data-categoria="5" data-km-inicial="334.8" data-qtd-acidentes="1322" data-rodovia="BR-101" stroke="#A50F15"/><path d="M500.1,431.5L488.0,441.7L487.2,445.2 " data-categoria="4" data-km-inicial="437.0" data-qtd-acidentes="780" data-rodovia="BR-101" stroke="#DE2D26"/><path d="M540.9,384.2L539.1,385.5L536.0,387.2L533.1,389.0 " data-categoria="5" data-km-inicial="379.6" data-qtd-acidentes="1253" data-rodovia="BR-101" stroke="#A50F15"/><path d="M567.7,349.5L567.5,349.9L567.3,350.1 " data-categoria="5" data-km-inicial="337.3" data-qtd-acidentes="1322" data-rodovia="BR-101" stroke="#A50F15"/><path d="M612.3,261.3L612.4,262.2L613.2,265.3 " data-categoria="3" data-km-inicial="232.0" data-qtd-acidentes="304" data-rodovia="BR-101" stroke="#FB6A4A"/><path d="M602.8,145.7L605.2,145.4L605.9,144.9L609.1,147.2 " data-categoria="0" data-km-inicial="0.0" data-qtd-acidentes="0" data-rodovia="BR-101" stroke="#FEE5D9"/><path d="M559.0,372.8L564.3,373.1 " data-categoria="0" data-km-inicial="0.0" data-qtd-acidentes="0" data-rodovia="BR-101" stroke="#FEE5D9"/><path d="M417.2,263.5L407.9,277.8L403.8,283.7 " data-categoria="3" data-km-inicial="245.5" data-qtd-acidentes="479" data-rodovia="BR-116" stroke="#FB6A4A"/><path d="M416.9,236.7L417.6,237.8L418.3,239.3L419.5,241.8 " data-categoria="3" data-km-inicial="220.4" data-qtd-acidentes="490" data-rodovia="BR-116" stroke="#FB6A4A"/><path d="M409.7,156.2L410.3,156.7L410.8,157.4L412.3,159.4 " data-categoria="2" data-km-inicial="139.1" data-qtd-acidentes="103" data-rodovia="BR-116" stroke="#FC9272"/><path d="M403.8,283.7L377.6,315.0L373.3,316.6 " data-categoria="3" data-km-inicial="267.6" data-qtd-acidentes="383" data-rodovia="BR-116" stroke="#FB6A4A"/><path d="M415.0,223.2L415.3,229.9L415.2,231.2L416.2,235.3 " data-categoria="3" data-km-inicial="207.3" data-qtd-acidentes="343" data-rodovia="BR-116" stroke="#FB6A4A"/><path d="M465.4,67.2L455.7,75.7L446.2,76.0L437.7,83.5 " data-categoria="3" data-km-inicial="23.6" data-qtd-acidentes="295" data-rodovia="BR-116" stroke="#FB6A4A"/><path d="M406.4,150.2L406.6,151.6L407.4,152.0L409.7,156.2 " data-categoria="2" data-km-inicial="132.7" data-qtd-acidentes="121" data-rodovia="BR-116" stroke="#FC9272"/><path d="M409.2,199.8L408.3,206.5L409.1,211.1L415.0,223.2 " data-categoria="3" data-km-inicial="184.3" data-qtd-acidentes="463" data-rodovia="BR-116" stroke="#FB6A4A"/><path d="M417.0,132.1L416.7,138.3L413.2,139.4L406.4,150.2 " data-categoria="3" data-km-inicial="111.5" data-qtd-acidentes="231" data-rodovia="BR-116" stroke="#FB6A4A"/><path d="M431.7,81.9L430.1,92.7L430.9,103.0L417.0,132.1 " data-categoria="4" data-km-inicial="59.8" data-qtd-acidentes="588" data-rodovia="BR-116" stroke="#DE2D26"/><path d="M416.2,235.3L416.2,235.4L416.5,235.9L416.9,236.7 " data-categoria="3" data-km-inicial="219.0" data-qtd-acidentes="343" data-rodovia="BR-116" stroke="#FB6A4A"/><path d="M477.5,50.4L477.3,50.6L470.8,55.6 " data-categoria="3" data-km-inicial="4.7" data-qtd-acidentes="397" data-rodovia="BR-116" stroke="#FB6A4A"/><path d="M480.6,46.7L479.2,49.0L477.5,50.4 " data-categoria="3" data-km-inicial="0.0" data-qtd-acidentes="327" data-rodovia="BR-116" stroke="#FB6A4A"/><path d="M417.2,263.5L420.2,248.8L419.5,241.8 " data-categoria="3" data-km-inicial="225.4" data-qtd-acidentes="490" data-rodovia="BR-116" stroke="#FB6A4A"/><path d="M470.8,55.6L469.6,59.1L469.3,59.5L465.4,67.2 " data-categoria="2" data-km-inicial="12.4" data-qtd-acidentes="158" data-rodovia="BR-116" stroke="#FC9272"/><path d="M412.3,159.4L404.4,190.2L407.4,195.5 " data-categoria="4" data-km-inicial="142.9" data-qtd-acidentes="543" data-rodovia="BR-116" stroke="#DE2D26"/><path d="M407.4,195.5L408.0,196.7L408.1,197.2L409.2,199.8 " data-categoria="2" data-km-inicial="179.8" data-qtd-acidentes="107" data-rodovia="BR-116" stroke="#FC9272"/><path d="M437.7,83.5L435.1,82.5L434.2,81.4L431.7,81.9 " data-categoria="1" data-km-inicial="53.8" data-qtd-acidentes="91" data-rodovia="BR-116" stroke="#FCBBA1"/><path d="M419.5,241.8L419.4,241.8L418.9,242.0L418.1,242.3 " data-categoria="0" data-km-inicial="0.0" data-qtd-acidentes="0" data-rodovia="BR-116" stroke="#FEE5D9"/><path d="M245.8,160.6L249.0,157.8L254.3,152.5 " data-categoria="3" data-km-inicial="48.5" data-qtd-acidentes="252" data-rodovia="BR-153" stroke="#FB6A4A"/><path d="M232.0,205.3L232.2,205.7L232.5,205.9L232.8,206.8 " data-categoria="0" data-km-inicial="110.3" data-qtd-acidentes="33" data-rodovia="BR-153" stroke="#FEE5D9"/><path d="M287.2,113.6L283.3,118.5L282.5,118.8L277.9,123.4 " data-categoria="1" data-km-inicial="0.0" data-qtd-acidentes="93" data-rodovia="BR-153" stroke="#FCBBA1"/><path d="M277.9,123.4L277.7,124.4L277.0,125.2 " data-categoria="0" data-km-inicial="12.3" data-qtd-acidentes="26" data-rodovia="BR-153" stroke="#FEE5D9"/><path d="M239.3,187.9L237.5,189.0L237.2,189.8L235.8,193.5 " data-categoria="2" data-km-inicial="90.5" data-qtd-acidentes="137" data-rodovia="BR-153" stroke="#FC9272"/><path d="M242.5,167.5L238.2,180.1L239.7,182.8L239.3,187.9 " data-categoria="3" data-km-inicial="66.5" data-qtd-acidentes="416" data-rodovia="BR-153" stroke="#FB6A4A"/><path d="M232.8,206.8L233.3,208.0L232.2,208.7L232.2,213.1 " data-categoria="1" data-km-inicial="112.0" data-qtd-acidentes="55" data-rodovia="BR-153" stroke="#FCBBA1"/><path d="M245.8,160.6L243.9,164.9L243.4,166.1L242.5,167.5 " data-categoria="3" data-km-inicial="59.5" data-qtd-acidentes="416" data-rodovia="BR-153" stroke="#FB6A4A"/><path d="M235.8,193.5L233.8,200.6L233.9,202.3L232.0,205.3 " data-categoria="2" data-km-inicial="97.5" data-qtd-acidentes="134" data-rodovia="BR-153" stroke="#FC9272"/><path d="M277.0,125.2L269.4,129.4L254.3,152.5 " data-categoria="3" data-km-inicial="14.2" data-qtd-acidentes="270" data-rodovia="BR-153" stroke="#FB6A4A"/><path d="M89.7,178.4L89.7,179.3L89.8,179.4L90.3,179.6 " data-categoria="0" data-km-inicial="134.3" data-qtd-acidentes="41" data-rodovia="BR-158" stroke="#FEE5D9"/><path d="M90.8,190.9L90.3,191.5L90.1,191.8L89.9,191.9 " data-categoria="1" data-km-inicial="147.0" data-qtd-acidentes="89" data-rodovia="BR-158" stroke="#FCBBA1"/><path d="M90.3,179.6L92.0,186.6L90.8,190.9 " data-categoria="1" data-km-inicial="135.8" data-qtd-acidentes="89" data-rodovia="BR-158" stroke="#FCBBA1"/><path d="M92.1,141.5L92.4,142.3L92.5,142.9L94.0,144.4 " data-categoria="0" data-km-inicial="95.7" data-qtd-acidentes="0" data-rodovia="BR-158" stroke="#FEE5D9"/><path d="M94.0,144.4L96.2,151.4L94.8,154.9 " data-categoria="2" data-km-inicial="98.9" data-qtd-acidentes="114" data-rodovia="BR-158" stroke="#FC9272"/><path d="M94.8,154.9L90.4,167.0L89.5,174.2L89.7,178.4 " data-categoria="2" data-km-inicial="109.4" data-qtd-acidentes="136" data-rodovia="BR-158" stroke="#FC9272"/><path d="M98.0,128.3L102.5,91.5 " data-categoria="0" data-km-inicial="30.0" data-qtd-acidentes="0" data-rodovia="BR-158" stroke="#FEE5D9"/><path d="M102.5,91.5L103.7,90.6 " data-categoria="0" data-km-inicial="28.4" data-qtd-acidentes="0" data-rodovia="BR-158" stroke="#FEE5D9"/><path d="M94.6,138.9L96.8,137.9L98.0,128.3L98.0,128.3 " data-categoria="0" data-km-inicial="77.2" data-qtd-acidentes="0" data-rodovia="BR-158" stroke="#FEE5D9"/><path d="M103.7,90.6L126.3,86.8L129.5,84.4L129.6,84.4 " data-categoria="0" data-km-inicial="0.0" data-qtd-acidentes="0" data-rodovia="BR-158" stroke="#FEE5D9"/><path d="M39.9,77.8L40.3,77.7L41.3,76.6L41.4,76.2 " data-categoria="0" data-km-inicial="0.0" data-qtd-acidentes="0" data-rodovia="BR-163" stroke="#FEE5D9"/><path d="M34.7,194.9L34.6,194.6L35.7,193.4 " data-categoria="0" data-km-inicial="0.0" data-qtd-acidentes="0" data-rodovia="BR-163" stroke="#FEE5D9"/><path d="M54.9,119.4L55.1,116.3L55.4,115.1 " data-categoria="1" data-km-inicial="85.3" data-qtd-acidentes="91" data-rodovia="BR-163" stroke="#FCBBA1"/><path d="M55.6,133.2L55.4,129.8L54.7,128.1L54.9,126.9 " data-categoria="3" data-km-inicial="73.3" data-qtd-acidentes="285" data-rodovia="BR-163" stroke="#FB6A4A"/><path d="M57.4,140.1L56.2,136.4L55.5,134.7 " data-categoria="3" data-km-inicial="66.8" data-qtd-acidentes="285" data-rodovia="BR-163" stroke="#FB6A4A"/><path d="M55.5,134.7L55.3,134.2L55.4,133.9L55.6,133.2 " data-categoria="3" data-km-inicial="71.9" data-qtd-acidentes="285" data-rodovia="BR-163" stroke="#FB6A4A"/><path d="M54.9,126.9L55.0,122.9L54.5,121.5L54.9,119.4 " data-categoria="3" data-km-inicial="78.8" data-qtd-acidentes="285" data-rodovia="BR-163" stroke="#FB6A4A"/><path d="M55.4,115.1L54.7,108.0L56.0,105.9L54.8,100.9 " data-categoria="3" data-km-inicial="90.1" data-qtd-acidentes="209" data-rodovia="BR-163" stroke="#FB6A4A"/><path d="M38.8,76.5L39.0,77.1L39.9,77.8 " data-categoria="0" data-km-inicial="2.0" data-qtd-acidentes="0" data-rodovia="BR-163" stroke="#FEE5D9"/><path d="M54.8,100.9L52.8,96.3L53.2,95.4L53.2,92.0 " data-categoria="1" data-km-inicial="103.9" data-qtd-acidentes="86" data-rodovia="BR-163" stroke="#FCBBA1"/><path d="M53.2,92.0L50.4,88.0L49.8,82.2L48.8,79.7 " data-categoria="1" data-km-inicial="112.8" data-qtd-acidentes="97" data-rodovia="BR-163" stroke="#FCBBA1"/><path d="M541.9,86.0L533.7,81.1L533.5,79.6L526.4,71.7 " data-categoria="3" data-km-inicial="84.2" data-qtd-acidentes="383" data-rodovia="BR-280" stroke="#FB6A4A"/><path d="M470.8,55.6L432.3,56.5L424.9,55.2 " data-categoria="3" data-km-inicial="178.2" data-qtd-acidentes="305" data-rodovia="BR-280" stroke="#FB6A4A"/><path d="M606.6,79.3L605.5,79.3L604.2,79.4L603.9,79.4 " data-categoria="3" data-km-inicial="20.6" data-qtd-acidentes="223" data-rodovia="BR-280" stroke="#FB6A4A"/><path d="M424.9,55.2L420.0,56.1L418.5,56.5L413.0,57.6 " data-categoria="1" data-km-inicial="220.7" data-qtd-acidentes="61" data-rodovia="BR-280" stroke="#FCBBA1"/><path d="M561.6,93.5L545.2,88.4L542.1,87.3L541.9,86.0 " data-categoria="5" data-km-inicial="64.2" data-qtd-acidentes="1001" data-rodovia="BR-280" stroke="#A50F15"/><path d="M511.0,63.7L508.2,65.4L507.4,66.5 " data-categoria="3" data-km-inicial="128.9" data-qtd-acidentes="224" data-rodovia="BR-280" stroke="#FB6A4A"/><path d="M575.5,91.7L579.7,90.0L593.1,87.9 " data-categoria="4" data-km-inicial="35.4" data-qtd-acidentes="663" data-rodovia="BR-280" stroke="#DE2D26"/><path d="M507.4,66.5L480.7,58.7L477.5,50.4 " data-categoria="4" data-km-inicial="132.9" data-qtd-acidentes="651" data-rodovia="BR-280" stroke="#DE2D26"/><path d="M566.9,93.2L563.7,93.3L563.5,93.3L561.6,93.5 " data-categoria="2" data-km-inicial="60.1" data-qtd-acidentes="154" data-rodovia="BR-280" stroke="#FC9272"/><path d="M603.9,79.4L598.8,84.7L596.2,85.4 " data-categoria="4" data-km-inicial="23.0" data-qtd-acidentes="599" data-rodovia="BR-280" stroke="#DE2D26"/><path d="M614.6,64.1L609.2,78.7L606.6,79.3 " data-categoria="4" data-km-inicial="3.8" data-qtd-acidentes="745" data-rodovia="BR-280" stroke="#DE2D26"/><path d="M596.2,85.4L595.4,86.3L593.9,87.1L593.1,87.9 " data-categoria="2" data-km-inicial="31.7" data-qtd-acidentes="163" data-rodovia="BR-280" stroke="#FC9272"/><path d="M612.7,62.8L613.5,62.0L614.1,61.9L614.6,64.1 " data-categoria="2" data-km-inicial="0.0" data-qtd-acidentes="145" data-rodovia="BR-280" stroke="#FC9272"/><path d="M570.8,93.2L569.5,93.1L568.7,92.7L566.9,93.2 " data-categoria="4" data-km-inicial="55.8" data-qtd-acidentes="571" data-rodovia="BR-280" stroke="#DE2D26"/><path d="M526.4,71.7L522.0,66.1L517.7,63.6 " data-categoria="3" data-km-inicial="111.5" data-qtd-acidentes="243" data-rodovia="BR-280" stroke="#FB6A4A"/><path d="M570.8,93.2L573.1,92.7L575.5,91.7 " data-categoria="4" data-km-inicial="51.5" data-qtd-acidentes="983" data-rodovia="BR-280" stroke="#DE2D26"/><path d="M517.7,63.6L515.5,62.7L514.6,62.6L511.0,63.7 " data-categoria="4" data-km-inicial="122.5" data-qtd-acidentes="754" data-rodovia="BR-280" stroke="#DE2D26"/><path d="M179.5,151.7L174.7,155.5L173.0,155.9L168.1,160.6 " data-categoria="5" data-km-inicial="506.6" data-qtd-acidentes="1260" data-rodovia="BR-282" stroke="#A50F15"/><path d="M116.4,147.7L116.3,147.7L114.3,146.3 " data-categoria="2" data-km-inicial="580.0" data-qtd-acidentes="125" data-rodovia="BR-282" stroke="#FC9272"/><path d="M570.7,247.0L551.2,244.6L544.3,250.0L533.8,249.0 " data-categoria="5" data-km-inicial="58.3" data-qtd-acidentes="1010" data-rodovia="BR-282" stroke="#A50F15"/><path d="M593.4,249.9L591.3,249.9L584.6,251.7 " data-categoria="3" data-km-inicial="32.6" data-qtd-acidentes="233" data-rodovia="BR-282" stroke="#FB6A4A"/><path d="M429.4,261.2L428.4,261.5L425.5,263.0L423.2,263.1 " data-categoria="3" data-km-inicial="212.2" data-qtd-acidentes="337" data-rodovia="BR-282" stroke="#FB6A4A"/><path d="M584.6,251.7L578.9,252.2L574.1,247.9L570.7,247.0 " data-categoria="4" data-km-inicial="41.5" data-qtd-acidentes="605" data-rodovia="BR-282" stroke="#DE2D26"/><path d="M75.2,144.2L66.8,148.0L65.2,146.5L57.4,140.1 " data-categoria="3" data-km-inicial="624.4" data-qtd-acidentes="359" data-rodovia="BR-282" stroke="#FB6A4A"/><path d="M269.2,176.4L268.4,175.8L268.2,175.1L268.0,173.0 " data-categoria="2" data-km-inicial="405.2" data-qtd-acidentes="118" data-rodovia="BR-282" stroke="#FC9272"/><path d="M245.8,160.6L239.9,153.4L234.7,154.7L226.8,148.8 " data-categoria="4" data-km-inicial="436.4" data-qtd-acidentes="504" data-rodovia="BR-282" stroke="#DE2D26"/><path d="M619.8,236.3L617.6,236.9L616.9,236.7L614.8,234.8 " data-categoria="5" data-km-inicial="0.0" data-qtd-acidentes="3994" data-rodovia="BR-282" stroke="#A50F15"/><path d="M479.0,256.2L477.8,255.3L467.1,255.3L464.1,255.1 " data-categoria="3" data-km-inicial="166.9" data-qtd-acidentes="339" data-rodovia="BR-282" stroke="#FB6A4A"/><path d="M486.0,254.3L482.8,253.7L479.0,256.2 " data-categoria="0" data-km-inicial="160.0" data-qtd-acidentes="47" data-rodovia="BR-282" stroke="#FEE5D9"/><path d="M595.9,246.4L594.8,247.9L594.7,249.0L593.4,249.9 " data-categoria="2" data-km-inicial="28.5" data-qtd-acidentes="150" data-rodovia="BR-282" stroke="#FC9272"/><path d="M417.2,263.5L406.8,261.9L393.1,247.7 " data-categoria="3" data-km-inicial="223.1" data-qtd-acidentes="330" data-rodovia="BR-282" stroke="#FB6A4A"/><path d="M285.7,189.6L284.7,187.2L279.8,185.0L273.8,182.3 " data-categoria="3" data-km-inicial="383.4" data-qtd-acidentes="479" data-rodovia="BR-282" stroke="#FB6A4A"/><path d="M125.8,155.9L122.8,154.3L122.2,153.5L117.1,149.6 " data-categoria="4" data-km-inicial="568.3" data-qtd-acidentes="887" data-rodovia="BR-282" stroke="#DE2D26"/><path d="M605.0,246.7L597.3,245.9L595.9,246.4 " data-categoria="5" data-km-inicial="19.1" data-qtd-acidentes="1275" data-rodovia="BR-282" stroke="#A50F15"/><path d="M319.8,212.8L309.0,209.5L285.7,189.6 " data-categoria="4" data-km-inicial="341.2" data-qtd-acidentes="720" data-rodovia="BR-282" stroke="#DE2D26"/><path d="M268.0,173.0L256.3,161.0L253.2,162.2L245.8,160.6 " data-categoria="3" data-km-inicial="408.8" data-qtd-acidentes="497" data-rodovia="BR-282" stroke="#FB6A4A"/><path d="M322.4,213.1L321.8,213.0L320.8,212.4L319.8,212.8 " data-categoria="1" data-km-inicial="338.7" data-qtd-acidentes="90" data-rodovia="BR-282" stroke="#FCBBA1"/><path d="M226.8,148.8L226.5,148.3L226.1,147.7L225.2,146.6 " data-categoria="5" data-km-inicial="460.0" data-qtd-acidentes="1177" data-rodovia="BR-282" stroke="#A50F15"/><path d="M168.1,160.6L165.6,162.2L160.4,165.3L155.8,167.1 " data-categoria="5" data-km-inicial="521.3" data-qtd-acidentes="1260" data-rodovia="BR-282" stroke="#A50F15"/><path d="M435.4,259.8L433.7,260.2L432.2,260.5L429.4,261.2 " data-categoria="3" data-km-inicial="207.0" data-qtd-acidentes="324" data-rodovia="BR-282" stroke="#FB6A4A"/><path d="M516.2,263.0L514.9,262.4L507.0,265.4 " data-categoria="1" data-km-inicial="128.1" data-qtd-acidentes="99" data-rodovia="BR-282" stroke="#FCBBA1"/><path d="M527.4,255.9L519.9,263.3L518.4,262.6L516.2,263.0 " data-categoria="2" data-km-inicial="114.0" data-qtd-acidentes="130" data-rodovia="BR-282" stroke="#FC9272"/><path d="M322.4,213.1L333.9,210.6L336.6,210.4 " data-categoria="3" data-km-inicial="325.8" data-qtd-acidentes="255" data-rodovia="BR-282" stroke="#FB6A4A"/><path d="M207.9,150.1L200.4,147.3L183.2,151.4 " data-categoria="5" data-km-inicial="479.2" data-qtd-acidentes="1177" data-rodovia="BR-282" stroke="#A50F15"/><path d="M423.2,263.1L420.0,262.8L419.3,263.0L417.2,263.5 " data-categoria="4" data-km-inicial="217.7" data-qtd-acidentes="659" data-rodovia="BR-282" stroke="#DE2D26"/><path d="M114.3,146.3L102.9,146.4L98.5,147.1L94.0,144.4 " data-categoria="3" data-km-inicial="582.3" data-qtd-acidentes="382" data-rodovia="BR-282" stroke="#FB6A4A"/><path d="M138.8,159.6L130.5,157.1L125.8,155.9 " data-categoria="4" data-km-inicial="554.0" data-qtd-acidentes="887" data-rodovia="BR-282" stroke="#DE2D26"/><path d="M92.1,141.5L88.1,138.2L85.9,139.1L82.3,141.9 " data-categoria="3" data-km-inicial="605.5" data-qtd-acidentes="252" data-rodovia="BR-282" stroke="#FB6A4A"/><path d="M155.8,167.1L147.8,167.4L140.6,161.4L138.8,159.6 " data-categoria="4" data-km-inicial="535.3" data-qtd-acidentes="887" data-rodovia="BR-282" stroke="#DE2D26"/><path d="M269.2,176.4L271.4,177.9L272.3,180.9L273.8,182.3 " data-categoria="3" data-km-inicial="397.9" data-qtd-acidentes="479" data-rodovia="BR-282" stroke="#FB6A4A"/><path d="M82.3,141.9L78.4,144.5L77.9,144.0L75.2,144.2 " data-categoria="3" data-km-inicial="616.8" data-qtd-acidentes="252" data-rodovia="BR-282" stroke="#FB6A4A"/><path d="M464.1,255.1L454.7,255.0L441.7,258.2L435.4,259.8 " data-categoria="3" data-km-inicial="180.9" data-qtd-acidentes="367" data-rodovia="BR-282" stroke="#FB6A4A"/><path d="M183.2,151.4L182.0,151.7L181.6,151.7L179.5,151.7 " data-categoria="2" data-km-inicial="503.3" data-qtd-acidentes="119" data-rodovia="BR-282" stroke="#FC9272"/><path d="M57.4,140.1L55.3,138.2L55.3,138.1L55.0,136.1 " data-categoria="0" data-km-inicial="646.5" data-qtd-acidentes="1" data-rodovia="BR-282" stroke="#FEE5D9"/><path d="M607.8,243.7L607.7,243.6L605.9,246.0L605.0,246.7 " data-categoria="5" data-km-inicial="15.5" data-qtd-acidentes="1275" data-rodovia="BR-282" stroke="#A50F15"/><path d="M117.1,149.6L116.7,148.0L116.4,147.7 " data-categoria="2" data-km-inicial="578.2" data-qtd-acidentes="125" data-rodovia="BR-282" stroke="#FC9272"/><path d="M533.8,249.0L531.2,250.9L530.7,252.9L527.4,255.9 " data-categoria="2" data-km-inicial="103.8" data-qtd-acidentes="165" data-rodovia="BR-282" stroke="#FC9272"/><path d="M507.0,265.4L492.2,256.8L486.0,254.3 " data-categoria="2" data-km-inicial="137.3" data-qtd-acidentes="169" data-rodovia="BR-282" stroke="#FC9272"/><path d="M225.2,146.6L220.8,146.3L218.6,146.7L207.9,150.1 " data-categoria="5" data-km-inicial="462.4" data-qtd-acidentes="1177" data-rodovia="BR-282" stroke="#A50F15"/><path d="M54.2,132.9L45.7,128.8L45.4,127.7L38.3,122.4 " data-categoria="0" data-km-inicial="653.6" data-qtd-acidentes="18" data-rodovia="BR-282" stroke="#FEE5D9"/><path d="M393.1,247.7L390.8,244.9L390.9,244.1L387.3,241.8 " data-categoria="0" data-km-inicial="255.2" data-qtd-acidentes="46" data-rodovia="BR-282" stroke="#FEE5D9"/><path d="M36.9,122.0L33.8,122.0L31.2,122.1L30.2,122.1 " data-categoria="0" data-km-inicial="672.3" data-qtd-acidentes="0" data-rodovia="BR-282" stroke="#FEE5D9"/><path d="M346.8,224.9L344.7,219.7L341.1,217.7L336.6,210.4 " data-categoria="1" data-km-inicial="309.3" data-qtd-acidentes="83" data-rodovia="BR-282" stroke="#FCBBA1"/><path d="M54.6,134.9L54.5,134.5L54.2,133.7L54.2,132.9 " data-categoria="0" data-km-inicial="651.9" data-qtd-acidentes="18" data-rodovia="BR-282" stroke="#FEE5D9"/><path d="M384.2,241.5L362.7,233.6L360.5,230.9L346.8,224.9 " data-categoria="3" data-km-inicial="267.0" data-qtd-acidentes="204" data-rodovia="BR-282" stroke="#FB6A4A"/><path d="M55.0,136.1L55.0,135.7L54.8,135.5L54.6,134.9 " data-categoria="0" data-km-inicial="650.9" data-qtd-acidentes="18" data-rodovia="BR-282" stroke="#FEE5D9"/><path d="M387.3,241.8L386.2,241.3L385.7,241.2L384.2,241.5 " data-categoria="3" data-km-inicial="264.1" data-qtd-acidentes="204" data-rodovia="BR-282" stroke="#FB6A4A"/><path d="M38.3,122.4L37.8,122.2L37.4,122.1L36.9,122.0 " data-categoria="0" data-km-inicial="670.8" data-qtd-acidentes="0" data-rodovia="BR-282" stroke="#FEE5D9"/><path d="M316.2,220.2L314.9,221.9L314.4,222.3L313.4,222.7 " data-categoria="0" data-km-inicial="11.6" data-qtd-acidentes="0" data-rodovia="BR-283" stroke="#FEE5D9"/><path d="M313.4,222.7L309.6,223.9L306.0,226.6L300.8,230.9 " data-categoria="0" data-km-inicial="15.0" data-qtd-acidentes="0" data-rodovia="BR-283" stroke="#FEE5D9"/><path d="M300.8,230.9L300.7,231.0L300.7,231.0L300.7,231.0 " data-categoria="0" data-km-inicial="29.1" data-qtd-acidentes="0" data-rodovia="BR-283" stroke="#FEE5D9"/><path d="M322.4,213.1L317.0,217.1L316.2,220.2 " data-categoria="0" data-km-inicial="2.5" data-qtd-acidentes="0" data-rodovia="BR-283" stroke="#FEE5D9"/><path d="M235.8,193.5L275.4,208.2 " data-categoria="0" data-km-inicial="64.5" data-qtd-acidentes="0" data-rodovia="BR-283" stroke="#FEE5D9"/><path d="M71.1,182.9L66.8,178.5L61.1,178.1L54.9,171.9 " data-categoria="0" data-km-inicial="32.8" data-qtd-acidentes="0" data-rodovia="SC-386" stroke="#FEE5D9"/><path d="M539.2,136.9L534.4,137.8L530.9,135.7L529.4,131.3 " data-categoria="0" data-km-inicial="166.9" data-qtd-acidentes="0" data-rodovia="SC-477" stroke="#FEE5D9"/><path d="M437.7,83.5L440.4,85.0L440.9,85.2L443.5,87.9 " data-categoria="0" data-km-inicial="40.5" data-qtd-acidentes="0" data-rodovia="SC-477" stroke="#FEE5D9"/><path d="M515.6,123.8L515.3,123.8L514.9,124.0L514.2,124.4 " data-categoria="0" data-km-inicial="142.1" data-qtd-acidentes="0" data-rodovia="SC-477" stroke="#FEE5D9"/><path d="M443.5,87.9L458.9,92.2L459.9,91.2L468.5,90.4 " data-categoria="0" data-km-inicial="47.0" data-qtd-acidentes="0" data-rodovia="SC-477" stroke="#FEE5D9"/><path d="M413.0,57.6L417.2,63.7L416.7,69.6L431.7,81.9 " data-categoria="0" data-km-inicial="0.0" data-qtd-acidentes="0" data-rodovia="SC-477" stroke="#FEE5D9"/><path d="M468.5,90.4L472.2,94.4L472.2,96.3L473.6,101.4 " data-categoria="0" data-km-inicial="72.2" data-qtd-acidentes="0" data-rodovia="SC-477" stroke="#FEE5D9"/><path d="M491.2,121.0L502.3,128.8L504.1,128.3L514.2,124.4 " data-categoria="0" data-km-inicial="113.3" data-qtd-acidentes="0" data-rodovia="SC-477" stroke="#FEE5D9"/><path d="M529.4,131.3L518.2,129.1L515.6,123.8 " data-categoria="0" data-km-inicial="143.8" data-qtd-acidentes="0" data-rodovia="SC-477" stroke="#FEE5D9"/><path d="M539.9,139.1L540.0,138.8L539.2,136.9 " data-categoria="0" data-km-inicial="180.1" data-qtd-acidentes="0" data-rodovia="SC-477" stroke="#FEE5D9"/><path d="M473.6,101.4L478.0,101.3L481.7,108.5L491.2,121.0 " data-categoria="0" data-km-inicial="84.3" data-qtd-acidentes="0" data-rodovia="SC-477" stroke="#FEE5D9"/><path d="M542.9,145.1L541.8,143.4L539.6,140.4L539.9,139.1 " data-categoria="0" data-km-inicial="182.4" data-qtd-acidentes="0" data-rodovia="SC-477" stroke="#FEE5D9"/><path d="M179.5,151.7L182.3,140.7L182.4,137.3L184.0,132.2 " data-categoria="0" data-km-inicial="75.7" data-qtd-acidentes="0" data-rodovia="SC-480" stroke="#FEE5D9"/><path d="M176.5,119.6L180.6,129.2L182.2,131.2L184.0,132.2 " data-categoria="0" data-km-inicial="61.5" data-qtd-acidentes="0" data-rodovia="SC-480" stroke="#FEE5D9"/><path d="M166.7,109.9L163.5,105.9L154.2,99.8 " data-categoria="0" data-km-inicial="33.6" data-qtd-acidentes="0" data-rodovia="SC-480" stroke="#FEE5D9"/><path d="M154.2,99.8L153.9,98.4L143.3,90.2L129.6,84.4 " data-categoria="0" data-km-inicial="0.0" data-qtd-acidentes="0" data-rodovia="SC-480" stroke="#FEE5D9"/><path d="M176.3,119.4L168.8,111.3L166.7,109.9 " data-categoria="0" data-km-inicial="47.9" data-qtd-acidentes="0" data-rodovia="SC-480" stroke="#FEE5D9"/><path d="M152.2,203.8L152.8,199.4L156.0,192.4L159.4,180.8 " data-categoria="0" data-km-inicial="134.5" data-qtd-acidentes="0" data-rodovia="SC-480" stroke="#FEE5D9"/><path d="M604.2,149.4L607.2,148.3L609.1,147.3 " data-categoria="0" data-km-inicial="0.0" data-qtd-acidentes="0" data-rodovia="SC-486" stroke="#FEE5D9"/><path d="M605.5,151.8L590.4,161.6L586.1,165.2L580.8,172.9 " data-categoria="0" data-km-inicial="7.5" data-qtd-acidentes="0" data-rodovia="SC-486" stroke="#FEE5D9"/><path d="M534.0,202.5L533.5,203.8L531.7,206.7L528.5,210.6 " data-categoria="0" data-km-inicial="105.1" data-qtd-acidentes="0" data-rodovia="SC-486" stroke="#FEE5D9"/><path d="M580.8,172.9L570.0,182.0L566.3,182.7L562.7,185.2 " data-categoria="0" data-km-inicial="37.5" data-qtd-acidentes="0" data-rodovia="SC-486" stroke="#FEE5D9"/><path d="M560.9,184.8L548.5,194.0L543.9,195.7L534.0,202.5 " data-categoria="0" data-km-inicial="63.8" data-qtd-acidentes="0" data-rodovia="SC-486" stroke="#FEE5D9"/><path d="M562.7,185.2L562.3,184.7L561.9,185.0L560.9,184.8 " data-categoria="0" data-km-inicial="61.5" data-qtd-acidentes="0" data-rodovia="SC-486" stroke="#FEE5D9"/><path d="M94.6,138.9L93.3,139.5L93.2,139.5L92.1,141.5 " data-categoria="0" data-km-inicial="92.7" data-qtd-acidentes="0" data-rodovia="SC-158" stroke="#FEE5D9"/><path d="M275.4,208.2L275.9,208.5L275.9,209.7L276.3,210.8 " data-categoria="0" data-km-inicial="60.6" data-qtd-acidentes="0" data-rodovia="SC-135" stroke="#FEE5D9"/><path d="M56.2,147.0L56.7,144.6L56.8,142.1L57.4,140.1 " data-categoria="0" data-km-inicial="60.4" data-qtd-acidentes="0" data-rodovia="SC-163" stroke="#FEE5D9"/><path d="M44.9,177.5L45.1,177.5L45.7,177.3L46.7,177.8 " data-categoria="0" data-km-inicial="22.0" data-qtd-acidentes="0" data-rodovia="SC-163" stroke="#FEE5D9"/><path d="M54.9,171.9L48.2,176.4L47.9,177.2L46.7,177.8 " data-categoria="0" data-km-inicial="23.8" data-qtd-acidentes="0" data-rodovia="SC-163" stroke="#FEE5D9"/><path d="M56.2,147.0L58.3,161.0L56.7,167.0L54.6,169.1 " data-categoria="0" data-km-inicial="36.4" data-qtd-acidentes="0" data-rodovia="SC-163" stroke="#FEE5D9"/><path d="M44.9,177.5L41.2,180.0L36.4,187.0L36.3,193.0 " data-categoria="0" data-km-inicial="1.9" data-qtd-acidentes="0" data-rodovia="SC-163" stroke="#FEE5D9"/><path d="M54.9,171.9L54.8,171.1L54.6,169.1 " data-categoria="0" data-km-inicial="34.0" data-qtd-acidentes="0" data-rodovia="SC-163" stroke="#FEE5D9"/><path d="M35.7,193.4L36.2,193.0L36.3,193.0 " data-categoria="0" data-km-inicial="1.2" data-qtd-acidentes="0" data-rodovia="SC-163" stroke="#FEE5D9"/><path d="M413.0,57.6L408.5,58.0L402.8,63.0L398.5,65.1 " data-categoria="0" data-km-inicial="231.4" data-qtd-acidentes="10" data-rodovia="SC-280" stroke="#FEE5D9"/><path d="M398.5,65.1L388.5,67.6L370.5,68.9 " data-categoria="0" data-km-inicial="245.9" data-qtd-acidentes="0" data-rodovia="SC-280" stroke="#FEE5D9"/><path d="M370.5,68.9L360.5,72.2L349.3,72.2 " data-categoria="0" data-km-inicial="271.2" data-qtd-acidentes="0" data-rodovia="SC-280" stroke="#FEE5D9"/><path d="M335.9,70.5L333.8,67.6L330.7,67.1 " data-categoria="0" data-km-inicial="302.9" data-qtd-acidentes="0" data-rodovia="SC-280" stroke="#FEE5D9"/><path d="M349.3,72.2L340.0,70.9L339.5,71.1L335.9,70.5 " data-categoria="0" data-km-inicial="290.7" data-qtd-acidentes="0" data-rodovia="SC-280" stroke="#FEE5D9"/><path d="M115.3,179.3L110.4,178.4L98.4,178.4 " data-categoria="0" data-km-inicial="257.9" data-qtd-acidentes="0" data-rodovia="SC-283" stroke="#FEE5D9"/><path d="M192.7,182.4L187.7,182.0L179.2,179.9L172.4,178.4 " data-categoria="0" data-km-inicial="176.8" data-qtd-acidentes="0" data-rodovia="SC-283" stroke="#FEE5D9"/><path d="M235.8,193.5L229.5,191.5L227.0,190.4L224.8,193.0 " data-categoria="0" data-km-inicial="124.5" data-qtd-acidentes="0" data-rodovia="SC-283" stroke="#FEE5D9"/><path d="M224.8,193.0L223.5,193.2L221.5,190.5L215.3,190.4 " data-categoria="0" data-km-inicial="136.7" data-qtd-acidentes="0" data-rodovia="SC-283" stroke="#FEE5D9"/><path d="M98.4,178.4L95.5,177.5L90.3,179.6 " data-categoria="0" data-km-inicial="275.0" data-qtd-acidentes="0" data-rodovia="SC-283" stroke="#FEE5D9"/><path d="M194.8,185.3L194.1,183.8L192.9,183.4L192.7,182.4 " data-categoria="0" data-km-inicial="173.1" data-qtd-acidentes="0" data-rodovia="SC-283" stroke="#FEE5D9"/><path d="M131.2,177.0L135.9,180.1L142.5,177.4L151.2,179.2 " data-categoria="0" data-km-inicial="224.5" data-qtd-acidentes="0" data-rodovia="SC-283" stroke="#FEE5D9"/><path d="M71.1,182.9L58.5,187.2L59.7,193.1L36.3,193.0 " data-categoria="0" data-km-inicial="308.6" data-qtd-acidentes="0" data-rodovia="SC-283" stroke="#FEE5D9"/><path d="M117.6,177.1L116.7,178.0L116.8,178.4L115.3,179.3 " data-categoria="0" data-km-inicial="254.6" data-qtd-acidentes="0" data-rodovia="SC-283" stroke="#FEE5D9"/><path d="M131.2,177.0L127.9,176.2L127.3,176.6L117.6,177.1 " data-categoria="0" data-km-inicial="240.7" data-qtd-acidentes="0" data-rodovia="SC-283" stroke="#FEE5D9"/><path d="M172.4,178.4L168.4,178.8L168.3,180.1L159.4,180.8 " data-categoria="0" data-km-inicial="201.0" data-qtd-acidentes="0" data-rodovia="SC-283" stroke="#FEE5D9"/><path d="M215.3,190.4L212.4,190.3L207.8,188.1 " data-categoria="0" data-km-inicial="146.9" data-qtd-acidentes="0" data-rodovia="SC-283" stroke="#FEE5D9"/><path d="M158.8,178.9L157.8,179.3L151.2,179.2 " data-categoria="0" data-km-inicial="219.3" data-qtd-acidentes="0" data-rodovia="SC-283" stroke="#FEE5D9"/><path d="M207.8,188.1L202.9,187.8L194.8,185.3 " data-categoria="0" data-km-inicial="155.3" data-qtd-acidentes="0" data-rodovia="SC-283" stroke="#FEE5D9"/><path d="M87.4,178.8L86.7,177.4L80.8,177.4L71.1,182.9 " data-categoria="0" data-km-inicial="289.4" data-qtd-acidentes="0" data-rodovia="SC-283" stroke="#FEE5D9"/><path d="M159.4,180.8L159.1,180.0L158.8,178.9 " data-categoria="0" data-km-inicial="214.1" data-qtd-acidentes="0" data-rodovia="SC-283" stroke="#FEE5D9"/><path d="M89.7,178.4L89.2,178.6L88.9,179.7L87.4,178.8 " data-categoria="0" data-km-inicial="286.3" data-qtd-acidentes="0" data-rodovia="SC-283" stroke="#FEE5D9"/><path d="M282.2,219.1L277.6,211.9L276.3,210.8 " data-categoria="0" data-km-inicial="51.1" data-qtd-acidentes="0" data-rodovia="SC-284" stroke="#FEE5D9"/><path d="M300.7,231.0L296.8,225.3L288.1,220.4L282.2,219.1 " data-categoria="0" data-km-inicial="29.3" data-qtd-acidentes="0" data-rodovia="SC-284" stroke="#FEE5D9"/><path d="M495.5,406.8L494.8,406.2L494.8,406.1L494.1,405.5 " data-categoria="0" data-km-inicial="28.6" data-qtd-acidentes="0" data-rodovia="SC-285" stroke="#FEE5D9"/><path d="M474.6,393.3L471.3,391.7L468.3,392.5L465.1,390.7 " data-categoria="0" data-km-inicial="51.8" data-qtd-acidentes="0" data-rodovia="SC-285" stroke="#FEE5D9"/><path d="M494.1,405.5L485.6,398.4L484.1,398.0L476.9,394.9 " data-categoria="0" data-km-inicial="30.2" data-qtd-acidentes="0" data-rodovia="SC-285" stroke="#FEE5D9"/><path d="M504.7,419.4L502.9,418.0L501.3,416.6L500.0,414.1 " data-categoria="0" data-km-inicial="14.1" data-qtd-acidentes="0" data-rodovia="SC-285" stroke="#FEE5D9"/><path d="M476.9,394.9L476.9,394.8L474.6,393.3 " data-categoria="0" data-km-inicial="49.4" data-qtd-acidentes="0" data-rodovia="SC-285" stroke="#FEE5D9"/><path d="M500.0,414.1L498.2,409.6L497.3,408.7L495.5,406.8 " data-categoria="0" data-km-inicial="20.5" data-qtd-acidentes="0" data-rodovia="SC-285" stroke="#FEE5D9"/><path d="M483.2,263.5L483.2,265.0L483.2,267.0L483.2,270.4 " data-categoria="0" data-km-inicial="60.0" data-qtd-acidentes="0" data-rodovia="SC-341" stroke="#FEE5D9"/><path d="M552.6,322.7L553.4,323.5L553.9,324.1 " data-categoria="0" data-km-inicial="169.9" data-qtd-acidentes="0" data-rodovia="SC-370" stroke="#FEE5D9"/><path d="M553.9,324.1L556.9,323.0L568.0,330.1 " data-categoria="0" data-km-inicial="171.6" data-qtd-acidentes="0" data-rodovia="SC-370" stroke="#FEE5D9"/><path d="M483.2,270.4L487.2,275.7L505.7,286.7 " data-categoria="0" data-km-inicial="66.8" data-qtd-acidentes="0" data-rodovia="SC-370" stroke="#FEE5D9"/><path d="M547.6,311.6L551.9,323.2L552.6,322.7 " data-categoria="0" data-km-inicial="157.1" data-qtd-acidentes="0" data-rodovia="SC-370" stroke="#FEE5D9"/><path d="M90.8,190.9L78.9,180.8L71.1,182.9 " data-categoria="0" data-km-inicial="54.4" data-qtd-acidentes="0" data-rodovia="BR-386" stroke="#FEE5D9"/><path d="M336.6,210.4L339.5,209.7L348.6,205.2 " data-categoria="1" data-km-inicial="289.8" data-qtd-acidentes="91" data-rodovia="BR-470" stroke="#FCBBA1"/><path d="M507.9,180.7L500.9,184.5L499.3,185.9 " data-categoria="4" data-km-inicial="130.3" data-qtd-acidentes="643" data-rodovia="BR-470" stroke="#DE2D26"/><path d="M462.1,192.7L460.6,192.3L455.4,192.8L453.0,193.2 " data-categoria="4" data-km-inicial="177.2" data-qtd-acidentes="994" data-rodovia="BR-470" stroke="#DE2D26"/><path d="M409.2,199.8L397.5,201.8L392.1,201.5 " data-categoria="3" data-km-inicial="233.5" data-qtd-acidentes="302" data-rodovia="BR-470" stroke="#FB6A4A"/><path d="M561.4,142.3L560.2,142.3L559.2,143.1L558.0,143.8 " data-categoria="5" data-km-inicial="51.1" data-qtd-acidentes="1658" data-rodovia="BR-470" stroke="#A50F15"/><path d="M554.9,145.0L551.1,144.4L545.2,143.4L542.9,145.1 " data-categoria="5" data-km-inicial="57.6" data-qtd-acidentes="2701" data-rodovia="BR-470" stroke="#A50F15"/><path d="M453.0,193.2L450.5,195.2L442.4,200.2 " data-categoria="4" data-km-inicial="185.3" data-qtd-acidentes="994" data-rodovia="BR-470" stroke="#DE2D26"/><path d="M482.2,197.0L474.1,195.8L472.7,194.8L462.1,192.7 " data-categoria="5" data-km-inicial="158.5" data-qtd-acidentes="1093" data-rodovia="BR-470" stroke="#A50F15"/><path d="M530.1,153.6L526.1,165.1L523.8,168.1L514.3,170.4 " data-categoria="5" data-km-inicial="86.2" data-qtd-acidentes="1832" data-rodovia="BR-470" stroke="#A50F15"/><path d="M601.1,138.5L595.5,139.3L594.7,139.6L590.0,144.5 " data-categoria="5" data-km-inicial="9.9" data-qtd-acidentes="1045" data-rodovia="BR-470" stroke="#A50F15"/><path d="M590.0,144.5L580.9,146.2L580.6,146.3L575.6,148.7 " data-categoria="5" data-km-inicial="21.8" data-qtd-acidentes="1045" data-rodovia="BR-470" stroke="#A50F15"/><path d="M558.0,143.8L556.5,144.2L555.7,144.4L554.9,145.0 " data-categoria="5" data-km-inicial="54.6" data-qtd-acidentes="1186" data-rodovia="BR-470" stroke="#A50F15"/><path d="M300.7,231.0L294.2,233.7L291.3,237.1L291.5,240.7 " data-categoria="0" data-km-inicial="341.8" data-qtd-acidentes="29" data-rodovia="BR-470" stroke="#FEE5D9"/><path d="M492.3,191.8L485.9,195.7L485.5,196.0L482.2,197.0 " data-categoria="4" data-km-inicial="148.0" data-qtd-acidentes="584" data-rodovia="BR-470" stroke="#DE2D26"/><path d="M442.4,200.2L424.0,199.2L416.9,203.0L409.2,199.8 " data-categoria="3" data-km-inicial="199.6" data-qtd-acidentes="315" data-rodovia="BR-470" stroke="#FB6A4A"/><path d="M514.3,170.4L511.2,172.4L509.9,176.4L507.9,180.7 " data-categoria="5" data-km-inicial="116.4" data-qtd-acidentes="1129" data-rodovia="BR-470" stroke="#A50F15"/><path d="M496.3,188.4L494.8,190.0L494.3,190.3L492.3,191.8 " data-categoria="5" data-km-inicial="143.3" data-qtd-acidentes="1621" data-rodovia="BR-470" stroke="#A50F15"/><path d="M542.9,145.1L539.2,149.1L533.3,155.3L530.1,153.6 " data-categoria="5" data-km-inicial="69.0" data-qtd-acidentes="1869" data-rodovia="BR-470" stroke="#A50F15"/><path d="M609.6,144.8L606.6,141.8L604.5,141.1L603.4,139.6 " data-categoria="3" data-km-inicial="0.0" data-qtd-acidentes="465" data-rodovia="BR-470" stroke="#FB6A4A"/><path d="M575.6,148.7L575.8,149.9L575.8,150.2L575.9,150.8 " data-categoria="0" data-km-inicial="0.0" data-qtd-acidentes="0" data-rodovia="BR-470" stroke="#FEE5D9"/><path d="M499.3,185.9L498.7,186.4L497.7,186.6L496.3,188.4 " data-categoria="5" data-km-inicial="139.5" data-qtd-acidentes="1621" data-rodovia="BR-470" stroke="#A50F15"/><path d="M363.0,204.0L352.0,204.2L348.6,205.2 " data-categoria="3" data-km-inicial="276.4" data-qtd-acidentes="440" data-rodovia="BR-470" stroke="#FB6A4A"/><path d="M603.4,139.6L602.9,138.8L602.5,138.6L601.1,138.5 " data-categoria="3" data-km-inicial="7.4" data-qtd-acidentes="258" data-rodovia="BR-470" stroke="#FB6A4A"/><path d="M392.1,201.5L379.7,200.0L376.4,200.7L363.0,204.0 " data-categoria="3" data-km-inicial="249.2" data-qtd-acidentes="440" data-rodovia="BR-470" stroke="#FB6A4A"/><path d="M575.6,148.7L566.9,142.1L563.9,142.0L561.4,142.3 " data-categoria="5" data-km-inicial="35.1" data-qtd-acidentes="1142" data-rodovia="BR-470" stroke="#A50F15"/><path d="M590.0,144.5L590.7,147.1 " data-categoria="0" data-km-inicial="0.0" data-qtd-acidentes="0" data-rodovia="BR-470" stroke="#FEE5D9"/><path d="M547.6,311.6L524.6,300.0L505.9,286.9L505.7,286.7 " data-categoria="0" data-km-inicial="97.1" data-qtd-acidentes="0" data-rodovia="BR-475" stroke="#FEE5D9"/><path d="M581.1,342.6L568.0,330.1 " data-categoria="0" data-km-inicial="186.9" data-qtd-acidentes="0" data-rodovia="BR-475" stroke="#FEE5D9"/><path d="M483.2,263.5L481.9,263.4L479.0,256.2 " data-categoria="0" data-km-inicial="50.8" data-qtd-acidentes="0" data-rodovia="BR-475" stroke="#FEE5D9"/><path d="M560.5,143.4L560.9,143.7L561.8,145.9 " data-categoria="0" data-km-inicial="205.4" data-qtd-acidentes="0" data-rodovia="BR-477" stroke="#FEE5D9"/><path d="M558.0,143.8L558.5,143.9L560.5,143.4 " data-categoria="0" data-km-inicial="203.2" data-qtd-acidentes="0" data-rodovia="BR-477" stroke="#FEE5D9"/><path d="M158.9,178.4L159.0,178.1L158.3,176.4L157.8,175.3 " data-categoria="3" data-km-inicial="131.1" data-qtd-acidentes="282" data-rodovia="BR-480" stroke="#FB6A4A"/><path d="M157.8,175.3L157.1,172.9L156.6,168.7L155.8,167.1 " data-categoria="3" data-km-inicial="123.5" data-qtd-acidentes="282" data-rodovia="BR-480" stroke="#FB6A4A"/><path d="M158.8,178.9L158.8,178.8L158.8,178.8L158.9,178.4 " data-categoria="3" data-km-inicial="134.0" data-qtd-acidentes="282" data-rodovia="BR-480" stroke="#FB6A4A"/><path d="M516.2,263.0L521.6,241.7 " data-categoria="0" data-km-inicial="154.1" data-qtd-acidentes="0" data-rodovia="BR-486" stroke="#FEE5D9"/><path d="M525.4,224.7L528.5,210.6 " data-categoria="0" data-km-inicial="115.1" data-qtd-acidentes="0" data-rodovia="BR-486" stroke="#FEE5D9"/><path d="M521.6,241.7L525.4,224.7 " data-categoria="0" data-km-inicial="132.8" data-qtd-acidentes="0" data-rodovia="BR-486" stroke="#FEE5D9"/></g><g class="estado" id="estado" stroke-width="1px"><path d="M29.3,178.2L35.6,162.4L35.8,152.0L29.9,121.0L29.2,107.7L34.6,86.8L37.7,79.0L66.1,74.7L103.5,87.4L129.5,86.4L156.2,89.2L234.5,110.8L267.9,107.9L281.6,111.3L290.7,120.1L311.2,119.9L314.9,109.5L319.2,71.9L328.1,64.4L354.8,67.5L370.4,60.2L384.9,38.8L398.5,34.0L410.3,44.3L447.7,36.9L474.6,39.8L494.8,56.4L510.4,61.8L522.9,58.2L541.9,39.3L559.0,30.5L577.7,27.5L591.8,28.4L619.5,25.6L619.6,31.9L617.4,50.7L605.0,62.9L595.4,46.4L595.0,69.0L613.6,94.2L609.5,119.5L614.1,146.4L612.6,152.8L619.4,179.6L623.7,175.9L633.5,182.0L628.5,187.0L618.5,221.3L616.7,255.4L618.9,272.0L616.9,306.3L604.0,342.6L599.9,360.9L571.8,379.0L538.9,405.0L513.1,429.9L494.7,455.5L488.2,464.8L480.5,441.1L474.9,439.3L455.4,446.7L443.9,457.3L442.4,451.4L455.1,424.2L465.9,407.1L472.1,383.7L496.3,366.5L494.5,358.7L469.6,347.4L462.0,348.3L404.2,341.0L388.9,332.4L359.2,296.3L311.7,249.8L308.4,240.9L290.6,235.5L240.5,223.4L236.8,215.3L221.5,205.5L149.8,198.0L111.2,186.5L85.6,190.9L75.1,184.5L56.9,195.2L23.2,192.1L29.3,178.2Z M640.9,207.9L643.1,220.4L635.8,245.0L623.8,263.1L625.5,228.1L640.9,207.9Z M630.0,60.2L618.8,85.0L608.3,68.1L618.3,58.5L630.0,60.2Z " data-uf="SC"/></g><g class="vizinho" fill="#E6E6E6" id="vizinhos" stroke-width="1px"><path d="M37.7,79.0L66.1,74.7L103.5,87.4L129.5,86.4L156.2,89.2L234.5,110.8L267.9,107.9L281.6,111.3L290.7,120.1L311.2,119.9L314.9,109.5L319.2,71.9L328.1,64.4L354.8,67.5L370.4,60.2L384.9,38.8L398.5,34.0L410.3,44.3L447.7,36.9L474.6,39.8L494.8,56.4L510.4,61.8L522.9,58.2L541.9,39.3L559.0,30.5L577.7,27.5L591.8,28.4L619.5,25.6L618.9,20.4L606.9,12.5L623.5,11.8L631.5,0.0L3.4,0.0L8.7,3.7L20.3,48.7L32.5,69.0L37.7,79.0Z " data-uf="PR"/><path d="M488.2,464.8L480.5,441.1L474.9,439.3L455.4,446.7L443.9,457.3L442.4,451.4L455.1,424.2L465.9,407.1L472.1,383.7L496.3,366.5L494.5,358.7L469.6,347.4L462.0,348.3L404.2,341.0L388.9,332.4L359.2,296.3L311.7,249.8L308.4,240.9L290.6,235.5L240.5,223.4L236.8,215.3L221.5,205.5L149.8,198.0L111.2,186.5L85.6,190.9L75.1,184.5L56.9,195.2L23.2,192.1L12.8,191.0L0.0,200.3L0.0,483.2L479.3,483.2L479.3,483.1L488.2,464.8Z " data-uf="RS"/></g></svg>