<?xml version="1.0" encoding="utf-8"?><!DOCTYPE svg  PUBLIC '-//W3C//DTD SVG 1.1//EN'  'http://www.w3.org/Graphics/SVG/1.1/DTD/svg11.dtd'><svg enable_background="new 0 0 650 758" height="758px" pretty_print="False" style="stroke-linejoin: round; stroke:#000; fill: none;" version="1.1" viewBox="0 0 650 758" width="650px" xmlns="http://www.w3.org/2000/svg" xmlns:xlink="http://www.w3.org/1999/xlink"><defs><style type="text/css"><![CDATA[path { fill-rule: evenodd; }]]></style></defs><metadata><views><view h="758.681813979" padding="0.05" w="650"><proj id="laea" lat0="-10.5568345" lon0="-37.1523139816"/><bbox h="27.08" w="23.23" x="986.57" y="986.45"/></view></views></metadata><g class="" id="rodovias"><path d="M338.0,519.0L341.6,517.7L343.9,517.1L352.4,515.4 " data-categoria="3" data-km-final="108.0" data-km-inicial="103.2" data-qtd-acidentes="445" data-rodovia="BR-101"/><path d="M301.2,567.5L304.5,556.1L304.4,555.5L303.7,546.2 " data-categoria="3" data-km-final="131.0" data-km-inicial="123.7" data-qtd-acidentes="279" data-rodovia="BR-101"/><path d="M455.3,323.5L455.5,322.7L455.5,322.4L455.8,320.4 " data-categoria="0" data-km-final="24.1" data-km-inicial="23.1" data-qtd-acidentes="41" data-rodovia="BR-101"/><path d="M461.2,307.1L462.4,305.2L463.3,303.4L465.2,291.8 " data-categoria="0" data-km-final="18.4" data-km-inicial="13.2" data-qtd-acidentes="49" data-rodovia="BR-101"/><path d="M472.1,279.2L477.1,269.8L478.9,266.7L481.1,266.2 " data-categoria="1" data-km-final="8.6" data-km-inicial="3.2" data-qtd-acidentes="76" data-rodovia="BR-101"/><path d="M412.8,425.9L415.3,422.4L416.4,420.6L417.6,414.1 " data-categoria="2" data-km-final="63.3" data-km-inicial="59.0" data-qtd-acidentes="110" data-rodovia="BR-101"/><path d="M323.6,531.8L325.3,529.8L325.8,529.4L329.3,525.3 " data-categoria="3" data-km-final="114.5" data-km-inicial="111.6" data-qtd-acidentes="445" data-rodovia="BR-101"/><path d="M417.6,414.1L418.3,412.7L424.9,406.3L426.4,404.5 " data-categoria="3" data-km-final="59.0" data-km-inicial="54.8" data-qtd-acidentes="230" data-rodovia="BR-101"/><path d="M196.9,668.9L199.3,667.3L199.9,666.8L202.5,662.9 " data-categoria="3" data-km-final="185.9" data-km-inicial="183.2" data-qtd-acidentes="240" data-rodovia="BR-101"/><path d="M437.2,375.4L445.6,362.5L444.3,351.7 " data-categoria="3" data-km-final="43.2" data-km-inicial="34.3" data-qtd-acidentes="254" data-rodovia="BR-101"/><path d="M291.0,594.8L291.3,581.3L297.6,577.1L301.2,567.5 " data-categoria="3" data-km-final="141.3" data-km-inicial="131.0" data-qtd-acidentes="279" data-rodovia="BR-101"/><path d="M455.8,320.4L457.0,314.0L459.3,309.6L461.2,307.1 " data-categoria="1" data-km-final="23.1" data-km-inicial="18.4" data-qtd-acidentes="76" data-rodovia="BR-101"/><path d="M426.4,404.5L432.2,401.2L433.3,400.1L435.8,391.5 " data-categoria="3" data-km-final="54.8" data-km-inicial="49.0" data-qtd-acidentes="230" data-rodovia="BR-101"/><path d="M443.9,350.8L450.5,334.9L453.2,331.3L455.3,323.5 " data-categoria="2" data-km-final="34.2" data-km-inicial="24.1" data-qtd-acidentes="123" data-rodovia="BR-101"/><path d="M435.8,391.5L436.4,390.1L437.8,388.5 " data-categoria="0" data-km-final="49.0" data-km-inicial="47.8" data-qtd-acidentes="12" data-rodovia="BR-101"/><path d="M379.7,465.1L379.1,457.4L380.7,454.8 " data-categoria="3" data-km-final="81.2" data-km-inicial="77.6" data-qtd-acidentes="248" data-rodovia="BR-101"/><path d="M303.7,546.2L303.8,544.0L316.0,540.4 " data-categoria="2" data-km-final="123.7" data-km-inicial="118.4" data-qtd-acidentes="162" data-rodovia="BR-101"/><path d="M401.4,437.0L405.0,434.4L412.8,425.9 " data-categoria="2" data-km-final="68.4" data-km-inicial="63.3" data-qtd-acidentes="170" data-rodovia="BR-101"/><path d="M284.2,609.4L287.4,603.4L287.6,602.8L291.0,594.8 " data-categoria="2" data-km-final="146.5" data-km-inicial="141.3" data-qtd-acidentes="103" data-rodovia="BR-101"/><path d="M382.1,491.5L381.8,488.0L381.3,482.3L380.9,478.6 " data-categoria="3" data-km-final="89.4" data-km-inicial="85.7" data-qtd-acidentes="255" data-rodovia="BR-101"/><path d="M169.4,697.2L178.9,689.1L177.7,686.1L196.9,668.9 " data-categoria="3" data-km-final="198.9" data-km-inicial="185.9" data-qtd-acidentes="240" data-rodovia="BR-101"/><path d="M382.6,498.0L382.6,496.3L382.5,496.0L382.1,491.5 " data-categoria="3" data-km-final="91.5" data-km-inicial="89.4" data-qtd-acidentes="267" data-rodovia="BR-101"/><path d="M329.3,525.3L332.3,521.1L332.8,520.9L338.0,519.0 " data-categoria="3" data-km-final="111.6" data-km-inicial="108.0" data-qtd-acidentes="445" data-rodovia="BR-101"/><path d="M277.9,622.0L279.1,618.7L284.2,609.4 " data-categoria="3" data-km-final="151.1" data-km-inicial="146.5" data-qtd-acidentes="252" data-rodovia="BR-101"/><path d="M167.1,698.6L168.6,697.7L169.4,697.2 " data-categoria="3" data-km-final="199.7" data-km-inicial="198.9" data-qtd-acidentes="240" data-rodovia="BR-101"/><path d="M217.7,655.6L218.0,654.5L219.3,650.0L221.5,649.3 " data-categoria="2" data-km-final="177.2" data-km-inicial="174.5" data-qtd-acidentes="123" data-rodovia="BR-101"/><path d="M379.9,467.2L379.9,466.4L379.8,466.1L379.7,465.1 " data-categoria="3" data-km-final="81.5" data-km-inicial="81.2" data-qtd-acidentes="248" data-rodovia="BR-101"/><path d="M437.8,388.5L439.0,386.8L439.4,383.5L437.2,375.4 " data-categoria="3" data-km-final="47.8" data-km-inicial="43.2" data-qtd-acidentes="254" data-rodovia="BR-101"/><path d="M202.5,662.9L209.7,657.7L210.0,657.5L217.7,655.6 " data-categoria="2" data-km-final="183.2" data-km-inicial="177.2" data-qtd-acidentes="123" data-rodovia="BR-101"/><path d="M444.3,351.7L444.0,351.2L443.9,351.0L443.9,350.8 " data-categoria="2" data-km-final="34.3" data-km-inicial="34.2" data-qtd-acidentes="123" data-rodovia="BR-101"/><path d="M488.4,258.1L488.3,258.6L488.2,258.6L487.2,261.3 " data-categoria="0" data-km-final="0.7" data-km-inicial="0.0" data-qtd-acidentes="23" data-rodovia="BR-101"/><path d="M159.0,707.9L165.6,699.6L167.1,698.6 " data-categoria="1" data-km-final="206.1" data-km-inicial="199.7" data-qtd-acidentes="57" data-rodovia="BR-101"/><path d="M352.4,515.4L362.3,510.1L376.5,499.0 " data-categoria="3" data-km-final="103.2" data-km-inicial="93.3" data-qtd-acidentes="491" data-rodovia="BR-101"/><path d="M263.5,634.9L265.7,632.7L270.5,630.3L274.6,629.6 " data-categoria="1" data-km-final="158.7" data-km-inicial="153.9" data-qtd-acidentes="87" data-rodovia="BR-101"/><path d="M380.9,478.6L380.4,473.0L379.9,467.2 " data-categoria="3" data-km-final="85.7" data-km-inicial="81.5" data-qtd-acidentes="217" data-rodovia="BR-101"/><path d="M316.0,540.4L321.9,535.2L323.6,531.8 " data-categoria="2" data-km-final="118.4" data-km-inicial="114.5" data-qtd-acidentes="159" data-rodovia="BR-101"/><path d="M481.1,266.2L482.5,265.5L486.6,261.9 " data-categoria="1" data-km-final="3.2" data-km-inicial="0.9" data-qtd-acidentes="64" data-rodovia="BR-101"/><path d="M486.6,261.9L487.0,261.5L487.1,261.4L487.2,261.3 " data-categoria="1" data-km-final="0.9" data-km-inicial="0.7" data-qtd-acidentes="64" data-rodovia="BR-101"/><path d="M376.5,499.0L378.4,497.5L379.1,497.3L382.6,498.0 " data-categoria="3" data-km-final="93.3" data-km-inicial="91.5" data-qtd-acidentes="231" data-rodovia="BR-101"/><path d="M398.5,439.1L400.8,437.4L401.4,437.0 " data-categoria="2" data-km-final="69.5" data-km-inicial="68.4" data-qtd-acidentes="104" data-rodovia="BR-101"/><path d="M274.6,629.6L275.4,626.3L277.6,623.8L277.9,622.0 " data-categoria="1" data-km-final="153.9" data-km-inicial="151.1" data-qtd-acidentes="89" data-rodovia="BR-101"/><path d="M380.7,454.8L386.3,452.3L391.3,448.1L398.5,439.1 " data-categoria="3" data-km-final="77.6" data-km-inicial="69.5" data-qtd-acidentes="406" data-rodovia="BR-101"/><path d="M221.5,649.3L249.1,641.0L251.7,638.0L263.5,634.9 " data-categoria="2" data-km-final="174.5" data-km-inicial="158.7" data-qtd-acidentes="183" data-rodovia="BR-101"/><path d="M465.2,291.8L467.4,287.8L472.1,279.2 " data-categoria="1" data-km-final="13.2" data-km-inicial="8.6" data-qtd-acidentes="65" data-rodovia="BR-101"/><path d="M190.9,311.0L190.0,310.2L189.6,309.8L189.2,309.5 " data-categoria="1" data-km-final="108.7" data-km-inicial="108.4" data-qtd-acidentes="58" data-rodovia="BR-235"/><path d="M198.3,324.0L196.2,320.0L193.4,313.4L190.9,311.0 " data-categoria="1" data-km-final="108.4" data-km-inicial="103.4" data-qtd-acidentes="58" data-rodovia="BR-235"/><path d="M189.2,309.5L186.7,305.8L179.4,300.0L176.1,296.6 " data-categoria="0" data-km-final="114.8" data-km-inicial="108.7" data-qtd-acidentes="22" data-rodovia="BR-235"/><path d="M198.0,331.8L198.3,328.3L198.4,327.0 " data-categoria="1" data-km-final="102.4" data-km-inicial="100.8" data-qtd-acidentes="58" data-rodovia="BR-235"/><path d="M214.0,377.9L211.2,377.5L211.1,377.3L209.7,374.2 " data-categoria="0" data-km-final="85.6" data-km-inicial="83.5" data-qtd-acidentes="10" data-rodovia="BR-235"/><path d="M336.5,463.4L336.4,463.3L336.3,463.2L336.1,463.1 " data-categoria="4" data-km-final="26.4" data-km-inicial="26.3" data-qtd-acidentes="563" data-rodovia="BR-235"/><path d="M209.7,374.2L209.3,369.5L197.5,341.5L198.0,331.8 " data-categoria="1" data-km-final="100.8" data-km-inicial="85.6" data-qtd-acidentes="58" data-rodovia="BR-235"/><path d="M198.4,327.0L198.5,324.4L198.3,324.0 " data-categoria="1" data-km-final="103.4" data-km-inicial="102.4" data-qtd-acidentes="58" data-rodovia="BR-235"/><path d="M278.1,423.1L275.1,413.2L272.5,405.3L264.9,393.0 " data-categoria="3" data-km-final="63.7" data-km-inicial="52.9" data-qtd-acidentes="327" data-rodovia="BR-235"/><path d="M320.8,448.7L300.8,452.1L285.2,435.5L279.4,426.5 " data-categoria="4" data-km-final="51.7" data-km-inicial="34.1" data-qtd-acidentes="563" data-rodovia="BR-235"/><path d="M237.6,373.7L219.1,375.7L214.0,377.9 " data-categoria="1" data-km-final="83.5" data-km-inicial="75.6" data-qtd-acidentes="89" data-rodovia="BR-235"/><path d="M382.6,498.0L387.3,499.3L390.7,498.9L396.4,499.7 " data-categoria="5" data-km-final="6.2" data-km-inicial="1.7" data-qtd-acidentes="1038" data-rodovia="BR-235"/><path d="M382.0,491.5L370.6,487.1L336.5,463.4 " data-categoria="3" data-km-final="26.3" data-km-inicial="8.4" data-qtd-acidentes="236" data-rodovia="BR-235"/><path d="M336.1,463.1L328.0,456.8L327.6,455.5L320.8,448.7 " data-categoria="4" data-km-final="34.1" data-km-inicial="26.4" data-qtd-acidentes="563" data-rodovia="BR-235"/><path d="M264.9,393.0L252.1,380.7L249.5,379.3L237.6,373.7 " data-categoria="1" data-km-final="75.6" data-km-inicial="63.7" data-qtd-acidentes="89" data-rodovia="BR-235"/><path d="M279.4,426.5L278.8,425.4L278.7,425.1L278.1,423.1 " data-categoria="1" data-km-final="52.9" data-km-inicial="51.7" data-qtd-acidentes="65" data-rodovia="BR-235"/><path d="M401.9,500.6L401.5,500.4L396.4,499.7 " data-categoria="3" data-km-final="1.7" data-km-inicial="0.0" data-qtd-acidentes="248" data-rodovia="BR-235"/><path d="M382.1,491.5L382.0,491.5L382.0,491.5L382.0,491.5 " data-categoria="3" data-km-final="8.4" data-km-inicial="8.3" data-qtd-acidentes="236" data-rodovia="BR-235"/><path d="M201.1,599.0L180.4,598.9 " data-categoria="0" data-km-final="77.5" data-km-inicial="75.5" data-qtd-acidentes="0" data-rodovia="BR-349"/><path d="M225.3,589.8L224.8,590.5L201.1,599.0 " data-categoria="0" data-km-final="75.5" data-km-inicial="64.6" data-qtd-acidentes="0" data-rodovia="BR-349"/><path d="M299.4,543.4L277.3,564.1 " data-categoria="0" data-km-final="45.4" data-km-inicial="35.5" data-qtd-acidentes="0" data-rodovia="BR-349"/><path d="M148.4,598.6L146.6,596.4L144.6,595.2L101.3,595.7 " data-categoria="0" data-km-final="85.5" data-km-inicial="80.5" data-qtd-acidentes="0" data-rodovia="BR-349"/><path d="M101.3,595.7L88.7,595.8 " data-categoria="0" data-km-final="120.5" data-km-inicial="85.5" data-qtd-acidentes="0" data-rodovia="BR-349"/><path d="M277.3,564.1L267.2,575.5 " data-categoria="0" data-km-final="50.3" data-km-inicial="45.4" data-qtd-acidentes="0" data-rodovia="BR-349"/><path d="M180.4,598.9L148.4,598.6 " data-categoria="0" data-km-final="80.5" data-km-inicial="77.5" data-qtd-acidentes="0" data-rodovia="BR-349"/><path d="M323.6,531.8L299.8,542.9L299.4,543.4 " data-categoria="0" data-km-final="35.5" data-km-inicial="27.5" data-qtd-acidentes="0" data-rodovia="BR-349"/><path d="M267.2,575.5L225.3,589.8 " data-categoria="0" data-km-final="64.6" data-km-inicial="50.3" data-qtd-acidentes="0" data-rodovia="BR-349"/></g><g class="estado" id="estado"><path d="M323.6,682.8L341.8,652.8L363.9,624.4L415.8,550.4L422.8,542.7L448.8,499.2L481.9,464.1L512.2,441.2L535.2,412.9L555.8,390.9L587.8,370.2L611.0,353.5L620.1,341.5L605.9,325.4L585.0,314.0L577.1,292.2L559.9,278.2L535.5,274.3L485.7,256.4L454.0,221.8L434.9,187.1L414.9,171.7L343.9,138.8L287.1,115.9L240.7,98.1L185.9,70.3L143.8,46.4L100.6,29.5L86.7,55.7L83.4,75.6L87.1,107.8L103.0,133.6L151.4,178.3L172.2,201.4L180.7,227.5L171.1,307.5L176.8,333.0L179.4,357.9L175.6,387.4L175.5,413.3L171.1,431.3L152.1,447.9L123.1,455.8L94.3,460.2L65.3,455.4L38.6,454.7L31.7,465.1L29.9,488.0L34.2,520.2L48.9,542.9L75.0,573.4L85.2,598.2L97.9,613.6L99.0,633.3L104.3,655.7L119.8,678.3L141.9,693.1L160.6,709.3L184.4,725.9L207.2,727.2L240.6,722.0L267.5,714.1L306.0,707.9L323.6,682.8Z " data-uf="SE"/></g><g class="vizinho" id="vizinhos"><path d="M100.6,29.5L143.8,46.4L185.9,70.3L240.7,98.1L287.1,115.9L343.9,138.8L414.9,171.7L434.9,187.1L454.0,221.8L485.7,256.4L535.5,274.3L559.9,278.2L577.1,292.2L585.0,314.0L605.9,325.4L620.1,341.5L646.1,340.3L650.0,331.7L650.0,0.0L62.9,0.0L86.9,16.0L100.6,29.5Z " data-uf="AL"/><path d="M306.0,707.9L267.5,714.1L240.6,722.0L207.2,727.2L184.4,725.9L160.6,709.3L141.9,693.1L119.8,678.3L104.3,655.7L99.0,633.3L97.9,613.6L85.2,598.2L75.0,573.4L48.9,542.9L34.2,520.2L29.9,488.0L31.7,465.1L38.6,454.7L65.3,455.4L94.3,460.2L123.1,455.8L152.1,447.9L171.1,431.3L175.5,413.3L175.6,387.4L179.4,357.9L176.8,333.0L171.1,307.5L180.7,227.5L172.2,201.4L151.4,178.3L103.0,133.6L87.1,107.8L83.4,75.6L86.7,55.7L100.6,29.5L86.9,16.0L62.9,0.0L0.0,0.0L0.0,756.7L276.9,756.7L282.8,744.3L301.3,715.9L306.0,707.9Z " data-uf="BA"/></g></svg>