<?xml version="1.0" encoding="utf-8"?><!DOCTYPE svg  PUBLIC '-//W3C//DTD SVG 1.1//EN'  'http://www.w3.org/Graphics/SVG/1.1/DTD/svg11.dtd'><svg enable_background="new 0 0 650 1070" height="1070px" pretty_print="False" style="stroke-linejoin: round; stroke:#000; fill: none;" version="1.1" viewBox="0 0 650 1070" width="650px" xmlns="http://www.w3.org/2000/svg" xmlns:xlink="http://www.w3.org/1999/xlink"><defs><style type="text/css"><![CDATA[path { fill-rule: evenodd; }]]></style></defs><metadata><views><view h="1070.36501037" padding="0.05" w="650"><proj id="laea" lat0="-9.375229" lon0="-48.3696148308"/><bbox h="107.75" w="65.5" x="969.91" y="946.01"/></view></views></metadata><g class="" id="rodovias" stroke-width="5px"><path d="M391.0,838.8L390.7,838.1L389.7,836.6L388.9,836.2 " data-categoria="0" data-km-inicial="175.5" data-qtd-acidentes="0" data-rodovia="BR-010" stroke="#FEE5D9"/><path d="M376.2,818.3L373.8,813.5L373.3,812.3L372.3,809.9 " data-categoria="0" data-km-inicial="203.8" data-qtd-acidentes="0" data-rodovia="BR-010" stroke="#FEE5D9"/><path d="M323.1,755.6L322.9,754.8L321.5,753.3L321.2,752.5 " data-categoria="0" data-km-inicial="302.6" data-qtd-acidentes="0" data-rodovia="BR-010" stroke="#FEE5D9"/><path d="M307.8,653.2L307.3,646.6L306.4,644.9L305.7,639.9 " data-categoria="0" data-km-inicial="412.4" data-qtd-acidentes="0" data-rodovia="BR-010" stroke="#FEE5D9"/><path d="M389.7,849.5L391.2,844.0L391.0,838.8 " data-categoria="0" data-km-inicial="165.6" data-qtd-acidentes="0" data-rodovia="BR-010" stroke="#FEE5D9"/><path d="M366.8,800.6L355.2,791.9L336.2,792.0L329.6,788.8 " data-categoria="0" data-km-inicial="222.5" data-qtd-acidentes="0" data-rodovia="BR-010" stroke="#FEE5D9"/><path d="M321.8,783.8L324.6,775.4L320.2,769.6L323.1,755.6 " data-categoria="0" data-km-inicial="272.4" data-qtd-acidentes="0" data-rodovia="BR-010" stroke="#FEE5D9"/><path d="M388.9,836.2L374.9,823.5L375.1,821.3 " data-categoria="0" data-km-inicial="178.5" data-qtd-acidentes="0" data-rodovia="BR-010" stroke="#FEE5D9"/><path d="M329.6,788.8L327.9,787.8L321.8,783.8 " data-categoria="0" data-km-inicial="264.1" data-qtd-acidentes="0" data-rodovia="BR-010" stroke="#FEE5D9"/><path d="M372.3,809.9L371.0,807.6L366.8,800.6 " data-categoria="0" data-km-inicial="212.5" data-qtd-acidentes="0" data-rodovia="BR-010" stroke="#FEE5D9"/><path d="M328.8,717.0L330.1,715.1L330.2,713.3L329.4,709.6 " data-categoria="0" data-km-inicial="330.1" data-qtd-acidentes="0" data-rodovia="BR-010" stroke="#FEE5D9"/><path d="M379.2,501.3L377.4,495.6L376.5,495.4L368.9,465.3 " data-categoria="0" data-km-inicial="599.3" data-qtd-acidentes="0" data-rodovia="BR-010" stroke="#FEE5D9"/><path d="M399.6,348.8L408.2,343.6L415.3,344.8L424.8,331.0 " data-categoria="0" data-km-inicial="762.8" data-qtd-acidentes="0" data-rodovia="BR-010" stroke="#FEE5D9"/><path d="M321.2,752.5L323.0,750.0L326.7,727.6L328.8,717.0 " data-categoria="0" data-km-inicial="306.0" data-qtd-acidentes="0" data-rodovia="BR-010" stroke="#FEE5D9"/><path d="M399.0,351.5L399.2,350.7L399.1,349.8L399.6,348.8 " data-categoria="0" data-km-inicial="760.1" data-qtd-acidentes="0" data-rodovia="BR-010" stroke="#FEE5D9"/><path d="M372.3,437.9L373.9,445.1L373.7,447.6L373.4,461.6 " data-categoria="0" data-km-inicial="643.9" data-qtd-acidentes="0" data-rodovia="BR-010" stroke="#FEE5D9"/><path d="M329.4,709.6L323.8,680.1L317.2,665.4L307.8,653.2 " data-categoria="0" data-km-inicial="357.0" data-qtd-acidentes="0" data-rodovia="BR-010" stroke="#FEE5D9"/><path d="M373.4,461.6L372.3,463.1L370.6,462.9L368.9,465.3 " data-categoria="0" data-km-inicial="638.1" data-qtd-acidentes="0" data-rodovia="BR-010" stroke="#FEE5D9"/><path d="M358.9,933.6L358.8,933.4L358.3,932.4 " data-categoria="0" data-km-inicial="90.3" data-qtd-acidentes="0" data-rodovia="BR-010" stroke="#FEE5D9"/><path d="M370.4,417.0L369.3,424.3L369.1,425.4L372.3,437.9 " data-categoria="0" data-km-inicial="665.4" data-qtd-acidentes="0" data-rodovia="BR-010" stroke="#FEE5D9"/><path d="M389.3,992.0L394.9,981.5L393.4,975.1L358.9,933.6 " data-categoria="0" data-km-inicial="0.0" data-qtd-acidentes="0" data-rodovia="BR-010" stroke="#FEE5D9"/><path d="M360.0,525.1L360.2,524.9L360.3,525.0L379.2,501.3 " data-categoria="0" data-km-inicial="579.6" data-qtd-acidentes="0" data-rodovia="BR-010" stroke="#FEE5D9"/><path d="M374.6,408.9L372.3,413.6L370.5,416.6L370.4,417.0 " data-categoria="0" data-km-inicial="686.3" data-qtd-acidentes="0" data-rodovia="BR-010" stroke="#FEE5D9"/><path d="M421.9,320.5L424.8,331.0 " data-categoria="0" data-km-inicial="788.6" data-qtd-acidentes="0" data-rodovia="BR-010" stroke="#FEE5D9"/><path d="M344.6,605.4L344.3,601.5L344.9,599.5 " data-categoria="0" data-km-inicial="490.1" data-qtd-acidentes="0" data-rodovia="BR-010" stroke="#FEE5D9"/><path d="M358.6,931.8L359.6,930.1L359.7,929.9L360.1,928.6 " data-categoria="0" data-km-inicial="93.0" data-qtd-acidentes="0" data-rodovia="BR-010" stroke="#FEE5D9"/><path d="M357.3,528.5L357.7,526.6L358.0,526.4L360.0,525.1 " data-categoria="0" data-km-inicial="575.4" data-qtd-acidentes="0" data-rodovia="BR-010" stroke="#FEE5D9"/><path d="M366.5,546.6L364.2,538.3L363.7,537.5L358.1,532.1 " data-categoria="0" data-km-inicial="555.3" data-qtd-acidentes="0" data-rodovia="BR-010" stroke="#FEE5D9"/><path d="M358.3,932.4L358.4,932.3L358.6,931.8 " data-categoria="0" data-km-inicial="92.1" data-qtd-acidentes="0" data-rodovia="BR-010" stroke="#FEE5D9"/><path d="M399.2,357.0L398.3,353.1L399.0,351.5 " data-categoria="0" data-km-inicial="754.7" data-qtd-acidentes="0" data-rodovia="BR-010" stroke="#FEE5D9"/><path d="M358.1,532.1L357.6,530.5L357.5,529.9L357.3,528.5 " data-categoria="0" data-km-inicial="572.2" data-qtd-acidentes="0" data-rodovia="BR-010" stroke="#FEE5D9"/><path d="M393.9,368.1L401.8,359.4L399.2,357.0 " data-categoria="0" data-km-inicial="740.8" data-qtd-acidentes="0" data-rodovia="BR-010" stroke="#FEE5D9"/><path d="M357.2,588.3L362.3,582.6L360.3,569.6L370.4,556.5 " data-categoria="0" data-km-inicial="513.1" data-qtd-acidentes="0" data-rodovia="BR-010" stroke="#FEE5D9"/><path d="M370.4,556.5L367.7,550.5L366.5,546.6 " data-categoria="0" data-km-inicial="545.1" data-qtd-acidentes="0" data-rodovia="BR-010" stroke="#FEE5D9"/><path d="M344.9,599.5L346.5,596.6L353.0,591.9L357.2,588.3 " data-categoria="0" data-km-inicial="496.4" data-qtd-acidentes="0" data-rodovia="BR-010" stroke="#FEE5D9"/><path d="M374.6,408.9L380.4,394.8L379.8,388.4L393.9,368.1 " data-categoria="0" data-km-inicial="701.9" data-qtd-acidentes="0" data-rodovia="BR-010" stroke="#FEE5D9"/><path d="M360.1,928.6L364.7,914.9L371.6,903.2L377.2,890.3 " data-categoria="0" data-km-inicial="96.6" data-qtd-acidentes="0" data-rodovia="BR-010" stroke="#FEE5D9"/><path d="M377.2,890.3L372.4,875.4L374.6,862.4L389.7,849.5 " data-categoria="0" data-km-inicial="127.6" data-qtd-acidentes="0" data-rodovia="BR-010" stroke="#FEE5D9"/><path d="M258.4,582.7L257.6,585.3L257.4,585.7L256.4,588.0 " data-categoria="2" data-km-inicial="441.5" data-qtd-acidentes="132" data-rodovia="BR-153" stroke="#FC9272"/><path d="M237.1,631.9L237.1,632.2L237.1,632.4L237.1,632.7 " data-categoria="0" data-km-inicial="493.6" data-qtd-acidentes="18" data-rodovia="BR-153" stroke="#FEE5D9"/><path d="M319.2,261.2L315.3,267.8L315.0,268.3 " data-categoria="3" data-km-inicial="134.8" data-qtd-acidentes="464" data-rodovia="BR-153" stroke="#FB6A4A"/><path d="M347.0,226.8L344.4,230.3L333.1,238.3 " data-categoria="2" data-km-inicial="91.6" data-qtd-acidentes="123" data-rodovia="BR-153" stroke="#FC9272"/><path d="M209.3,915.5L205.1,899.0L204.1,891.6L203.1,873.7 " data-categoria="3" data-km-inicial="720.1" data-qtd-acidentes="209" data-rodovia="BR-153" stroke="#FB6A4A"/><path d="M299.7,197.3L300.0,197.6L300.0,197.7 " data-categoria="0" data-km-inicial="33.3" data-qtd-acidentes="3" data-rodovia="BR-153" stroke="#FEE5D9"/><path d="M278.7,173.7L283.4,180.3L292.7,189.0L299.7,197.3 " data-categoria="0" data-km-inicial="2.7" data-qtd-acidentes="19" data-rodovia="BR-153" stroke="#FEE5D9"/><path d="M281.4,469.6L281.5,470.0L281.5,470.2L281.6,470.7 " data-categoria="0" data-km-inicial="332.9" data-qtd-acidentes="39" data-rodovia="BR-153" stroke="#FEE5D9"/><path d="M237.1,631.8L237.1,631.8L237.1,631.9L237.1,631.9 " data-categoria="0" data-km-inicial="493.5" data-qtd-acidentes="18" data-rodovia="BR-153" stroke="#FEE5D9"/><path d="M312.7,273.8L312.5,275.0L312.5,275.1L311.4,277.6 " data-categoria="3" data-km-inicial="147.8" data-qtd-acidentes="230" data-rodovia="BR-153" stroke="#FB6A4A"/><path d="M346.5,223.8L346.9,226.7L347.0,226.8 " data-categoria="0" data-km-inicial="88.8" data-qtd-acidentes="46" data-rodovia="BR-153" stroke="#FEE5D9"/><path d="M235.0,663.8L234.3,670.8L233.1,681.3 " data-categoria="1" data-km-inicial="522.7" data-qtd-acidentes="65" data-rodovia="BR-153" stroke="#FCBBA1"/><path d="M286.3,381.7L287.5,389.7L286.4,403.6L284.5,414.8 " data-categoria="2" data-km-inicial="252.4" data-qtd-acidentes="163" data-rodovia="BR-153" stroke="#FC9272"/><path d="M209.3,915.5L209.4,917.3L211.7,922.9L212.4,953.1 " data-categoria="2" data-km-inicial="758.8" data-qtd-acidentes="200" data-rodovia="BR-153" stroke="#FC9272"/><path d="M230.2,770.6L230.2,770.7L230.2,771.2L230.1,771.5 " data-categoria="3" data-km-inicial="619.6" data-qtd-acidentes="261" data-rodovia="BR-153" stroke="#FB6A4A"/><path d="M237.1,632.7L237.1,632.8L237.1,632.9L237.1,633.0 " data-categoria="0" data-km-inicial="494.3" data-qtd-acidentes="18" data-rodovia="BR-153" stroke="#FEE5D9"/><path d="M286.9,374.9L286.9,375.6L286.9,375.7L286.8,377.1 " data-categoria="0" data-km-inicial="246.3" data-qtd-acidentes="19" data-rodovia="BR-153" stroke="#FEE5D9"/><path d="M199.2,851.9L199.0,854.8L199.4,861.1L202.8,872.7 " data-categoria="2" data-km-inicial="698.8" data-qtd-acidentes="109" data-rodovia="BR-153" stroke="#FC9272"/><path d="M315.0,268.3L314.7,269.0L314.3,270.0 " data-categoria="3" data-km-inicial="142.4" data-qtd-acidentes="202" data-rodovia="BR-153" stroke="#FB6A4A"/><path d="M271.9,553.0L271.8,553.5L271.7,554.4 " data-categoria="1" data-km-inicial="411.1" data-qtd-acidentes="52" data-rodovia="BR-153" stroke="#FCBBA1"/><path d="M236.8,630.8L237.0,631.4L237.1,631.7L237.1,631.8 " data-categoria="0" data-km-inicial="492.5" data-qtd-acidentes="10" data-rodovia="BR-153" stroke="#FEE5D9"/><path d="M281.4,468.4L281.4,469.0L281.4,469.1L281.4,469.6 " data-categoria="0" data-km-inicial="331.9" data-qtd-acidentes="39" data-rodovia="BR-153" stroke="#FEE5D9"/><path d="M288.1,342.6L288.1,353.3L287.7,354.3L287.0,371.9 " data-categoria="2" data-km-inicial="216.7" data-qtd-acidentes="185" data-rodovia="BR-153" stroke="#FC9272"/><path d="M281.4,468.0L281.4,468.1L281.4,468.2L281.4,468.4 " data-categoria="0" data-km-inicial="331.5" data-qtd-acidentes="39" data-rodovia="BR-153" stroke="#FEE5D9"/><path d="M237.9,637.6L235.4,660.8L235.0,663.8 " data-categoria="2" data-km-inicial="498.9" data-qtd-acidentes="163" data-rodovia="BR-153" stroke="#FC9272"/><path d="M309.9,209.3L318.9,218.9L325.0,217.8L346.5,223.7 " data-categoria="0" data-km-inicial="47.7" data-qtd-acidentes="46" data-rodovia="BR-153" stroke="#FEE5D9"/><path d="M212.4,953.1L211.7,956.3L211.6,956.9L211.2,958.7 " data-categoria="0" data-km-inicial="794.8" data-qtd-acidentes="9" data-rodovia="BR-153" stroke="#FEE5D9"/><path d="M213.3,824.9L213.2,825.1L213.1,825.1L213.1,825.2 " data-categoria="0" data-km-inicial="671.1" data-qtd-acidentes="12" data-rodovia="BR-153" stroke="#FEE5D9"/><path d="M202.8,872.7L202.9,873.2L203.0,873.6L203.1,873.7 " data-categoria="3" data-km-inicial="719.1" data-qtd-acidentes="209" data-rodovia="BR-153" stroke="#FB6A4A"/><path d="M281.8,458.4L281.4,463.6L281.4,464.4L281.4,468.0 " data-categoria="2" data-km-inicial="322.8" data-qtd-acidentes="160" data-rodovia="BR-153" stroke="#FC9272"/><path d="M213.1,825.2L206.7,835.7L204.0,841.6L199.2,851.9 " data-categoria="3" data-km-inicial="671.4" data-qtd-acidentes="275" data-rodovia="BR-153" stroke="#FB6A4A"/><path d="M233.1,681.3L233.1,681.7L234.4,700.9 " data-categoria="1" data-km-inicial="538.5" data-qtd-acidentes="64" data-rodovia="BR-153" stroke="#FCBBA1"/><path d="M218.8,805.8L214.7,818.6L214.0,821.8 " data-categoria="3" data-km-inicial="653.1" data-qtd-acidentes="317" data-rodovia="BR-153" stroke="#FB6A4A"/><path d="M311.4,277.6L308.4,280.7L300.1,292.1L295.8,307.5 " data-categoria="3" data-km-inicial="151.4" data-qtd-acidentes="230" data-rodovia="BR-153" stroke="#FB6A4A"/><path d="M278.6,531.4L274.6,539.1L274.5,539.6L272.6,550.0 " data-categoria="1" data-km-inicial="390.6" data-qtd-acidentes="95" data-rodovia="BR-153" stroke="#FCBBA1"/><path d="M271.7,554.4L271.5,555.5L271.4,555.9L270.7,557.0 " data-categoria="0" data-km-inicial="412.7" data-qtd-acidentes="15" data-rodovia="BR-153" stroke="#FEE5D9"/><path d="M286.8,377.1L286.8,378.8L286.8,379.0L286.3,381.7 " data-categoria="2" data-km-inicial="248.2" data-qtd-acidentes="163" data-rodovia="BR-153" stroke="#FC9272"/><path d="M237.1,633.0L237.2,634.9L237.3,635.2L237.9,637.6 " data-categoria="1" data-km-inicial="494.6" data-qtd-acidentes="63" data-rodovia="BR-153" stroke="#FCBBA1"/><path d="M291.6,322.5L291.7,326.8L287.0,340.7L288.1,342.6 " data-categoria="2" data-km-inicial="197.5" data-qtd-acidentes="116" data-rodovia="BR-153" stroke="#FC9272"/><path d="M234.2,717.6L233.9,735.7L232.7,745.1L230.2,770.6 " data-categoria="3" data-km-inicial="571.4" data-qtd-acidentes="261" data-rodovia="BR-153" stroke="#FB6A4A"/><path d="M287.0,371.9L286.9,372.9L286.9,373.0L286.9,374.1 " data-categoria="0" data-km-inicial="243.7" data-qtd-acidentes="34" data-rodovia="BR-153" stroke="#FEE5D9"/><path d="M213.9,822.2L213.7,823.3L213.6,823.8L213.3,824.9 " data-categoria="1" data-km-inicial="668.6" data-qtd-acidentes="82" data-rodovia="BR-153" stroke="#FCBBA1"/><path d="M272.6,550.0L272.2,552.2L272.1,552.3L271.9,553.0 " data-categoria="1" data-km-inicial="408.4" data-qtd-acidentes="52" data-rodovia="BR-153" stroke="#FCBBA1"/><path d="M314.3,270.0L314.0,270.4L312.9,273.0L312.7,273.8 " data-categoria="3" data-km-inicial="144.1" data-qtd-acidentes="202" data-rodovia="BR-153" stroke="#FB6A4A"/><path d="M284.1,426.1L284.0,427.1L284.9,431.7 " data-categoria="0" data-km-inicial="293.2" data-qtd-acidentes="21" data-rodovia="BR-153" stroke="#FEE5D9"/><path d="M300.0,197.7L303.3,201.5L306.5,205.3L309.9,209.3 " data-categoria="0" data-km-inicial="33.8" data-qtd-acidentes="3" data-rodovia="BR-153" stroke="#FEE5D9"/><path d="M280.6,496.5L278.6,530.3L278.6,531.4 " data-categoria="3" data-km-inicial="358.1" data-qtd-acidentes="216" data-rodovia="BR-153" stroke="#FB6A4A"/><path d="M286.9,374.1L286.9,374.5L286.9,374.9 " data-categoria="0" data-km-inicial="245.6" data-qtd-acidentes="34" data-rodovia="BR-153" stroke="#FEE5D9"/><path d="M333.1,238.3L330.9,248.8L322.7,256.1L320.6,258.9 " data-categoria="3" data-km-inicial="108.2" data-qtd-acidentes="256" data-rodovia="BR-153" stroke="#FB6A4A"/><path d="M281.6,470.7L281.9,472.9L281.7,481.0L282.8,483.4 " data-categoria="2" data-km-inicial="333.9" data-qtd-acidentes="113" data-rodovia="BR-153" stroke="#FC9272"/><path d="M284.9,431.7L285.0,440.4L284.8,443.0L281.8,458.4 " data-categoria="2" data-km-inicial="298.2" data-qtd-acidentes="160" data-rodovia="BR-153" stroke="#FC9272"/><path d="M295.8,307.5L292.3,315.4L292.5,316.8L291.6,322.5 " data-categoria="2" data-km-inicial="182.9" data-qtd-acidentes="106" data-rodovia="BR-153" stroke="#FC9272"/><path d="M320.6,258.9L319.7,260.1L319.6,260.2L319.2,261.2 " data-categoria="3" data-km-inicial="132.1" data-qtd-acidentes="256" data-rodovia="BR-153" stroke="#FB6A4A"/><path d="M214.0,821.8L214.0,821.9L213.9,822.0L213.9,822.2 " data-categoria="0" data-km-inicial="668.2" data-qtd-acidentes="5" data-rodovia="BR-153" stroke="#FEE5D9"/><path d="M256.1,592.4L253.4,608.2L240.3,620.6L236.8,630.8 " data-categoria="2" data-km-inicial="450.6" data-qtd-acidentes="200" data-rodovia="BR-153" stroke="#FC9272"/><path d="M270.7,557.0L268.4,560.4L258.4,582.7 " data-categoria="2" data-km-inicial="415.3" data-qtd-acidentes="132" data-rodovia="BR-153" stroke="#FC9272"/><path d="M256.4,588.0L256.2,588.6L256.1,592.4 " data-categoria="2" data-km-inicial="446.6" data-qtd-acidentes="132" data-rodovia="BR-153" stroke="#FC9272"/><path d="M282.8,483.4L283.0,487.4L282.4,492.8L280.6,496.5 " data-categoria="2" data-km-inicial="345.7" data-qtd-acidentes="103" data-rodovia="BR-153" stroke="#FC9272"/><path d="M234.4,700.9L234.6,704.8L234.7,706.4L234.2,717.6 " data-categoria="3" data-km-inicial="556.3" data-qtd-acidentes="261" data-rodovia="BR-153" stroke="#FB6A4A"/><path d="M346.5,223.7L346.5,223.7L346.5,223.8L346.5,223.8 " data-categoria="0" data-km-inicial="88.6" data-qtd-acidentes="46" data-rodovia="BR-153" stroke="#FEE5D9"/><path d="M284.5,414.8L285.1,418.4L284.1,426.1 " data-categoria="0" data-km-inicial="282.8" data-qtd-acidentes="50" data-rodovia="BR-153" stroke="#FEE5D9"/><path d="M230.1,771.5L228.8,775.3L223.6,791.2L218.8,805.8 " data-categoria="3" data-km-inicial="620.4" data-qtd-acidentes="317" data-rodovia="BR-153" stroke="#FB6A4A"/><path d="M277.4,172.5L278.1,172.9L278.4,173.5L278.7,173.7 " data-categoria="0" data-km-inicial="1.2" data-qtd-acidentes="2" data-rodovia="BR-153" stroke="#FEE5D9"/><path d="M277.4,172.5L276.5,171.5 " data-categoria="0" data-km-inicial="0.0" data-qtd-acidentes="3" data-rodovia="BR-153" stroke="#FEE5D9"/><path d="M409.6,190.9L408.4,191.2L407.8,191.3 " data-categoria="2" data-km-inicial="0.0" data-qtd-acidentes="105" data-rodovia="BR-226" stroke="#FC9272"/><path d="M373.2,209.3L369.4,215.6L365.4,223.1L347.9,226.2 " data-categoria="2" data-km-inicial="39.7" data-qtd-acidentes="151" data-rodovia="BR-226" stroke="#FC9272"/><path d="M398.8,197.6L380.1,202.2L373.2,209.3 " data-categoria="2" data-km-inicial="12.0" data-qtd-acidentes="110" data-rodovia="BR-226" stroke="#FC9272"/><path d="M347.9,226.2L347.6,226.4L347.4,226.5L347.0,226.8 " data-categoria="2" data-km-inicial="70.3" data-qtd-acidentes="151" data-rodovia="BR-226" stroke="#FC9272"/><path d="M407.8,191.3L407.0,191.5L407.0,191.5 " data-categoria="1" data-km-inicial="1.7" data-qtd-acidentes="74" data-rodovia="BR-226" stroke="#FCBBA1"/><path d="M407.0,191.5L403.2,192.7L402.2,193.6L398.8,197.6 " data-categoria="1" data-km-inicial="2.4" data-qtd-acidentes="74" data-rodovia="BR-226" stroke="#FCBBA1"/><path d="M358.1,118.5L347.5,105.0L345.3,103.3L340.7,97.1 " data-categoria="0" data-km-inicial="101.3" data-qtd-acidentes="0" data-rodovia="BR-230" stroke="#FEE5D9"/><path d="M358.9,119.8L358.4,119.2L358.1,118.5 " data-categoria="0" data-km-inicial="99.9" data-qtd-acidentes="2" data-rodovia="BR-230" stroke="#FEE5D9"/><path d="M378.7,167.4L375.2,160.1L360.4,146.1 " data-categoria="0" data-km-inicial="43.1" data-qtd-acidentes="13" data-rodovia="BR-230" stroke="#FEE5D9"/><path d="M354.8,134.5L354.3,132.3L353.3,126.0 " data-categoria="0" data-km-inicial="82.7" data-qtd-acidentes="2" data-rodovia="BR-230" stroke="#FEE5D9"/><path d="M353.3,126.0L353.4,126.0L353.4,125.9 " data-categoria="0" data-km-inicial="92.1" data-qtd-acidentes="2" data-rodovia="BR-230" stroke="#FEE5D9"/><path d="M340.7,97.1L337.6,93.3L332.7,90.0L325.7,88.1 " data-categoria="0" data-km-inicial="126.9" data-qtd-acidentes="0" data-rodovia="BR-230" stroke="#FEE5D9"/><path d="M360.4,146.1L358.6,136.2L354.8,134.5 " data-categoria="0" data-km-inicial="69.3" data-qtd-acidentes="6" data-rodovia="BR-230" stroke="#FEE5D9"/><path d="M325.7,88.1L325.5,88.0L325.0,87.9L324.6,87.8 " data-categoria="0" data-km-inicial="143.8" data-qtd-acidentes="0" data-rodovia="BR-230" stroke="#FEE5D9"/><path d="M399.6,174.6L396.8,174.7L385.2,171.1L384.5,171.2 " data-categoria="0" data-km-inicial="20.9" data-qtd-acidentes="14" data-rodovia="BR-230" stroke="#FEE5D9"/><path d="M407.8,191.3L406.2,188.8 " data-categoria="0" data-km-inicial="1.7" data-qtd-acidentes="27" data-rodovia="BR-230" stroke="#FEE5D9"/><path d="M353.4,125.9L354.6,125.2L358.9,119.8 " data-categoria="0" data-km-inicial="92.2" data-qtd-acidentes="0" data-rodovia="BR-230" stroke="#FEE5D9"/><path d="M406.2,188.8L400.7,186.4L401.6,183.7L399.6,174.6 " data-categoria="0" data-km-inicial="4.2" data-qtd-acidentes="6" data-rodovia="BR-230" stroke="#FEE5D9"/><path d="M324.6,87.8L323.7,87.5L323.6,87.4L323.0,87.1 " data-categoria="0" data-km-inicial="144.8" data-qtd-acidentes="0" data-rodovia="BR-230" stroke="#FEE5D9"/><path d="M384.5,171.2L381.2,172.0L381.1,171.8L378.7,167.4 " data-categoria="0" data-km-inicial="35.2" data-qtd-acidentes="13" data-rodovia="BR-230" stroke="#FEE5D9"/><path d="M252.5,481.4L255.9,481.6L282.8,483.4 " data-categoria="0" data-km-inicial="204.2" data-qtd-acidentes="0" data-rodovia="BR-235" stroke="#FEE5D9"/><path d="M379.2,501.3L401.2,507.3L410.3,500.1L435.1,501.2 " data-categoria="0" data-km-inicial="44.0" data-qtd-acidentes="0" data-rodovia="BR-235" stroke="#FEE5D9"/><path d="M450.4,506.9L442.4,503.3L435.1,501.2 " data-categoria="0" data-km-inicial="28.2" data-qtd-acidentes="0" data-rodovia="BR-235" stroke="#FEE5D9"/><path d="M480.9,507.1L477.1,507.8L473.9,507.9L450.4,506.9 " data-categoria="0" data-km-inicial="0.0" data-qtd-acidentes="0" data-rodovia="BR-235" stroke="#FEE5D9"/><path d="M223.5,479.4L234.4,479.0 " data-categoria="0" data-km-inicial="246.7" data-qtd-acidentes="0" data-rodovia="BR-235" stroke="#FEE5D9"/><path d="M234.4,479.0L242.0,478.5L247.4,479.5L252.5,481.4 " data-categoria="0" data-km-inicial="230.6" data-qtd-acidentes="0" data-rodovia="BR-235" stroke="#FEE5D9"/><path d="M379.2,501.3L373.5,495.4L360.2,491.4L343.6,495.1 " data-categoria="0" data-km-inicial="100.6" data-qtd-acidentes="0" data-rodovia="BR-235" stroke="#FEE5D9"/><path d="M323.1,488.8L322.7,488.8L319.5,486.8 " data-categoria="0" data-km-inicial="162.6" data-qtd-acidentes="0" data-rodovia="BR-235" stroke="#FEE5D9"/><path d="M325.8,486.3L324.2,488.0L323.4,488.2L323.1,488.8 " data-categoria="0" data-km-inicial="158.8" data-qtd-acidentes="0" data-rodovia="BR-235" stroke="#FEE5D9"/><path d="M343.6,495.1L339.9,495.1L325.8,486.3 " data-categoria="0" data-km-inicial="138.6" data-qtd-acidentes="0" data-rodovia="BR-235" stroke="#FEE5D9"/><path d="M172.9,465.5L185.6,470.2L193.0,477.1L204.8,476.7 " data-categoria="0" data-km-inicial="269.2" data-qtd-acidentes="0" data-rodovia="BR-235" stroke="#FEE5D9"/><path d="M204.8,476.7L220.4,480.4L223.5,479.4 " data-categoria="0" data-km-inicial="256.2" data-qtd-acidentes="0" data-rodovia="BR-235" stroke="#FEE5D9"/><path d="M154.8,467.6L162.6,468.1L165.0,468.9L172.9,465.5 " data-categoria="0" data-km-inicial="304.9" data-qtd-acidentes="0" data-rodovia="BR-235" stroke="#FEE5D9"/><path d="M277.1,861.4L260.3,849.2L257.9,846.9L242.6,841.5 " data-categoria="0" data-km-inicial="313.4" data-qtd-acidentes="22" data-rodovia="BR-242" stroke="#FEE5D9"/><path d="M278.0,876.5L279.4,867.4L277.1,861.4 " data-categoria="0" data-km-inicial="298.8" data-qtd-acidentes="12" data-rodovia="BR-242" stroke="#FEE5D9"/><path d="M214.8,823.6L214.5,823.2L213.9,822.2 " data-categoria="1" data-km-inicial="384.2" data-qtd-acidentes="96" data-rodovia="BR-242" stroke="#FCBBA1"/><path d="M533.1,904.2L532.2,904.9L531.9,905.2L531.0,906.0 " data-categoria="0" data-km-inicial="11.2" data-qtd-acidentes="0" data-rodovia="BR-242" stroke="#FEE5D9"/><path d="M199.2,851.9L174.4,840.3L170.0,834.5L159.2,833.3 " data-categoria="0" data-km-inicial="414.4" data-qtd-acidentes="15" data-rodovia="BR-242" stroke="#FEE5D9"/><path d="M542.4,898.4L540.3,900.5L536.6,901.7L533.1,904.2 " data-categoria="0" data-km-inicial="0.0" data-qtd-acidentes="0" data-rodovia="BR-242" stroke="#FEE5D9"/><path d="M289.8,875.0L289.5,875.8L287.1,883.0L286.5,883.8 " data-categoria="0" data-km-inicial="280.0" data-qtd-acidentes="0" data-rodovia="BR-242" stroke="#FEE5D9"/><path d="M242.6,841.5L227.7,832.8L222.0,824.8L215.7,822.8 " data-categoria="1" data-km-inicial="329.5" data-qtd-acidentes="96" data-rodovia="BR-242" stroke="#FCBBA1"/><path d="M286.5,883.8L285.4,883.0L279.7,878.0L278.0,876.5 " data-categoria="0" data-km-inicial="288.6" data-qtd-acidentes="0" data-rodovia="BR-242" stroke="#FEE5D9"/><path d="M530.9,907.2L531.2,906.4L531.2,906.3L531.0,906.0 " data-categoria="0" data-km-inicial="13.9" data-qtd-acidentes="0" data-rodovia="BR-242" stroke="#FEE5D9"/><path d="M159.2,833.3L138.8,831.2L131.6,831.4 " data-categoria="0" data-km-inicial="457.2" data-qtd-acidentes="46" data-rodovia="BR-242" stroke="#FEE5D9"/><path d="M215.7,822.8L215.5,823.0L214.9,823.5L214.8,823.6 " data-categoria="1" data-km-inicial="382.4" data-qtd-acidentes="96" data-rodovia="BR-242" stroke="#FCBBA1"/><path d="M116.8,829.8L111.9,830.5L111.5,830.5 " data-categoria="0" data-km-inicial="497.0" data-qtd-acidentes="1" data-rodovia="BR-242" stroke="#FEE5D9"/><path d="M411.3,928.4L415.6,924.3L417.4,923.0L437.6,915.2 " data-categoria="0" data-km-inicial="109.3" data-qtd-acidentes="0" data-rodovia="BR-242" stroke="#FEE5D9"/><path d="M475.2,911.0L510.7,907.7L521.7,907.3 " data-categoria="0" data-km-inicial="27.3" data-qtd-acidentes="0" data-rodovia="BR-242" stroke="#FEE5D9"/><path d="M111.5,830.5L88.9,817.7L65.5,805.8L23.9,810.2 " data-categoria="0" data-km-inicial="502.4" data-qtd-acidentes="0" data-rodovia="BR-242" stroke="#FEE5D9"/><path d="M130.3,831.0L128.0,830.6L124.8,828.9L116.8,829.8 " data-categoria="0" data-km-inicial="483.9" data-qtd-acidentes="16" data-rodovia="BR-242" stroke="#FEE5D9"/><path d="M437.6,915.2L452.6,913.7L475.2,911.0 " data-categoria="0" data-km-inicial="74.9" data-qtd-acidentes="0" data-rodovia="BR-242" stroke="#FEE5D9"/><path d="M131.6,831.4L130.3,831.0 " data-categoria="0" data-km-inicial="482.6" data-qtd-acidentes="46" data-rodovia="BR-242" stroke="#FEE5D9"/><path d="M533.1,904.2L531.2,905.0L531.0,906.0 " data-categoria="0" data-km-inicial="0.0" data-qtd-acidentes="0" data-rodovia="BR-242" stroke="#FEE5D9"/><path d="M359.9,928.4L357.3,926.7L351.9,917.5L353.2,912.5 " data-categoria="0" data-km-inicial="193.2" data-qtd-acidentes="0" data-rodovia="BR-242" stroke="#FEE5D9"/><path d="M359.2,932.8L359.0,932.8L358.8,932.7L358.3,932.4 " data-categoria="0" data-km-inicial="187.5" data-qtd-acidentes="0" data-rodovia="BR-242" stroke="#FEE5D9"/><path d="M393.6,933.7L378.0,939.7L372.0,937.9L359.2,932.8 " data-categoria="0" data-km-inicial="153.0" data-qtd-acidentes="0" data-rodovia="BR-242" stroke="#FEE5D9"/><path d="M353.2,912.5L350.8,911.1L340.0,903.1 " data-categoria="0" data-km-inicial="210.6" data-qtd-acidentes="0" data-rodovia="BR-242" stroke="#FEE5D9"/><path d="M411.3,928.4L411.3,928.4L411.3,928.4L411.3,928.4L411.3,928.4L411.3,928.4L411.3,928.4L411.3,928.4L411.3,928.4L411.3,928.4L411.2,928.4L411.2,928.4L411.2,928.4L411.2,928.4L411.2,928.5L411.2,928.5L411.2,928.5L411.2,928.5L411.2,928.5L411.2,928.5L411.2,928.5L411.2,928.5L411.2,928.5L411.2,928.5L411.2,928.5L411.2,928.5L411.2,928.5L411.2,928.5L411.2,928.5L411.2,928.5L411.2,928.6L411.2,928.6L411.2,928.6L411.2,928.6L411.2,928.6L411.2,928.6L411.2,928.6L411.2,928.6L411.2,928.6L411.2,928.6L411.2,928.6L411.2,928.6L411.1,928.6L411.1,928.6L411.1,928.6L411.1,928.6L411.1,928.6L411.1,928.6L411.1,928.7L411.1,928.7L411.1,928.7L411.1,928.7L411.1,928.7L411.1,928.7L411.1,928.7L411.1,928.7L411.1,928.7L411.0,928.7L411.0,928.7L411.0,928.7L411.0,928.7L411.0,928.7L411.0,928.8L411.0,928.8L411.0,928.8L411.0,928.8L411.0,928.8L411.0,928.8L411.0,928.8L411.0,928.8L411.0,928.8L411.0,928.8L411.0,928.8L410.9,928.8L410.9,928.8L410.9,928.8L410.9,928.8L410.9,928.8L410.9,928.8L410.9,928.9L410.9,928.9L410.9,928.9L410.9,928.9L410.9,928.9L410.9,928.9L410.9,928.9L410.9,928.9L410.9,928.9L410.9,928.9L410.9,928.9L410.8,928.9L410.8,928.9L410.8,928.9L410.8,928.9L410.8,928.9L410.8,928.9L410.8,928.9L410.8,928.9L410.8,928.9L410.8,928.9L410.8,928.9L410.8,928.9L410.8,928.9L410.8,928.9L410.8,928.9L410.8,929.0L410.8,929.0L410.8,929.0L410.8,929.0L410.8,929.0L410.8,929.0L410.8,929.0L410.8,929.0L410.8,929.0L410.8,929.0L410.8,929.0L410.8,929.0L410.8,929.0L410.8,929.0L410.8,929.0L410.8,929.0L410.7,929.0L410.7,929.0L410.7,929.0L410.7,929.0L410.7,929.0L410.7,929.1L410.7,929.1L410.7,929.1L410.7,929.1L410.7,929.1L410.7,929.1L410.7,929.1L410.7,929.1L410.7,929.1L410.7,929.1L410.6,929.1L410.6,929.1L410.6,929.1L410.6,929.2L410.6,929.2L410.6,929.2L410.6,929.2L410.6,929.2L410.6,929.2L410.6,929.2L410.6,929.2L410.6,929.2L410.6,929.2L410.6,929.2L410.6,929.2L410.6,929.2L410.5,929.2L410.5,929.2L410.5,929.2L410.5,929.3L410.5,929.3L410.5,929.3L410.5,929.3L410.5,929.3L410.5,929.3L410.5,929.3L410.5,929.3L410.5,929.3L410.5,929.3L410.5,929.3L410.5,929.3L410.5,929.3L410.5,929.3L410.4,929.3L410.4,929.3L410.4,929.3L410.4,929.3L410.4,929.3L410.4,929.4L410.4,929.4L410.4,929.4L410.4,929.4L410.4,929.4L410.4,929.4L410.4,929.4L410.4,929.4L410.4,929.4L410.4,929.4L410.4,929.4L410.4,929.4L410.3,929.4L410.3,929.5L410.3,929.5L410.3,929.5L410.3,929.5L410.3,929.5L410.3,929.5L410.3,929.5L410.3,929.5L410.3,929.5L410.3,929.5L410.3,929.5L410.3,929.5L410.3,929.5L410.2,929.5L410.2,929.5L410.2,929.6L410.2,929.6L410.2,929.6L410.2,929.6L410.2,929.6L410.2,929.6L410.2,929.6L410.2,929.6L410.2,929.6L410.2,929.6L410.2,929.6L410.2,929.6L410.2,929.6L410.2,929.6L410.1,929.7L410.1,929.7L410.1,929.7L410.1,929.7L410.1,929.7L410.1,929.7L410.1,929.7L410.1,929.7L410.1,929.7L410.1,929.7L410.1,929.7L410.1,929.7L410.1,929.7L410.1,929.8L410.1,929.8L410.1,929.8L410.1,929.8L410.1,929.8L410.1,929.8L410.1,929.8L410.1,929.8L410.0,929.8L410.0,929.8L410.0,929.8L410.0,929.8L410.0,929.8L410.0,929.8L410.0,929.8L410.0,929.8L410.0,929.8L410.0,929.8L410.0,929.8L410.0,929.8L410.0,929.8L410.0,929.8L410.0,929.9L409.9,929.9L409.9,929.9L409.9,929.9L409.9,929.9L409.9,929.9L409.9,929.9L409.9,929.9L409.9,929.9L409.9,929.9L409.9,929.9L409.9,929.9L409.9,930.0L409.8,930.0L409.8,930.0L409.8,930.0L409.8,930.0L409.8,930.0L409.8,930.0L409.8,930.0L409.8,930.0L409.8,930.0L409.8,930.0L409.8,930.0L409.8,930.0L409.8,930.0L409.8,930.1L409.8,930.1L409.7,930.1L409.7,930.1L409.7,930.1L409.7,930.1L409.7,930.1L409.7,930.1L409.7,930.1L409.7,930.1L409.7,930.1L409.7,930.1L409.7,930.2L409.7,930.2L409.6,930.2L409.6,930.2L409.6,930.2L409.6,930.2L409.6,930.2L409.6,930.2L409.6,930.2L409.6,930.2L409.6,930.2L409.6,930.2L409.6,930.3L409.6,930.3L409.6,930.3L409.6,930.3L409.6,930.3L409.6,930.3L409.6,930.3L409.6,930.3L409.6,930.3L409.6,930.3L409.6,930.3L409.6,930.3L409.6,930.3L409.6,930.3L409.6,930.3L409.6,930.3L409.6,930.3L409.6,930.3L409.5,930.3L409.5,930.4L409.5,930.4L409.5,930.4L409.5,930.4L409.5,930.4L409.5,930.4L409.5,930.4L409.5,930.4L409.5,930.4L409.5,930.4L409.5,930.4L409.4,930.4L409.4,930.4L409.4,930.4L409.4,930.4L409.4,930.4L409.4,930.4L409.4,930.4L409.4,930.4L409.4,930.4L409.4,930.4L409.4,930.5L409.4,930.5L409.4,930.5L409.4,930.5L409.4,930.5L409.3,930.5L409.3,930.5L409.3,930.5L409.3,930.5L409.3,930.5L409.3,930.5L409.3,930.5L409.3,930.5L409.3,930.5L409.3,930.6L409.3,930.6L409.3,930.6L409.3,930.6L409.3,930.6L409.3,930.6L409.3,930.6L409.3,930.6L409.3,930.6L409.2,930.6L409.2,930.6L409.2,930.6L409.2,930.6L409.2,930.6L409.2,930.6L409.2,930.6L409.2,930.6L409.2,930.6L409.2,930.7L409.2,930.7L409.2,930.7L409.2,930.7L409.2,930.7L409.2,930.7L409.1,930.7L409.1,930.7L409.1,930.7L409.1,930.7L409.1,930.7L409.1,930.7L409.1,930.7L409.1,930.7L409.1,930.7L409.1,930.8L409.1,930.8L409.1,930.8L409.1,930.8L409.0,930.8L409.0,930.8L409.0,930.8L409.0,930.8L409.0,930.8L409.0,930.8L409.0,930.9L409.0,930.9L409.0,930.9L409.0,930.9L409.0,930.9L409.0,930.9L409.0,930.9L409.0,930.9L409.0,930.9L409.0,930.9L408.9,930.9L408.9,930.9L408.9,930.9L408.9,930.9L408.9,930.9L408.9,930.9L408.9,930.9L408.9,931.0L408.9,931.0L408.9,931.0L408.9,931.0L408.9,931.0L408.9,931.0L408.8,931.0L408.8,931.0L408.8,931.0L408.8,931.0L408.8,931.0L408.8,931.0L408.8,931.0L408.8,931.1L408.8,931.1L408.8,931.1L408.8,931.1L408.8,931.1L408.8,931.1L408.7,931.1L408.7,931.1L408.7,931.1L408.7,931.1L408.7,931.1L408.7,931.1L408.7,931.1L408.7,931.1L408.7,931.2L408.7,931.2L408.7,931.2L408.6,931.2L408.6,931.2L408.6,931.2L408.6,931.2L408.6,931.2L408.6,931.2L408.6,931.2L408.6,931.2L408.6,931.2L408.6,931.2L408.5,931.2L408.5,931.2L408.5,931.2L408.5,931.2L408.5,931.2L408.5,931.2L408.5,931.2L408.5,931.3L408.5,931.3L408.5,931.3L408.4,931.3L408.4,931.3L408.4,931.3L408.4,931.3L408.4,931.3L408.4,931.3L408.4,931.3L408.4,931.3L408.4,931.3L408.3,931.3L408.3,931.3L408.3,931.3L408.3,931.3L408.3,931.3L408.3,931.3L408.3,931.3L408.3,931.3L408.3,931.3L408.3,931.3L408.2,931.3L408.2,931.3L408.2,931.3L408.2,931.3L408.2,931.3L408.2,931.3L408.2,931.3L408.2,931.3L408.2,931.3L408.2,931.3L408.1,931.3L408.1,931.3L408.1,931.3L408.1,931.3L408.1,931.3L408.1,931.3L408.1,931.3L408.1,931.3L408.1,931.3L408.1,931.3L408.0,931.3L408.0,931.3L408.0,931.3L408.0,931.3L408.0,931.3L408.0,931.3L408.0,931.3L408.0,931.3L408.0,931.3L408.0,931.3L407.9,931.3L407.9,931.3L407.9,931.3L407.9,931.3L407.9,931.3L407.9,931.3L407.9,931.3L407.9,931.3L407.9,931.3L407.8,931.3L407.8,931.3L407.8,931.3L407.8,931.3L407.8,931.3L407.8,931.3L407.8,931.3L407.8,931.3L407.8,931.3L407.8,931.3L407.7,931.3L407.7,931.3L407.7,931.4L407.7,931.4L407.7,931.4L407.7,931.4L407.7,931.4L407.7,931.4L407.7,931.4L407.7,931.4L407.6,931.4L407.6,931.4L407.6,931.4L407.6,931.4L407.6,931.4L407.6,931.4L407.6,931.4L407.6,931.4L407.6,931.4L407.6,931.4L407.5,931.4L407.5,931.4L407.5,931.4L407.5,931.4L407.5,931.4L407.5,931.4L407.5,931.4L407.5,931.4L407.5,931.4L407.4,931.4L407.4,931.4L407.4,931.4L407.4,931.4L407.4,931.4L407.4,931.4L407.4,931.4L407.4,931.4L407.4,931.4L407.4,931.4L407.3,931.4L407.3,931.4L407.3,931.4L407.3,931.4L407.3,931.4L407.3,931.4L407.3,931.4L407.3,931.4L407.3,931.4L407.2,931.4L407.2,931.4L407.2,931.4L407.2,931.4L407.2,931.4L407.2,931.4L407.2,931.4L407.2,931.4L407.2,931.4L407.2,931.4L407.2,931.4L407.2,931.4L407.2,931.4L407.1,931.4L407.1,931.4L407.1,931.4L407.1,931.4L407.1,931.4L407.1,931.4L407.1,931.4L407.1,931.4L407.1,931.4L407.1,931.4L407.1,931.4L407.1,931.4L407.0,931.4L407.0,931.4L407.0,931.4L407.0,931.4L407.0,931.4L407.0,931.4L407.0,931.4L407.0,931.4L407.0,931.4L407.0,931.4L407.0,931.4L407.0,931.4L407.0,931.4L406.9,931.4L406.9,931.4L406.9,931.4L406.9,931.4L406.9,931.4L406.9,931.4L406.9,931.4L406.9,931.4L406.9,931.4L406.9,931.4L406.9,931.4L406.9,931.4L406.9,931.4L406.9,931.4L406.9,931.4L406.9,931.4L406.9,931.4L406.9,931.4L406.9,931.4L406.9,931.4L406.9,931.4L406.9,931.4L406.9,931.4L406.8,931.4L406.8,931.4L406.8,931.4L406.8,931.4L406.8,931.4 " data-categoria="0" data-km-inicial="136.5" data-qtd-acidentes="0" data-rodovia="BR-242" stroke="#FEE5D9"/><path d="M340.0,903.1L308.5,879.4L297.2,879.4L289.8,875.0 " data-categoria="0" data-km-inicial="226.6" data-qtd-acidentes="0" data-rodovia="BR-242" stroke="#FEE5D9"/><path d="M360.1,928.6L360.1,928.5L359.9,928.4 " data-categoria="0" data-km-inicial="192.9" data-qtd-acidentes="0" data-rodovia="BR-242" stroke="#FEE5D9"/><path d="M406.8,931.4L401.5,932.7L399.7,933.2L393.6,933.7 " data-categoria="0" data-km-inicial="140.3" data-qtd-acidentes="0" data-rodovia="BR-242" stroke="#FEE5D9"/><path d="M525.5,909.2L528.1,906.9L528.6,906.3L530.9,907.2 " data-categoria="0" data-km-inicial="15.2" data-qtd-acidentes="0" data-rodovia="BR-242" stroke="#FEE5D9"/><path d="M521.7,907.3L523.3,908.9L523.7,909.2L525.5,909.2 " data-categoria="0" data-km-inicial="22.4" data-qtd-acidentes="0" data-rodovia="BR-242" stroke="#FEE5D9"/><path d="M305.7,639.9L307.1,641.3L307.7,641.3 " data-categoria="0" data-km-inicial="423.9" data-qtd-acidentes="0" data-rodovia="TO-020" stroke="#FEE5D9"/><path d="M344.6,605.4L322.1,634.2L323.5,638.7L307.7,641.3 " data-categoria="0" data-km-inicial="426.3" data-qtd-acidentes="0" data-rodovia="TO-020" stroke="#FEE5D9"/><path d="M375.1,821.3L375.9,818.6L376.2,818.3 " data-categoria="0" data-km-inicial="200.8" data-qtd-acidentes="0" data-rodovia="TO-280" stroke="#FEE5D9"/><path d="M319.5,486.8L313.2,485.3L295.6,486.2L282.8,483.4 " data-categoria="0" data-km-inicial="165.2" data-qtd-acidentes="0" data-rodovia="TO-336" stroke="#FEE5D9"/></g><g class="estado" id="estado" stroke-width="1px"><path d="M55.5,961.0L69.0,927.0L75.6,919.4L91.5,910.7L79.0,945.8L77.1,955.5L126.4,982.7L186.6,1016.9L189.8,1014.8L187.2,993.2L208.9,959.2L214.0,958.7L234.0,972.3L249.1,955.9L264.2,971.8L274.1,976.4L281.8,1014.6L292.8,997.3L299.2,1014.4L328.1,997.9L333.0,1014.5L339.0,1012.1L367.8,1025.7L390.5,1038.8L393.7,1031.8L385.4,1020.7L395.4,994.5L406.6,1013.8L464.9,989.3L475.9,988.1L520.9,975.1L542.8,966.8L549.1,974.0L563.5,974.9L572.0,971.1L567.1,961.6L563.7,942.8L567.7,931.5L567.5,916.0L552.4,905.2L548.1,894.2L553.5,875.7L560.5,867.0L580.9,849.6L575.9,843.8L557.7,837.2L557.7,830.6L578.8,818.6L579.9,812.7L571.4,804.8L529.3,790.0L525.5,782.9L527.3,772.5L534.3,766.7L544.4,739.2L559.3,726.8L559.9,705.8L567.1,699.9L604.2,678.4L615.5,661.6L620.2,654.1L606.8,652.6L597.6,652.8L581.7,641.7L549.8,633.2L542.6,627.1L531.2,598.4L512.8,583.3L522.2,569.4L524.6,552.1L496.2,539.0L488.6,514.0L480.2,504.1L466.7,500.6L463.1,494.8L481.7,470.7L488.2,442.2L508.6,424.4L527.6,421.5L532.1,383.0L531.0,370.6L523.9,363.0L512.9,361.1L473.7,369.0L467.6,368.7L447.5,348.6L433.6,326.3L402.0,302.4L408.5,284.8L397.4,285.0L385.9,279.6L382.8,271.4L398.6,263.1L406.4,253.2L416.8,189.2L419.4,165.2L411.7,86.1L402.5,69.6L388.7,60.7L370.5,53.8L354.4,40.9L340.6,42.0L295.4,29.5L259.4,48.9L256.3,50.8L264.4,56.3L304.0,63.1L328.5,83.8L324.6,92.1L312.0,102.9L314.3,113.1L308.6,128.4L310.5,138.4L298.6,152.3L296.6,162.6L285.4,175.4L276.4,181.2L263.3,211.3L233.5,223.9L206.3,237.8L201.4,251.2L201.8,280.9L183.6,307.9L179.9,322.4L184.8,334.0L203.2,352.1L203.4,370.9L193.0,414.6L184.3,428.4L169.5,458.7L157.1,476.7L134.2,490.8L103.9,532.4L99.0,544.3L93.4,578.3L95.6,592.1L91.2,606.6L77.0,630.2L73.0,643.3L54.5,689.4L50.0,708.1L45.0,745.3L29.8,794.1L35.8,817.3L39.6,859.8L39.3,883.7L41.5,908.8L40.3,922.5L46.2,952.9L54.7,962.0L52.4,971.7L55.5,961.0Z " data-estado="Tocantins" data-uf="TO"/></g><g class="vizinho" fill="#E6E6E6" id="vizinhos" stroke-width="1px"><path d="M620.2,654.1L615.5,661.6L604.2,678.4L567.1,699.9L559.9,705.8L559.3,726.8L544.4,739.2L534.3,766.7L527.3,772.5L525.5,782.9L529.3,790.0L571.4,804.8L579.9,812.7L578.8,818.6L557.7,830.6L557.7,837.2L575.9,843.8L580.9,849.6L560.5,867.0L553.5,875.7L548.1,894.2L552.4,905.2L567.5,916.0L567.7,931.5L563.7,942.8L567.1,961.6L572.0,971.1L573.5,975.9L566.0,996.7L566.5,1005.1L575.9,1014.6L576.8,1021.7L562.8,1034.6L556.7,1068.4L650.0,1068.4L650.0,663.4L644.7,659.0L635.1,656.2L630.0,655.9L620.2,654.1Z " data-estado="Bahia" data-uf="BA"/><path d="M572.0,971.1L563.5,974.9L549.1,974.0L542.8,966.8L520.9,975.1L475.9,988.1L464.9,989.3L406.6,1013.8L395.4,994.5L385.4,1020.7L393.7,1031.8L390.5,1038.8L367.8,1025.7L339.0,1012.1L333.0,1014.5L328.1,997.9L299.2,1014.4L292.8,997.3L281.8,1014.6L274.1,976.4L264.2,971.8L249.1,955.9L234.0,972.3L214.0,958.7L208.9,959.2L187.2,993.2L189.8,1014.8L186.6,1016.9L126.4,982.7L77.1,955.5L79.0,945.8L91.5,910.7L75.6,919.4L69.0,927.0L55.5,961.0L52.4,971.7L48.7,979.7L21.9,1062.6L16.7,1068.4L556.7,1068.4L562.8,1034.6L576.8,1021.7L575.9,1014.6L566.5,1005.1L566.0,996.7L573.5,975.9L572.0,971.1Z " data-estado="Goiás" data-uf="GO"/><path d="M256.3,50.8L259.4,48.9L295.4,29.5L340.6,42.0L354.4,40.9L370.5,53.8L388.7,60.7L402.5,69.6L411.7,86.1L419.4,165.2L416.8,189.2L406.4,253.2L398.6,263.1L382.8,271.4L385.9,279.6L397.4,285.0L408.5,284.8L402.0,302.4L433.6,326.3L447.5,348.6L467.6,368.7L473.7,369.0L512.9,361.1L523.9,363.0L531.0,370.6L532.1,383.0L527.6,421.5L508.6,424.4L488.2,442.2L481.7,470.7L463.1,494.8L466.7,500.6L480.2,504.1L488.6,514.0L496.2,539.0L524.6,552.1L522.2,569.4L512.8,583.3L531.2,598.4L542.6,627.1L549.8,633.2L581.7,641.7L597.6,652.8L606.8,652.6L602.4,648.1L609.6,617.5L615.6,554.2L602.3,537.0L594.1,504.5L593.6,492.2L597.2,479.2L622.0,439.2L624.8,427.2L640.4,389.8L650.0,348.7L650.0,0.0L313.3,0.0L297.8,10.9L289.5,17.1L274.0,29.6L256.3,50.8Z " data-estado="Maranhão" data-uf="MA"/><path d="M52.4,971.7L54.7,962.0L46.2,952.9L40.3,922.5L41.5,908.8L39.3,883.7L39.6,859.8L35.8,817.3L29.8,794.1L45.0,745.3L50.0,708.1L54.5,689.4L73.0,643.3L77.0,630.2L91.2,606.6L95.6,592.1L0.0,588.5L0.0,1068.4L16.7,1068.4L21.9,1062.6L48.7,979.7L52.4,971.7Z " data-estado="Mato Grosso" data-uf="MT"/><path d="M95.6,592.1L93.4,578.3L99.0,544.3L103.9,532.4L134.2,490.8L157.1,476.7L169.5,458.7L184.3,428.4L193.0,414.6L203.4,370.9L203.2,352.1L184.8,334.0L179.9,322.4L183.6,307.9L201.8,280.9L201.4,251.2L206.3,237.8L233.5,223.9L263.3,211.3L276.4,181.2L285.4,175.4L296.6,162.6L298.6,152.3L310.5,138.4L308.6,128.4L314.3,113.1L312.0,102.9L324.6,92.1L328.5,83.8L304.0,63.1L264.4,56.3L256.3,50.8L274.0,29.6L289.5,17.1L297.8,10.9L313.3,0.0L0.0,0.0L0.0,588.5L95.6,592.1Z " data-estado="Pará" data-uf="PA"/><path d="M606.8,652.6L620.2,654.1L630.0,655.9L635.1,656.2L644.7,659.0L650.0,663.4L650.0,348.7L640.4,389.8L624.8,427.2L622.0,439.2L597.2,479.2L593.6,492.2L594.1,504.5L602.3,537.0L615.6,554.2L609.6,617.5L602.4,648.1L606.8,652.6Z " data-estado="Piauí" data-uf="PI"/></g></svg>